<?xml version="1.0" encoding="UTF-8" standalone="no"?>
<svg
   xmlns:dc="http://purl.org/dc/elements/1.1/"
   xmlns:cc="http://creativecommons.org/ns#"
   xmlns:rdf="http://www.w3.org/1999/02/22-rdf-syntax-ns#"
   xmlns:svg="http://www.w3.org/2000/svg"
   xmlns="http://www.w3.org/2000/svg"
   xmlns:sodipodi="http://sodipodi.sourceforge.net/DTD/sodipodi-0.dtd"
   xmlns:inkscape="http://www.inkscape.org/namespaces/inkscape"
   width="320"
   height="230"
   viewBox="0 0 84.666664 60.854166"
   version="1.1"
   id="svg646"
   inkscape:version="1.0.2-2 (e86c870879, 2021-01-15)"
   sodipodi:docname="fish10.svg">
  <defs
     id="defs640" />
  <sodipodi:namedview
     id="base"
     pagecolor="#ffffff"
     bordercolor="#666666"
     borderopacity="1.0"
     inkscape:pageopacity="0.0"
     inkscape:pageshadow="2"
     inkscape:zoom="0.35"
     inkscape:cx="400"
     inkscape:cy="560"
     inkscape:document-units="px"
     inkscape:current-layer="layer1"
     inkscape:document-rotation="0"
     showgrid="false"
     units="px"
     inkscape:window-width="1267"
     inkscape:window-height="1032"
     inkscape:window-x="647"
     inkscape:window-y="380"
     inkscape:window-maximized="0" />
  <metadata
     id="metadata643">
    <rdf:RDF>
      <cc:Work
         rdf:about="">
        <dc:format>image/svg+xml</dc:format>
        <dc:type
           rdf:resource="http://purl.org/dc/dcmitype/StillImage" />
        <dc:title></dc:title>
      </cc:Work>
    </rdf:RDF>
  </metadata>
  <g
     inkscape:label="Layer 1"
     inkscape:groupmode="layer"
     id="layer1">
    <path
       d="m 80.844131,49.471716 c -1.79114,1.745249 -4.6599,2.278315 -6.95803,1.292506 -2.04881,-0.878361 -3.47067,-2.736271 -5.11682,-4.238455 -1.64614,-1.502185 -3.94845,-2.734186 -6.03795,-1.958057 -1.63779,0.608175 -2.60691,2.242845 -3.74085,3.572905 -1.23513,1.448981 -2.73732,2.578751 -4.39911,3.461285 -0.13353,0.07094 -0.2681,0.139786 -0.40371,0.207591 -1.8819,0.943041 -3.95471,1.583554 -6.06716,2.023777 -0.10432,0.02191 -0.20863,0.04277 -0.314,0.06364 -1.13081,0.226371 -2.26996,0.395367 -3.39765,0.522636 -0.94929,0.108488 -1.89963,0.195074 -2.8531,0.257666 -1.93511,0.130397 -3.87752,0.168996 -5.81575,0.116836 -2.1041,-0.05633 -4.20508,-0.218027 -6.29144,-0.485081 -1.78072,-0.226372 -3.551,-0.530981 -5.30459,-0.909656 C 20.559586,52.626307 17.043013,51.538264 13.650581,50.145615 10.172606,48.716452 6.6654211,46.83142 4.6479041,43.66014 4.3318191,43.163585 4.0804121,42.653469 3.8884661,42.136049 3.6234971,41.424596 3.4680631,40.695413 3.4044281,39.955794 2.9892411,35.130026 6.4693021,29.842128 8.9927641,26.10127 12.875495,20.348112 18.126881,15.513998 24.223251,12.189371 c 0.23993,-0.130398 0.4809,-0.259753 0.72397,-0.385978 1.52409,-0.79282 3.09512,-1.491753 4.70267,-2.0947127 1.85165,-0.6958036 3.75024,-1.2632956 5.67909,-1.7024756 1.7682,-0.402669 3.56143,-0.695804 5.3651,-0.878361 1.74628,-0.175255 3.50196,-0.247234 5.25556,-0.213853 0.0845,10e-4 0.17004,0.0031 0.25558,0.0052 1.94241,0.04903 3.88064,0.228457 5.79801,0.541412 0.10223,0.01669 0.20447,0.03234 0.3067,0.05007 0.21176,0.03651 0.42249,0.07302 0.63425,0.113707 2.71437,0.504901 5.46212,1.311282 7.6069,3.0502683 2.14479,1.738988 3.56873,4.587923 2.96473,7.282467 -0.5508,2.451482 -2.57145,4.25619 -3.87856,6.402019 -1.30606,2.146872 -1.60963,5.475672 0.57375,6.720189 2.14583,1.222613 4.84872,-0.675983 5.92529,-2.897964 1.07656,-2.223025 1.30189,-4.826811 2.6476,-6.897531 1.83809,-2.833287 5.77715,-4.083022 8.91296,-2.829115 3.13581,1.253907 5.12725,4.874798 4.50551,8.194209 -0.65303,3.490493 -3.79406,6.551193 -3.07113,10.029171 0.45482,2.191728 2.3555,3.791972 3.18484,5.871037 0.9253,2.32317 0.31921,5.17732 -1.47194,6.922566"
       style="fill:#f5080d;fill-opacity:1;fill-rule:nonzero;stroke:none;stroke-width:0.0104318"
       id="path268" />
    <path
       d="m 29.447511,54.310004 c -1.77967,-0.227415 -3.54995,-0.532024 -5.30354,-0.909655 2.79051,-5.231568 5.66031,-13.003289 5.44646,-22.605794 -0.17213,-7.745641 -2.31483,-14.203991 -4.64321,-18.991162 1.52409,-0.79282 3.09512,-1.491753 4.70267,-2.0947127 0.42145,0.8710577 0.8189,1.7556777 1.19131,2.6528157 2.43793,5.867909 3.74608,12.03104 3.88586,18.318308 0.21803,9.792366 -2.44417,17.869739 -5.27955,23.6302"
       style="fill:#d3d106;fill-opacity:1;fill-rule:nonzero;stroke:none;stroke-width:0.0104318"
       id="path270" />
    <path
       d="m 42.071081,53.551608 c -0.16795,0.37659 -0.33904,0.752136 -0.51533,1.125598 -1.93511,0.130397 -3.87752,0.168996 -5.81575,0.116836 3.17858,-5.9764 6.24762,-14.552416 5.82305,-24.969648 -0.36929,-9.0757 -3.24535,-16.478132 -6.23407,-21.8192323 1.7682,-0.401626 3.56143,-0.694761 5.36614,-0.877318 0.33799,0.656163 0.66451,1.320671 0.97851,1.993524 3.04505,6.5178123 4.73501,13.4132573 5.02293,20.4933463 0.33382,8.208814 -1.22262,16.262192 -4.62548,23.936894"
       style="fill:#d3d106;fill-opacity:1;fill-rule:nonzero;stroke:none;stroke-width:0.0104318"
       id="path272" />
    <path
       d="m 57.591571,32.911175 c -0.072,6.385328 -1.20071,12.700764 -3.35697,18.768963 -0.0156,0.04277 -0.0313,0.08658 -0.0469,0.129353 -1.8819,0.943041 -3.95471,1.583554 -6.06716,2.023777 -0.10432,0.02191 -0.20863,0.04277 -0.314,0.06364 2.4567,-5.471501 4.5535,-12.589144 4.64843,-21.04519 0.12205,-11.032713 -3.26204,-19.952978 -6.50529,-25.9377233 0.0845,0.001 0.17004,0.0031 0.25558,0.0052 1.94241,0.04903 3.88064,0.228457 5.79801,0.541412 0.52994,1.127682 1.0265,2.2741406 1.48862,3.4404193 2.80408,7.084262 4.18317,14.489824 4.09972,22.010136"
       style="fill:#d3d106;fill-opacity:1;fill-rule:nonzero;stroke:none;stroke-width:0.0104318"
       id="path274" />
    <path
       d="m 25.652411,31.625973 c 1.71708,-2.474433 3.63967,-5.105343 6.51155,-6.011869 1.2393,-0.391194 2.73732,-0.366158 3.67305,0.536196 1.12768,1.088041 0.97747,2.935519 0.4976,4.428316 -0.47986,1.492796 -1.21322,3.000197 -0.97433,4.550366 0.1377,0.891922 0.5894,1.70039 0.90861,2.545369 0.31817,0.844979 0.4976,1.821399 0.0949,2.630911 -0.34216,0.687456 -1.063,1.133939 -1.81618,1.287289 -0.75318,0.153347 -1.53661,0.04798 -2.28249,-0.141874 -2.90944,-0.740659 -5.45481,-2.803035 -6.78069,-5.496535 l 0.16795,-4.328169"
       style="fill:#a1b40a;fill-opacity:1;fill-rule:nonzero;stroke:none;stroke-width:0.0104318"
       id="path276" />
    <path
       d="m 33.786111,41.666616 c -0.008,0 -0.0177,0 -0.0261,0 v 0 c 0.009,0 0.0177,0 0.0271,0 0.0448,0 0.0907,-0.0012 0.13561,-0.0021 -0.0449,0.0012 -0.0908,0.0021 -0.13666,0.0021"
       style="fill:#078ce4;fill-opacity:1;fill-rule:nonzero;stroke:none;stroke-width:0.0104318"
       id="path278" />
    <path
       d="m 33.760031,41.666616 c -0.50177,-0.0031 -1.00667,-0.0918 -1.49488,-0.215939 -0.7803,-0.199249 -1.53557,-0.492382 -2.24806,-0.868972 0.71249,0.37659 1.46776,0.669723 2.24806,0.868972 0.48821,0.124138 0.99311,0.212811 1.49488,0.215939 v 0"
       style="fill:#78c5e8;fill-opacity:1;fill-rule:nonzero;stroke:none;stroke-width:0.0104318"
       id="path280" />
    <path
       d="m 36.486921,39.999608 c 0,-0.0012 10e-4,-0.0012 10e-4,-0.0021 0,0.0012 -10e-4,0.0012 -10e-4,0.0021 m 0.003,-0.0083 c 0,-0.0012 0,-0.0021 10e-4,-0.0031 -10e-4,0.0012 -10e-4,0.0021 -10e-4,0.0031 m 0.002,-0.0083 c 0.001,-0.0021 0.001,-0.0042 0.002,-0.0063 -10e-4,0.0021 -10e-4,0.0042 -0.002,0.0063 m 0.003,-0.0083 c 0.10223,-0.34112 0.121,-0.703105 0.0834,-1.066134 0.0375,0.363029 0.0188,0.725014 -0.0834,1.066134 m 0.0834,-1.066134 c -0.001,-0.0031 -0.001,-0.0063 -0.001,-0.0094 0,0.0031 0,0.0063 0.001,0.0094 m -0.002,-0.01251 c 0,-0.0021 0,-0.0031 0,-0.0052 0,0.0021 0,0.0031 0,0.0052 m -9.61085,-0.728142 c -0.58627,-0.670767 -1.08804,-1.414556 -1.48132,-2.213635 l 0.0563,-1.44794 -0.0563,1.44794 c 0.39328,0.799079 0.89505,1.542868 1.48132,2.213635"
       style="fill:#078ce4;fill-opacity:1;fill-rule:nonzero;stroke:none;stroke-width:0.0104318"
       id="path282" />
    <path
       d="m 33.787161,41.666616 c -0.009,0 -0.0177,0 -0.0271,0 -0.50177,-0.0031 -1.00667,-0.0918 -1.49488,-0.215939 -0.7803,-0.199249 -1.53557,-0.492382 -2.24806,-0.868972 -1.15272,-0.609219 -2.19277,-1.432292 -3.05131,-2.413928 -0.58627,-0.670767 -1.08805,-1.414555 -1.48133,-2.213635 l 0.0563,-1.44794 0.0229,-0.57688 c 1.34675,2.616306 3.84935,4.614001 6.70142,5.340059 0.49655,0.126225 1.01084,0.215939 1.52096,0.215939 0.25558,0 0.51012,-0.02191 0.76152,-0.07407 0.75318,-0.153347 1.47402,-0.598786 1.81619,-1.287287 0.0125,-0.02398 0.024,-0.04694 0.0334,-0.07198 0.0845,0.274355 0.14813,0.557059 0.17942,0.838718 0,0.0021 0,0.0031 0,0.0052 0,0.0012 10e-4,0.0021 10e-4,0.0031 0,0.0031 0,0.0063 0.001,0.0094 0,0 0,0 0,0 0.0376,0.363029 0.0188,0.725014 -0.0834,1.066134 -10e-4,0 -10e-4,0.0012 -10e-4,0.0021 -10e-4,0.0021 -10e-4,0.0042 -0.002,0.0063 0,0.0021 -10e-4,0.0031 -10e-4,0.0052 -10e-4,0.0012 -10e-4,0.0021 -10e-4,0.0031 -0.001,0.0021 -0.002,0.0042 -0.002,0.0063 0,0.0012 -10e-4,0.0012 -10e-4,0.0021 -0.0323,0.104319 -0.073,0.205506 -0.12309,0.305653 -0.34217,0.687456 -1.06301,1.133939 -1.81618,1.287289 -0.20655,0.04173 -0.41519,0.06468 -0.62487,0.07198 -0.0449,0.0012 -0.0908,0.0021 -0.13562,0.0021"
       style="fill:#818f09;fill-opacity:1;fill-rule:nonzero;stroke:none;stroke-width:0.0104318"
       id="path284" />
    <path
       d="m 19.045925,34.36746 c -0.609218,2.726882 -3.367395,4.448134 -6.159998,3.845176 -2.793646,-0.602962 -4.5639299,-3.302722 -3.9547109,-6.029604 0.608175,-2.726882 3.3663549,-4.448136 6.1600009,-3.845175 2.792603,0.60296 4.56393,3.302721 3.954708,6.029603"
       style="fill:#ffffff;fill-opacity:1;fill-rule:nonzero;stroke:none;stroke-width:0.0104318"
       id="path286" />
    <path
       d="m 17.375789,34.040942 c -0.413101,1.848521 -2.282487,3.015845 -4.175864,2.606917 -1.893379,-0.408928 -3.094083,-2.238672 -2.680982,-4.087193 0.413101,-1.848524 2.282487,-3.015846 4.175863,-2.606918 1.89338,0.408929 3.094083,2.238673 2.680983,4.087194"
       style="fill:#262626;fill-opacity:1;fill-rule:nonzero;stroke:none;stroke-width:0.0104318"
       id="path288" />
    <path
       d="m 17.895296,32.179904 c -0.192989,0.861668 -1.065093,1.40621 -1.947627,1.215308 -0.882533,-0.190904 -1.442721,-1.044228 -1.249731,-1.905896 0.191945,-0.861672 1.064046,-1.406213 1.94658,-1.215309 0.883577,0.190902 1.442724,1.044225 1.250778,1.905897"
       style="fill:#ffffff;fill-opacity:1;fill-rule:nonzero;stroke:none;stroke-width:0.0104318"
       id="path290" />
    <path
       d="m 23.48363,24.000298 c 0.291051,0.276444 0.557061,0.577924 0.806381,0.892966 0.12831,0.155434 0.2441,0.319214 0.36303,0.48195 0.0615,0.08137 0.11475,0.165867 0.17108,0.250365 0.0553,0.08345 0.11267,0.167952 0.16691,0.25245 0.0532,0.08554 0.10432,0.173169 0.15648,0.259753 0.0522,0.08763 0.10536,0.174212 0.1523,0.262882 0.0501,0.08867 0.097,0.177341 0.14501,0.267055 l 0.072,0.134571 0.0668,0.136657 c 0.0887,0.182557 0.18151,0.365114 0.25871,0.552887 l 0.11892,0.28166 c 0.0198,0.04799 0.0407,0.09389 0.0595,0.141873 l 0.0522,0.143959 c 0.28896,0.763611 0.51116,1.558517 0.64469,2.370113 0.009,0.05007 0.0198,0.10119 0.0271,0.151262 l 0.0209,0.15335 0.0407,0.30565 c 0.0125,0.102235 0.0271,0.204466 0.0365,0.306697 l 0.023,0.307741 c 0.0323,0.411013 0.048,0.82307 0.0365,1.23513 -0.0313,1.649271 -0.37868,3.291242 -1.01919,4.79343 -0.15961,0.376587 -0.33486,0.743788 -0.53203,1.100557 -0.0981,0.17734 -0.19716,0.354684 -0.30356,0.526808 -0.10641,0.172125 -0.2149,0.343208 -0.32965,0.510116 -0.22846,0.332775 -0.47048,0.655121 -0.73336,0.960774 -0.26184,0.30461 -0.538282,0.595658 -0.839763,0.861669 0.161695,-0.368245 0.321302,-0.728143 0.47152,-1.089084 0.150223,-0.361985 0.294173,-0.721882 0.425623,-1.084911 0.0668,-0.18047 0.13248,-0.360942 0.19298,-0.543499 0.0615,-0.181512 0.1231,-0.361985 0.17943,-0.544541 0.11371,-0.364073 0.21907,-0.728143 0.314,-1.094301 0.0928,-0.365113 0.18047,-0.731271 0.25349,-1.099516 0.073,-0.367201 0.13771,-0.735443 0.18987,-1.104732 0.0146,-0.09284 0.024,-0.185686 0.0365,-0.277485 0.0125,-0.09284 0.025,-0.184644 0.0334,-0.277487 l 0.0302,-0.277487 0.024,-0.277487 0.0115,-0.139786 0.009,-0.138745 0.0167,-0.278528 0.0115,-0.278531 0.005,-0.138746 0.002,-0.139786 0.005,-0.278528 -0.002,-0.278531 c 0.003,-0.185688 -0.0125,-0.371373 -0.0167,-0.558103 l -0.009,-0.278531 c -0.005,-0.09284 -0.0146,-0.185685 -0.0208,-0.278531 l -0.0209,-0.278528 -0.0104,-0.139789 c -0.003,-0.0459 -0.009,-0.0918 -0.0146,-0.138742 -0.0219,-0.184644 -0.0417,-0.37033 -0.0626,-0.556017 -0.0282,-0.184643 -0.0542,-0.37033 -0.0814,-0.556017 -0.0282,-0.184643 -0.0668,-0.368244 -0.097,-0.55393 -0.008,-0.04694 -0.0156,-0.09389 -0.025,-0.139787 l -0.0303,-0.1377 -0.0584,-0.276444 -0.0282,-0.138743 -0.0334,-0.137701 -0.0668,-0.276444 c -0.0208,-0.0918 -0.0428,-0.184643 -0.0688,-0.2754 -0.0261,-0.0918 -0.049,-0.184644 -0.0741,-0.276444 -0.10014,-0.3672 -0.21176,-0.733358 -0.33069,-1.100559 -0.23993,-0.733358 -0.52263,-1.459414 -0.822026,-2.203204"
       style="fill:#a9060b;fill-opacity:1;fill-rule:nonzero;stroke:none;stroke-width:0.0104318"
       id="path292" />
    <path
       d="m 37.408051,54.816992 c -0.55602,0 -1.11204,-0.0083 -1.66805,-0.02295 -2.1041,-0.05633 -4.20508,-0.218027 -6.29249,-0.484038 -1.77967,-0.227415 -3.54995,-0.532024 -5.30354,-0.909655 -3.584385,-0.774042 -7.100958,-1.862085 -10.49339,-3.254734 -2.045686,-0.840807 -4.1018009,-1.839133 -5.8585209,-3.163977 1.75672,1.324844 3.8128349,2.32317 5.8585209,3.163977 3.392432,1.392649 6.909005,2.480692 10.49339,3.25369 0,0.0012 0,0.0012 0,0.0012 1.75359,0.377631 3.52387,0.68224 5.30354,0.909655 v 0 c 0.001,-0.0012 0.001,-0.0012 0.001,-0.0012 2.08637,0.267054 4.18734,0.428749 6.29145,0.485081 0,0 0,0 0,0 0.55601,0.01461 1.11203,0.02295 1.66805,0.02295 0.56749,0 1.13602,-0.0083 1.70351,-0.02398 v 0 c -0.56749,0.01564 -1.13602,0.02398 -1.70351,0.02398 m 5.32858,-0.2295 c 0.5581,-0.04799 1.11621,-0.104319 1.67222,-0.167952 0.15857,-0.01774 0.31713,-0.03651 0.4757,-0.05633 -0.15857,0.01981 -0.31713,0.0386 -0.4757,0.05737 -0.55601,0.06259 -1.11412,0.118924 -1.67222,0.166911 m 3.8337,-0.466304 c 0.4131,-0.06781 0.82516,-0.141874 1.23617,-0.224284 v 0 0 c 0.10536,-0.02088 0.20968,-0.04173 0.314,-0.06364 2.11245,-0.440223 4.18525,-1.080736 6.06716,-2.023777 v 0 c 0.13561,-0.06781 0.27018,-0.136654 0.40371,-0.207591 0.68746,-0.365117 1.34675,-0.771958 1.97162,-1.226785 -0.62487,0.454827 -1.28416,0.861668 -1.97162,1.226785 -1.98831,1.056745 -4.20507,1.75985 -6.47087,2.231368 -0.51533,0.10745 -1.03171,0.203422 -1.55017,0.28792 m 33.10652,-3.763801 c 0.42249,-0.247236 0.81577,-0.543498 1.16732,-0.885665 0.19508,-0.190901 0.37764,-0.395364 0.54455,-0.610262 -0.16691,0.214898 -0.34843,0.419361 -0.54455,0.610262 -0.35155,0.343208 -0.74483,0.638429 -1.16732,0.885665 m 1.71187,-1.496968 c 0.002,-0.0031 0.005,-0.0063 0.007,-0.0094 -0.002,0.0031 -0.004,0.0063 -0.007,0.0094 m 0.0104,-0.01251 c 0.001,-0.0021 0.003,-0.0042 0.005,-0.0063 -0.002,0.0021 -0.004,0.0042 -0.005,0.0063 m 0.009,-0.01251 c 0.001,-0.0012 0.002,-0.0031 0.003,-0.0042 -10e-4,0.0012 -0.002,0.0031 -0.003,0.0042 m -11.46627,-1.17045 c -0.38598,-0.388063 -0.773,-0.774042 -1.17358,-1.139156 -1.29563,-1.181926 -2.99811,-2.196945 -4.68285,-2.196945 -0.45587,0 -0.90966,0.07407 -1.35406,0.238889 -0.82098,0.304609 -1.47401,0.866885 -2.06341,1.519918 0.5894,-0.653033 1.24243,-1.215309 2.06341,-1.519918 0.4444,-0.164823 0.89819,-0.238889 1.35406,-0.238889 1.68578,0 3.38722,1.015019 4.68389,2.196945 0.39954,0.365114 0.78656,0.751093 1.17254,1.139156 M 5.2957211,44.573971 c -0.229501,-0.293136 -0.446483,-0.596702 -0.647817,-0.913831 -10e-4,-0.0021 -0.0021,-0.0031 -0.0021,-0.0042 0,0.0012 10e-4,0.0031 0.0021,0.0042 0.201334,0.317129 0.418316,0.621738 0.647817,0.913831"
       style="fill:#ededed;fill-opacity:1;fill-rule:nonzero;stroke:none;stroke-width:0.0104318"
       id="path294" />
    <path
       d="m 35.740001,54.794042 c -2.1041,-0.05633 -4.20508,-0.218027 -6.29144,-0.485081 v 0 c 0.60921,-1.239303 1.21113,-2.586053 1.77862,-4.033993 1.4396,0.109535 2.94178,0.195077 4.51282,0.254538 0.57271,0.02088 1.14645,0.03129 1.72021,0.03129 0.0981,0 0.19507,0 0.29209,-0.0012 -0.6426,1.528263 -1.32485,2.941777 -2.0123,4.234283 m 3.37157,-0.0012 c 0.81577,-0.02191 1.63049,-0.0605 2.44418,-0.115792 0.17629,-0.373462 0.34738,-0.749008 0.51533,-1.125598 0.48299,-1.089084 0.92843,-2.186512 1.33736,-3.291245 0.33382,-0.03234 0.66764,-0.06781 1.00041,-0.10536 1.232,-0.139786 2.47861,-0.328603 3.71165,-0.586269 0.51325,-0.107447 1.02441,-0.226371 1.53139,-0.357812 -0.56957,1.673268 -1.19444,3.237001 -1.84539,4.685982 v 0 c -0.41101,0.08241 -0.82307,0.156478 -1.23617,0.224284 -0.56228,0.09284 -1.1256,0.173168 -1.68578,0.24202 -0.15857,0.01981 -0.31713,0.0386 -0.4757,0.05633 -0.55601,0.06363 -1.11412,0.119965 -1.67222,0.167952 -0.39328,0.03338 -0.78656,0.06363 -1.18088,0.08971 -0.81369,0.05529 -1.62841,0.09389 -2.44418,0.115792 v 0 M 24.143971,53.39898 C 20.559586,52.626026 17.043013,51.537983 13.650581,50.145334 11.604895,49.304527 9.5487801,48.306201 7.7920601,46.981357 6.8604961,46.279293 6.0134311,45.484389 5.2957211,44.57369 c -0.229501,-0.292093 -0.446483,-0.596702 -0.647817,-0.913831 -10e-4,-0.0012 -0.0021,-0.0031 -0.0021,-0.0042 -0.0094,-0.01564 -0.0083,-0.02295 0.0042,-0.02295 0.291049,0 6.6064829,4.220722 21.2506969,6.100541 -0.56958,1.332145 -1.16523,2.556842 -1.75672,3.666791 m 30.04369,-1.590858 c 0.0157,-0.04277 0.0313,-0.08658 0.047,-0.129353 0.5894,-1.659704 1.10264,-3.338189 1.53765,-5.031275 1.19445,-0.762569 2.28249,-1.676397 3.21822,-2.773825 1.13395,-1.329017 2.10306,-2.96473 3.74086,-3.572905 0.4444,-0.164823 0.89818,-0.238892 1.35406,-0.238892 1.68474,0 3.38721,1.015019 4.68285,2.197989 1.64719,1.502185 3.07009,3.360097 5.11786,4.238455 0.77195,0.330691 1.60859,0.490298 2.44626,0.490298 1.65762,0 3.3215,-0.623823 4.51177,-1.7828 0.70311,-0.686416 1.2247,-1.543912 1.54079,-2.472348 0.72709,2.018561 0.3286,4.397022 -0.9733,6.096368 -0.001,0.0012 -0.002,0.0031 -0.003,0.0042 -0.001,0.0021 -0.003,0.0042 -0.004,0.0063 -0.002,0.0021 -0.004,0.0042 -0.005,0.0063 -0.001,0.0012 -0.002,0.0021 -0.003,0.0031 -0.002,0.0031 -0.005,0.0063 -0.007,0.0094 0,0.0012 0,0.0012 0,0.0012 -0.16691,0.214898 -0.34947,0.41936 -0.54454,0.610262 -0.35156,0.342167 -0.74484,0.638429 -1.16733,0.885665 -1.00563,0.587313 -2.17712,0.897138 -3.34444,0.897138 -0.83768,0 -1.67431,-0.159607 -2.44627,-0.490297 -1.55017,-0.664507 -2.74253,-1.891292 -3.94428,-3.0993 -0.38598,-0.388063 -0.773,-0.774042 -1.17254,-1.139156 -1.29668,-1.181926 -2.99811,-2.196944 -4.68389,-2.196944 -0.45587,0 -0.90966,0.07407 -1.35406,0.238888 -0.82098,0.30461 -1.47402,0.866885 -2.06341,1.519918 -0.58732,0.649905 -1.11204,1.389521 -1.67745,2.052987 -0.72501,0.849151 -1.54078,1.589811 -2.42748,2.2345 -0.62487,0.454827 -1.28416,0.861668 -1.97162,1.226785 -0.13353,0.07094 -0.2681,0.139786 -0.40371,0.207591"
       style="fill:#a9060b;fill-opacity:1;fill-rule:nonzero;stroke:none;stroke-width:0.0104318"
       id="path296" />
    <path
       d="m 29.447511,54.310004 c -1.77967,-0.227415 -3.54995,-0.532024 -5.30354,-0.909655 v 0 c 0.59148,-1.109949 1.18714,-2.334646 1.75672,-3.666791 1.66596,0.213851 3.44146,0.397452 5.32649,0.54141 -0.56749,1.44794 -1.16941,2.79469 -1.77967,4.035036 v 0"
       style="fill:#aeac05;fill-opacity:1;fill-rule:nonzero;stroke:none;stroke-width:0.0104318"
       id="path298" />
    <path
       d="m 37.408051,54.816992 c -0.55602,0 -1.11204,-0.0083 -1.66805,-0.02295 v 0 c 0.68745,-1.292506 1.3697,-2.70602 2.0123,-4.234283 1.26851,-0.0073 2.53806,-0.06155 3.80345,-0.14709 0.6186,-0.04068 1.23617,-0.0918 1.85269,-0.152306 -0.40893,1.104733 -0.85437,2.202161 -1.33736,3.291245 -0.16795,0.37659 -0.33904,0.752136 -0.51533,1.125598 -0.81369,0.05529 -1.62841,0.09389 -2.44418,0.115792 -0.5675,0.01564 -1.13603,0.02398 -1.70352,0.02398"
       style="fill:#aeac05;fill-opacity:1;fill-rule:nonzero;stroke:none;stroke-width:0.0104318"
       id="path300" />
    <path
       d="m 47.806501,53.896904 v 0 c 0.65095,-1.448982 1.27582,-3.012714 1.84539,-4.685982 1.72752,-0.4517 3.40287,-1.056746 4.93948,-1.873559 0.40371,-0.214895 0.79804,-0.443354 1.18089,-0.6885 -0.43501,1.693086 -0.94826,3.371571 -1.53766,5.031275 -0.0156,0.04277 -0.0313,0.08658 -0.0469,0.129353 v 0 c -1.8819,0.943041 -3.95471,1.583554 -6.06716,2.023777 -0.10432,0.02191 -0.20863,0.04277 -0.314,0.06364"
       style="fill:#aeac05;fill-opacity:1;fill-rule:nonzero;stroke:none;stroke-width:0.0104318"
       id="path302" />
    <path
       d="m 9.8648661,40.24267 c -0.328603,0.762568 -0.872102,1.404125 -1.569992,1.853737 -0.672853,0.433966 -1.443766,0.661381 -2.235543,0.661381 -0.0313,0 -0.06155,0 -0.09389,-0.0012 -0.747963,-0.01668 -1.461501,-0.238889 -2.076979,-0.621739 -0.264969,-0.710409 -0.420403,-1.439592 -0.484038,-2.179211 0.498642,0.97642 1.49384,1.612763 2.58814,1.637798 1.196531,0.02608 2.325256,-0.701018 2.805121,-1.81201 0.128311,-0.295221 0.470476,-0.430835 0.765696,-0.302522 0.29418,0.127269 0.429793,0.469433 0.301481,0.76361"
       style="fill:#262626;fill-opacity:1;fill-rule:nonzero;stroke:none;stroke-width:0.0104318"
       id="path304" />
    <path
       d="m 70.270431,27.168448 c -0.10954,0 -0.21594,-0.01669 -0.31609,-0.05216 -0.14396,-0.05007 -0.27019,-0.136657 -0.37659,-0.262882 -0.0522,-0.06259 -0.10119,-0.134571 -0.14396,-0.216982 -0.0209,-0.04068 -0.0417,-0.0845 -0.0605,-0.130398 -0.0178,-0.0459 -0.0334,-0.09284 -0.048,-0.142916 -0.0292,-0.100146 -0.0522,-0.208637 -0.0699,-0.32756 -0.0156,-0.116837 -0.0209,-0.242019 -0.0219,-0.375546 -0.002,-0.135614 0.0115,-0.273314 0.0282,-0.421447 0.0156,-0.149175 0.0469,-0.300437 0.0845,-0.460044 0.0344,-0.161693 0.0887,-0.322343 0.14501,-0.491339 0.0271,-0.08554 0.0626,-0.167953 0.097,-0.254537 0.0355,-0.0845 0.072,-0.172125 0.11267,-0.25871 0.0428,-0.08658 0.0866,-0.173168 0.13248,-0.260796 0.0229,-0.04381 0.0459,-0.08867 0.0709,-0.132484 0.0261,-0.04381 0.0522,-0.08763 0.0782,-0.131441 0.0532,-0.08763 0.1064,-0.176298 0.16482,-0.264969 0.0595,-0.08658 0.12205,-0.174212 0.18569,-0.261839 0.0615,-0.08971 0.13248,-0.173168 0.20237,-0.259753 0.0709,-0.08658 0.14188,-0.174211 0.22012,-0.257666 0.0772,-0.08346 0.15647,-0.167953 0.23784,-0.252451 0.0835,-0.08137 0.17004,-0.161693 0.25767,-0.243062 0.35364,-0.319214 0.75422,-0.617564 1.19444,-0.87836 0.44231,-0.256623 0.89819,-0.460044 1.34988,-0.612349 0.11371,-0.03755 0.22638,-0.07198 0.338,-0.106405 0.11266,-0.02921 0.22532,-0.05738 0.3359,-0.08346 0.11058,-0.02817 0.2222,-0.04694 0.33173,-0.06676 0.11058,-0.01878 0.21803,-0.0386 0.32652,-0.05007 0.10745,-0.01252 0.2149,-0.02295 0.31921,-0.03338 0.10537,-0.0073 0.20968,-0.01043 0.31192,-0.01461 0.0511,-0.001 0.10223,-0.0021 0.1523,-0.0042 0.004,0 0.007,0 0.0115,0 0.0459,0 0.0928,0.0021 0.13875,0.0031 0.0991,0.0031 0.19716,0.0073 0.29209,0.01252 0.096,0.0063 0.18986,0.01773 0.28166,0.02817 0.0918,0.01147 0.18151,0.02086 0.26914,0.03964 0.17525,0.03338 0.34216,0.06468 0.49968,0.112664 0.15648,0.0459 0.30461,0.09284 0.44231,0.151262 0.13771,0.05842 0.26497,0.113707 0.38181,0.181514 0.11579,0.06676 0.2222,0.132484 0.31713,0.203421 0.0949,0.07302 0.17838,0.146045 0.25141,0.221155 0.0365,0.03755 0.0699,0.07407 0.10118,0.11162 0.0303,0.0386 0.0584,0.07824 0.0835,0.116837 0.0511,0.0772 0.0908,0.154391 0.11997,0.231587 0.0574,0.154391 0.072,0.306696 0.0449,0.456914 -0.0261,0.149175 -0.0918,0.290005 -0.18673,0.420403 -0.0469,0.06572 -0.10223,0.128312 -0.16273,0.188816 -0.0303,0.03025 -0.0626,0.0605 -0.096,0.08867 -0.0334,0.03025 -0.0688,0.0605 -0.10536,0.08971 -0.073,0.05842 -0.15126,0.11475 -0.23367,0.168996 -0.0824,0.05529 -0.17004,0.112664 -0.2608,0.164823 -0.0918,0.05112 -0.18673,0.109534 -0.28479,0.161693 -0.0991,0.05007 -0.20029,0.107448 -0.30565,0.159607 -0.10432,0.05007 -0.21177,0.109535 -0.3213,0.160651 -0.0553,0.02504 -0.11058,0.05633 -0.16691,0.08345 -0.0553,0.02608 -0.11162,0.0532 -0.169,0.08137 -0.0574,0.02921 -0.11475,0.05738 -0.17212,0.08554 -0.0292,0.01356 -0.0584,0.02712 -0.0876,0.04068 -0.0292,0.0146 -0.0574,0.03025 -0.0876,0.04486 -0.0584,0.02817 -0.11683,0.05633 -0.17734,0.08554 -0.0584,0.0313 -0.11788,0.06155 -0.17838,0.09076 -0.0605,0.02712 -0.11997,0.06155 -0.18047,0.09076 -0.0605,0.0313 -0.12206,0.05842 -0.18256,0.09284 -0.0605,0.03234 -0.12101,0.06363 -0.1836,0.09389 -0.0605,0.03443 -0.12205,0.06676 -0.1836,0.0991 -0.24619,0.132485 -0.49447,0.270185 -0.74484,0.414144 -0.24723,0.147089 -0.48925,0.297308 -0.72501,0.446483 -0.0584,0.0386 -0.11683,0.07615 -0.1763,0.112664 -0.0563,0.0386 -0.1137,0.07719 -0.17108,0.11475 -0.0595,0.03547 -0.1137,0.07615 -0.17004,0.112664 -0.0563,0.0386 -0.11475,0.07407 -0.16795,0.113707 -0.0553,0.03756 -0.11058,0.07511 -0.16587,0.111621 -0.0542,0.03755 -0.10849,0.07511 -0.16169,0.112663 -0.0271,0.01878 -0.0542,0.03651 -0.0814,0.05425 -0.0271,0.01878 -0.0532,0.03755 -0.0793,0.05633 -0.0522,0.03651 -0.10536,0.07302 -0.15856,0.108491 -0.0522,0.03651 -0.10328,0.07198 -0.15335,0.107448 -0.0511,0.03651 -0.10536,0.06885 -0.15335,0.105361 -0.0991,0.07094 -0.20342,0.134571 -0.29835,0.201335 -0.096,0.06572 -0.19716,0.127268 -0.28896,0.187773 -0.0928,0.0605 -0.1909,0.115794 -0.27957,0.170039 -0.0897,0.05425 -0.18256,0.102232 -0.27123,0.147089 -0.0876,0.0459 -0.17526,0.08658 -0.26184,0.122052 -0.0428,0.01669 -0.0866,0.03338 -0.12936,0.04799 -0.0417,0.01461 -0.0824,0.02817 -0.12414,0.03964 -0.0824,0.02399 -0.16378,0.04068 -0.2441,0.05007 -0.048,0.0063 -0.096,0.0094 -0.14292,0.0094"
       style="fill:#f83e43;fill-opacity:1;fill-rule:nonzero;stroke:none;stroke-width:0.0104318"
       id="path306" />
    <path
       d="m 26.225121,18.081273 c -0.14292,0 -0.27123,-0.0083 -0.38598,-0.02817 -0.25663,-0.04486 -0.44023,-0.141873 -0.53724,-0.297307 -0.096,-0.154391 -0.10119,-0.360942 -0.0198,-0.612349 0.0407,-0.126225 0.10327,-0.263926 0.18673,-0.412058 0.0855,-0.146045 0.19194,-0.302523 0.31817,-0.469432 0.19716,-0.25558 0.44544,-0.533067 0.74274,-0.824116 0.31087,0.804295 0.60923,1.641972 0.8888,2.510944 -0.21177,0.03964 -0.40893,0.07094 -0.59357,0.09284 -0.19821,0.02504 -0.38076,0.0386 -0.54559,0.03964 -0.0188,0 -0.0365,0 -0.0542,0 m 6.18504,-1.414557 c -0.44961,-1.429162 -0.9639,-2.843719 -1.54287,-4.241586 0.58001,-0.300436 1.20071,-0.592528 1.85583,-0.871058 0.10953,-0.04694 0.21907,-0.09389 0.32964,-0.139787 0.11267,-0.04381 0.22429,-0.08763 0.338,-0.131441 0.22637,-0.08763 0.45691,-0.175254 0.68954,-0.262882 0.23472,-0.08241 0.47256,-0.162737 0.71249,-0.243062 0.12101,-0.03964 0.24202,-0.08032 0.36408,-0.121009 0.121,-0.04068 0.24514,-0.07407 0.36928,-0.111621 0.24828,-0.07198 0.49864,-0.145003 0.75109,-0.218025 0.0803,-0.02295 0.16066,-0.04381 0.24098,-0.06363 0.74692,1.508444 1.46567,3.148329 2.11558,4.91444 -0.0271,0.0063 -0.0542,0.01147 -0.0824,0.01773 -0.11476,0.02399 -0.2295,0.04799 -0.34426,0.07198 -0.11474,0.02399 -0.2295,0.04694 -0.3432,0.06989 -0.11371,0.02399 -0.22742,0.04381 -0.34008,0.07094 -0.22429,0.05112 -0.44753,0.100145 -0.66973,0.149175 -0.11057,0.02399 -0.22219,0.04486 -0.33173,0.07198 -0.10953,0.02608 -0.21802,0.05216 -0.32651,0.07824 -0.21803,0.05007 -0.43292,0.100146 -0.64678,0.149176 -0.21176,0.05425 -0.42249,0.106404 -0.63112,0.15752 -0.10432,0.02504 -0.2076,0.05007 -0.31087,0.07511 -0.10328,0.02608 -0.20551,0.0532 -0.3067,0.07928 -0.65616,0.168995 -1.28729,0.335905 -1.89025,0.498642 m 11.38218,-2.33256 c -0.58105,-1.673267 -1.24765,-3.32567 -1.99874,-4.9551223 0.006,0 0.0136,-10e-4 0.0198,-10e-4 0.25871,-0.01773 0.51429,-0.03755 0.76778,-0.04903 0.2535,-0.0083 0.50386,-0.01565 0.75318,-0.02399 0.11893,-0.0021 0.23681,-0.0063 0.35469,-0.0063 0.005,0 0.0104,0 0.0156,0 0.12309,0 0.24515,0.001 0.3672,0.0021 0.24306,0.0021 0.48299,0.0052 0.7198,0.01148 0.87314,0.0313 1.70247,0.101189 2.4786,0.2023776 0.62278,1.3112817 1.232,2.7268817 1.80054,4.2426277 -1.2101,0.123096 -2.59336,0.25558 -4.09554,0.427705 -0.20864,0.02608 -0.41936,0.0532 -0.63217,0.07928 -0.10641,0.01252 -0.21385,0.02608 -0.3213,0.0386 -0.0762,0.0083 -0.15335,0.01982 -0.22951,0.0313"
       style="fill:#f83e43;fill-opacity:1;fill-rule:nonzero;stroke:none;stroke-width:0.0104318"
       id="path308" />
    <path
       d="m 27.418521,17.948789 c -0.27957,-0.868972 -0.57793,-1.706649 -0.88879,-2.510944 0.47256,-0.46213 1.0703,-0.960772 1.78801,-1.469846 0.72919,-0.519505 1.5846,-1.04214 2.54955,-1.542869 0.57896,1.397867 1.09325,2.812424 1.54286,4.241586 -0.89087,0.239932 -1.71916,0.46839 -2.4713,0.67494 -0.97016,0.261839 -1.81931,0.477778 -2.52033,0.607133"
       style="fill:#f0ee07;fill-opacity:1;fill-rule:nonzero;stroke:none;stroke-width:0.0104318"
       id="path310" />
    <path
       d="m 38.633791,15.17705 c -0.6499,-1.766111 -1.36866,-3.405996 -2.11558,-4.91444 0.048,-0.01252 0.0949,-0.02399 0.14292,-0.03651 0.12831,-0.0313 0.25767,-0.06363 0.38806,-0.09493 0.12936,-0.0313 0.25975,-0.06363 0.39015,-0.09493 0.0657,-0.01565 0.13144,-0.0313 0.19717,-0.0459 0.0668,-0.01356 0.13248,-0.02712 0.19924,-0.04173 0.26602,-0.05216 0.53307,-0.106405 0.80221,-0.159607 0.26914,-0.05633 0.53933,-0.09389 0.80638,-0.136657 0.13457,-0.02087 0.2681,-0.04173 0.40058,-0.06155 0.13353,-0.01982 0.26602,-0.04173 0.3985,-0.05529 0.52472,-0.0605 1.04006,-0.1251816 1.55017,-0.1564766 0.75109,1.6294526 1.41769,3.2818556 1.99874,4.9551226 -0.0313,0.0042 -0.0626,0.0083 -0.0949,0.01252 -0.21698,0.03025 -0.43605,0.05946 -0.6572,0.08763 -0.22116,0.03025 -0.44336,0.06676 -0.66764,0.09806 -0.45066,0.05946 -0.90444,0.143959 -1.36762,0.21281 -0.11579,0.01565 -0.23054,0.03964 -0.34738,0.05946 -0.11579,0.02086 -0.23262,0.04173 -0.34946,0.06155 -0.23263,0.04277 -0.46943,0.07719 -0.70415,0.126225 -0.23576,0.0459 -0.47048,0.09076 -0.70415,0.133528 -0.0584,0.01147 -0.11684,0.02191 -0.17525,0.03234 -0.0303,0.0063 -0.0605,0.01252 -0.0908,0.01878"
       style="fill:#f0ee07;fill-opacity:1;fill-rule:nonzero;stroke:none;stroke-width:0.0104318"
       id="path312" />
    <path
       d="m 49.070841,13.757276 c -0.56853,-1.515746 -1.17775,-2.931346 -1.80053,-4.2426277 0.91174,0.119966 1.75046,0.281659 2.50051,0.471519 1.38848,0.3557257 2.47234,0.7990787 3.18484,1.2351287 0.17838,0.109535 0.33382,0.218026 0.46526,0.32443 0.13144,0.107449 0.23889,0.213853 0.32234,0.316085 0.16691,0.206551 0.23576,0.400583 0.20134,0.580011 -0.0355,0.179427 -0.17109,0.335905 -0.39537,0.469432 -0.11162,0.06676 -0.24619,0.127269 -0.40058,0.184644 -0.15439,0.05738 -0.32965,0.110577 -0.52368,0.158564 -0.77613,0.195075 -1.85583,0.329646 -3.15668,0.46213 -0.13039,0.01356 -0.26288,0.02712 -0.39745,0.04068"
       style="fill:#f0ee07;fill-opacity:1;fill-rule:nonzero;stroke:none;stroke-width:0.0104318"
       id="path314" />
    <path
       d="m 29.445421,30.46178 c -0.11579,0 -0.21385,-0.02712 -0.29,-0.08554 -0.11997,-0.09389 -0.17004,-0.261839 -0.14918,-0.493426 0.005,-0.05842 0.0157,-0.119966 0.0292,-0.185687 0.0146,-0.06468 0.0365,-0.131441 0.0615,-0.202377 0.0511,-0.139787 0.11579,-0.298351 0.21072,-0.454829 0.0459,-0.07928 0.096,-0.16065 0.15022,-0.245148 0.0553,-0.08346 0.11892,-0.164823 0.18464,-0.249321 0.1304,-0.172125 0.28897,-0.336948 0.46005,-0.506987 0.35051,-0.330689 0.77925,-0.649904 1.2706,-0.912786 0.49342,-0.25871 0.99832,-0.435008 1.46775,-0.539326 0.23681,-0.04694 0.46214,-0.08554 0.67807,-0.09702 0.0981,-0.0063 0.19195,-0.01356 0.28375,-0.01356 0.008,0 0.0177,0 0.0261,0 0.10014,0.0021 0.19612,0.0063 0.28792,0.01356 0.18255,0.0094 0.34946,0.04486 0.49447,0.08033 0.073,0.01982 0.13978,0.0386 0.20238,0.06259 0.0615,0.02504 0.11892,0.05216 0.16899,0.08033 0.20446,0.112664 0.314,0.248278 0.32443,0.39954 0.0104,0.152304 -0.0782,0.306695 -0.23576,0.454828 -0.0396,0.03651 -0.0834,0.07302 -0.1304,0.108491 -0.048,0.03755 -0.0991,0.07719 -0.15335,0.11475 -0.10953,0.0772 -0.23367,0.146046 -0.36719,0.228457 -0.0678,0.03964 -0.13771,0.07824 -0.21073,0.115794 -0.073,0.0386 -0.14709,0.08345 -0.22428,0.123095 -0.15544,0.0772 -0.31713,0.168996 -0.48821,0.251408 -0.34321,0.177341 -0.70728,0.3672 -1.09013,0.565405 -0.37972,0.205507 -0.74066,0.401626 -1.07969,0.585227 -0.16483,0.09597 -0.33069,0.178384 -0.48196,0.263925 -0.0761,0.04173 -0.15543,0.0772 -0.22741,0.116837 -0.072,0.0386 -0.14396,0.07511 -0.21385,0.108491 -0.14396,0.06468 -0.27019,0.129355 -0.39537,0.176299 -0.0615,0.02398 -0.12309,0.04485 -0.18047,0.06259 -0.0574,0.01981 -0.11162,0.03547 -0.16378,0.04694 -0.0782,0.01774 -0.15126,0.02712 -0.21907,0.02712"
       style="fill:#c1d90c;fill-opacity:1;fill-rule:nonzero;stroke:none;stroke-width:0.0104318"
       id="path316" />
  </g>
</svg>
