<?xml version="1.0" encoding="UTF-8" standalone="no"?>
<svg
   xmlns:dc="http://purl.org/dc/elements/1.1/"
   xmlns:cc="http://creativecommons.org/ns#"
   xmlns:rdf="http://www.w3.org/1999/02/22-rdf-syntax-ns#"
   xmlns:svg="http://www.w3.org/2000/svg"
   xmlns="http://www.w3.org/2000/svg"
   xmlns:sodipodi="http://sodipodi.sourceforge.net/DTD/sodipodi-0.dtd"
   xmlns:inkscape="http://www.inkscape.org/namespaces/inkscape"
   width="320"
   height="200"
   viewBox="0 0 84.666664 52.916666"
   version="1.1"
   id="svg646"
   inkscape:version="1.0.2-2 (e86c870879, 2021-01-15)"
   sodipodi:docname="fish02.svg">
  <defs
     id="defs640" />
  <sodipodi:namedview
     id="base"
     pagecolor="#ffffff"
     bordercolor="#666666"
     borderopacity="1.0"
     inkscape:pageopacity="0.0"
     inkscape:pageshadow="2"
     inkscape:zoom="0.35"
     inkscape:cx="400"
     inkscape:cy="560"
     inkscape:document-units="px"
     inkscape:current-layer="layer1"
     inkscape:document-rotation="0"
     showgrid="false"
     units="px"
     inkscape:window-width="1267"
     inkscape:window-height="1032"
     inkscape:window-x="269"
     inkscape:window-y="103"
     inkscape:window-maximized="0" />
  <metadata
     id="metadata643">
    <rdf:RDF>
      <cc:Work
         rdf:about="">
        <dc:format>image/svg+xml</dc:format>
        <dc:type
           rdf:resource="http://purl.org/dc/dcmitype/StillImage" />
        <dc:title></dc:title>
      </cc:Work>
    </rdf:RDF>
  </metadata>
  <g
     inkscape:label="Layer 1"
     inkscape:groupmode="layer"
     id="layer1">
    <path
       d="m 79.828843,45.465182 c -1.791145,1.745245 -4.6599,2.278316 -6.958032,1.292504 -2.048815,-0.878359 -3.470675,-2.736268 -5.116818,-4.238459 -1.646143,-1.502183 -3.94845,-2.73418 -6.037947,-1.958055 -1.637801,0.608175 -2.606912,2.242845 -3.74086,3.572909 -1.235129,1.448982 -2.737311,2.578746 -4.399103,3.461281 -0.133531,0.07096 -0.268097,0.139785 -0.403715,0.20759 -1.8819,0.943041 -3.954705,1.583557 -6.06715,2.02378 -0.104321,0.02193 -0.208642,0.0428 -0.314007,0.06368 -1.130808,0.22637 -2.269966,0.395365 -3.397642,0.522633 -0.949304,0.108488 -1.899644,0.195073 -2.853115,0.257668 -1.935099,0.130399 -3.877513,0.168995 -5.815744,0.116838 -2.104103,-0.05632 -4.205074,-0.218028 -6.29144,-0.485082 -1.780718,-0.226378 -3.551005,-0.530983 -5.304593,-0.909656 -3.584381,-0.773003 -7.10095,-1.86104 -10.493386,-3.25369 C 9.1573149,44.709955 5.650132,42.824924 3.6326145,39.653644 3.3165294,39.157089 3.0651222,38.646974 2.8731763,38.129553 2.608208,37.418101 2.4527733,36.688917 2.3891392,35.949298 1.9739519,31.123531 5.4540134,25.835632 7.9774749,22.094775 11.860205,16.341616 17.111589,11.507503 23.207956,8.1828759 c 0.239931,-0.1303978 0.480906,-0.2597526 0.723969,-0.3859777 1.524094,-0.7928198 3.095133,-1.4917528 4.702673,-2.0947134 1.851654,-0.6958034 3.750245,-1.2632949 5.679098,-1.7024754 1.768192,-0.4026693 3.561427,-0.6958042 5.365091,-0.8783609 1.746289,-0.1752552 3.501964,-0.2472346 5.25556,-0.2138531 0.0845,0.00105 0.170038,0.00316 0.255579,0.00518 1.942415,0.049025 3.880645,0.2284571 5.798017,0.5414125 0.102233,0.016692 0.204467,0.032341 0.306692,0.050077 0.211774,0.036508 0.422496,0.073024 0.634261,0.1137063 2.714365,0.5049012 5.462114,1.3112828 7.6069,3.0502701 2.144786,1.7389874 3.568725,4.5879217 2.964726,7.2824657 -0.550799,2.451482 -2.571448,4.25619 -3.878558,6.402019 -1.306065,2.146873 -1.609635,5.475672 0.573746,6.72019 2.14583,1.222612 4.848721,-0.675983 5.925285,-2.897964 1.076572,-2.223025 1.301898,-4.826812 2.647603,-6.897532 1.838093,-2.833287 5.777157,-4.083021 8.912965,-2.829114 3.135807,1.253907 5.127246,4.874798 4.50551,8.194208 -0.65304,3.490494 -3.794058,6.551195 -3.071132,10.029171 0.454828,2.191729 2.355505,3.791972 3.18484,5.871037 0.925305,2.323174 0.319209,5.177324 -1.471938,6.922569"
       style="fill:#0897f5;fill-opacity:1;fill-rule:nonzero;stroke:none;stroke-width:0.0104319"
       id="path276" />
    <path
       d="M 28.432226,50.303472 C 26.652552,50.07605 24.882265,49.771445 23.128677,49.393816 25.919189,44.162247 28.788988,36.390526 28.575143,26.788019 28.403017,19.042379 26.26031,12.584028 23.931925,7.7968577 25.456019,7.004038 27.027058,6.3051049 28.634598,5.7021443 c 0.421451,0.8710586 0.818904,1.755679 1.191322,2.6528166 2.437918,5.8679081 3.746071,12.0310391 3.885856,18.3183081 0.218028,9.792365 -2.44418,17.869738 -5.27955,23.630203"
       style="fill:#81d4fa;fill-opacity:1;fill-rule:nonzero;stroke:none;stroke-width:0.0104319"
       id="path278" />
    <path
       d="m 41.055789,49.545075 c -0.167951,0.376585 -0.339033,0.752135 -0.515335,1.125597 -1.935099,0.130399 -3.877513,0.168995 -5.815744,0.116838 3.178579,-5.976405 6.247626,-14.552419 5.823051,-24.969651 -0.369287,-9.0757 -3.245349,-16.4781321 -6.234065,-21.8192338 1.768192,-0.4016255 3.561427,-0.6947604 5.366135,-0.8773172 0.33799,0.6561625 0.664506,1.3206703 0.978505,1.9935244 3.045057,6.5178126 4.735014,13.4132566 5.022935,20.4933456 0.333815,8.208815 -1.222612,16.262192 -4.625482,23.936897"
       style="fill:#81d4fa;fill-opacity:1;fill-rule:nonzero;stroke:none;stroke-width:0.0104319"
       id="path280" />
    <path
       d="m 56.576281,28.904639 c -0.07201,6.385328 -1.200709,12.700765 -3.356968,18.768966 -0.01562,0.0428 -0.03131,0.08658 -0.04693,0.129347 -1.881899,0.943041 -3.954705,1.583557 -6.067149,2.023781 -0.104321,0.02193 -0.208643,0.0428 -0.314008,0.06368 2.456698,-5.4715 4.553502,-12.589146 4.648429,-21.045193 0.122058,-11.032713 -3.262032,-19.9529785 -6.505292,-25.9377238 0.0845,0.00105 0.170038,0.00316 0.25558,0.00518 1.942414,0.049025 3.880645,0.2284571 5.798016,0.5414125 0.52994,1.1276814 1.026495,2.2741404 1.488621,3.4404198 2.804081,7.0842615 4.183171,14.4898235 4.099717,22.0101355"
       style="fill:#81d4fa;fill-opacity:1;fill-rule:nonzero;stroke:none;stroke-width:0.0104319"
       id="path282" />
    <path
       d="m 24.637123,27.619436 c 1.717079,-2.474432 3.639669,-5.105341 6.511547,-6.011868 1.239304,-0.391194 2.73732,-0.366158 3.673055,0.536196 1.127684,1.088042 0.977461,2.93552 0.497599,4.428316 -0.479863,1.492796 -1.213226,3.000196 -0.974339,4.550368 0.137706,0.891921 0.589403,1.700388 0.908621,2.545368 0.318166,0.844978 0.497591,1.821399 0.09493,2.630911 -0.342165,0.687456 -1.063003,1.133939 -1.816182,1.287289 -0.753178,0.153347 -1.536611,0.04798 -2.282491,-0.141873 -2.909438,-0.74066 -5.454808,-2.803037 -6.780689,-5.496536 l 0.167952,-4.328171"
       style="fill:#ffbf16;fill-opacity:1;fill-rule:nonzero;stroke:none;stroke-width:0.0104319"
       id="path284" />
    <path
       d="m 32.770822,37.660082 c -0.0083,0 -0.01772,0 -0.02605,0 v 0 c 0.0094,0 0.01772,0 0.02711,0 0.04483,0 0.09076,-0.0012 0.135619,-0.0021 -0.04483,0.0012 -0.09076,0.0021 -0.136662,0.0021"
       style="fill:#078ce4;fill-opacity:1;fill-rule:nonzero;stroke:none;stroke-width:0.0104319"
       id="path286" />
    <path
       d="m 32.744744,37.660082 c -0.501774,-0.0032 -1.006671,-0.0918 -1.494884,-0.21594 -0.780301,-0.19925 -1.535567,-0.492382 -2.248055,-0.868973 0.712488,0.37659 1.467754,0.669723 2.248055,0.868973 0.488213,0.124137 0.99311,0.212811 1.494884,0.21594 v 0"
       style="fill:#78c5e8;fill-opacity:1;fill-rule:nonzero;stroke:none;stroke-width:0.0104319"
       id="path288" />
    <path
       d="m 35.471626,35.993073 c 0,-0.0012 8.09e-4,-0.0012 8.09e-4,-0.0021 0,0.0012 -8.09e-4,0.0012 -8.09e-4,0.0021 m 0.0032,-0.0083 c 0,-0.0012 0,-0.0021 8.09e-4,-0.0032 -8.09e-4,0.0012 -8.09e-4,0.0021 -8.09e-4,0.0032 m 0.0024,-0.0083 c 8.09e-4,-0.0021 8.09e-4,-0.0042 0.0024,-0.0062 -8.09e-4,0.0021 -8.09e-4,0.0042 -0.0024,0.0062 m 0.0032,-0.0083 c 0.102233,-0.34112 0.121005,-0.703105 0.08345,-1.066134 0.03754,0.363029 0.01877,0.725014 -0.08345,1.066134 m 0.08345,-1.066134 c -8.09e-4,-0.0032 -8.09e-4,-0.0062 -8.09e-4,-0.0094 0,0.0032 0,0.0062 8.09e-4,0.0094 m -0.0024,-0.01251 c 0,-0.0021 0,-0.0032 0,-0.0052 0,0.0021 0,0.0032 0,0.0052 M 25.950705,34.16126 c -0.586272,-0.670767 -1.088046,-1.414555 -1.481323,-2.213634 l 0.05632,-1.44794 -0.05632,1.44794 c 0.393277,0.799079 0.895051,1.542867 1.481323,2.213634"
       style="fill:#078ce4;fill-opacity:1;fill-rule:nonzero;stroke:none;stroke-width:0.0104319"
       id="path290" />
    <path
       d="m 32.771866,37.660082 c -0.0094,0 -0.01772,0 -0.02711,0 -0.501774,-0.0032 -1.006671,-0.0918 -1.494884,-0.21594 -0.780301,-0.19925 -1.535567,-0.492382 -2.248055,-0.868973 -1.152719,-0.609218 -2.192775,-1.432291 -3.051318,-2.413928 -0.586264,-0.670766 -1.088038,-1.414555 -1.481315,-2.213634 l 0.05632,-1.44794 0.02298,-0.576881 c 1.346749,2.616306 3.849348,4.614001 6.70141,5.340059 0.496555,0.126225 1.010847,0.21594 1.520963,0.21594 0.25558,0 0.510116,-0.02191 0.761529,-0.07407 0.753179,-0.153347 1.474017,-0.598786 1.816181,-1.287286 0.01254,-0.02398 0.02395,-0.04695 0.03342,-0.07198 0.0845,0.274356 0.148127,0.55706 0.179424,0.838719 0,0.0021 0,0.0032 0,0.0052 0,0.0012 8.09e-4,0.0021 8.09e-4,0.0032 0,0.0032 0,0.0062 8.09e-4,0.0094 0,0 0,0 0,0 0.03754,0.363029 0.01877,0.725015 -0.08345,1.066134 -8.09e-4,0 -8.09e-4,0.0012 -8.09e-4,0.0021 -8.1e-4,0.0021 -8.1e-4,0.0042 -0.0024,0.0062 0,0.0021 -8.09e-4,0.0032 -8.09e-4,0.0052 -8.09e-4,0.0012 -8.09e-4,0.0021 -8.09e-4,0.0032 -8.09e-4,0.0021 -0.0024,0.0042 -0.0024,0.0062 0,0.0012 -8.1e-4,0.0012 -8.1e-4,0.0021 -0.03236,0.104319 -0.07306,0.205507 -0.123101,0.305652 -0.342165,0.687457 -1.063002,1.133941 -1.816181,1.28729 -0.206547,0.04173 -0.415189,0.06467 -0.624867,0.07198 -0.04483,0.0012 -0.09076,0.0021 -0.13561,0.0021"
       style="fill:#edb214;fill-opacity:1;fill-rule:nonzero;stroke:none;stroke-width:0.0104319"
       id="path292" />
    <path
       d="m 18.03064,30.360923 c -0.609219,2.726883 -3.367398,4.448135 -6.160003,3.845177 -2.7936461,-0.602961 -4.5639294,-3.302721 -3.9547101,-6.029604 0.608176,-2.726882 3.3663541,-4.448135 6.1600001,-3.845175 2.792607,0.60296 4.563931,3.30272 3.954713,6.029602"
       style="fill:#ffffff;fill-opacity:1;fill-rule:nonzero;stroke:none;stroke-width:0.0104319"
       id="path294" />
    <path
       d="m 16.360498,30.034407 c -0.413102,1.84852 -2.282484,3.015845 -4.175863,2.606916 -1.893379,-0.408929 -3.0940831,-2.238672 -2.6809821,-4.087195 0.413101,-1.84852 2.2824861,-3.015844 4.1758651,-2.606916 1.893381,0.408929 3.094081,2.238673 2.68098,4.087195"
       style="fill:#262626;fill-opacity:1;fill-rule:nonzero;stroke:none;stroke-width:0.0104319"
       id="path296" />
    <path
       d="m 16.880008,28.173366 c -0.192994,0.861671 -1.06509,1.406213 -1.947625,1.21531 -0.882534,-0.190903 -1.442727,-1.044227 -1.249734,-1.905897 0.191942,-0.86167 1.064047,-1.406212 1.946581,-1.215309 0.883578,0.190903 1.44272,1.044227 1.250778,1.905896"
       style="fill:#ffffff;fill-opacity:1;fill-rule:nonzero;stroke:none;stroke-width:0.0104319"
       id="path298" />
    <path
       d="m 22.468338,19.993763 c 0.291052,0.276443 0.557062,0.577924 0.806387,0.892965 0.128312,0.155435 0.244099,0.319214 0.363025,0.481951 0.06157,0.08137 0.114751,0.165866 0.171082,0.250365 0.05526,0.08345 0.112663,0.167952 0.166908,0.25245 0.05324,0.08554 0.104321,0.173169 0.156477,0.259753 0.05219,0.08763 0.105365,0.174212 0.152311,0.262882 0.05008,0.08867 0.09701,0.177341 0.144996,0.267055 l 0.07201,0.134571 0.06675,0.136656 c 0.08866,0.182558 0.181512,0.365114 0.258703,0.552888 l 0.118926,0.281659 c 0.01982,0.04799 0.0407,0.09389 0.05947,0.141873 l 0.05219,0.143961 c 0.288965,0.76361 0.51116,1.558516 0.644691,2.370114 0.0094,0.05007 0.01982,0.101188 0.0271,0.151261 l 0.02088,0.153348 0.0407,0.305652 c 0.01254,0.102232 0.02711,0.204464 0.03649,0.306696 l 0.02298,0.30774 c 0.03236,0.411013 0.04798,0.823071 0.03649,1.235129 -0.03131,1.649273 -0.378681,3.291243 -1.019188,4.793431 -0.159609,0.376587 -0.334867,0.743788 -0.532028,1.100557 -0.09806,0.177341 -0.19716,0.354684 -0.303569,0.526808 -0.106401,0.172125 -0.214897,0.343209 -0.32964,0.510116 -0.228458,0.332776 -0.470477,0.655122 -0.733363,0.960774 -0.261835,0.30461 -0.538282,0.595658 -0.839764,0.861669 0.161697,-0.368245 0.321306,-0.728143 0.471521,-1.089083 0.150223,-0.361986 0.294175,-0.721883 0.425618,-1.084911 0.06675,-0.180471 0.132487,-0.360942 0.192994,-0.5435 0.06158,-0.181513 0.123093,-0.361983 0.179425,-0.544541 0.113707,-0.364073 0.219072,-0.728142 0.313999,-1.0943 0.09284,-0.365114 0.180468,-0.731271 0.253492,-1.099516 0.07298,-0.367202 0.137698,-0.735443 0.189863,-1.104731 0.01464,-0.09284 0.02403,-0.185686 0.03649,-0.277487 0.01254,-0.09284 0.025,-0.184644 0.03342,-0.277486 l 0.03026,-0.277488 0.02403,-0.277487 0.01149,-0.139786 0.0094,-0.138744 0.01667,-0.27853 0.01149,-0.27853 0.0049,-0.138743 0.0024,-0.139787 0.0049,-0.27853 -0.0024,-0.27853 c 0.0032,-0.185687 -0.01254,-0.371374 -0.01667,-0.558104 l -0.0094,-0.27853 c -0.0049,-0.09284 -0.01464,-0.185686 -0.02088,-0.27853 l -0.02088,-0.27853 -0.01044,-0.139786 c -0.0032,-0.0459 -0.0094,-0.0918 -0.01465,-0.138744 -0.02193,-0.184644 -0.04175,-0.370331 -0.06263,-0.556017 -0.02816,-0.184644 -0.05421,-0.370331 -0.08137,-0.556017 -0.02816,-0.184644 -0.06675,-0.368245 -0.09701,-0.553931 -0.0083,-0.04695 -0.01562,-0.09389 -0.025,-0.139787 l -0.03026,-0.1377 -0.05842,-0.276443 -0.02816,-0.138744 -0.03342,-0.137701 -0.06675,-0.276443 c -0.02088,-0.0918 -0.0428,-0.184644 -0.06886,-0.2754 -0.02605,-0.0918 -0.04903,-0.184644 -0.07404,-0.276445 -0.100146,-0.3672 -0.211765,-0.733358 -0.330691,-1.100558 -0.239932,-0.733359 -0.522634,-1.459414 -0.822028,-2.203204"
       style="fill:#81d4fa;fill-opacity:1;fill-rule:nonzero;stroke:none;stroke-width:0.0104319"
       id="path300" />
    <path
       d="m 36.392756,50.810457 c -0.55601,0 -1.112028,-0.0083 -1.668046,-0.02298 C 32.620607,50.731163 30.519636,50.56945 28.432226,50.30344 26.652552,50.076026 24.882265,49.771413 23.128677,49.393784 19.544296,48.619745 16.027727,47.5317 12.635291,46.13905 10.589607,45.298242 8.5334919,44.299921 6.7767702,42.975076 c 1.7567217,1.324845 3.8128368,2.323166 5.8585208,3.163974 3.392436,1.39265 6.909005,2.480695 10.493386,3.25369 0,8.09e-4 0,8.09e-4 0,8.09e-4 1.753588,0.377629 3.523875,0.682242 5.303549,0.909656 v 0 c 8.09e-4,-8.09e-4 8.09e-4,-8.09e-4 8.09e-4,-8.09e-4 2.086367,0.267054 4.187338,0.42875 6.29144,0.485082 0,0 0,0 0,0 0.55601,0.01465 1.112028,0.02298 1.668046,0.02298 0.567492,0 1.136027,-0.0083 1.703519,-0.02395 v 0 c -0.567492,0.01562 -1.136027,0.02395 -1.703519,0.02395 m 5.328584,-0.229501 c 0.558105,-0.04798 1.116211,-0.104322 1.672221,-0.167952 0.158565,-0.01772 0.31713,-0.03649 0.475696,-0.05631 -0.158566,0.01982 -0.317131,0.03859 -0.475696,0.05737 -0.55601,0.06255 -1.114116,0.118917 -1.672221,0.166908 m 3.833699,-0.466302 c 0.413101,-0.0678 0.825159,-0.141874 1.236173,-0.224284 v 0 0 c 0.105365,-0.02087 0.209686,-0.04175 0.313999,-0.06368 2.112452,-0.440224 4.185258,-1.080739 6.067157,-2.023781 v 0 c 0.135618,-0.0678 0.270185,-0.136654 0.403715,-0.20759 0.687454,-0.365112 1.346749,-0.771958 1.971616,-1.226779 -0.624867,0.454821 -1.284162,0.861667 -1.971616,1.226779 -1.988307,1.056749 -4.205073,1.759849 -6.470872,2.231371 -0.515335,0.107452 -1.031706,0.203423 -1.550172,0.287921 m 33.106482,-3.763807 c 0.422488,-0.247238 0.815773,-0.543501 1.167323,-0.885666 0.195073,-0.190906 0.377637,-0.395365 0.544544,-0.610262 -0.166907,0.214897 -0.348427,0.419356 -0.544544,0.610262 -0.35155,0.343209 -0.744835,0.638428 -1.167323,0.885666 m 1.711867,-1.496971 c 0.0024,-0.0032 0.0049,-0.0065 0.0073,-0.0094 -0.0024,0.0032 -0.004,0.0065 -0.0073,0.0094 m 0.01044,-0.01254 c 8.09e-4,-0.0024 0.0032,-0.004 0.0049,-0.0065 -0.0024,0.0024 -0.004,0.004 -0.0049,0.0065 m 0.0094,-0.01254 c 8.09e-4,-8.1e-4 0.0024,-0.0032 0.0032,-0.004 -8.09e-4,8.09e-4 -0.0024,0.0032 -0.0032,0.004 M 68.926302,43.658312 c -0.385972,-0.388067 -0.772995,-0.774046 -1.173579,-1.139159 -1.295636,-1.181928 -2.99811,-2.196942 -4.682857,-2.196942 -0.455864,0 -0.909648,0.07404 -1.354047,0.238888 -0.820992,0.304605 -1.474025,0.866887 -2.063419,1.519918 0.589394,-0.653031 1.242427,-1.215312 2.063419,-1.519918 0.444399,-0.164828 0.898183,-0.238888 1.354047,-0.238888 1.68579,0 3.387221,1.015014 4.683901,2.196942 0.39954,0.365112 0.786563,0.751092 1.172535,1.139159 M 4.2802212,40.567338 c -0.2295008,-0.29314 -0.4464829,-0.596701 -0.6478171,-0.913832 -0.00105,-0.0024 -0.0021,-0.0032 -0.0021,-0.004 0,8.09e-4 0.00105,0.0032 0.0021,0.004 0.2013342,0.317131 0.4183163,0.621736 0.6478171,0.913832"
       style="fill:#ededed;fill-opacity:1;fill-rule:nonzero;stroke:none;stroke-width:0.0104319"
       id="path302" />
    <path
       d="M 34.72471,50.78751 C 32.620607,50.7312 30.519636,50.569482 28.43327,50.302429 v 0 c 0.609218,-1.239304 1.21113,-2.586053 1.778622,-4.034 1.439596,0.10954 2.941778,0.195082 4.512818,0.254544 0.57271,0.02087 1.146456,0.03131 1.720211,0.03131 0.09806,0 0.195073,0 0.292088,-8.09e-4 -0.642604,1.528261 -1.324846,2.941779 -2.012299,4.234284 m 3.371564,-8.09e-4 c 0.815773,-0.02193 1.630503,-0.06052 2.44418,-0.115794 0.176302,-0.373463 0.347384,-0.749003 0.515335,-1.125597 0.482994,-1.089081 0.928437,-2.186512 1.337363,-3.291242 0.333815,-0.03237 0.667638,-0.0678 1.000417,-0.105365 1.231997,-0.139785 2.4786,-0.328604 3.711649,-0.586263 0.51324,-0.107453 1.0244,-0.226379 1.531384,-0.357814 -0.569571,1.673265 -1.194437,3.236998 -1.845391,4.68598 v 0 c -0.411014,0.08241 -0.823071,0.156478 -1.236165,0.224283 -0.56228,0.09284 -1.125597,0.17317 -1.68579,0.242019 -0.158565,0.01982 -0.31713,0.0386 -0.475687,0.05632 -0.556019,0.0636 -1.114124,0.119969 -1.67223,0.167951 -0.393277,0.03342 -0.786555,0.0636 -1.180885,0.08972 -0.813677,0.05526 -1.628407,0.09389 -2.44418,0.115795 v 0 m -14.967597,-1.3937 C 19.544296,48.620248 16.027727,47.532203 12.635291,46.139552 10.589607,45.298744 8.5334919,44.300423 6.7767702,42.975578 5.8452076,42.273511 4.9981422,41.478606 4.2804316,40.567906 4.0509307,40.275818 3.8339487,39.971205 3.6326145,39.654074 c -0.00105,-8.09e-4 -0.0021,-0.0032 -0.0021,-0.004 -0.00939,-0.01562 -0.00834,-0.02298 0.00421,-0.02298 0.2910482,0 6.6064825,4.220722 21.2506935,6.100541 -0.569579,1.332144 -1.165236,2.556843 -1.756718,3.666791 m 30.04369,-1.590862 c 0.01562,-0.04272 0.03131,-0.08658 0.04693,-0.129347 0.589403,-1.659704 1.102642,-3.338188 1.537655,-5.031277 1.194446,-0.762573 2.282483,-1.676396 3.218218,-2.773828 1.133948,-1.329014 2.103059,-2.964728 3.74086,-3.572903 0.444398,-0.164824 0.898183,-0.238893 1.354055,-0.238893 1.684738,0 3.387213,1.015019 4.682849,2.19799 1.647186,1.502186 3.07009,3.360095 5.117861,4.238454 0.771959,0.330691 1.608591,0.4903 2.446268,0.4903 1.657616,0 3.321495,-0.623823 4.511764,-1.782805 0.70311,-0.686409 1.2247,-1.543909 1.540786,-2.472345 0.727093,2.018561 0.328604,4.397023 -0.973294,6.096367 -8.09e-4,8.09e-4 -0.0024,0.0032 -0.0032,0.004 -8.09e-4,0.0024 -0.0032,0.004 -0.004,0.0065 -0.0024,0.0024 -0.004,0.004 -0.0049,0.0065 -8.09e-4,8.09e-4 -0.0024,0.0024 -0.0032,0.0032 -0.0024,0.0032 -0.0049,0.0065 -0.0073,0.0094 0,8.09e-4 0,8.09e-4 0,8.09e-4 -0.166907,0.214897 -0.349463,0.419356 -0.544544,0.610262 -0.35155,0.342165 -0.744827,0.638428 -1.167315,0.885666 -1.005635,0.587307 -2.177126,0.897139 -3.34445,0.897139 -0.837676,0 -1.674309,-0.159609 -2.446268,-0.490301 -1.550172,-0.664506 -2.74253,-1.891293 -3.944274,-3.0993 -0.38598,-0.388059 -0.773003,-0.774038 -1.172543,-1.139158 -1.296672,-1.181921 -2.998111,-2.196942 -4.683893,-2.196942 -0.455872,0 -0.909656,0.07403 -1.354055,0.238888 -0.820984,0.304613 -1.474017,0.866885 -2.063411,1.519918 -0.587316,0.64991 -1.112036,1.389519 -1.67744,2.05299 -0.725013,0.84915 -1.540787,1.589811 -2.427496,2.234494 -0.624867,0.454828 -1.284154,0.861675 -1.971616,1.226787 -0.133522,0.07096 -0.268097,0.139785 -0.403707,0.20759"
       style="fill:#078ce4;fill-opacity:1;fill-rule:nonzero;stroke:none;stroke-width:0.0104319"
       id="path304" />
    <path
       d="M 28.432226,50.303472 C 26.652552,50.07605 24.882265,49.771445 23.128677,49.393816 v 0 c 0.591483,-1.109949 1.18714,-2.334648 1.756719,-3.666792 1.665967,0.213853 3.441465,0.397453 5.326496,0.541405 -0.567492,1.447947 -1.169404,2.794696 -1.779666,4.035043 v 0"
       style="fill:#78c5e8;fill-opacity:1;fill-rule:nonzero;stroke:none;stroke-width:0.0104319"
       id="path306" />
    <path
       d="m 36.392756,50.810457 c -0.55601,0 -1.112028,-0.0083 -1.668046,-0.02298 v 0 c 0.687453,-1.292505 1.369695,-2.706023 2.012299,-4.234283 1.268513,-0.0073 2.538063,-0.06158 3.803445,-0.147093 0.618613,-0.0407 1.236181,-0.0918 1.852698,-0.152302 -0.408926,1.104729 -0.854369,2.202161 -1.337363,3.291242 -0.167951,0.376593 -0.339033,0.752135 -0.515335,1.125597 -0.813677,0.05526 -1.628407,0.09389 -2.44418,0.115794 -0.567491,0.01562 -1.136026,0.02395 -1.703518,0.02395"
       style="fill:#78c5e8;fill-opacity:1;fill-rule:nonzero;stroke:none;stroke-width:0.0104319"
       id="path308" />
    <path
       d="m 46.791211,49.890371 v 0 c 0.650954,-1.448982 1.27582,-3.012715 1.845391,-4.685988 1.727518,-0.451697 3.40287,-1.056741 4.939481,-1.873558 0.403708,-0.214889 0.798037,-0.443354 1.180885,-0.688497 -0.435013,1.693089 -0.948252,3.371573 -1.537655,5.031277 -0.01562,0.0428 -0.03131,0.08658 -0.04693,0.129347 v 0 c -1.881899,0.943041 -3.954705,1.583557 -6.067149,2.023781 -0.104321,0.02193 -0.208643,0.0428 -0.314008,0.06368"
       style="fill:#78c5e8;fill-opacity:1;fill-rule:nonzero;stroke:none;stroke-width:0.0104319"
       id="path310" />
    <path
       d="m 8.8495759,36.236134 c -0.328603,0.762569 -0.872101,1.404126 -1.5699912,1.853738 -0.6728529,0.433966 -1.4437663,0.661382 -2.235543,0.661382 -0.031297,0 -0.061551,0 -0.093887,-8.1e-4 -0.7479623,-0.01667 -1.4615002,-0.23889 -2.0769788,-0.621741 -0.2649683,-0.710409 -0.420403,-1.439592 -0.4840371,-2.179211 0.4986419,0.976419 1.4938396,1.612763 2.5881396,1.637798 1.1965311,0.02608 2.3252561,-0.701018 2.8051205,-1.81201 0.128312,-0.295221 0.470476,-0.430835 0.765697,-0.302522 0.294178,0.127269 0.429792,0.469433 0.30148,0.76361"
       style="fill:#262626;fill-opacity:1;fill-rule:nonzero;stroke:none;stroke-width:0.0104319"
       id="path312" />
    <path
       d="m 69.25514,23.161912 c -0.10954,0 -0.21594,-0.01669 -0.316087,-0.05216 -0.14396,-0.05008 -0.270192,-0.136657 -0.376593,-0.262882 -0.05219,-0.06259 -0.10119,-0.134571 -0.14396,-0.216983 -0.02088,-0.04068 -0.04175,-0.0845 -0.06052,-0.130398 -0.01772,-0.0459 -0.03342,-0.09284 -0.04798,-0.142915 -0.02921,-0.100146 -0.05219,-0.208637 -0.06991,-0.327561 -0.01562,-0.116836 -0.02088,-0.242018 -0.02193,-0.375545 -0.0024,-0.135614 0.01149,-0.273315 0.02816,-0.421447 0.01562,-0.149175 0.04693,-0.300437 0.0845,-0.460044 0.03439,-0.161693 0.08867,-0.322343 0.145004,-0.491339 0.02711,-0.08554 0.06263,-0.167953 0.09701,-0.254537 0.03544,-0.0845 0.07201,-0.172126 0.112663,-0.25871 0.0428,-0.08658 0.08658,-0.173168 0.132487,-0.260795 0.02298,-0.04382 0.04588,-0.08867 0.07096,-0.132485 0.02605,-0.04381 0.05219,-0.08763 0.07824,-0.131442 0.05324,-0.08763 0.106409,-0.176298 0.164828,-0.264968 0.05947,-0.08658 0.122049,-0.174212 0.185679,-0.261839 0.06158,-0.08971 0.132487,-0.173169 0.20238,-0.259753 0.07096,-0.08658 0.141873,-0.174212 0.220115,-0.257667 0.07719,-0.08345 0.156478,-0.167952 0.237844,-0.25245 0.08345,-0.08137 0.170039,-0.161693 0.257668,-0.243062 0.353638,-0.319214 0.754222,-0.617564 1.194446,-0.878361 0.442311,-0.256622 0.898183,-0.460043 1.34988,-0.612348 0.113707,-0.03755 0.22637,-0.07198 0.33799,-0.106405 0.112663,-0.02921 0.225326,-0.05738 0.335902,-0.08346 0.110584,-0.02816 0.222203,-0.04694 0.331735,-0.06676 0.110576,-0.01878 0.218028,-0.0386 0.326516,-0.05008 0.107445,-0.01252 0.214897,-0.02295 0.319219,-0.03339 0.105356,-0.0073 0.209677,-0.01043 0.311911,-0.0146 0.05114,-0.0011 0.102226,-0.0021 0.152303,-0.0042 0.004,0 0.0073,0 0.01149,0 0.04588,0 0.09284,0.0021 0.138742,0.0032 0.0991,0.0032 0.197161,0.0073 0.292088,0.01252 0.09597,0.0062 0.189862,0.01774 0.281666,0.02817 0.0918,0.01147 0.181512,0.02086 0.269141,0.03964 0.17525,0.03339 0.342165,0.06468 0.499678,0.112664 0.156478,0.0459 0.304614,0.09284 0.442311,0.151262 0.137706,0.05842 0.264974,0.113707 0.381813,0.181514 0.115786,0.06676 0.222195,0.132484 0.317122,0.203421 0.09493,0.07302 0.178381,0.146045 0.251413,0.221155 0.03649,0.03755 0.06991,0.07407 0.101182,0.11162 0.03026,0.0386 0.05842,0.07824 0.08345,0.116837 0.05114,0.0772 0.09076,0.154391 0.11997,0.231586 0.05737,0.154391 0.07201,0.306696 0.04483,0.456915 -0.02605,0.149176 -0.0918,0.290005 -0.186731,0.420403 -0.04693,0.06572 -0.102234,0.128311 -0.162732,0.188817 -0.03026,0.03025 -0.06263,0.06051 -0.09598,0.08867 -0.03342,0.03025 -0.06886,0.06051 -0.105365,0.08971 -0.07298,0.05842 -0.151259,0.11475 -0.233669,0.168995 -0.08241,0.05529 -0.170039,0.112664 -0.260799,0.164823 -0.0918,0.05112 -0.186723,0.109535 -0.284789,0.161695 -0.0991,0.05007 -0.200292,0.107447 -0.305649,0.159606 -0.104321,0.05008 -0.211766,0.109535 -0.321298,0.160651 -0.05526,0.02503 -0.110584,0.05633 -0.166915,0.08345 -0.05526,0.02608 -0.11162,0.0532 -0.168995,0.08137 -0.05737,0.02921 -0.114751,0.05738 -0.172126,0.08554 -0.02921,0.01356 -0.05842,0.02712 -0.08762,0.04068 -0.02921,0.0146 -0.05737,0.03025 -0.08764,0.04486 -0.05842,0.02817 -0.11683,0.05633 -0.177337,0.08554 -0.05842,0.0313 -0.117882,0.06155 -0.178381,0.09076 -0.06052,0.02712 -0.11997,0.06155 -0.180476,0.09076 -0.06052,0.0313 -0.12205,0.05842 -0.182556,0.09284 -0.06052,0.03234 -0.121006,0.06363 -0.1836,0.09389 -0.06052,0.03443 -0.122049,0.06676 -0.1836,0.0991 -0.246194,0.132483 -0.494467,0.270184 -0.744836,0.414143 -0.24723,0.147089 -0.489249,0.297308 -0.725005,0.446483 -0.05842,0.0386 -0.116839,0.07615 -0.176302,0.112664 -0.05631,0.0386 -0.113707,0.07719 -0.171082,0.11475 -0.05947,0.03547 -0.113707,0.07615 -0.170039,0.112663 -0.05632,0.0386 -0.114751,0.07407 -0.167951,0.113708 -0.05526,0.03755 -0.110584,0.07511 -0.165872,0.111621 -0.05421,0.03755 -0.108488,0.07511 -0.161688,0.112664 -0.02711,0.01878 -0.05421,0.03651 -0.08137,0.05424 -0.02711,0.01878 -0.05324,0.03755 -0.0793,0.05633 -0.05219,0.03651 -0.105365,0.07302 -0.158565,0.108492 -0.05219,0.03651 -0.10327,0.07198 -0.153347,0.107447 -0.05114,0.03651 -0.105357,0.06885 -0.153346,0.105362 -0.0991,0.07094 -0.203423,0.134571 -0.298351,0.201334 -0.09597,0.06572 -0.19716,0.127268 -0.288964,0.187774 -0.09284,0.06051 -0.190898,0.115793 -0.279571,0.170038 -0.08972,0.05424 -0.182556,0.102232 -0.271228,0.14709 -0.08763,0.0459 -0.175258,0.08658 -0.261843,0.122052 -0.0428,0.01669 -0.08658,0.03339 -0.129348,0.04799 -0.04175,0.0146 -0.08242,0.02816 -0.124144,0.03964 -0.08241,0.02399 -0.163776,0.04068 -0.244107,0.05007 -0.04798,0.0062 -0.09597,0.0094 -0.142908,0.0094"
       style="fill:#59b9f8;fill-opacity:1;fill-rule:nonzero;stroke:none;stroke-width:0.0104319"
       id="path314" />
    <path
       d="m 25.209825,14.074738 c -0.142917,0 -0.271221,-0.0083 -0.385971,-0.02817 -0.256624,-0.04486 -0.440224,-0.141874 -0.537247,-0.297307 -0.09597,-0.154392 -0.101181,-0.360942 -0.01982,-0.612349 0.0407,-0.126226 0.103269,-0.263926 0.186731,-0.412058 0.08554,-0.146046 0.191942,-0.302523 0.318166,-0.469433 0.197161,-0.25558 0.445442,-0.533067 0.742749,-0.824114 0.310868,0.804294 0.609218,1.641971 0.888789,2.510943 -0.211766,0.03964 -0.408926,0.07094 -0.59357,0.09284 -0.198204,0.02503 -0.38076,0.0386 -0.545588,0.03964 -0.01877,0 -0.03649,0 -0.05421,0 m 6.18504,-1.414557 C 30.945279,11.231017 30.430988,9.8164599 29.852023,8.4185925 30.432032,8.118156 31.052724,7.8260641 31.707844,7.5475348 c 0.109532,-0.046946 0.219072,-0.093887 0.329648,-0.139787 0.112663,-0.043814 0.224282,-0.087627 0.337989,-0.1314416 0.226371,-0.087627 0.456916,-0.1752543 0.689541,-0.2628823 0.234721,-0.082411 0.472565,-0.1627363 0.712496,-0.2430611 0.121013,-0.039639 0.242019,-0.080322 0.364076,-0.1210094 0.121006,-0.040683 0.24515,-0.074068 0.369287,-0.1116204 0.248274,-0.07198 0.498643,-0.1450034 0.751091,-0.2180257 0.08035,-0.022947 0.160653,-0.043814 0.240975,-0.063638 0.746917,1.5084443 1.465675,3.1483298 2.115576,4.9144397 -0.02711,0.0062 -0.05421,0.01147 -0.08241,0.01774 -0.114751,0.02399 -0.229502,0.04799 -0.344253,0.07198 -0.114751,0.02399 -0.229502,0.04695 -0.343209,0.06989 -0.113707,0.02399 -0.227414,0.04381 -0.340077,0.07094 -0.224283,0.05111 -0.447522,0.100145 -0.669725,0.149175 -0.110576,0.02399 -0.222195,0.04486 -0.331727,0.07198 -0.10954,0.02608 -0.218029,0.05216 -0.326517,0.07824 -0.218028,0.05007 -0.432925,0.100146 -0.646778,0.149175 -0.211766,0.05424 -0.422487,0.106405 -0.631121,0.157521 -0.104322,0.02504 -0.207599,0.05008 -0.310876,0.07511 -0.10327,0.02608 -0.205503,0.0532 -0.306693,0.07928 -0.656164,0.168996 -1.287294,0.335905 -1.890249,0.498642 m 11.382179,-2.33256 C 42.196015,8.6543548 41.529422,7.0019512 40.77833,5.3724982 c 0.0065,0 0.01359,-0.00105 0.01982,-0.00105 0.258711,-0.017736 0.514291,-0.037552 0.767784,-0.049033 0.253492,-0.00834 0.503861,-0.015649 0.753179,-0.023991 0.118925,-0.0021 0.236808,-0.00623 0.354682,-0.00623 0.0049,0 0.01044,0 0.01562,0 0.123101,0 0.24515,0.00105 0.367207,0.0021 0.243055,0.0021 0.482986,0.00518 0.719795,0.011473 0.873148,0.031297 1.702474,0.101189 2.4786,0.202378 0.622787,1.311282 1.232006,2.7268819 1.800541,4.242629 -1.210095,0.1230954 -2.593359,0.2555798 -4.095542,0.4277058 -0.208634,0.02608 -0.419364,0.0532 -0.632173,0.07928 -0.106401,0.01252 -0.213845,0.02608 -0.321298,0.0386 -0.07614,0.0083 -0.153346,0.01982 -0.229501,0.0313"
       style="fill:#59b9f8;fill-opacity:1;fill-rule:nonzero;stroke:none;stroke-width:0.0104319"
       id="path316" />
    <path
       d="m 26.403227,13.942253 c -0.279571,-0.868971 -0.577921,-1.706648 -0.888789,-2.510943 0.472564,-0.46213 1.070309,-0.960773 1.788016,-1.4698459 0.729188,-0.519506 1.5846,-1.042141 2.549545,-1.5428692 0.578965,1.3978666 1.093256,2.8124231 1.542865,4.2415851 -0.890876,0.239932 -1.719167,0.46839 -2.471302,0.67494 -0.970163,0.26184 -1.819313,0.477779 -2.520335,0.607133"
       style="fill:#abe2fc;fill-opacity:1;fill-rule:nonzero;stroke:none;stroke-width:0.0104319"
       id="path318" />
    <path
       d="m 37.618499,11.170514 c -0.649901,-1.7661101 -1.36866,-3.4059948 -2.115576,-4.9144392 0.04798,-0.012517 0.09493,-0.023991 0.142917,-0.036508 0.128312,-0.031297 0.257667,-0.063638 0.388067,-0.09493 0.129347,-0.031297 0.259747,-0.06363 0.390146,-0.09493 0.0657,-0.015649 0.131443,-0.031297 0.197161,-0.045902 0.06675,-0.013561 0.132487,-0.027122 0.199248,-0.041727 C 37.08648,5.8899208 37.353533,5.835674 37.622674,5.7824713 37.891815,5.7261393 38.162,5.6885843 38.429053,5.645814 38.563628,5.624955 38.697151,5.604087 38.829638,5.584263 38.96316,5.564439 39.095647,5.542536 39.228134,5.528975 39.752855,5.468468 40.26819,5.4037937 40.778306,5.3724982 c 0.751091,1.629453 1.417685,3.2818557 1.998738,4.9551218 -0.03131,0.0042 -0.06263,0.0083 -0.09493,0.01252 -0.216985,0.03025 -0.436049,0.05946 -0.657208,0.08763 -0.221152,0.03025 -0.443355,0.06676 -0.667638,0.09806 -0.450653,0.05946 -0.904437,0.14396 -1.367616,0.21281 -0.115795,0.01565 -0.230545,0.03964 -0.347376,0.05946 -0.115794,0.02087 -0.232633,0.04173 -0.349471,0.06155 -0.232625,0.04277 -0.469433,0.0772 -0.704146,0.126225 -0.235764,0.0459 -0.470476,0.09076 -0.704153,0.133528 -0.05842,0.01147 -0.116839,0.0219 -0.17525,0.03234 -0.03026,0.0062 -0.06052,0.01252 -0.09076,0.01878"
       style="fill:#abe2fc;fill-opacity:1;fill-rule:nonzero;stroke:none;stroke-width:0.0104319"
       id="path320" />
    <path
       d="M 48.05555,9.7507407 C 47.487015,8.2349952 46.877796,6.8193945 46.255017,5.5081125 c 0.911744,0.1199665 1.750464,0.2816598 2.500511,0.471519 1.388476,0.355726 2.472346,0.7990791 3.184842,1.2351299 0.178389,0.1095344 0.333823,0.218025 0.465258,0.3244296 0.131443,0.1074484 0.238895,0.2138531 0.322349,0.3160851 0.166908,0.2065507 0.235756,0.4005825 0.201328,0.5800104 -0.03544,0.1794278 -0.171083,0.3359043 -0.395365,0.4694318 -0.11162,0.066761 -0.246186,0.1272689 -0.400576,0.1846443 -0.154399,0.057375 -0.329648,0.1105774 -0.523686,0.1585636 -0.776125,0.1950748 -1.855821,0.3296461 -3.156675,0.4621299 -0.130392,0.013561 -0.262879,0.027122 -0.397453,0.040683"
       style="fill:#abe2fc;fill-opacity:1;fill-rule:nonzero;stroke:none;stroke-width:0.0104319"
       id="path322" />
    <path
       d="m 28.430139,26.455243 c -0.115795,0 -0.213854,-0.02712 -0.290009,-0.08554 -0.119962,-0.09389 -0.170039,-0.261839 -0.149171,-0.493426 0.0049,-0.05842 0.01562,-0.119966 0.02921,-0.185687 0.01465,-0.06467 0.03649,-0.13144 0.06157,-0.202377 0.05114,-0.139787 0.115795,-0.298351 0.21073,-0.454829 0.04588,-0.07928 0.09597,-0.160649 0.150215,-0.245148 0.05526,-0.08345 0.118926,-0.164823 0.184644,-0.24932 0.130399,-0.172126 0.288964,-0.336949 0.460047,-0.506987 0.350507,-0.33069 0.779257,-0.649904 1.270593,-0.912787 0.493424,-0.258709 0.998329,-0.435007 1.467762,-0.539325 0.2368,-0.04695 0.462127,-0.08554 0.678067,-0.09702 0.09806,-0.0062 0.19195,-0.01356 0.283746,-0.01356 0.0083,0 0.01772,0 0.02605,0 0.100146,0.0021 0.196117,0.0062 0.287921,0.01356 0.182556,0.0094 0.349463,0.04486 0.494468,0.08032 0.07298,0.01982 0.139785,0.0386 0.202379,0.06259 0.06157,0.02503 0.118926,0.05216 0.168995,0.08032 0.204467,0.112664 0.313999,0.248278 0.324429,0.399539 0.01044,0.152305 -0.07824,0.306696 -0.235756,0.454828 -0.03965,0.03651 -0.08345,0.07302 -0.1304,0.108492 -0.04798,0.03755 -0.0991,0.07719 -0.153346,0.11475 -0.109532,0.0772 -0.233677,0.146045 -0.3672,0.228457 -0.0678,0.03964 -0.137705,0.07823 -0.210721,0.115794 -0.07298,0.0386 -0.147092,0.08345 -0.224291,0.123095 -0.155434,0.0772 -0.317123,0.168996 -0.488213,0.251407 -0.343201,0.177342 -0.707277,0.367201 -1.090125,0.565406 -0.379717,0.205508 -0.740653,0.401626 -1.079695,0.585227 -0.16482,0.09597 -0.330684,0.178384 -0.48195,0.263924 -0.07614,0.04173 -0.155434,0.0772 -0.227415,0.116838 -0.07201,0.03859 -0.14396,0.07511 -0.213853,0.10849 -0.14396,0.06467 -0.270184,0.129355 -0.395365,0.176299 -0.06158,0.02399 -0.123093,0.04486 -0.180468,0.06259 -0.05737,0.01982 -0.11162,0.03547 -0.163784,0.04695 -0.07824,0.01774 -0.151259,0.02712 -0.219064,0.02712"
       style="fill:#ffd463;fill-opacity:1;fill-rule:nonzero;stroke:none;stroke-width:0.0104319"
       id="path324" />
  </g>
</svg>
