<?xml version="1.0" encoding="UTF-8" standalone="no"?>
<svg
   xmlns:dc="http://purl.org/dc/elements/1.1/"
   xmlns:cc="http://creativecommons.org/ns#"
   xmlns:rdf="http://www.w3.org/1999/02/22-rdf-syntax-ns#"
   xmlns:svg="http://www.w3.org/2000/svg"
   xmlns="http://www.w3.org/2000/svg"
   xmlns:sodipodi="http://sodipodi.sourceforge.net/DTD/sodipodi-0.dtd"
   xmlns:inkscape="http://www.inkscape.org/namespaces/inkscape"
   width="320"
   height="230"
   viewBox="0 0 84.666664 60.854166"
   version="1.1"
   id="svg646"
   inkscape:version="1.0.2-2 (e86c870879, 2021-01-15)"
   sodipodi:docname="fish12.svg">
  <defs
     id="defs640" />
  <sodipodi:namedview
     id="base"
     pagecolor="#ffffff"
     bordercolor="#666666"
     borderopacity="1.0"
     inkscape:pageopacity="0.0"
     inkscape:pageshadow="2"
     inkscape:zoom="0.35"
     inkscape:cx="400"
     inkscape:cy="560"
     inkscape:document-units="px"
     inkscape:current-layer="layer1"
     inkscape:document-rotation="0"
     showgrid="false"
     units="px"
     inkscape:window-width="1267"
     inkscape:window-height="1032"
     inkscape:window-x="647"
     inkscape:window-y="380"
     inkscape:window-maximized="0" />
  <metadata
     id="metadata643">
    <rdf:RDF>
      <cc:Work
         rdf:about="">
        <dc:format>image/svg+xml</dc:format>
        <dc:type
           rdf:resource="http://purl.org/dc/dcmitype/StillImage" />
        <dc:title></dc:title>
      </cc:Work>
    </rdf:RDF>
  </metadata>
  <g
     inkscape:label="Layer 1"
     inkscape:groupmode="layer"
     id="layer1">
    <path
       d="m 24.844803,18.167966 c 1.117518,-3.454504 2.273017,-6.982977 4.475063,-9.8697277 2.201048,-2.8867505 5.686539,-5.0608095 9.300976,-4.7119605 2.014127,0.1949156 3.871323,1.1355085 5.654552,2.0920944 2.758807,1.4793599 5.475631,3.0376855 8.145474,4.6739768 2.383969,1.459368 4.836909,3.09566 6.098359,5.589581 1.26046,2.49392 0.80365,6.07537 -1.67327,7.37081 L 24.844803,18.167966"
       style="fill:#529d6d;fill-opacity:1;fill-rule:nonzero;stroke:none;stroke-width:0.00999568"
       id="path448" />
    <path
       d="m 60.504367,31.287287 c 1.69527,3.070673 3.46251,6.226306 6.29928,8.443346 2.83577,2.217042 7.04295,3.278583 10.29554,1.634293 2.18306,-1.103523 3.59544,-3.239598 4.26715,-5.471633 0.67271,-2.232031 1.00057,-11.555997 0.48779,-13.824015 -0.51378,-2.268018 -1.77223,-4.487058 -3.87332,-5.722523 -3.12965,-1.840204 -7.4028,-1.03955 -10.3885,0.998567 -2.98671,2.038118 -4.97185,5.078802 -6.88003,8.037522 l -0.20791,5.904443"
       style="fill:#529d6d;fill-opacity:1;fill-rule:nonzero;stroke:none;stroke-width:0.00999568"
       id="path450" />
    <path
       d="m 73.582707,42.164579 c -2.40995,0 -4.89688,-0.962583 -6.77906,-2.433946 v 0 0 c 1.88218,1.471363 4.36911,2.433946 6.78006,2.433946 0.60574,0 1.20648,-0.06097 1.79123,-0.188918 -0.58475,0.128946 -1.18649,0.188918 -1.79223,0.188918 m 7.97155,-7.120918 c 0.096,-0.555758 0.18092,-1.255456 0.25489,-2.043113 v 0 c -0.074,0.787657 -0.15893,1.487355 -0.25489,2.043113"
       style="fill:#ededed;fill-opacity:1;fill-rule:nonzero;stroke:none;stroke-width:0.00999568"
       id="path452" />
    <path
       d="m 73.583707,42.164579 c -2.41095,0 -4.89788,-0.962583 -6.78006,-2.433946 v 0 c -2.02613,-1.583315 -3.50649,-3.645421 -4.80392,-5.813482 0.049,-0.08596 0.0989,-0.172927 0.14793,-0.259887 0.087,-0.153934 0.17193,-0.308868 0.25589,-0.4638 0.051,-0.09296 0.1,-0.18592 0.14894,-0.279879 v -0.0011 c 0.074,-0.139939 0.14693,-0.281877 0.2169,-0.423817 0.062,-0.122945 0.12195,-0.246893 0.18092,-0.370838 1.11752,1.639289 2.39797,3.164629 4.01826,4.399096 1.93117,1.471363 4.48406,2.433947 6.958,2.433947 1.25345,0 2.48592,-0.246893 3.60843,-0.799653 2.13208,-1.050547 3.54847,-3.036686 4.27415,-5.150771 -0.074,0.787656 -0.15893,1.487355 -0.25489,2.043113 -0.059,0.342853 -0.12194,0.630728 -0.18792,0.849632 v 0 0 c -0.67171,2.232035 -2.08409,4.36811 -4.26715,5.471633 -0.55076,0.278879 -1.12951,0.479791 -1.72425,0.610735 -0.58475,0.127946 -1.18549,0.188918 -1.79123,0.188918"
       style="fill:#4c926d;fill-opacity:1;fill-rule:nonzero;stroke:none;stroke-width:0.00999568"
       id="path454" />
    <path
       d="m 64.038837,28.977288 c -0.28288,1.380403 -0.82964,2.684838 -1.48635,3.935297 v 0.0011 c -0.29488,0.563757 -0.61374,1.116517 -0.9396,1.661282 -0.83464,1.393396 -1.73425,2.752808 -2.69583,4.06624 -3.43851,4.693966 -7.675679,8.803189 -12.633533,11.829879 -6.344253,3.872356 -13.901982,5.901478 -21.296781,5.143805 C 19.423149,55.044138 13.992501,52.838095 9.7033573,49.229656 6.035945,46.144992 4.143764,41.493005 3.277139,36.749057 3.134201,35.967396 3.019251,35.184735 2.92829,34.404074 2.88131,33.996248 2.84033,33.587426 2.806343,33.182601 2.448498,28.984418 3.32112,24.514353 6.051939,21.305741 c 1.919169,-2.254024 4.624997,-3.737382 7.45877,-4.593011 2.834773,-0.85563 5.811485,-1.123514 8.768206,-1.265453 3.656417,-0.175924 7.322831,-0.165928 10.978247,0.02799 2.528906,0.133942 5.053814,0.356845 7.568726,0.666711 5.190753,0.637724 10.337526,1.649286 15.383339,3.02669 0.29088,0.07997 0.58475,0.16193 0.87762,0.249892 2.33699,0.691701 4.68398,1.667278 6.0234,3.662415 0.056,0.08296 0.10895,0.166928 0.16092,0.252891 0.99658,1.658282 1.15851,3.740381 0.76767,5.643557"
       style="fill:#ffbfe2;fill-opacity:1;fill-rule:nonzero;stroke:none;stroke-width:0.00999568"
       id="path456" />
    <path
       d="m 26.890917,28.684415 c 1.131512,-1.471364 2.418955,-2.821779 3.835342,-4.02126 0.705694,-0.598741 1.453371,-1.165495 2.300002,-1.540333 0.846634,-0.375838 1.80622,-0.550762 2.708828,-0.342852 1.629296,0.374838 2.770801,1.936162 3.151638,3.564457 0.34485,1.471364 0.113949,7.558729 -0.339854,9.000104 -0.502782,1.594311 -1.759239,3.065674 -3.412522,3.316565 -0.914605,0.13894 -1.859196,-0.107953 -2.674844,-0.546762 -0.815645,-0.437811 -1.518342,-1.059543 -2.177058,-1.70926 -1.321427,-1.303438 -2.503915,-2.746813 -3.520475,-4.299141 l 0.128943,-3.421518"
       style="fill:#529d6d;fill-opacity:1;fill-rule:nonzero;stroke:none;stroke-width:0.00999568"
       id="path458" />
    <path
       d="m 34.612577,38.700081 c -0.572753,0 -1.145506,-0.134941 -1.680275,-0.359844 0.534769,0.223902 1.107522,0.359844 1.680275,0.359844 0.174924,0 0.348847,-0.013 0.521774,-0.03899 0.774665,-0.117949 1.462367,-0.503782 2.026121,-1.044548 -0.563754,0.540766 -1.251456,0.926599 -2.026121,1.044548 -0.172927,0.02598 -0.347851,0.03899 -0.521774,0.03899 m -2.830776,-1.005566 c -0.538766,-0.377837 -1.030554,-0.826642 -1.499352,-1.289441 -0.002,-0.002 -0.003,-0.003 -0.004,-0.004 0.0011,0.0011 0.002,0.002 0.004,0.004 0.468798,0.462799 0.960586,0.911604 1.499352,1.289441 m 6.648122,-2.016128 c 0.04198,-0.109951 0.08196,-0.221902 0.11695,-0.333856 0.110953,-0.351846 0.20891,-0.981573 0.287875,-1.753241 0,-0.0011 0,-0.0011 0,-0.0011 -0.07897,0.771668 -0.176922,1.402395 -0.287875,1.754241 -0.03499,0.111954 -0.07497,0.223905 -0.11695,0.333856 m -10.02766,-1.336422 c -0.585744,-0.71569 -1.133509,-1.462367 -1.640289,-2.236032 l 0.06997,-1.856196 v 0 l -0.06997,1.856196 c 0.50678,0.773665 1.054545,1.520342 1.640289,2.236032"
       style="fill:#ed8d00;fill-opacity:1;fill-rule:nonzero;stroke:none;stroke-width:0.00999568"
       id="path460" />
    <path
       d="m 34.612577,38.700081 c -0.572753,0 -1.145506,-0.135942 -1.680275,-0.359844 -0.160929,-0.06697 -0.318861,-0.14294 -0.472795,-0.225903 -0.234896,-0.125945 -0.459799,-0.266885 -0.677706,-0.419819 -0.538766,-0.377837 -1.030554,-0.826642 -1.499352,-1.289441 -0.002,-0.002 -0.003,-0.003 -0.004,-0.004 -0.661714,-0.652718 -1.288441,-1.34042 -1.876188,-2.059111 -0.585744,-0.71569 -1.13351,-1.462367 -1.640289,-2.236032 l 0.06997,-1.856196 c 1.031555,1.513346 2.226039,2.921737 3.557463,4.196183 0.679706,0.64972 1.403392,1.271452 2.244028,1.70926 0.681704,0.355847 1.449373,0.585748 2.21804,0.585748 0.179922,0 0.359845,-0.01301 0.538766,-0.03898 1.629296,-0.239897 2.884753,-1.597309 3.444509,-3.110655 -0.07896,0.771668 -0.176922,1.401395 -0.287876,1.753241 -0.03498,0.111954 -0.07497,0.223905 -0.116949,0.333856 -0.279879,0.724686 -0.71469,1.406393 -1.269451,1.938161 -0.563754,0.540766 -1.251456,0.926598 -2.026121,1.044548 -0.172927,0.02598 -0.346851,0.03898 -0.521775,0.03898"
       style="fill:#4c926d;fill-opacity:1;fill-rule:nonzero;stroke:none;stroke-width:0.00999568"
       id="path462" />
    <path
       d="m 24.403994,21.919343 c 0.253891,0.248892 0.48579,0.518775 0.704697,0.800653 0.111951,0.13894 0.213906,0.284877 0.317861,0.430814 0.05398,0.07197 0.100955,0.147936 0.149936,0.222903 l 0.146936,0.224903 c 0.377836,0.608736 0.696698,1.259455 0.956585,1.934163 l 0.181922,0.511778 c 0.05498,0.172926 0.102955,0.34785 0.154932,0.521774 0.02697,0.08696 0.04798,0.174925 0.06897,0.263886 0.02199,0.08796 0.04298,0.176924 0.06297,0.264886 0.01898,0.08896 0.04298,0.176923 0.05897,0.266884 l 0.04898,0.267884 c 0.03199,0.178923 0.06597,0.358845 0.08496,0.539767 0.02099,0.180921 0.04298,0.361843 0.06097,0.543764 l 0.03099,0.545764 0.007,0.135941 c 0.0011,0.04598 0,0.09196 0,0.136941 l -0.0011,0.273881 -0.003,0.273882 -0.002,0.135941 c -0.002,0.04598 -0.006,0.09096 -0.009,0.136941 l -0.04198,0.545764 c -0.004,0.04498 -0.006,0.09096 -0.01199,0.135942 l -0.01799,0.134941 -0.03898,0.270881 -0.03898,0.270883 c -0.01199,0.08996 -0.03399,0.178922 -0.05198,0.267886 -0.03798,0.177922 -0.07297,0.356844 -0.113949,0.533768 -0.04498,0.175924 -0.09396,0.350848 -0.142941,0.525772 -0.01198,0.04398 -0.024,0.08796 -0.03698,0.130944 l -0.04298,0.128943 -0.08496,0.257889 c -0.03099,0.08596 -0.05797,0.171926 -0.08996,0.256889 l -0.09996,0.252892 c -0.267882,0.671707 -0.59474,1.317429 -0.982573,1.920168 -0.09996,0.148936 -0.194916,0.300869 -0.301869,0.443807 l -0.157932,0.216907 c -0.05398,0.07097 -0.109954,0.139939 -0.165928,0.209908 -0.222905,0.278879 -0.458802,0.545765 -0.716691,0.79066 0.299872,-0.643722 0.577751,-1.280448 0.817646,-1.92517 0.241897,-0.644719 0.447807,-1.294439 0.614735,-1.950154 0.163928,-0.655716 0.306868,-1.312431 0.386833,-1.978143 l 0.017,-0.123948 c 0.006,-0.04198 0.01301,-0.08296 0.01598,-0.124946 l 0.024,-0.248893 0.02499,-0.24989 0.01301,-0.123947 c 0.004,-0.04198 0.005,-0.08396 0.007,-0.125945 l 0.02799,-0.499784 c 0.002,-0.04098 0.006,-0.08296 0.007,-0.124946 v -0.124946 l 0.002,-0.249892 c 0.01199,-0.333855 -0.009,-0.667711 -0.01898,-1.001566 -0.02598,-0.332856 -0.04398,-0.666712 -0.08796,-0.998568 l -0.02799,-0.249892 c -0.008,-0.08296 -0.02499,-0.164929 -0.03699,-0.247893 -0.014,-0.08296 -0.02697,-0.165928 -0.03898,-0.248892 -0.01198,-0.08296 -0.024,-0.166928 -0.04098,-0.248892 l -0.09596,-0.495786 -0.110951,-0.493786 C 25.627411,25.154942 25.429497,24.502225 25.197598,23.854505 24.9647,23.206785 24.694817,22.567062 24.403941,21.919343"
       style="fill:#dd85c4;fill-opacity:1;fill-rule:nonzero;stroke:none;stroke-width:0.00999568"
       id="path464" />
    <path
       d="m 50.997486,26.721265 c -0.194917,2.142072 -2.089097,3.720389 -4.23117,3.525474 -2.142074,-0.194916 -3.72039,-2.089096 -3.525474,-4.231169 0.194914,-2.141073 2.089094,-3.72039 4.231168,-3.525474 2.142073,0.194915 3.72039,2.089095 3.525476,4.231169"
       style="fill:#ce65b0;fill-opacity:1;fill-rule:nonzero;stroke:none;stroke-width:0.00999568"
       id="path466" />
    <path
       d="m 40.84388,17.017464 c -0.193916,2.142073 -2.089097,3.72039 -4.23017,3.526474 -2.142073,-0.194916 -3.72139,-2.089096 -3.526473,-4.231169 0.02697,-0.290874 0.08396,-0.570753 0.169925,-0.837637 2.528906,0.133942 5.053814,0.356845 7.568726,0.665712 0.03798,0.284876 0.04498,0.578749 0.01799,0.87662"
       style="fill:#ce65b0;fill-opacity:1;fill-rule:nonzero;stroke:none;stroke-width:0.00999568"
       id="path468" />
    <path
       d="m 63.271167,23.333731 c -0.41182,1.892181 -2.17905,3.225604 -4.15819,3.045681 -2.14108,-0.194915 -3.72039,-2.089095 -3.52548,-4.231168 0.10196,-1.123514 0.67171,-2.092095 1.49935,-2.729819 2.33699,0.691701 4.68398,1.667278 6.0234,3.662415 0.056,0.08296 0.10995,0.166928 0.16092,0.252891"
       style="fill:#ce65b0;fill-opacity:1;fill-rule:nonzero;stroke:none;stroke-width:0.00999568"
       id="path470" />
    <path
       d="m 62.552487,32.912585 v 0.0011 c -0.29488,0.563757 -0.61374,1.116517 -0.9396,1.661282 -0.83464,1.393396 -1.73425,2.752808 -2.69583,4.06624 -0.05,-0.002 -0.1,-0.006 -0.14994,-0.01 -2.14207,-0.194917 -3.72039,-2.089097 -3.52547,-4.231171 0.19492,-2.14207 2.0891,-3.720388 4.23117,-3.525473 1.35341,0.122947 2.48193,0.924601 3.07967,2.038118"
       style="fill:#ce65b0;fill-opacity:1;fill-rule:nonzero;stroke:none;stroke-width:0.00999568"
       id="path472" />
    <path
       d="m 48.332638,39.673658 c -0.194916,2.142074 -2.089097,3.72039 -4.231167,3.525474 -2.142074,-0.194914 -3.72039,-2.089095 -3.525476,-4.231168 0.194916,-2.141073 2.089096,-3.72039 4.23117,-3.525473 2.14207,0.194913 3.72039,2.089094 3.525473,4.231167"
       style="fill:#ce65b0;fill-opacity:1;fill-rule:nonzero;stroke:none;stroke-width:0.00999568"
       id="path474" />
    <path
       d="m 57.218797,40.831158 c -3.10366,3.781362 -6.764078,7.09393 -10.935273,9.639828 -6.344253,3.872323 -13.901982,5.901445 -21.296781,5.143772 C 19.423149,55.044005 13.992501,52.837962 9.7033573,49.229523 7.821173,47.646208 6.405785,45.649073 5.358239,43.440029 c 4.5760183,-3.149637 10.55643,-4.295141 15.925106,-2.797789 5.108788,1.423382 9.4749,4.952856 14.652659,6.102357 4.41109,0.979579 9.072073,0.127946 13.253265,-1.584314 2.819779,-1.1555 5.459638,-2.683838 8.029528,-4.329125"
       style="fill:#ed8ed2;fill-opacity:1;fill-rule:nonzero;stroke:none;stroke-width:0.00999568"
       id="path476" />
    <path
       d="m 20.663614,28.781373 c -0.778663,3.048681 -3.943294,4.891883 -7.066942,4.117217 -3.122648,-0.774665 -5.0238251,-3.874322 -4.2441624,-6.924002 0.7796614,-3.048681 3.9432924,-4.891883 7.0669404,-4.116219 3.123649,0.774665 5.023825,3.874323 4.244164,6.923004"
       style="fill:#ffffff;fill-opacity:1;fill-rule:nonzero;stroke:none;stroke-width:0.00999568"
       id="path478" />
    <path
       d="m 18.795422,28.356557 c -0.528773,2.067105 -2.673843,3.316565 -4.790927,2.79079 -2.117083,-0.524771 -3.405525,-2.625862 -2.876755,-4.692967 0.528772,-2.066106 2.672844,-3.315565 4.789928,-2.790792 2.118083,0.525772 3.405527,2.626863 2.877754,4.692969"
       style="fill:#262626;fill-opacity:1;fill-rule:nonzero;stroke:none;stroke-width:0.00999568"
       id="path480" />
    <path
       d="m 19.444142,26.279456 c -0.246893,0.963583 -1.247461,1.54633 -2.234035,1.301436 -0.987571,-0.244894 -1.588312,-1.22447 -1.342418,-2.188053 0.246893,-0.964582 1.247459,-1.54633 2.234033,-1.301436 0.987574,0.244894 1.588313,1.22447 1.34242,2.188053"
       style="fill:#ffffff;fill-opacity:1;fill-rule:nonzero;stroke:none;stroke-width:0.00999568"
       id="path482" />
    <path
       d="M 10.267113,34.061088 C 10.014223,35.061654 9.4204806,35.959267 8.5968369,36.588994 7.772194,37.217721 6.751636,37.552578 5.723081,37.529587 l -0.03998,-0.0011 C 4.803482,37.501487 3.97484,37.219622 3.277142,36.748823 3.134204,35.968163 3.019254,35.184501 2.928293,34.404838 c 0.528772,1.04055 1.59431,1.749242 2.79579,1.786227 l 0.02799,0.0011 c 1.496352,0.03199 2.8497669,-1.001565 3.2176076,-2.458934 0.09096,-0.358847 0.453803,-0.575751 0.8126477,-0.484793 0.3578447,0.09096 0.5757497,0.453806 0.4847897,0.81265"
       style="fill:#262626;fill-opacity:1;fill-rule:nonzero;stroke:none;stroke-width:0.00999568"
       id="path484" />
    <path
       d="m 28.084401,55.771692 c -1.033551,0 -2.067103,-0.05198 -3.097658,-0.156934 -3.183624,-0.326858 -6.322265,-1.188484 -9.230006,-2.541897 2.907741,1.353413 6.047382,2.215039 9.230006,2.541897 1.030555,0.104955 2.064107,0.156934 3.097658,0.156934 6.38024,0 12.738486,-1.968149 18.199123,-5.300706 v 0 c 0.01598,-0.01 0.03199,-0.02 0.04698,-0.02899 0.0011,-0.0011 0.002,-0.0011 0.003,-0.0011 0.910607,-0.558759 1.797224,-1.153502 2.658849,-1.781229 -0.87762,0.63972 -1.780228,1.24446 -2.708828,1.811215 -5.459636,3.332557 -11.818882,5.300706 -18.199122,5.300706"
       style="fill:#ededed;fill-opacity:1;fill-rule:nonzero;stroke:none;stroke-width:0.00999568"
       id="path486" />
    <path
       d="m 46.283524,50.470986 c 0.01598,-0.01 0.03199,-0.02 0.04698,-0.02899 -0.01499,0.009 -0.03099,0.01898 -0.04698,0.02899 m 0.04998,-0.02999 c 3.335558,-2.044117 6.345255,-4.578021 9.003103,-7.449776 -1.93217,2.088094 -4.050246,3.997268 -6.344253,5.668547 -0.861626,0.627727 -1.748243,1.22247 -2.65885,1.781229"
       style="fill:#ed8d00;fill-opacity:1;fill-rule:nonzero;stroke:none;stroke-width:0.00999568"
       id="path488" />
    <path
       d="m 7.748204,47.248379 c -9.91e-4,0 -9.91e-4,0 -9.91e-4,-0.0011 0,0.0011 9.91e-4,0.0011 9.91e-4,0.0011 m -0.01299,-0.01598 c -9.91e-4,-0.0011 -0.003,-0.003 -0.004,-0.004 9.92e-4,0.0011 0.003,0.003 0.004,0.004 m -0.01499,-0.01799 c -0.002,-0.002 -0.004,-0.004 -0.006,-0.006 0.002,0.002 0.004,0.004 0.006,0.006 m -0.02099,-0.02499 c -0.003,-0.004 -0.006,-0.008 -0.01,-0.01198 0.004,0.004 0.007,0.008 0.01,0.01198 m -0.01599,-0.01998 c -0.004,-0.004 -0.007,-0.009 -0.01099,-0.013 0.004,0.004 0.007,0.009 0.01099,0.013 m -0.01599,-0.02 c -0.005,-0.005 -0.009,-0.01099 -0.01399,-0.017 0.005,0.006 0.009,0.01099 0.01399,0.017"
       style="fill:#ed8d00;fill-opacity:1;fill-rule:nonzero;stroke:none;stroke-width:0.00999568"
       id="path490" />
    <path
       d="m 6.109913,44.875408 v 0 0 m -0.05598,-0.09696 c 0,0 0,0 0,-0.0011 0,0.0011 0,0.0011 0,0.0011 m -0.011,-0.01998 c 0,0 0,0 -9.92e-4,-0.0011 9.92e-4,0.0011 9.92e-4,0.0011 9.92e-4,0.0011 m -0.05498,-0.09696 c 0,-0.0011 0,-0.0011 -9.92e-4,-0.0011 9.92e-4,0 9.92e-4,0 9.92e-4,0.0011 m -0.05498,-0.09796 c 0,-0.0011 0,-0.0011 0,-0.002 0,0.0011 0,0.0011 0,0.002 m -0.01099,-0.021 v 0 0 m -0.04298,-0.07697 c 0,-0.0011 0,-0.002 -9.91e-4,-0.002 9.91e-4,0 9.91e-4,0.0011 9.91e-4,0.002 m -0.01099,-0.02099 v -0.0011 0.0011 m -0.04198,-0.07797 c 0,-0.0011 -9.92e-4,-0.0011 -9.92e-4,-0.002 0,0 9.92e-4,0.0011 9.92e-4,0.002 m -0.011,-0.021 c 0,0 0,0 -9.92e-4,-0.0011 l 9.92e-4,0.0011 m -0.05298,-0.09896 c 0,-0.0011 0,-0.0011 -9.92e-4,-0.0011 9.92e-4,0 9.92e-4,0.0011 9.92e-4,0.0011"
       style="fill:#ededed;fill-opacity:1;fill-rule:nonzero;stroke:none;stroke-width:0.00999568"
       id="path492" />
    <path
       d="M 7.651246,47.13043 C 7.079494,46.421738 6.566716,45.667065 6.109913,44.875408 v 0 c -0.01899,-0.03199 -0.03798,-0.06497 -0.05598,-0.09696 0,0 0,0 0,-0.0011 -0.004,-0.006 -0.007,-0.01199 -0.011,-0.01898 0,0 0,0 -9.92e-4,-0.0011 -0.01799,-0.03199 -0.03598,-0.06397 -0.05398,-0.09596 0,-0.0011 0,-0.0011 -9.92e-4,-0.0011 -0.01799,-0.03199 -0.03598,-0.06497 -0.05398,-0.09696 0,-0.0011 0,-0.0011 0,-0.002 -0.004,-0.006 -0.007,-0.01199 -0.01099,-0.01898 v 0 c -0.014,-0.02598 -0.02799,-0.05098 -0.04298,-0.07697 0,-0.0011 0,-0.002 -9.92e-4,-0.002 -0.003,-0.007 -0.006,-0.013 -0.01,-0.01898 v -0.0011 c -0.01399,-0.02598 -0.02799,-0.05098 -0.04198,-0.07697 0,-0.0011 -9.91e-4,-0.002 -9.91e-4,-0.002 -0.003,-0.006 -0.007,-0.01301 -0.01,-0.01898 l -9.91e-4,-0.0011 c -0.01699,-0.03199 -0.03499,-0.06497 -0.05198,-0.09796 0,0 0,-0.0011 -9.92e-4,-0.0011 -0.795655,-1.50435 -1.407391,-3.124649 -1.868191,-4.792927 -0.01,-0.03598 -0.01199,-0.05298 -0.005,-0.05298 0.06397,0 0.85463,1.440377 2.672843,3.27758 -0.410822,0.238897 -0.811649,0.493789 -1.20248,0.762672 0.62573,1.320427 1.383402,2.56489 2.293008,3.690401"
       style="fill:#ed8ed2;fill-opacity:1;fill-rule:nonzero;stroke:none;stroke-width:0.00999568"
       id="path494" />
    <path
       d="m 57.666597,40.277397 c 0.42782,-0.536768 0.84463,-1.08253 1.25046,-1.636291 v 0 0 0 0 c -0.40583,0.553761 -0.82264,1.099523 -1.25046,1.636291"
       style="fill:#ededed;fill-opacity:1;fill-rule:nonzero;stroke:none;stroke-width:0.00999568"
       id="path496" />
    <path
       d="m 50.582665,44.553546 c 2.42395,-1.519342 4.451072,-3.204612 6.135342,-4.888884 0.40782,-0.407822 0.79366,-0.814648 1.1615,-1.219472 0.28188,0.09396 0.57875,0.157932 0.88761,0.18592 0.05,0.004 0.1,0.008 0.14994,0.01 v 0 c -0.40583,0.553761 -0.82264,1.099523 -1.25046,1.636291 -0.14793,0.185921 -0.29687,0.369841 -0.4478,0.553761 -2.14208,1.371406 -4.333129,2.661847 -6.636132,3.722387 m 4.754942,-1.563322 c 0.038,-0.04098 0.077,-0.08297 0.11495,-0.124945 -0.039,0.04198 -0.077,0.08396 -0.11495,0.124945 m 0.11595,-0.125945 c 0.013,-0.014 0.025,-0.02697 0.037,-0.04098 -0.012,0.014 -0.024,0.02697 -0.037,0.04098 m 0.041,-0.04398 c 0.024,-0.02598 0.048,-0.05298 0.071,-0.07897 -0.023,0.02598 -0.048,0.05298 -0.071,0.07897 m 0.077,-0.08496 c 0.011,-0.01198 0.023,-0.02499 0.034,-0.03698 -0.011,0.01199 -0.023,0.02499 -0.034,0.03698 m 0.04,-0.04398 c 0.012,-0.013 0.023,-0.02499 0.035,-0.03798 -0.012,0.01301 -0.023,0.02499 -0.035,0.03798 m 0.036,-0.03898 c 0.011,-0.01199 0.022,-0.02499 0.033,-0.03699 -0.011,0.01199 -0.022,0.02499 -0.033,0.03699 m 0.04,-0.04498 c 0.011,-0.01099 0.021,-0.02298 0.032,-0.03498 -0.011,0.01199 -0.022,0.024 -0.032,0.03498 m 0.041,-0.04498 c 0.011,-0.01199 0.021,-0.02298 0.031,-0.03498 -0.01,0.01199 -0.02,0.02298 -0.031,0.03498 m 0.038,-0.04298 c 0.009,-0.01 0.019,-0.01998 0.028,-0.02999 -0.009,0.01 -0.019,0.02 -0.028,0.02999 m 0.037,-0.03998 c 0.01,-0.01099 0.02,-0.02298 0.03,-0.03398 -0.01,0.01099 -0.02,0.02298 -0.03,0.03398 m 0.041,-0.04498 c 0.01,-0.01198 0.019,-0.02199 0.029,-0.03298 -0.01,0.01099 -0.019,0.02199 -0.029,0.03298 m 0.04,-0.04598 c 0.007,-0.008 0.015,-0.01601 0.022,-0.024 -0.007,0.008 -0.014,0.01598 -0.022,0.024 m 0.034,-0.03698 c 0.009,-0.01099 0.018,-0.021 0.027,-0.03099 -0.009,0.01 -0.018,0.01998 -0.027,0.03099 m 0.042,-0.04698 c 0.008,-0.01 0.016,-0.01898 0.025,-0.02899 -0.009,0.01 -0.017,0.01898 -0.025,0.02899 m 0.04,-0.04598 c 0.006,-0.007 0.012,-0.014 0.018,-0.021 -0.006,0.007 -0.012,0.01499 -0.018,0.021 m 0.04,-0.04498 c 0.006,-0.007 0.012,-0.014 0.018,-0.02 -0.006,0.007 -0.012,0.013 -0.018,0.02 m 0.035,-0.03898 c 0.007,-0.009 0.015,-0.01799 0.023,-0.02697 -0.008,0.009 -0.016,0.01799 -0.023,0.02697 m 0.04,-0.04598 c 0.005,-0.006 0.011,-0.01199 0.016,-0.01799 -0.005,0.006 -0.011,0.01199 -0.016,0.01799 m 0.039,-0.04398 c 0.006,-0.007 0.011,-0.013 0.017,-0.01997 -0.006,0.007 -0.011,0.014 -0.017,0.01997 m 0.033,-0.03798 c 0.008,-0.009 0.017,-0.01898 0.025,-0.02799 -0.008,0.009 -0.017,0.01898 -0.025,0.02799 m 0.041,-0.04698 c 0.005,-0.006 0.01,-0.01099 0.015,-0.017 -0.005,0.006 -0.01,0.01099 -0.015,0.017 m 0.041,-0.04698 c 0.005,-0.005 0.01,-0.01 0.014,-0.01598 -0.004,0.005 -0.009,0.01099 -0.014,0.01598 m 0.032,-0.03598 c 0.007,-0.008 0.014,-0.01598 0.021,-0.02499 -0.007,0.008 -0.014,0.017 -0.021,0.02499 m 0.042,-0.04798 c 0.003,-0.004 0.007,-0.009 0.011,-0.01301 -0.004,0.005 -0.008,0.009 -0.011,0.01301 m 0.041,-0.04798 c 0.003,-0.004 0.007,-0.008 0.01,-0.01099 -0.003,0.004 -0.006,0.007 -0.01,0.01099 m 0.071,-0.08197 c 0.003,-0.003 0.006,-0.007 0.009,-0.01 -0.003,0.003 -0.006,0.007 -0.009,0.01 m 0.042,-0.04898 c 0.003,-0.003 0.006,-0.006 0.008,-0.009 -0.002,0.003 -0.005,0.006 -0.008,0.009 m 0.046,-0.05298 c 10e-4,-0.002 0.002,-0.003 0.004,-0.005 -0.002,0.002 -0.003,0.003 -0.004,0.005 m 0.025,-0.02899 c 0.001,-0.002 0.003,-0.004 0.004,-0.006 -0.001,0.002 -0.003,0.004 -0.004,0.006 m 0.042,-0.04998 c 0.002,-0.002 0.003,-0.004 0.005,-0.005 -0.002,0.002 -0.003,0.003 -0.005,0.005 m 0.069,-0.07997 c 10e-4,-0.0011 10e-4,-0.002 0.002,-0.003 -10e-4,0.0011 -10e-4,0.002 -0.002,0.003 m 0.041,-0.04898 c 0.002,-0.003 0.004,-0.005 0.006,-0.007 -0.002,0.002 -0.004,0.004 -0.006,0.007 m 0.11196,-0.131944 c 10e-4,-0.002 0.002,-0.003 0.003,-0.005 -0.001,0.002 -0.002,0.003 -0.003,0.005 m 0.043,-0.05198 c 10e-4,-0.0011 0.002,-0.002 0.003,-0.003 -0.001,0.0011 -0.002,0.002 -0.003,0.003 m 0.024,-0.028 v 0 0 m 0.043,-0.05098 c 10e-4,-0.0011 0.002,-0.003 0.003,-0.004 -0.001,0.0011 -0.002,0.003 -0.003,0.004 m 0.043,-0.05298 c 10e-4,0 10e-4,-0.0011 0.002,-0.002 -10e-4,0.0011 -10e-4,0.002 -0.002,0.002 m 0.066,-0.07896 c 0.001,-0.0011 0.002,-0.0011 0.002,-0.002 -10e-4,0.0011 -10e-4,0.0011 -0.002,0.002 m 0.044,-0.05298 h 10e-4 -10e-4 m 0.065,-0.07796 c 0.001,-0.0011 0.002,-0.002 0.002,-0.003 0,0.0011 -10e-4,0.002 -0.002,0.003 m 0.042,-0.05198 c 10e-4,-0.0011 0.002,-0.002 0.003,-0.003 -10e-4,0.0011 -0.002,0.002 -0.003,0.003"
       style="fill:#ed8ed2;fill-opacity:1;fill-rule:nonzero;stroke:none;stroke-width:0.00999568"
       id="path498" />
    <path
       d="m 59.456827,37.889431 c 0.76067,-1.078535 1.47936,-2.185056 2.15606,-3.314564 0.12995,-0.217907 0.25989,-0.436812 0.38584,-0.657716 v 0.0011 c -0.12595,0.219905 -0.25589,0.438809 -0.38584,0.656716 -0.6767,1.129508 -1.39539,2.236029 -2.15606,3.314565"
       style="fill:#ededed;fill-opacity:1;fill-rule:nonzero;stroke:none;stroke-width:0.00999568"
       id="path500" />
    <path
       d="m 61.998727,33.918151 v -0.0011 c 0,0 0,0 10e-4,0 v 0 c 0,0 -10e-4,0 -10e-4,0.0011 m 2.00113,-4.757942 c 0.014,-0.06097 0.027,-0.121947 0.039,-0.182921 0.001,-0.003 0.001,-0.007 0.002,-0.011 0,0.004 -0.001,0.007 -0.002,0.011 -0.012,0.06097 -0.025,0.121947 -0.039,0.182921"
       style="fill:#6f4c92;fill-opacity:1;fill-rule:nonzero;stroke:none;stroke-width:0.00999568"
       id="path502" />
    <path
       d="m 61.999727,33.917151 v 0 c 0.002,-0.004 0.005,-0.009 0.007,-0.01301 0.047,-0.08197 0.094,-0.16393 0.14094,-0.246893 -0.049,0.08696 -0.0989,0.173924 -0.14793,0.259887 m 0.40382,-0.723686 c 0.05,-0.09296 0.1,-0.186921 0.14894,-0.27988 v -0.0011 c 0.074,-0.13994 0.14694,-0.281877 0.21691,-0.423817 -0.07,0.14194 -0.14294,0.283877 -0.21691,0.423817 v 0.0011 c -0.049,0.09396 -0.098,0.186918 -0.14894,0.27988"
       style="fill:#674788;fill-opacity:1;fill-rule:nonzero;stroke:none;stroke-width:0.00999568"
       id="path504" />
    <path
       d="m 62.006717,33.904157 c 0.18792,-0.326861 0.37084,-0.656716 0.54577,-0.990572 v -0.0011 c -0.085,-0.158932 -0.18193,-0.312863 -0.28888,-0.457801 1.22547,-2.116084 1.74225,-3.540468 1.78123,-3.540468 0.005,0 0.003,0.01699 -0.004,0.05198 -10e-4,0.004 -10e-4,0.008 -0.002,0.011 -0.012,0.06097 -0.025,0.121947 -0.039,0.182921 -0.25789,1.157499 -0.6987,2.263019 -1.23047,3.328557 -0.07,0.14194 -0.14294,0.283878 -0.21691,0.423817 v 0.0011 c -0.049,0.09296 -0.099,0.186918 -0.14893,0.279879 -0.084,0.155932 -0.16893,0.309866 -0.25589,0.4638 -0.047,0.08296 -0.094,0.164927 -0.14094,0.246893"
       style="fill:#ed8ed2;fill-opacity:1;fill-rule:nonzero;stroke:none;stroke-width:0.00999568"
       id="path506" />
    <path
       d="m 58.917057,38.641106 v 0 c -0.05,-0.002 -0.1,-0.006 -0.14994,-0.01 -0.30886,-0.02799 -0.60573,-0.09196 -0.88761,-0.18592 1.98714,-2.188051 3.41052,-4.308134 4.3841,-5.990406 0.10695,0.144938 0.20391,0.298869 0.28888,0.457801 v 0.0011 c -0.17493,0.333856 -0.35785,0.663712 -0.54577,0.990572 -0.002,0.004 -0.005,0.009 -0.007,0.01301 -10e-4,0 -10e-4,0 -10e-4,0 -0.12595,0.220904 -0.25589,0.439809 -0.38583,0.657715 -0.67671,1.129509 -1.3954,2.23603 -2.15607,3.314565 -0.17792,0.251891 -0.35784,0.502782 -0.53977,0.751675 v 0"
       style="fill:#a86495;fill-opacity:1;fill-rule:nonzero;stroke:none;stroke-width:0.00999568"
       id="path508" />
    <path
       d="m 28.084401,55.771692 c -1.033551,0 -2.067103,-0.05198 -3.097658,-0.156934 -3.182624,-0.326858 -6.322265,-1.188484 -9.230006,-2.541897 0,0 -9.92e-4,-0.0011 -0.002,-0.0011 -9.91e-4,0 -9.91e-4,-0.0011 -0.002,-0.0011 C 13.580677,52.058099 11.537561,50.771656 9.7033553,49.229324 8.9856656,48.625584 8.335948,47.960873 7.748202,47.24818 c 0,0 -9.92e-4,0 -9.92e-4,-0.0011 -0.004,-0.005 -0.008,-0.01 -0.01199,-0.01499 -9.92e-4,-0.0011 -0.003,-0.003 -0.004,-0.004 -0.004,-0.005 -0.008,-0.01 -0.011,-0.014 -0.002,-0.002 -0.004,-0.004 -0.006,-0.006 -0.005,-0.007 -0.01,-0.01301 -0.01499,-0.01898 -0.003,-0.004 -0.006,-0.008 -0.01,-0.01199 -0.002,-0.003 -0.004,-0.005 -0.006,-0.008 -0.004,-0.004 -0.007,-0.009 -0.01099,-0.013 -0.002,-0.002 -0.003,-0.005 -0.005,-0.007 -0.005,-0.006 -0.009,-0.01099 -0.01399,-0.017 -9.92e-4,-0.0011 -9.92e-4,-0.0011 -0.002,-0.002 -0.909606,-1.12551 -1.667278,-2.369973 -2.293008,-3.690401 0.390831,-0.268883 0.791658,-0.523774 1.20248,-0.762671 2.9667153,2.997704 8.671246,7.053947 18.426026,7.632699 1.17749,0.06997 2.322993,0.103955 3.434512,0.103955 9.649824,0 16.853707,-2.532904 22.16141,-5.860466 2.303003,-1.06054 4.494057,-2.350981 6.636127,-3.722387 -0.005,0.006 -0.009,0.01099 -0.014,0.017 -10e-4,0.0011 -0.002,0.002 -0.003,0.003 -0.013,0.01601 -0.026,0.03299 -0.04,0.04898 0,0.0011 -10e-4,0.002 -0.002,0.003 -0.022,0.02598 -0.043,0.05198 -0.064,0.07796 h -10e-4 c -0.014,0.017 -0.028,0.03399 -0.042,0.05098 0,0.0011 -10e-4,0.0011 -0.002,0.002 -0.021,0.02598 -0.043,0.05198 -0.064,0.07697 -0.001,0.0011 -0.001,0.002 -0.002,0.002 -0.013,0.017 -0.027,0.03299 -0.04,0.04898 -10e-4,0.0011 -0.002,0.003 -0.003,0.004 -0.015,0.017 -0.029,0.03399 -0.043,0.05098 v 0 c -0.007,0.008 -0.014,0.017 -0.021,0.02499 -10e-4,0.0011 -0.002,0.002 -0.003,0.003 -0.013,0.01598 -0.026,0.03199 -0.04,0.04698 -0.001,0.002 -0.002,0.003 -0.003,0.005 -0.035,0.04198 -0.07,0.08297 -0.10596,0.124945 -0.002,0.002 -0.004,0.004 -0.006,0.007 -0.013,0.01499 -0.026,0.03099 -0.039,0.04598 -10e-4,0.0011 -10e-4,0.002 -0.002,0.003 -0.021,0.024 -0.043,0.04998 -0.064,0.07497 -0.002,0.0011 -0.003,0.003 -0.005,0.005 -0.012,0.01499 -0.025,0.02999 -0.038,0.04398 -0.001,0.002 -0.003,0.004 -0.004,0.006 -0.007,0.008 -0.014,0.01598 -0.021,0.024 -0.002,0.002 -0.003,0.003 -0.004,0.005 -0.013,0.014 -0.025,0.02899 -0.038,0.04398 -0.002,0.003 -0.005,0.006 -0.008,0.009 -0.011,0.013 -0.022,0.02598 -0.033,0.03898 -0.003,0.003 -0.006,0.007 -0.009,0.01 -0.02,0.024 -0.041,0.04698 -0.061,0.07097 -0.003,0.003 -0.007,0.007 -0.01,0.01099 -0.01,0.01199 -0.02,0.024 -0.03,0.03498 -0.004,0.004 -0.008,0.009 -0.011,0.013 -0.007,0.008 -0.014,0.01598 -0.021,0.02298 -0.007,0.009 -0.014,0.017 -0.021,0.02499 -0.006,0.007 -0.012,0.013 -0.018,0.02 -0.004,0.006 -0.009,0.01099 -0.014,0.01598 -0.008,0.01 -0.017,0.02 -0.026,0.02999 -0.005,0.006 -0.01,0.01099 -0.015,0.017 -0.005,0.006 -0.011,0.013 -0.016,0.01898 -0.008,0.009 -0.017,0.01898 -0.025,0.02799 -0.005,0.006 -0.011,0.01199 -0.016,0.01799 -0.006,0.007 -0.011,0.013 -0.017,0.01998 -0.008,0.009 -0.015,0.017 -0.023,0.02598 -0.005,0.006 -0.011,0.01198 -0.016,0.01799 -0.006,0.007 -0.011,0.01301 -0.017,0.01898 -0.008,0.009 -0.016,0.01799 -0.023,0.02697 -0.006,0.006 -0.011,0.01199 -0.017,0.01898 -0.006,0.006 -0.012,0.01301 -0.018,0.02 -0.007,0.008 -0.014,0.01598 -0.022,0.024 -0.006,0.007 -0.012,0.014 -0.018,0.021 -0.005,0.006 -0.01,0.01199 -0.015,0.017 -0.009,0.01 -0.017,0.01898 -0.025,0.02899 -0.005,0.005 -0.01,0.01 -0.015,0.01601 -0.009,0.01 -0.018,0.01998 -0.027,0.03099 -0.004,0.004 -0.008,0.008 -0.012,0.01301 -0.007,0.008 -0.015,0.01598 -0.022,0.024 -0.004,0.004 -0.007,0.008 -0.011,0.013 -0.01,0.01099 -0.019,0.021 -0.029,0.03298 -0.004,0.003 -0.007,0.007 -0.011,0.01099 -0.01,0.01099 -0.02,0.02298 -0.03,0.03398 -0.003,0.003 -0.006,0.007 -0.009,0.01 -0.009,0.01 -0.019,0.02 -0.028,0.02999 -0.002,0.003 -0.004,0.006 -0.007,0.008 -0.01,0.01199 -0.02,0.02298 -0.031,0.03498 -0.003,0.003 -0.006,0.007 -0.009,0.01 -0.011,0.01199 -0.021,0.024 -0.032,0.03498 -0.002,0.003 -0.005,0.005 -0.007,0.008 -0.011,0.01199 -0.022,0.02499 -0.033,0.03698 -10e-4,0 -10e-4,0.0011 -10e-4,0.0011 -0.012,0.013 -0.023,0.02499 -0.035,0.03798 -0.002,0.002 -0.004,0.005 -0.006,0.007 -0.011,0.01199 -0.023,0.02499 -0.034,0.03699 -0.002,0.002 -0.004,0.004 -0.006,0.006 -0.023,0.02598 -0.047,0.05298 -0.071,0.07897 -0.002,0.0011 -0.003,0.002 -0.004,0.003 -0.012,0.014 -0.024,0.02698 -0.037,0.04098 l -0.001,0.0011 c -0.038,0.04198 -0.077,0.08396 -0.11495,0.124946 -10e-4,0.0011 -10e-4,0.0011 -10e-4,0.0011 -2.657849,2.871755 -5.667547,5.405659 -9.003105,7.449776 -0.0011,0 -0.002,0 -0.003,0.0011 -0.01499,0.009 -0.03099,0.01898 -0.04698,0.02899 v 0 c -5.460636,3.332557 -11.818883,5.300707 -18.199122,5.300707"
       style="fill:#dd85c4;fill-opacity:1;fill-rule:nonzero;stroke:none;stroke-width:0.00999568"
       id="path510" />
    <path
       d="m 67.012547,22.837945 c -0.27987,0 -0.49078,-0.06897 -0.60873,-0.218905 -0.13394,-0.170926 -0.13194,-0.432813 -0.005,-0.766668 0.032,-0.08296 0.072,-0.170926 0.11895,-0.262887 0.048,-0.08996 0.10496,-0.18292 0.16793,-0.279878 0.12894,-0.192917 0.28388,-0.404825 0.47479,-0.613735 0.095,-0.105954 0.19592,-0.213907 0.30487,-0.324859 0.10796,-0.109953 0.2269,-0.215907 0.34985,-0.326859 0.2449,-0.224902 0.52477,-0.439809 0.82364,-0.659714 0.60474,-0.428815 1.31044,-0.842636 2.0911,-1.193484 0.78266,-0.34685 1.56232,-0.596741 2.28501,-0.759671 0.36384,-0.07597 0.70969,-0.139939 1.04055,-0.172925 0.16493,-0.01799 0.32286,-0.03498 0.47779,-0.04198 0.14894,-0.007 0.29387,-0.01 0.43082,-0.01 0.005,0 0.01,0 0.014,0 0.015,0 0.029,0 0.044,0 0.26589,0 0.51178,0.02499 0.72969,0.05598 0.11495,0.01799 0.2219,0.03698 0.32186,0.06197 0.099,0.02599 0.19092,0.05498 0.27388,0.08696 0.33386,0.127945 0.52977,0.30087 0.56775,0.515777 0.038,0.213907 -0.085,0.449805 -0.32985,0.688702 -0.061,0.05997 -0.12995,0.119948 -0.20591,0.179922 -0.075,0.06197 -0.15794,0.125946 -0.2469,0.188918 -0.17792,0.126945 -0.38283,0.248893 -0.60773,0.383834 -0.11196,0.06597 -0.22991,0.130944 -0.35385,0.195915 -0.12295,0.06597 -0.24989,0.136941 -0.38283,0.203912 -0.26589,0.131943 -0.54577,0.278879 -0.84364,0.41682 -0.59274,0.286876 -1.24346,0.581748 -1.92917,0.885617 -0.6837,0.307866 -1.33742,0.594742 -1.94715,0.844634 -0.30187,0.128944 -0.59774,0.240896 -0.87363,0.349848 -0.13793,0.05398 -0.27587,0.100957 -0.40682,0.148936 -0.13094,0.04898 -0.25889,0.09296 -0.38283,0.132943 -0.25089,0.07597 -0.4778,0.147935 -0.6917,0.195915 -0.10596,0.02399 -0.20891,0.04198 -0.30487,0.05797 -0.096,0.016 -0.18592,0.02699 -0.27188,0.03299 -0.042,0.003 -0.084,0.004 -0.12395,0.004"
       style="fill:#8bbda1;fill-opacity:1;fill-rule:nonzero;stroke:none;stroke-width:0.00999568"
       id="path512" />
    <path
       d="m 50.282793,13.694902 c -0.09096,0 -0.187918,-0.005 -0.289873,-0.01599 -0.124946,-0.01399 -0.25889,-0.03598 -0.399827,-0.06497 -0.14194,-0.02799 -0.293874,-0.05997 -0.451806,-0.100957 -0.317861,-0.07897 -0.657715,-0.194915 -1.034552,-0.314863 -0.186918,-0.06297 -0.379834,-0.131943 -0.577748,-0.206911 -0.09796,-0.03898 -0.201915,-0.07197 -0.30487,-0.109952 -0.102955,-0.03798 -0.206911,-0.07697 -0.312864,-0.117949 -0.105955,-0.03998 -0.211908,-0.08196 -0.319861,-0.124946 -0.05398,-0.02199 -0.107954,-0.04398 -0.162931,-0.06597 -0.05498,-0.02099 -0.110951,-0.04198 -0.166928,-0.06297 -0.223902,-0.08496 -0.450802,-0.176924 -0.681703,-0.272882 -0.932597,-0.36984 -1.940161,-0.788659 -2.998704,-1.22547 -1.061541,-0.43082 -2.073102,-0.837644 -2.997701,-1.2274757 -0.232898,-0.09396 -0.458801,-0.187918 -0.678706,-0.283877 -0.05398,-0.02399 -0.108953,-0.04798 -0.16293,-0.07197 -0.05398,-0.02299 -0.107953,-0.04498 -0.16193,-0.06697 -0.106953,-0.04498 -0.212909,-0.08996 -0.315864,-0.134941 -0.103955,-0.04498 -0.20591,-0.09096 -0.305867,-0.135941 -0.09996,-0.04498 -0.197915,-0.09396 -0.294871,-0.134942 C 37.46934,8.8699922 37.28442,8.7840294 37.106495,8.6980669 36.75365,8.5191441 36.42979,8.3632117 36.147913,8.1972835 36.005973,8.1163186 35.875029,8.0313554 35.755082,7.9523894 35.633134,7.8744231 35.523181,7.796457 35.424224,7.7184907 35.030395,7.4066256 34.822485,7.0967597 34.858469,6.8088844 c 0.03699,-0.2878754 0.317864,-0.526772 0.80865,-0.7086931 0.122947,-0.04598 0.258889,-0.087962 0.406825,-0.1269452 0.147935,-0.036984 0.306867,-0.064972 0.478794,-0.09196 0.341852,-0.049978 0.73368,-0.093959 1.159497,-0.093959 0.07097,-9.917e-4 0.143938,-0.00201 0.216907,-0.00201 0.146935,0 0.298869,0.00201 0.453803,0.006 0.116949,0.00201 0.234896,0.011994 0.354846,0.019993 0.120948,0.009 0.242895,0.018992 0.36784,0.030987 0.123948,0.010994 0.250891,0.023991 0.378837,0.037983 0.06497,0.007 0.129943,0.012994 0.194917,0.02199 0.06397,0.01 0.129943,0.018992 0.194913,0.028987 0.262888,0.040982 0.532771,0.085963 0.80865,0.1369408 1.100525,0.2199048 2.290009,0.5637558 3.490492,1.0505451 1.197479,0.4937865 2.287008,1.0825316 3.225601,1.6972654 0.231901,0.1569322 0.456804,0.3138642 0.67271,0.4687972 0.05298,0.03898 0.106953,0.07797 0.15993,0.11595 0.05198,0.03998 0.102955,0.08096 0.153934,0.1209477 0.100957,0.07996 0.199914,0.15993 0.296871,0.238896 0.09696,0.07897 0.190919,0.156932 0.283878,0.234898 0.09096,0.07897 0.181922,0.1539337 0.266885,0.2348987 0.169926,0.158931 0.330855,0.314864 0.481792,0.466798 0.302867,0.29987 0.55176,0.604738 0.760671,0.880619 0.103952,0.13894 0.196914,0.271882 0.276879,0.400827 0.07896,0.131943 0.145938,0.256888 0.201912,0.375837 0.221905,0.473795 0.254889,0.840636 0.07897,1.072536 -0.139939,0.182921 -0.398829,0.267884 -0.750677,0.267884"
       style="fill:#8bbda1;fill-opacity:1;fill-rule:nonzero;stroke:none;stroke-width:0.00999568"
       id="path514" />
    <path
       d="m 31.246033,27.569897 c -0.128944,0 -0.237897,-0.03199 -0.317862,-0.100956 -0.109954,-0.09496 -0.153934,-0.252891 -0.132944,-0.463799 0.005,-0.05298 0.01499,-0.108953 0.02799,-0.167928 0.014,-0.05897 0.03399,-0.118948 0.05598,-0.181921 0.04698,-0.125946 0.105953,-0.265885 0.189919,-0.406824 0.03998,-0.07097 0.08496,-0.143938 0.132941,-0.218905 0.04898,-0.07397 0.104955,-0.146937 0.16293,-0.221904 0.113949,-0.153933 0.250891,-0.301869 0.400827,-0.454803 0.302867,-0.298871 0.671707,-0.591744 1.094524,-0.843635 0.423817,-0.249892 0.857631,-0.432813 1.266454,-0.55476 0.20491,-0.05697 0.401827,-0.105954 0.590745,-0.132942 0.09396,-0.01399 0.184917,-0.02799 0.272881,-0.03499 0.08896,-0.006 0.174924,-0.01 0.256889,-0.01199 0.02298,-9.92e-4 0.04598,-9.92e-4 0.06797,-9.92e-4 0.136939,0 0.264885,0.01399 0.378833,0.03099 0.06697,0.01 0.128947,0.02199 0.186921,0.03798 0.05797,0.01699 0.111951,0.03499 0.16093,0.05598 0.194916,0.08296 0.311866,0.197914 0.342852,0.339853 0.02999,0.141939 -0.02799,0.297871 -0.149936,0.455803 -0.03099,0.03898 -0.06597,0.07897 -0.103955,0.118948 -0.03798,0.03998 -0.07997,0.08296 -0.124946,0.124946 -0.08996,0.08396 -0.193916,0.163929 -0.307865,0.252891 -0.05698,0.04398 -0.116949,0.08696 -0.178924,0.129943 -0.06297,0.04298 -0.126943,0.09096 -0.193917,0.134942 -0.133941,0.08696 -0.274878,0.18392 -0.424814,0.274881 -0.297872,0.189918 -0.62473,0.384833 -0.969582,0.587746 -0.34285,0.204911 -0.67071,0.396828 -0.980576,0.566754 -0.151933,0.08796 -0.304867,0.164929 -0.445807,0.240896 -0.07097,0.03698 -0.142938,0.06997 -0.210909,0.104954 -0.06797,0.03399 -0.133941,0.06597 -0.199911,0.09496 -0.132944,0.05598 -0.252892,0.108953 -0.369841,0.147937 -0.05898,0.01899 -0.115949,0.03498 -0.169926,0.04898 -0.05298,0.01499 -0.104955,0.02599 -0.153934,0.03399 -0.05398,0.008 -0.104955,0.01299 -0.153934,0.01299"
       style="fill:#8bbda1;fill-opacity:1;fill-rule:nonzero;stroke:none;stroke-width:0.00999568"
       id="path516" />
    <path
       d="m 49.774015,23.518651 c -0.609737,-0.568754 -1.407393,-0.946591 -2.302005,-1.028555 -0.119947,-0.01099 -0.238897,-0.01599 -0.357844,-0.01599 -0.659716,0 -1.288444,0.166928 -1.840204,0.464799 -1.824212,-0.321861 -3.977279,-0.721688 -6.297274,-1.08653 -3.161631,-0.498784 -6.047383,-0.836638 -8.183458,-1.167495 -1.066539,-0.167927 -1.94416,-0.340852 -2.563891,-0.546763 -0.310865,-0.103955 -0.555761,-0.214907 -0.727684,-0.336854 -0.171926,-0.121948 -0.268886,-0.25589 -0.28288,-0.399827 -0.014,-0.144938 0.05798,-0.292874 0.207911,-0.443808 0.149936,-0.150935 0.378836,-0.303869 0.680706,-0.451805 0.602739,-0.296871 1.497351,-0.579749 2.623865,-0.793656 0.716688,-0.135941 1.526337,-0.243895 2.409956,-0.308867 0.319862,1.660282 1.704262,2.979711 3.472497,3.140641 0.119947,0.01 0.238897,0.01599 0.356846,0.01599 1.695266,0 3.179624,-1.102523 3.6954,-2.67884 1.338422,0.258888 2.598874,0.592743 3.740382,0.978576 0.717688,0.237897 1.387398,0.500783 2.005131,0.764669 0.615734,0.269883 1.180491,0.541766 1.683272,0.818646 1.006564,0.548762 1.771233,1.092527 2.254025,1.560325 0.241895,0.232899 0.412821,0.448805 0.50878,0.638723 0.09696,0.189918 0.118947,0.352847 0.06197,0.48579 -0.05697,0.133942 -0.191916,0.2309 -0.392831,0.294872 -0.191916,0.05997 -0.444807,0.09096 -0.752673,0.09596"
       style="fill:#e1a9c8;fill-opacity:1;fill-rule:nonzero;stroke:none;stroke-width:0.00999568"
       id="path518" />
    <path
       d="m 49.679056,23.51965 c -0.647719,0 -1.517344,-0.103955 -2.555894,-0.266884 -0.567755,-0.09096 -1.186486,-0.196915 -1.8492,-0.313864 0.55176,-0.297872 1.180488,-0.464799 1.840204,-0.464799 0.118947,0 0.237897,0.005 0.357844,0.01599 0.894612,0.08197 1.692268,0.459801 2.302005,1.028555 -0.014,9.92e-4 -0.02799,9.92e-4 -0.04198,9.92e-4 -0.017,0 -0.03499,0 -0.05298,0"
       style="fill:#ed8ed2;fill-opacity:1;fill-rule:nonzero;stroke:none;stroke-width:0.00999568"
       id="path520" />
    <path
       d="m 36.970556,20.559931 c -0.117949,0 -0.236899,-0.006 -0.356846,-0.01599 -1.768235,-0.16093 -3.152635,-1.480359 -3.472497,-3.140641 0.50578,-0.03698 1.035553,-0.05997 1.586313,-0.06597 0.117949,-9.92e-4 0.236899,-0.002 0.356846,-0.002 1.415386,0 2.954721,0.11595 4.546031,0.363843 0.349851,0.05498 0.694701,0.11595 1.035553,0.181921 -0.515776,1.576318 -2.000134,2.678841 -3.6954,2.678841"
       style="fill:#ce65b0;fill-opacity:1;fill-rule:nonzero;stroke:none;stroke-width:0.00999568"
       id="path522" />
  </g>
</svg>
