<?xml version="1.0" encoding="UTF-8" standalone="no"?>
<svg
   xmlns:dc="http://purl.org/dc/elements/1.1/"
   xmlns:cc="http://creativecommons.org/ns#"
   xmlns:rdf="http://www.w3.org/1999/02/22-rdf-syntax-ns#"
   xmlns:svg="http://www.w3.org/2000/svg"
   xmlns="http://www.w3.org/2000/svg"
   xmlns:sodipodi="http://sodipodi.sourceforge.net/DTD/sodipodi-0.dtd"
   xmlns:inkscape="http://www.inkscape.org/namespaces/inkscape"
   width="320"
   height="230"
   viewBox="0 0 84.666664 60.854166"
   version="1.1"
   id="svg646"
   inkscape:version="1.0.2-2 (e86c870879, 2021-01-15)"
   sodipodi:docname="fish09.svg">
  <defs
     id="defs640" />
  <sodipodi:namedview
     id="base"
     pagecolor="#ffffff"
     bordercolor="#666666"
     borderopacity="1.0"
     inkscape:pageopacity="0.0"
     inkscape:pageshadow="2"
     inkscape:zoom="0.35"
     inkscape:cx="400"
     inkscape:cy="560"
     inkscape:document-units="px"
     inkscape:current-layer="layer1"
     inkscape:document-rotation="0"
     showgrid="false"
     units="px"
     inkscape:window-width="1267"
     inkscape:window-height="1032"
     inkscape:window-x="0"
     inkscape:window-y="45"
     inkscape:window-maximized="0" />
  <metadata
     id="metadata643">
    <rdf:RDF>
      <cc:Work
         rdf:about="">
        <dc:format>image/svg+xml</dc:format>
        <dc:type
           rdf:resource="http://purl.org/dc/dcmitype/StillImage" />
        <dc:title></dc:title>
      </cc:Work>
    </rdf:RDF>
  </metadata>
  <g
     inkscape:label="Layer 1"
     inkscape:groupmode="layer"
     id="layer1">
    <path
       d="m 26.882841,17.73047 c 1.192842,-3.050383 2.847556,-6.026466 5.402931,-8.3549201 2.555371,-2.329455 6.106787,-3.958067 9.802794,-3.910874 3.46105,0.04518 6.709235,1.524188 9.422246,3.397792 3.753237,2.5935281 6.701202,5.9491511 9.606998,9.2686271 1.04926,1.197863 2.111572,2.414801 2.759202,3.81348 0.646625,1.397674 0.840412,3.023272 0.132536,4.398857 -0.706868,1.375583 -2.462995,2.387691 -4.159885,2.099522 L 26.882841,17.73047"
       style="fill:#77529d;fill-opacity:1;fill-rule:nonzero;stroke:none;stroke-width:0.0100408"
       id="path318" />
    <path
       d="m 63.929223,33.641056 c 2.479065,-2.957005 5.598727,-5.37281 9.081865,-7.034558 1.466957,-0.69984 3.036328,-1.274172 4.661926,-1.289231 1.625599,-0.01406 3.32349,0.61148 4.283388,1.922804 1.468963,2.009154 0.808281,4.843661 -0.236963,7.101827 -1.046246,2.257164 -2.452957,4.52236 -2.310377,7.006443 0.160651,2.798359 2.293308,5.34871 1.869589,8.11996 -0.418699,2.739119 -3.385745,4.559509 -6.153981,4.43902 -2.768239,-0.119486 -5.262363,-1.746089 -7.23738,-3.68998 -2.362591,-2.324434 -4.201053,-5.179024 -5.34068,-8.290653 l 1.382613,-8.285632"
       style="fill:#77529d;fill-opacity:1;fill-rule:nonzero;stroke:none;stroke-width:0.0100408"
       id="path320" />
    <path
       d="m 75.382718,53.913344 c -0.08635,0 -0.172702,-0.002 -0.258048,-0.005 -2.768239,-0.120489 -5.262363,-1.747091 -7.23738,-3.690983 -1.686846,-1.659735 -3.10661,-3.589569 -4.196032,-5.6911 v 0 c 1.089422,2.101531 2.509186,4.031365 4.196032,5.6911 1.975017,1.943892 4.469141,3.570494 7.23738,3.689981 0.08635,0.004 0.171697,0.006 0.258048,0.006 0.847439,0 1.705923,-0.17772 2.496131,-0.504045 -0.790208,0.326325 -1.648692,0.504045 -2.496131,0.504045"
       style="fill:#ededed;fill-opacity:1;fill-rule:nonzero;stroke:none;stroke-width:0.0100408"
       id="path322" />
    <path
       d="m 75.382718,53.913344 c -0.08635,0 -0.171697,-0.002 -0.258048,-0.006 -2.768239,-0.119486 -5.262363,-1.746089 -7.23738,-3.68998 -1.686846,-1.659736 -3.10661,-3.58957 -4.196032,-5.691101 0.488985,-0.32532 0.97295,-0.656666 1.451894,-0.993033 0.02812,-0.01907 0.05623,-0.03916 0.08434,-0.05924 0.7882,1.12858 1.678813,2.184868 2.659796,3.150788 1.975017,1.942887 4.469141,3.569489 7.23738,3.68998 0.08535,0.004 0.171697,0.005 0.258048,0.005 2.366606,0 4.815547,-1.384622 5.647926,-3.5223 0.251018,0.877563 0.386568,1.762153 0.248007,2.670842 -0.278131,1.818383 -1.678817,3.231116 -3.399802,3.940998 -0.790208,0.326326 -1.648692,0.504045 -2.496131,0.504045"
       style="fill:#6f4c92;fill-opacity:1;fill-rule:nonzero;stroke:none;stroke-width:0.0100408"
       id="path324" />
    <path
       d="m 40.813388,52.402211 c 4.81856,2.711005 10.671319,3.528322 16.049149,2.240093 1.491053,-0.356447 3.015241,-0.914714 4.020319,-2.073416 0.962909,-1.110507 1.319356,-2.718035 0.914714,-4.131773 -0.404641,-1.414744 -1.556318,-2.590514 -2.962025,-3.024278 l -18.022157,6.989374"
       style="fill:#77529d;fill-opacity:1;fill-rule:nonzero;stroke:none;stroke-width:0.0100408"
       id="path326" />
    <path
       d="m 45.73336,54.423414 c -0.795228,-0.219892 -1.577403,-0.48296 -2.343511,-0.789203 0.766108,0.306243 1.548283,0.569311 2.343511,0.789203 v 0 m -2.346526,-0.790207 c -0.01204,-0.005 -0.02411,-0.01005 -0.03615,-0.01506 0.01204,0.005 0.02411,0.01005 0.03615,0.01506 m -0.04317,-0.01807 c -0.01005,-0.004 -0.02009,-0.008 -0.03012,-0.01204 0.01005,0.004 0.02009,0.008 0.03012,0.01204 m -0.04318,-0.01708 v 0 0 0 m 17.996054,-6.276479 c -0.002,-0.003 -0.004,-0.006 -0.006,-0.009 0.002,0.003 0.004,0.006 0.006,0.009 m -0.007,-0.01104 c -0.192812,-0.303234 -0.420735,-0.584376 -0.678783,-0.834392 v 0 c 0.258048,0.250016 0.486976,0.530153 0.678753,0.834389"
       style="fill:#ededed;fill-opacity:1;fill-rule:nonzero;stroke:none;stroke-width:0.0100408"
       id="path328" />
    <path
       d="m 45.73336,54.423414 c -0.795228,-0.219892 -1.577403,-0.48296 -2.343511,-0.789203 -0.0011,0 -0.002,-0.0011 -0.003,-0.0011 -0.01204,-0.005 -0.02411,-0.01005 -0.03615,-0.01506 -0.002,-0.0011 -0.005,-0.002 -0.007,-0.003 -0.01005,-0.004 -0.02009,-0.008 -0.03012,-0.01204 -0.004,-0.0011 -0.009,-0.003 -0.01306,-0.005 v 0 c 1.100468,-0.247002 2.191897,-0.533164 3.275297,-0.853464 1.850511,-0.548227 3.674916,-1.19987 5.467193,-1.939876 2.618629,-1.082392 5.166973,-2.354558 7.627965,-3.776328 0.314274,-0.181738 0.627547,-0.366488 0.939815,-0.552242 0.258048,0.250015 0.485971,0.531157 0.678753,0.834389 0.0011,0 0.0011,0.0011 0.0011,0.002 0.002,0.003 0.004,0.006 0.006,0.009 0.0271,0.04217 0.05221,0.08535 0.07832,0.128523 -0.563288,0.346405 -1.131595,0.684779 -1.703917,1.01512 -2.460992,1.42177 -5.009336,2.693936 -7.627964,3.776328 -1.792278,0.741008 -3.616683,1.391649 -5.467193,1.939876 -0.280137,0.08234 -0.561279,0.163665 -0.842421,0.241981"
       style="fill:#6f4c92;fill-opacity:1;fill-rule:nonzero;stroke:none;stroke-width:0.0100408"
       id="path330" />
    <path
       d="m 65.143152,43.533207 c -1.768178,1.240035 -3.594593,2.410788 -5.472213,3.49519 -2.460992,1.42177 -5.009336,2.693936 -7.627965,3.776328 -1.792277,0.740006 -3.616682,1.391649 -5.467193,1.939876 -2.195916,0.649636 -4.427977,1.15569 -6.689155,1.494063 -1.525193,0.227927 -3.06444,0.380546 -4.612724,0.449828 -1.085406,0.04819 -2.176838,0.05221 -3.267263,0.01005 -1.917786,-0.07129 -3.836573,-0.282146 -5.727249,-0.631566 -7.019496,-1.297266 -13.664469,-4.498258 -18.5673714,-9.58089 -0.466896,-0.483964 -0.917726,-0.983996 -1.351486,-1.502098 -0.153624,-0.18475 -0.306243,-0.371509 -0.454846,-0.562284 -1.32036,-1.682828 -2.410787,-3.617683 -2.47103,-5.736282 0,0 1.463943,-21.616749 26.1431214,-21.357699 1.803321,0.01907 3.73215,0.154628 5.792513,0.423722 0.438782,0.05723 0.882584,0.121493 1.333413,0.190772 1.957949,0.303231 3.89481,0.769123 5.779462,1.390647 1.607525,0.529146 3.175892,1.17075 4.689036,1.919793 0.6406,0.316284 1.263126,0.629554 1.86758,0.937805 1.968995,1.004077 3.751228,1.963975 5.365782,2.878686 2.669838,1.512137 4.879809,2.902784 6.709235,4.168925 8.820806,6.100762 8.802733,9.298746 8.802733,9.298746 0.229933,2.951981 -2.349538,5.297502 -4.77438,6.996397"
       style="fill:#ff6b8e;fill-opacity:1;fill-rule:nonzero;stroke:none;stroke-width:0.0100408"
       id="path332" />
    <path
       d="m 38.139532,35.949426 c -0.734982,7.761504 -3.366663,14.073124 -6.132893,18.749107 -1.917786,-0.07129 -3.836573,-0.282146 -5.727249,-0.631565 2.866637,-4.270335 5.937099,-10.563882 6.69819,-18.605523 0.770125,-8.134019 -1.166737,-15.088248 -3.399802,-20.133731 1.803321,0.01907 3.73215,0.154628 5.792513,0.423722 2.483081,6.582721 3.41386,13.378306 2.769241,20.19799"
       style="fill:#ffd740;fill-opacity:1;fill-rule:nonzero;stroke:none;stroke-width:0.0100408"
       id="path334" />
    <path
       d="m 50.925437,35.630128 c -0.265075,5.072592 -1.384622,10.051803 -3.327509,14.798071 -0.319295,0.782175 -0.660679,1.554309 -1.022147,2.316402 -2.195916,0.649636 -4.427977,1.15569 -6.689155,1.494063 2.65779,-4.363712 5.438074,-10.77072 5.861797,-18.879637 0.381547,-7.298625 -1.313333,-13.473693 -3.265257,-18.026171 1.607525,0.529145 3.175892,1.170749 4.689036,1.919792 0.6406,0.316284 1.263126,0.629554 1.86758,0.937806 1.525193,5.038452 2.158765,10.223501 1.885655,15.439674"
       style="fill:#ffd740;fill-opacity:1;fill-rule:nonzero;stroke:none;stroke-width:0.0100408"
       id="path336" />
    <path
       d="m 61.860827,36.566931 c -0.214871,3.993209 -1.083397,7.504461 -2.189888,10.461466 -2.460992,1.42177 -5.009336,2.693936 -7.627965,3.776328 1.945898,-3.082513 4.292424,-8.064736 4.640839,-14.516926 0.287164,-5.321601 -0.863505,-9.815846 -2.278249,-13.21866 2.669838,1.512138 4.879809,2.902785 6.709235,4.168925 0.664698,3.069458 0.914714,6.197155 0.746028,9.328867"
       style="fill:#ffd740;fill-opacity:1;fill-rule:nonzero;stroke:none;stroke-width:0.0100408"
       id="path338" />
    <path
       d="m 26.635836,35.527713 c 1.670782,-3.696003 4.97821,-6.535531 8.772612,-7.532577 0.969936,-0.255037 1.99309,-0.393598 2.969052,-0.158644 0.974957,0.234953 1.898708,0.89664 2.268207,1.869588 0.861496,2.265196 -1.51214,4.638832 -1.159709,7.04761 0.19178,1.311324 1.179789,2.439904 1.146657,3.764281 -0.03414,1.358513 -1.201879,2.462997 -2.468019,2.771246 -1.266141,0.308252 -2.594533,-0.01406 -3.829547,-0.446813 -2.906798,-1.01813 -5.614791,-2.659795 -7.905087,-4.792452 l 0.205834,-2.522239"
       style="fill:#77529d;fill-opacity:1;fill-rule:nonzero;stroke:none;stroke-width:0.0100408"
       id="path340" />
    <path
       d="m 36.525985,43.379584 c -0.43577,-0.04518 -0.870536,-0.136552 -1.299276,-0.255034 0.42874,0.118482 0.863506,0.20985 1.299276,0.255034"
       style="fill:#edc83b;fill-opacity:1;fill-rule:nonzero;stroke:none;stroke-width:0.0100408"
       id="path342" />
    <path
       d="m 39.116499,42.895622 c 0.536178,-0.32231 0.992028,-0.787195 1.259113,-1.340442 -0.267085,0.553247 -0.722935,1.018132 -1.259113,1.340442 m 1.412736,-3.21204 c -0.03916,-0.154626 -0.08836,-0.307247 -0.143585,-0.457857 0,-0.0011 0,-0.0011 0,-0.0011 0.05523,0.151614 0.104424,0.304236 0.143585,0.458862 M 27.316601,38.834 c -0.302229,-0.253027 -0.597425,-0.515091 -0.886599,-0.784182 l 0.02912,-0.362472 -0.02912,0.362472 c 0.289174,0.269091 0.585375,0.531155 0.886599,0.784182"
       style="fill:#ed6384;fill-opacity:1;fill-rule:nonzero;stroke:none;stroke-width:0.0100408"
       id="path344" />
    <path
       d="m 37.105334,43.410713 c -0.192781,0 -0.386567,-0.01104 -0.579349,-0.03113 -0.43577,-0.04518 -0.870536,-0.136552 -1.299276,-0.255034 -0.300217,-0.08334 -0.598427,-0.179729 -0.89162,-0.282146 -2.54031,-0.88961 -4.928003,-2.255154 -7.018488,-4.00827 -0.301224,-0.253027 -0.597425,-0.515091 -0.886599,-0.784182 l 0.02912,-0.362472 0.146597,-1.786252 c 2.253145,2.054341 4.895872,3.638772 7.729374,4.6308 0.894632,0.31327 1.837461,0.569311 2.770245,0.569311 0.356447,0 0.709882,-0.03715 1.059302,-0.122497 0.930774,-0.225918 1.807332,-0.882584 2.22101,-1.753117 0.05523,0.15061 0.104424,0.303231 0.143585,0.457857 0.06928,0.2711 0.110447,0.548226 0.102415,0.834389 -0.009,0.36749 -0.101413,0.716909 -0.256038,1.037209 -0.267085,0.553247 -0.722935,1.018132 -1.259113,1.340442 -0.298211,0.178724 -0.621522,0.313269 -0.951863,0.393595 -0.34942,0.08434 -0.702855,0.121496 -1.059302,0.121496"
       style="fill:#6f4c92;fill-opacity:1;fill-rule:nonzero;stroke:none;stroke-width:0.0100408"
       id="path346" />
    <path
       d="m 24.054356,26.94186 c 0.287168,0.234954 0.553247,0.495011 0.804268,0.770127 0.252022,0.275117 0.486976,0.566297 0.707872,0.869528 0.438782,0.606463 0.816313,1.264131 1.12356,1.956945 0.62052,1.382612 0.947847,2.911821 0.957889,4.442031 0,0.09539 0.0011,0.190775 -0.0011,0.286163 l -0.01306,0.287164 -0.01506,0.286163 -0.008,0.143582 c -0.002,0.04719 -0.006,0.09539 -0.01306,0.14258 l -0.06928,0.569311 c -0.006,0.04719 -0.01104,0.09438 -0.01907,0.141573 l -0.0261,0.140571 -0.05422,0.282146 -0.05422,0.280138 c -0.02209,0.09338 -0.0482,0.185754 -0.07129,0.278127 l -0.07229,0.276122 -0.03715,0.137559 c -0.01306,0.04619 -0.02912,0.09137 -0.04318,0.136552 -0.05924,0.180734 -0.119483,0.361468 -0.180734,0.541199 l -0.211859,0.528144 c -0.300217,0.695824 -0.666705,1.359518 -1.098459,1.972003 -0.05221,0.07731 -0.110447,0.151617 -0.165672,0.226922 -0.05723,0.0743 -0.112456,0.149608 -0.16969,0.222906 l -0.178725,0.21688 -0.08936,0.107436 -0.09338,0.103418 c -0.245997,0.280137 -0.511075,0.542201 -0.794223,0.781171 0.355442,-0.650642 0.684781,-1.294251 0.962909,-1.954934 0.281142,-0.659678 0.521116,-1.326386 0.713898,-2.002127 0.195796,-0.67474 0.333352,-1.360523 0.430749,-2.048316 l 0.03514,-0.258048 0.01807,-0.12852 c 0.005,-0.04318 0.007,-0.08635 0.01104,-0.129525 l 0.04418,-0.519109 c 0.01104,-0.08535 0.009,-0.172699 0.01306,-0.25905 l 0.008,-0.260057 0.01104,-0.25905 c 0.002,-0.08735 -0.0011,-0.173706 -0.0011,-0.260057 -0.002,-0.692813 -0.06125,-1.384619 -0.16467,-2.071407 -0.107435,-0.686788 -0.262064,-1.368558 -0.464887,-2.04229 -0.200813,-0.673735 -0.451834,-1.337432 -0.742012,-1.993091 -0.143583,-0.328335 -0.301222,-0.651646 -0.465889,-0.97496 -0.16467,-0.323311 -0.341387,-0.642606 -0.52413,-0.96592"
       style="fill:#ffd740;fill-opacity:1;fill-rule:nonzero;stroke:none;stroke-width:0.0100408"
       id="path348" />
    <path
       d="m 3.4346566,36.685413 v 0 0 m 0,0 v 0 0 m 0,0 v 0 0 m 0,0 v -0.0011 0.0011 m 0,-0.002 v 0 0 m 0,-0.0011 v 0 0 m 0,0 v -0.0011 0.0011 m 0,-0.0011 v 0 0 m 0.0011,-0.008 c 0,-0.0011 0,-0.0011 0,-0.0011 0,0 0,0 0,0.0011 m 0,-0.002 c 0,0 0,-0.0011 0,-0.002 0,0.0011 0,0.002 0,0.002 m 0,-0.005 c 0,0 0,-0.0011 0,-0.002 0,0.0011 0,0.002 0,0.002 m 0.0011,-0.007 v 0 0 m 0,-0.003 v 0 0 m 0,-0.005 c 0.0011,0 0.0011,-0.0011 0.0011,-0.0011 0,0 0,0.0011 -0.0011,0.0011 m 0.0011,-0.002 v 0 0 m 0.0011,-0.01005 v -0.0011 0.0011 m 0,-0.003 c 0,-0.002 0,-0.003 0,-0.005 0,0.002 0,0.003 0,0.005 m 0,-0.006 c 0.0011,-0.01005 0.002,-0.02007 0.003,-0.03213 -0.0011,0.01104 -0.002,0.02209 -0.003,0.03213 m 0.003,-0.03314 c 0,-0.0011 0,-0.003 0,-0.004 0,0.0011 0,0.003 0,0.004 m 0.0011,-0.004 c 0,-0.0011 0,-0.002 0,-0.003 0,0.0011 0,0.002 0,0.003 m 0,-0.005 c 0,-0.0011 0,-0.003 0,-0.004 0,0.0011 0,0.003 0,0.004 m 0,-0.005 c 0.0011,-0.002 0.0011,-0.003 0.0011,-0.004 0,0.0011 0,0.002 -0.0011,0.004 m 0.0011,-0.005 c 0.0261,-0.286163 0.118479,-1.125569 0.378536,-2.314396 v 0 c -0.259053,1.188827 -0.352431,2.028233 -0.378536,2.314396"
       style="fill:#ededed;fill-opacity:1;fill-rule:nonzero;stroke:none;stroke-width:0.0100408"
       id="path350" />
    <path
       d="m 69.893433,36.343024 v 0 0 m -0.0011,-0.004 c 0,0 0,0 0,-0.0011 0,0.0011 0,0.0011 0,0.0011 m -0.0011,-0.003 c 0,-0.0011 0,-0.002 0,-0.004 0,0.002 0,0.003 0,0.004 m 0,-0.005 C 69.839943,36.076995 69.693354,35.586 69.269632,34.86407 v 0 c 0.423722,0.720926 0.570315,1.212925 0.621524,1.466954"
       style="fill:#6f4c92;fill-opacity:1;fill-rule:nonzero;stroke:none;stroke-width:0.0100408"
       id="path352" />
    <path
       d="m 33.511749,54.72765 c -0.501036,0 -1.003072,-0.01005 -1.50511,-0.02912 0.806271,-1.361527 1.600495,-2.861617 2.339496,-4.497256 0.309257,-0.006 0.61851,-0.01605 0.927767,-0.03012 1.548284,-0.06928 3.087531,-0.221898 4.612724,-0.449825 0.865512,-0.129525 1.727011,-0.283148 2.583488,-0.460871 -0.81531,1.873605 -1.705925,3.537359 -2.583488,4.978207 v 0 c -1.525193,0.227927 -3.06444,0.380546 -4.612724,0.449828 -0.586382,0.0261 -1.173767,0.03916 -1.762153,0.03916 M 26.27939,54.066971 v 0 C 19.259894,52.769704 12.614921,49.568712 7.7120186,44.486081 7.2451226,44.002116 6.7942926,43.502084 6.3605326,42.983982 6.2069086,42.799233 6.0542896,42.612473 5.9056866,42.421698 4.5853266,40.73887 3.4948996,38.804015 3.4346566,36.685416 v 0 0 0 0 0 0 0 -0.0011 c 0,0 0,0 0,-0.0011 v 0 c 0,0 0,0 0,-0.0011 v 0 0 -0.0011 0 0 c 0,-0.003 0.0011,-0.005 0.0011,-0.008 0,-0.0011 0,-0.0011 0,-0.0011 0,0 0,0 0,-0.0011 0,0 0,-0.0011 0,-0.002 0,-0.0011 0,-0.002 0,-0.003 0,0 0,-0.0011 0,-0.002 0.0011,-0.002 0.0011,-0.003 0.0011,-0.005 v 0 c 0,-0.0011 0,-0.002 0,-0.003 v 0 c 0,-0.002 0,-0.003 0,-0.005 0.0011,0 0.0011,-0.0011 0.0011,-0.0011 v -0.0011 0 c 0,-0.003 0,-0.007 0.0011,-0.01005 v -0.0011 c 0,-0.0011 0,-0.002 0,-0.002 0,-0.002 0,-0.003 0,-0.005 v -0.0011 c 0.0011,-0.01005 0.002,-0.02109 0.003,-0.03213 0,-0.0011 0,-0.0011 0,-0.0011 0,-0.0011 0,-0.003 0,-0.004 0.0011,0 0.0011,0 0.0011,0 0,-0.0011 0,-0.002 0,-0.003 0,-0.0011 0,-0.002 0,-0.002 0,-0.0011 0,-0.003 0,-0.004 v -0.0011 c 0.0011,-0.002 0.0011,-0.003 0.0011,-0.004 v -0.0011 c 0.0261,-0.286163 0.119483,-1.125569 0.378536,-2.313391 0.440788,1.309314 1.21192,2.529267 2.083457,3.639774 0.148603,0.190775 0.301222,0.377534 0.454846,0.562283 0.433761,0.518103 0.88459,1.018131 1.351486,1.502096 4.9029024,5.082631 11.5478754,8.283625 18.5673714,9.580892 0.811295,0.149607 1.626602,0.274111 2.445929,0.372513 -0.793221,1.542259 -1.627607,2.925876 -2.445929,4.144823 m 20.29664,-1.322354 c 0.361467,-0.762092 0.702851,-1.534226 1.022146,-2.316402 0.387576,-0.94584 0.742013,-1.901722 1.064323,-2.865633 1.138622,-0.388577 2.266198,-0.814306 3.380724,-1.275177 0.956883,-0.395604 1.903725,-0.816312 2.840529,-1.260114 -0.858485,2.3405 -1.896698,4.282382 -2.840529,5.777451 v 0 c -1.792278,0.740006 -3.616683,1.391649 -5.467193,1.939875 M 59.67175,47.02674 c 0.616501,-1.646685 1.158702,-3.465065 1.555311,-5.442091 1.334418,-0.816312 2.640721,-1.675802 3.916902,-2.570433 1.585436,-1.110508 3.237139,-2.499145 4.12675,-4.151853 0.423722,0.721929 0.570316,1.212924 0.621525,1.466953 0,0.0011 0,0.0011 0,0.0011 0,0.002 0,0.003 0,0.004 0.0011,0.0011 0.0011,0.002 0.0011,0.002 0,0.0011 0,0.0011 0,0.0011 0,0.002 0.0011,0.003 0.0011,0.004 v 0 c 0.02411,0.125509 0.02411,0.189771 0.02411,0.193787 0.01005,0.120488 0.01406,0.240976 0.01406,0.359457 0.005,2.750166 -2.403757,4.953107 -4.704095,6.577702 -0.02812,0.02007 -0.05623,0.04016 -0.08434,0.05924 -0.478944,0.336367 -0.962909,0.667713 -1.451894,0.993033 v 0 c -1.009097,0.673735 -2.036265,1.325378 -3.080504,1.949914 -0.312268,0.185754 -0.625541,0.370504 -0.939815,0.552242"
       style="fill:#ed6384;fill-opacity:1;fill-rule:nonzero;stroke:none;stroke-width:0.0100408"
       id="path354" />
    <path
       d="m 32.006639,54.698533 c -1.917786,-0.07129 -3.836573,-0.282146 -5.727249,-0.631565 v 0 c 0.818322,-1.218948 1.652708,-2.602565 2.445929,-4.144823 1.090427,0.131531 2.185872,0.218886 3.28132,0.260054 0.502038,0.01907 1.003072,0.02812 1.50511,0.02812 0.278128,0 0.556256,-0.003 0.834386,-0.009 -0.739001,1.635639 -1.533225,3.135729 -2.339496,4.497256 v 0"
       style="fill:#edc83b;fill-opacity:1;fill-rule:nonzero;stroke:none;stroke-width:0.0100408"
       id="path356" />
    <path
       d="m 39.886626,54.238664 v 0 c 0.877563,-1.440848 1.768178,-3.104602 2.583488,-4.978207 1.381607,-0.286162 2.750165,-0.631563 4.105667,-1.033193 0.698836,-0.207843 1.394661,-0.42874 2.08647,-0.664698 -0.32231,0.963911 -0.676747,1.919792 -1.064323,2.865633 -0.319295,0.782175 -0.660679,1.554309 -1.022147,2.316402 v 0 c -1.0834,0.3203 -2.174829,0.606462 -3.275297,0.853464 v 0 c -1.129586,0.255036 -2.268209,0.468903 -3.413858,0.640599"
       style="fill:#edc83b;fill-opacity:1;fill-rule:nonzero;stroke:none;stroke-width:0.0100408"
       id="path358" />
    <path
       d="m 52.042974,50.804725 v 0 c 0.943831,-1.495068 1.982045,-3.43695 2.84053,-5.777451 1.628612,-0.772134 3.225091,-1.61355 4.787435,-2.516214 0.522118,-0.302225 1.04022,-0.610477 1.555311,-0.924754 -0.396609,1.977026 -0.93881,3.795405 -1.555311,5.442091 v 0 c -2.460992,1.42177 -5.009336,2.693936 -7.627965,3.776328"
       style="fill:#edc83b;fill-opacity:1;fill-rule:nonzero;stroke:none;stroke-width:0.0100408"
       id="path360" />
    <path
       d="m 17.999779,34.640109 c -0.608469,2.721046 -3.359636,4.43902 -6.14695,3.836573 -2.7863124,-0.601438 -4.5534864,-3.294373 -3.9460194,-6.015416 0.608469,-2.721046 3.3596364,-4.43902 6.1469534,-3.837578 2.78631,0.602446 4.553483,3.295377 3.946016,6.016421"
       style="fill:#ffffff;fill-opacity:1;fill-rule:nonzero;stroke:none;stroke-width:0.0100408"
       id="path362" />
    <path
       d="m 16.333014,34.314788 c -0.411672,1.844488 -2.277244,3.008213 -4.166916,2.600558 -1.888666,-0.407656 -3.0865294,-2.233065 -2.6738534,-4.077553 0.411672,-1.844485 2.2772444,-3.009215 4.1659114,-2.600555 1.888666,0.407655 3.086529,2.233065 2.674858,4.07755"
       style="fill:#262626;fill-opacity:1;fill-rule:nonzero;stroke:none;stroke-width:0.0100408"
       id="path364" />
    <path
       d="m 16.851119,32.45725 c -0.192785,0.860492 -1.062313,1.403697 -1.942887,1.212922 -0.881579,-0.18977 -1.439847,-1.041225 -1.247065,-1.901719 0.19178,-0.85949 1.061311,-1.402695 1.942889,-1.212925 0.880575,0.190775 1.43884,1.042233 1.247063,1.901722"
       style="fill:#ffffff;fill-opacity:1;fill-rule:nonzero;stroke:none;stroke-width:0.0100408"
       id="path366" />
    <path
       d="m 12.915141,41.460797 c -0.851457,1.866576 -2.668835,3.056407 -4.6548964,3.056407 -0.04117,0 -0.08234,-0.0011 -0.123502,-0.002 -0.144587,-0.004 -0.286163,-0.01306 -0.424724,-0.02912 -0.466896,-0.483965 -0.917726,-0.983997 -1.351486,-1.502099 -0.153624,-0.184749 -0.306243,-0.371508 -0.45585,-0.562283 0.53718,0.43376 1.292245,0.838404 2.263186,0.861498 1.53925,0.03916 2.9620254,-0.877562 3.6257194,-2.334477 0.141573,-0.309253 0.507059,-0.444804 0.816313,-0.304233 0.310258,0.140571 0.446813,0.506055 0.30524,0.816313"
       style="fill:#262626;fill-opacity:1;fill-rule:nonzero;stroke:none;stroke-width:0.0100408"
       id="path368" />
    <path
       d="m 53.237823,16.57076 c -0.06828,0 -0.138561,-0.005 -0.212864,-0.01406 -0.110447,-0.01406 -0.227924,-0.03715 -0.355442,-0.06727 -0.126514,-0.03012 -0.259053,-0.07028 -0.397614,-0.118481 -0.139566,-0.04719 -0.287165,-0.100406 -0.438782,-0.161656 -0.150612,-0.06326 -0.313272,-0.127518 -0.477939,-0.200813 -0.16266,-0.07531 -0.337369,-0.150613 -0.514086,-0.233952 -0.174711,-0.08535 -0.362472,-0.167681 -0.549231,-0.261059 -0.09338,-0.04719 -0.191777,-0.09037 -0.288169,-0.137557 -0.0974,-0.0482 -0.195796,-0.09639 -0.296202,-0.144587 -0.100408,-0.04719 -0.202825,-0.09639 -0.30524,-0.146596 -0.05121,-0.0261 -0.102415,-0.05121 -0.154629,-0.07631 -0.05221,-0.0251 -0.105426,-0.0502 -0.158644,-0.0753 -0.104424,-0.05121 -0.211859,-0.102417 -0.319295,-0.155633 -0.109445,-0.0502 -0.21889,-0.102414 -0.329337,-0.155633 -0.109445,-0.05522 -0.22391,-0.104421 -0.336367,-0.158641 -0.11346,-0.05221 -0.226918,-0.109445 -0.343393,-0.160654 -0.116473,-0.05221 -0.232945,-0.107435 -0.350422,-0.16266 -0.119486,-0.05221 -0.238969,-0.105429 -0.358456,-0.160651 -0.48296,-0.214874 -0.981984,-0.432759 -1.497075,-0.64763 -0.516095,-0.210856 -1.023154,-0.409663 -1.516156,-0.598431 -0.124504,-0.04518 -0.247001,-0.09237 -0.367492,-0.139566 -0.122498,-0.04317 -0.243991,-0.08735 -0.363474,-0.131535 -0.118482,-0.04719 -0.23897,-0.08635 -0.356447,-0.12852 -0.118482,-0.04217 -0.233952,-0.08736 -0.350424,-0.126513 -0.115467,-0.03916 -0.229933,-0.08033 -0.343394,-0.121493 -0.113461,-0.03916 -0.224912,-0.07731 -0.335362,-0.11547 -0.05623,-0.02007 -0.110448,-0.04016 -0.165673,-0.05924 -0.05422,-0.01907 -0.109444,-0.03715 -0.16266,-0.05522 -0.10844,-0.03715 -0.215875,-0.0743 -0.3203,-0.111454 -0.105429,-0.03615 -0.208848,-0.07229 -0.311263,-0.106431 -0.102415,-0.03514 -0.202823,-0.0743 -0.302226,-0.106435 -0.197803,-0.06526 -0.388578,-0.140568 -0.573327,-0.202823 -0.183748,-0.06526 -0.360466,-0.13555 -0.529149,-0.197802 -0.167681,-0.06426 -0.328334,-0.133541 -0.478944,-0.194791 -0.151617,-0.06326 -0.294194,-0.13053 -0.425729,-0.195793 -0.132538,-0.06326 -0.254031,-0.129528 -0.365483,-0.196801 -0.111454,-0.06828 -0.210858,-0.13555 -0.299215,-0.202823 -0.08736,-0.06828 -0.163665,-0.139566 -0.226922,-0.211859 -0.125509,-0.1445871 -0.197802,-0.2972061 -0.206839,-0.4568551 -0.01005,-0.158644 0.04418,-0.317289 0.160651,-0.472919 0.05824,-0.07832 0.132539,-0.154628 0.220899,-0.231942 0.08936,-0.07631 0.192782,-0.151617 0.312265,-0.220897 0.118482,-0.07129 0.252026,-0.140571 0.399624,-0.207843 0.148603,-0.06627 0.310258,-0.125509 0.485971,-0.18475 0.175716,-0.06125 0.363477,-0.109445 0.565295,-0.158644 0.201821,-0.0502 0.415688,-0.08736 0.642609,-0.123503 0.225917,-0.03916 0.462881,-0.05924 0.711892,-0.08334 0.124504,-0.01204 0.250013,-0.01608 0.37954,-0.02209 0.129525,-0.005 0.261059,-0.01104 0.395605,-0.01306 0.133545,0.0011 0.269095,0.002 0.407656,0.004 0.06928,0.002 0.139567,0.003 0.209851,0.006 0.07029,0.004 0.140571,0.008 0.211862,0.01204 0.142578,0.009 0.287165,0.01708 0.433761,0.03113 0.145589,0.01406 0.294192,0.03113 0.443799,0.04819 0.150613,0.01605 0.30022,0.04117 0.452839,0.06526 0.152619,0.02411 0.307247,0.0482 0.461876,0.08033 0.154628,0.03113 0.311263,0.06326 0.468902,0.09739 0.156638,0.03816 0.314278,0.07631 0.473924,0.117477 0.634577,0.168685 1.282207,0.383556 1.926823,0.64763 0.643611,0.268086 1.254089,0.573327 1.822398,0.902663 0.141573,0.08334 0.280138,0.1676811 0.417694,0.2510181 0.136555,0.08736 0.270096,0.174711 0.400629,0.262064 0.132536,0.08635 0.259049,0.178727 0.384558,0.269094 0.124507,0.09137 0.249011,0.179728 0.366488,0.274111 0.118482,0.09338 0.234954,0.186759 0.348415,0.279136 0.11346,0.09338 0.221901,0.18977 0.329336,0.284153 0.05322,0.04719 0.105429,0.09438 0.15764,0.141574 0.05221,0.04719 0.102417,0.09539 0.152621,0.143585 0.100406,0.09639 0.197803,0.190772 0.292186,0.285155 0.09338,0.09639 0.182743,0.193789 0.2711,0.288172 0.08736,0.09539 0.173706,0.187761 0.253027,0.284153 0.159649,0.192781 0.312268,0.37452 0.444807,0.562282 0.134546,0.184749 0.260054,0.362472 0.36749,0.540194 0.10844,0.177719 0.207844,0.344399 0.289174,0.512077 0.08233,0.165674 0.154628,0.322309 0.212864,0.472921 0.05723,0.152619 0.102415,0.296201 0.136555,0.429745 0.03514,0.133541 0.05623,0.260054 0.06426,0.377531 0.009,0.116472 0.007,0.222906 -0.007,0.319298 -0.02709,0.192782 -0.100408,0.343394 -0.219891,0.44882 -0.118482,0.106434 -0.278131,0.163665 -0.468903,0.177723 -0.03213,0.002 -0.06426,0.003 -0.0974,0.003"
       style="fill:#a48bbd;fill-opacity:1;fill-rule:nonzero;stroke:none;stroke-width:0.0100408"
       id="path370" />
    <path
       d="m 71.923675,33.154077 c -0.08836,0 -0.175713,-0.002 -0.263068,-0.0091 -0.08936,-0.007 -0.178725,-0.01907 -0.265075,-0.03313 -0.08535,-0.01204 -0.168686,-0.02912 -0.250016,-0.0502 -0.324316,-0.08535 -0.61349,-0.236964 -0.827359,-0.473924 -0.213866,-0.235958 -0.329337,-0.538185 -0.339375,-0.894631 -0.003,-0.08937 0.0011,-0.180734 0.01204,-0.277126 0.01104,-0.09438 0.03113,-0.188766 0.05623,-0.288169 0.05221,-0.196801 0.127518,-0.407656 0.237968,-0.613493 0.05422,-0.103419 0.115467,-0.208845 0.18274,-0.315279 0.06727,-0.106431 0.144587,-0.207844 0.226922,-0.31327 0.16266,-0.211862 0.358456,-0.411671 0.576341,-0.610478 0.438779,-0.388578 0.982989,-0.741008 1.600495,-1.004077 0.620519,-0.259052 1.252082,-0.403639 1.836455,-0.447818 0.13053,-0.007 0.259053,-0.01204 0.384562,-0.01204 0.15563,0 0.307247,0.007 0.454845,0.02411 0.132539,0.01506 0.259053,0.03012 0.382555,0.05523 0.123499,0.0261 0.240976,0.05623 0.353432,0.08936 0.224916,0.06426 0.42874,0.15764 0.605458,0.257043 0.08836,0.05121 0.170695,0.103423 0.247005,0.161659 0.0753,0.05824 0.144587,0.119483 0.206839,0.183745 0.248006,0.256038 0.383556,0.549228 0.404641,0.867521 0.02109,0.318293 -0.07229,0.631563 -0.237965,0.922746 -0.04117,0.0733 -0.08736,0.144587 -0.13756,0.214871 -0.0502,0.07129 -0.104421,0.143583 -0.161655,0.212865 -0.115468,0.140571 -0.245997,0.268089 -0.387573,0.40163 -0.07028,0.06527 -0.143582,0.129527 -0.219892,0.18977 -0.07731,0.06125 -0.154628,0.126514 -0.236963,0.185754 -0.16266,0.116473 -0.333352,0.23897 -0.515091,0.346409 -0.359457,0.224912 -0.75406,0.424724 -1.180794,0.603448 -0.425726,0.181738 -0.843422,0.324316 -1.256099,0.425729 -0.202822,0.05623 -0.409661,0.09237 -0.607464,0.12852 -0.0984,0.01708 -0.199811,0.0271 -0.297206,0.03916 -0.0974,0.01306 -0.193789,0.02109 -0.290178,0.0261 -0.101413,0.004 -0.198807,0.007 -0.295199,0.007"
       style="fill:#a48bbd;fill-opacity:1;fill-rule:nonzero;stroke:none;stroke-width:0.0100408"
       id="path372" />
    <path
       d="m 50.828043,28.453997 c -0.03313,0 -0.06627,-0.0011 -0.101413,-0.002 -0.111451,-1.035202 -0.260054,-2.067393 -0.443802,-3.094561 0.43577,0.440788 0.781171,0.855471 1.031186,1.224973 0.117477,0.175713 0.214871,0.34038 0.291184,0.493001 0.0753,0.15563 0.129524,0.299213 0.16266,0.429742 0.06627,0.262064 0.04719,0.474928 -0.06025,0.632568 -0.10844,0.157642 -0.300219,0.254032 -0.56429,0.294194 -0.09539,0.01406 -0.200816,0.02209 -0.315279,0.02209 m -5.52643,-1.434825 c -0.09439,-0.03113 -0.188768,-0.06326 -0.285158,-0.09438 -0.180733,-0.05723 -0.364481,-0.115471 -0.550235,-0.176718 -0.09237,-0.03012 -0.185755,-0.06125 -0.279133,-0.09238 -0.09438,-0.03012 -0.18977,-0.06024 -0.286162,-0.09037 -0.190773,-0.06024 -0.384559,-0.122495 -0.580355,-0.186756 -0.194791,-0.06426 -0.395607,-0.122498 -0.596421,-0.186759 -0.100408,-0.03113 -0.200816,-0.06326 -0.303231,-0.09539 -0.0502,-0.01708 -0.101413,-0.03313 -0.151614,-0.0492 -0.05221,-0.01506 -0.103422,-0.03113 -0.154628,-0.04619 -0.206839,-0.06125 -0.414684,-0.124504 -0.624537,-0.190772 -0.208849,-0.06728 -0.42372,-0.124507 -0.638593,-0.188769 -0.214871,-0.06225 -0.429745,-0.130529 -0.649637,-0.192782 -0.218887,-0.06025 -0.439786,-0.122497 -0.662689,-0.186759 -0.111454,-0.03113 -0.221901,-0.06526 -0.334357,-0.09539 -0.113461,-0.03012 -0.225917,-0.06024 -0.339378,-0.09037 -0.226922,-0.06125 -0.454848,-0.123499 -0.684781,-0.187761 -0.132537,-0.03314 -0.267085,-0.06727 -0.400626,-0.101413 -0.321304,-2.002127 -0.780166,-3.994213 -1.376587,-5.970232 0.03012,0.006 0.06024,0.01104 0.09037,0.01605 0.25905,0.04619 0.520112,0.09137 0.783178,0.143582 0.261062,0.05623 0.524127,0.113461 0.789205,0.170693 0.131534,0.03012 0.265075,0.05723 0.397614,0.09137 0.131534,0.03414 0.26407,0.06828 0.397614,0.102418 0.265075,0.06928 0.529148,0.138561 0.790207,0.20985 0.260055,0.07932 0.517098,0.15764 0.773139,0.234954 0.127518,0.04016 0.255034,0.08033 0.381547,0.119486 0.125512,0.04117 0.250016,0.08635 0.37452,0.12852 0.24801,0.08836 0.494007,0.175713 0.737998,0.262064 0.242986,0.08936 0.479949,0.187764 0.715907,0.281142 0.234954,0.09539 0.468903,0.185754 0.695825,0.289174 0.187761,0.08334 0.373515,0.166676 0.556258,0.250015 0.577343,1.809343 1.072351,3.789381 1.414743,5.923043 M 32.251631,23.500894 c -0.02712,-0.005 -0.05522,-0.01104 -0.08233,-0.01708 -1.652711,-0.326322 -3.162838,-0.602443 -4.452072,-0.85748 -1.28823,-0.254032 -2.355563,-0.497017 -3.11364,-0.77615 -0.18977,-0.06828 -0.360462,-0.140571 -0.509065,-0.21688 -0.149608,-0.0743 -0.278131,-0.150612 -0.384561,-0.231943 -0.21186,-0.161655 -0.334358,-0.338373 -0.352431,-0.529148 -0.01907,-0.18977 0.06627,-0.385563 0.251018,-0.583368 0.09238,-0.0994 0.208848,-0.198807 0.349419,-0.298211 0.140571,-0.09739 0.305238,-0.195793 0.491997,-0.292185 0.74904,-0.385566 1.867582,-0.745024 3.282325,-0.992025 0.90969,-0.158645 1.941881,-0.266083 3.068455,-0.303232 0.557261,1.571378 1.057292,3.2763 1.450887,5.097694"
       style="fill:#ff9cb3;fill-opacity:1;fill-rule:nonzero;stroke:none;stroke-width:0.0100408"
       id="path374" />
    <path
       d="m 37.780074,24.767031 c -0.0984,-0.0251 -0.196797,-0.0502 -0.295199,-0.07631 -0.116472,-0.03012 -0.232944,-0.06125 -0.348415,-0.09137 -0.116472,-0.03113 -0.232944,-0.05623 -0.348411,-0.08535 -0.230938,-0.05522 -0.460871,-0.112456 -0.688798,-0.169688 -0.228928,-0.05321 -0.45585,-0.105429 -0.680762,-0.157639 -0.113461,-0.0271 -0.224915,-0.05422 -0.337371,-0.08033 -0.111452,-0.0271 -0.222903,-0.0492 -0.334358,-0.0743 -0.222903,-0.04819 -0.442797,-0.09739 -0.661684,-0.148603 -0.21889,-0.04619 -0.43577,-0.09137 -0.650641,-0.136554 -0.107438,-0.02308 -0.214874,-0.04719 -0.3203,-0.07028 -0.107438,-0.02109 -0.212864,-0.04217 -0.318293,-0.06326 -0.183745,-0.03715 -0.364479,-0.0743 -0.544211,-0.112456 -0.393595,-1.821394 -0.893626,-3.526316 -1.450887,-5.097694 0.28817,-0.01005 0.582364,-0.01506 0.881576,-0.01506 0.34942,0 0.706871,0.007 1.07135,0.02109 0.236963,0.01204 0.476937,0.0261 0.719923,0.04117 0.120488,0.008 0.242986,0.01506 0.365483,0.02411 0.122498,0.01204 0.246,0.02308 0.369499,0.03514 0.248007,0.02411 0.498023,0.04819 0.750045,0.07631 0.252025,0.03414 0.506054,0.06828 0.762095,0.10342 0.127519,0.01807 0.257044,0.03514 0.385564,0.05623 0.0994,0.01708 0.197805,0.03414 0.297208,0.05121 0.596421,1.976019 1.055283,3.968105 1.376587,5.970233"
       style="fill:#ffe47f;fill-opacity:1;fill-rule:nonzero;stroke:none;stroke-width:0.0100408"
       id="path376" />
    <path
       d="m 50.72663,28.451991 c -0.01005,-0.0011 -0.02009,-0.0011 -0.03113,-0.0011 -0.167681,-0.006 -0.351426,-0.02411 -0.551238,-0.05422 -0.79924,-0.120487 -1.851511,-0.420707 -3.103594,-0.816312 -0.311263,-0.103419 -0.640602,-0.200816 -0.976966,-0.314277 -0.166677,-0.05723 -0.341388,-0.10844 -0.515091,-0.165671 -0.08234,-0.0271 -0.163665,-0.05422 -0.247002,-0.08133 -0.342392,-2.133662 -0.8374,-4.1137 -1.414743,-5.923043 0.03916,0.01708 0.07832,0.03514 0.116472,0.05221 0.05523,0.0251 0.110447,0.0502 0.165672,0.07531 0.05422,0.0271 0.10844,0.05321 0.16266,0.07932 0.107436,0.05321 0.214874,0.10643 0.321305,0.158644 0.211859,0.107435 0.422717,0.20985 0.62554,0.319295 0.203828,0.11045 0.403637,0.219895 0.600437,0.329337 0.09739,0.05422 0.195793,0.107438 0.291181,0.163665 0.09438,0.05723 0.188768,0.11346 0.282146,0.16969 0.186759,0.111451 0.370504,0.223908 0.549228,0.334357 0.177723,0.113458 0.350424,0.228929 0.519107,0.341385 0.168686,0.114465 0.335362,0.222906 0.493002,0.339378 0.317288,0.229933 0.62052,0.449824 0.898648,0.677751 0.527141,0.419703 0.983996,0.831375 1.370564,1.220957 0.183748,1.027167 0.332351,2.059359 0.443802,3.094561"
       style="fill:#ffe47f;fill-opacity:1;fill-rule:nonzero;stroke:none;stroke-width:0.0100408"
       id="path378" />
    <path
       d="m 31.49456,33.839863 c -0.192782,0 -0.352431,-0.04619 -0.461876,-0.149608 -0.139566,-0.131534 -0.18475,-0.344399 -0.137557,-0.627547 0.01204,-0.07029 0.03012,-0.144587 0.05322,-0.223911 0.02411,-0.07832 0.05723,-0.157639 0.09438,-0.240979 0.07631,-0.166676 0.171697,-0.353432 0.302227,-0.534166 0.06326,-0.09238 0.132539,-0.186759 0.207843,-0.284153 0.07531,-0.09639 0.161656,-0.187764 0.250016,-0.285158 0.04518,-0.04719 0.09037,-0.09639 0.138562,-0.144587 0.04619,-0.0492 0.09639,-0.09639 0.148603,-0.14258 0.102417,-0.09338 0.210857,-0.187761 0.324315,-0.282144 0.458865,-0.366488 1.013114,-0.710886 1.636645,-0.980982 0.62554,-0.265078 1.257103,-0.427738 1.839467,-0.507059 0.145591,-0.01708 0.289174,-0.03012 0.427738,-0.04016 0.06526,-0.006 0.12852,-0.0091 0.192782,-0.0091 0.004,0 0.0091,0 0.01306,0 0.02912,-0.0011 0.05723,-0.0011 0.08635,-0.0011 0.03815,0 0.07631,0 0.11346,0.0011 0.131535,0.003 0.257044,0.004 0.378536,0.01605 0.122498,0.01204 0.23897,0.0271 0.34942,0.04518 0.220896,0.03012 0.42171,0.09037 0.594411,0.149608 0.08736,0.03113 0.166677,0.06225 0.239975,0.0974 0.0733,0.03815 0.139566,0.07731 0.199811,0.117476 0.236961,0.159647 0.359458,0.34038 0.358454,0.531155 -0.0011,0.19178 -0.1235,0.37653 -0.327327,0.547222 -0.05121,0.04217 -0.107436,0.08434 -0.168686,0.124504 -0.06125,0.04217 -0.126514,0.08736 -0.196798,0.128523 -0.139566,0.08635 -0.297206,0.160651 -0.466896,0.250016 -0.08535,0.04217 -0.173703,0.08434 -0.265075,0.123499 -0.09238,0.04117 -0.186759,0.08836 -0.284153,0.13053 -0.0492,0.02109 -0.0984,0.04217 -0.148603,0.06326 -0.0502,0.02009 -0.101413,0.04217 -0.151617,0.06627 -0.102415,0.04619 -0.207844,0.09037 -0.315279,0.133541 -0.42874,0.184749 -0.892625,0.375524 -1.378597,0.580357 -0.48296,0.20985 -0.940819,0.414682 -1.370564,0.596421 -0.105426,0.04819 -0.20985,0.09438 -0.314274,0.136555 -0.05221,0.02007 -0.10342,0.04116 -0.152619,0.06426 -0.0502,0.02209 -0.0994,0.04318 -0.148606,0.06326 -0.09739,0.04217 -0.196798,0.07731 -0.290176,0.11547 -0.09238,0.03916 -0.182743,0.07531 -0.27311,0.107435 -0.181738,0.06125 -0.344398,0.123503 -0.503043,0.16467 -0.07832,0.02209 -0.15563,0.03916 -0.227923,0.05422 -0.07129,0.01605 -0.140571,0.02812 -0.206839,0.03514 -0.05523,0.007 -0.10844,0.01005 -0.159649,0.01005"
       style="fill:#a48bbd;fill-opacity:1;fill-rule:nonzero;stroke:none;stroke-width:0.0100408"
       id="path380" />
  </g>
</svg>
