<?xml version="1.0" encoding="UTF-8" standalone="no"?>
<svg
   xmlns:dc="http://purl.org/dc/elements/1.1/"
   xmlns:cc="http://creativecommons.org/ns#"
   xmlns:rdf="http://www.w3.org/1999/02/22-rdf-syntax-ns#"
   xmlns:svg="http://www.w3.org/2000/svg"
   xmlns="http://www.w3.org/2000/svg"
   xmlns:sodipodi="http://sodipodi.sourceforge.net/DTD/sodipodi-0.dtd"
   xmlns:inkscape="http://www.inkscape.org/namespaces/inkscape"
   width="320"
   height="230"
   viewBox="0 0 84.666664 60.854166"
   version="1.1"
   id="svg646"
   inkscape:version="1.0.2-2 (e86c870879, 2021-01-15)"
   sodipodi:docname="fish11.svg">
  <defs
     id="defs640" />
  <sodipodi:namedview
     id="base"
     pagecolor="#ffffff"
     bordercolor="#666666"
     borderopacity="1.0"
     inkscape:pageopacity="0.0"
     inkscape:pageshadow="2"
     inkscape:zoom="0.35"
     inkscape:cx="400"
     inkscape:cy="560"
     inkscape:document-units="px"
     inkscape:current-layer="layer1"
     inkscape:document-rotation="0"
     showgrid="false"
     units="px"
     inkscape:window-width="1267"
     inkscape:window-height="1032"
     inkscape:window-x="647"
     inkscape:window-y="380"
     inkscape:window-maximized="0" />
  <metadata
     id="metadata643">
    <rdf:RDF>
      <cc:Work
         rdf:about="">
        <dc:format>image/svg+xml</dc:format>
        <dc:type
           rdf:resource="http://purl.org/dc/dcmitype/StillImage" />
        <dc:title></dc:title>
      </cc:Work>
    </rdf:RDF>
  </metadata>
  <g
     inkscape:label="Layer 1"
     inkscape:groupmode="layer"
     id="layer1">
    <path
       d="m 65.826448,48.318058 c 2.158986,2.601087 4.653927,4.920836 7.404443,6.886078 1.151115,0.822373 2.421773,1.608678 3.835676,1.674631 2.341389,0.108207 4.81675,-2.130128 5.17641,-4.417931 0.430766,-2.73815 -2.531012,-3.50178 -2.672195,-6.814973 -0.154582,-3.595556 3.247237,-4.694115 2.672195,-7.753793 -0.435919,-2.314596 -2.884486,-4.523047 -5.17641,-4.416901 -1.413903,0.06596 -2.684561,0.851227 -3.835676,1.67463 -2.750516,1.964212 -5.245457,4.284992 -7.404443,6.885048 v 6.283211"
       style="fill:#ff9b00;fill-opacity:1;fill-rule:nonzero;stroke:none;stroke-width:0.0103054"
       id="path210" />
    <path
       d="m 76.340036,56.781896 c -0.728593,-0.157673 -1.416996,-0.487446 -2.070359,-0.884204 0.652331,0.396758 1.341766,0.726531 2.070359,0.884204 m 3.147273,-0.558552 c 1.399474,-0.816189 2.521734,-2.278528 2.755668,-3.762508 0.08038,-0.513209 0.04225,-0.957374 -0.0742,-1.361347 0.116452,0.403973 0.154579,0.848138 0.0742,1.361347 -0.232903,1.48398 -1.356194,2.946319 -2.755668,3.762508 m -6.789208,-1.40669 c -1.515926,-1.121229 -2.94941,-2.351696 -4.289113,-3.679034 1.338672,1.326307 2.773187,2.557805 4.289113,3.679034"
       style="fill:#ededed;fill-opacity:1;fill-rule:nonzero;stroke:none;stroke-width:0.0103054"
       id="path212" />
    <path
       d="m 77.231452,56.88186 c -0.05462,0 -0.110267,-0.0012 -0.164885,-0.0031 -0.2463,-0.01134 -0.488478,-0.04534 -0.726531,-0.09687 -0.728593,-0.15767 -1.418028,-0.487443 -2.070359,-0.884201 -0.357599,-0.216412 -0.702831,-0.453437 -1.039817,-0.693556 -0.178283,-0.127786 -0.355536,-0.256603 -0.531759,-0.387482 -1.515926,-1.121228 -2.950441,-2.352727 -4.289113,-3.679034 -0.771877,-0.764662 -1.511805,-1.560238 -2.217726,-2.385702 0.526605,-0.466837 0.946037,-0.933672 1.244892,-1.398447 1.760167,1.871465 3.703768,3.570827 5.793706,5.064081 1.152146,0.823405 2.422804,1.609707 3.836707,1.674631 0.05462,0.0031 0.110267,0.0041 0.164885,0.0041 1.969367,0 3.996442,-1.615888 4.749766,-3.489412 0.0742,0.158701 0.138092,0.322558 0.18756,0.492596 0.116452,0.403973 0.154579,0.848139 0.0742,1.361347 -0.233934,1.48398 -1.356194,2.946319 -2.755668,3.762508 -0.707982,0.412217 -1.486043,0.658516 -2.255857,0.658516"
       style="fill:#9f6b19;fill-opacity:1;fill-rule:nonzero;stroke:none;stroke-width:0.0103054"
       id="path214" />
    <path
       d="m 31.269298,21.037563 c 0.301949,-5.645307 3.380178,-11.0793527 8.08563,-14.2750607 3.730561,-2.535133 8.418494,-3.616171 12.903411,-3.080289 1.668446,0.198895 2.668073,1.950815 1.984823,3.485292 -1.00993,2.2692513 -1.620012,4.7136957 -1.780776,7.1890557 3.095746,-1.611767 6.901538,-1.728218 10.147743,-0.468896 1.516958,0.588439 2.03841,2.458872 1.08722,3.778996 -1.480886,2.056961 -2.330053,4.564269 -2.348602,7.093218 0.569889,-0.05462 3.868653,-0.316376 6.396572,2.066236 0.194772,0.183436 0.373054,0.370995 0.53588,0.559584 0.973862,1.132565 0.706953,2.864905 -0.542065,3.685216 -0.328742,0.216414 -0.660578,0.470958 -0.984167,0.769815 -3.004028,2.775249 -2.654674,6.970583 -2.592843,7.590969 L 31.269298,21.037563"
       style="fill:#ff9b00;fill-opacity:1;fill-rule:nonzero;stroke:none;stroke-width:0.0103054"
       id="path216" />
    <path
       d="m 67.741197,46.789767 c -0.76054,1.750888 -3.322467,3.581132 -7.015929,5.222785 -1.991005,0.885234 -4.310754,1.71482 -6.854132,2.449594 -1.812722,0.523518 -3.738805,0.998596 -5.741147,1.408753 h -0.0012 c -2.034288,0.418397 -4.1469,0.770843 -6.29867,1.039817 v 0 c -2.273373,0.285459 -4.587969,0.4792 -6.898444,0.563705 -1.906502,0.07008 -3.807851,0.06389 -5.680344,-0.02679 h -0.0012 C 20.067312,57.004493 11.590077,54.515736 6.9258467,48.751918 c -0.844014,-1.043939 -1.544782,-2.129099 -2.109519,-3.244146 -0.525576,-1.034664 -0.934701,-2.094059 -1.235619,-3.167885 -0.28443,-1.017145 -0.471988,-2.046655 -0.568859,-3.080288 -0.079352,-0.849166 -0.096871,-1.700394 -0.05771,-2.54956 0.364812,-7.770283 5.577291,-15.301482 12.8632193,-18.678566 5.060989,-2.345513 10.746487,-2.885517 16.323777,-2.288833 1.759135,0.188589 3.507964,0.490538 5.223816,0.885235 0.205078,0.04637 0.409125,0.09481 0.612141,0.143245 v 0 c 2.412499,0.577104 4.637437,1.244895 6.692337,1.986885 2.374368,0.85741 4.517895,1.812722 6.453253,2.840172 1.507682,0.800731 2.887576,1.644745 4.14999,2.518644 3.440978,2.382612 6.010118,4.992974 7.906314,7.574481 4.983701,6.787146 5.310381,13.375397 4.56221,15.098465"
       style="fill:#92d31e;fill-opacity:1;fill-rule:nonzero;stroke:none;stroke-width:0.0103054"
       id="path218" />
    <path
       d="m 42.04361,35.268311 c -0.122633,5.341297 -1.3531,10.665074 -3.657391,15.822934 -0.965618,2.162077 -2.120855,4.296329 -3.454375,6.383176 -1.906502,0.07008 -3.807851,0.06389 -5.680344,-0.02679 5.122821,-7.025204 7.913526,-14.701706 8.08769,-22.286492 0.152519,-6.629474 -1.59425,-13.145589 -5.198054,-19.418495 1.759135,0.188589 3.507964,0.490538 5.223816,0.885235 0.205078,0.04637 0.409125,0.09481 0.612141,0.143245 v 0 c 0.525578,1.110924 1.000656,2.232153 1.424209,3.357505 1.869403,4.962058 2.758759,10.054994 2.642308,15.139686"
       style="fill:#8832d6;fill-opacity:1;fill-rule:nonzero;stroke:none;stroke-width:0.0103054"
       id="path220" />
    <path
       d="m 53.682548,35.453809 c 0.02988,8.639029 -2.764944,15.615796 -5.552559,20.41709 h -0.0012 c -2.034288,0.418397 -4.1469,0.770843 -6.29867,1.039817 2.913341,-3.943884 7.181845,-11.437982 7.147836,-21.441449 -0.02474,-6.936575 -2.129099,-12.649898 -4.308694,-16.711262 2.374368,0.85741 4.517895,1.812722 6.453253,2.840172 1.682874,4.476673 2.543374,9.129568 2.559865,13.855632"
       style="fill:#8832d6;fill-opacity:1;fill-rule:nonzero;stroke:none;stroke-width:0.0103054"
       id="path222" />
    <path
       d="m 63.866359,39.080285 c -0.113361,4.435451 -1.169665,8.784336 -3.141091,12.932267 -1.991005,0.885234 -4.310754,1.71482 -6.854132,2.449594 2.616546,-3.73468 5.125914,-8.982199 5.291831,-15.502435 0.154582,-6.055462 -1.783866,-11.143246 -3.890294,-14.84289 3.440978,2.382612 6.010118,4.992974 7.906314,7.574481 0.487447,2.28471 0.755387,4.755949 0.687372,7.388983"
       style="fill:#8832d6;fill-opacity:1;fill-rule:nonzero;stroke:none;stroke-width:0.0103054"
       id="path224" />
    <path
       d="m 32.704843,40.256133 c 1.377835,1.418026 2.803075,2.870058 4.735339,3.777965 1.931236,0.908937 4.515832,1.157297 6.35432,0.130879 0.141182,-0.07832 2.240397,-1.433483 2.297078,-3.455406 0.05255,-1.853945 -1.670509,-2.308413 -1.624134,-4.164419 0.04534,-1.776653 1.644743,-2.121885 1.624134,-3.8635 -0.02369,-2.012648 -2.178567,-3.389451 -2.297078,-3.455406 -1.838488,-1.026419 -4.423084,-0.777028 -6.35432,0.130879 -1.932264,0.907907 -3.357504,2.35994 -4.735339,3.778996 v 7.120012"
       style="fill:#ff9b00;fill-opacity:1;fill-rule:nonzero;stroke:none;stroke-width:0.0103054"
       id="path226" />
    <path
       d="m 43.0319,44.506085 c 0.264849,-0.09275 0.520424,-0.206106 0.762602,-0.341108 0.141182,-0.07832 2.240397,-1.433483 2.297078,-3.455406 0.0093,-0.310193 -0.03195,-0.581226 -0.106149,-0.826494 0.0742,0.245268 0.115423,0.516301 0.106149,0.826494 -0.05668,2.021923 -2.155896,3.377085 -2.297078,3.455406 -0.242178,0.13603 -0.497753,0.24836 -0.762602,0.341108 M 33.360269,40.924954 C 33.139731,40.702357 32.921256,40.47873 32.704843,40.256133 v 0 c 0.216413,0.222597 0.434888,0.446224 0.655426,0.668821"
       style="fill:#6f4c92;fill-opacity:1;fill-rule:nonzero;stroke:none;stroke-width:0.0103054"
       id="path228" />
    <path
       d="m 40.975971,44.831737 c -1.221192,0 -2.476394,-0.299887 -3.535789,-0.797639 -1.628256,-0.765693 -2.896851,-1.916808 -4.079913,-3.109144 -0.220538,-0.222597 -0.439013,-0.446224 -0.655426,-0.668821 v -1.795204 c 1.377835,1.418025 2.803075,2.870059 4.735339,3.777966 1.059395,0.497752 2.314597,0.797638 3.535789,0.797638 1.005808,0 1.987914,-0.203016 2.818531,-0.666759 0.119542,-0.06699 1.664324,-1.062488 2.150739,-2.607271 0.01443,0.03916 0.02784,0.07935 0.04019,0.120574 0.0742,0.245268 0.115423,0.516301 0.106149,0.826494 -0.05668,2.021923 -2.155896,3.377085 -2.297078,3.455406 -0.242178,0.135002 -0.497753,0.24836 -0.762602,0.341108 -0.643057,0.223628 -1.343826,0.325652 -2.055929,0.325652"
       style="fill:#9f6b19;fill-opacity:1;fill-rule:nonzero;stroke:none;stroke-width:0.0103054"
       id="path230" />
    <path
       d="m 30.257308,26.411837 c 0.17107,0.159734 0.334924,0.326682 0.499812,0.49466 0.154582,0.175192 0.310193,0.351415 0.461681,0.53176 0.146339,0.184466 0.286493,0.373056 0.428707,0.561645 0.135001,0.192711 0.264849,0.389544 0.396757,0.586378 0.123667,0.201986 0.242178,0.406033 0.364814,0.611111 0.113358,0.207139 0.219503,0.419431 0.330802,0.630691 0.102023,0.214353 0.200956,0.430767 0.299889,0.648211 0.08863,0.220536 0.178282,0.442102 0.26485,0.66573 0.663669,1.793142 0.964586,3.736744 0.880081,5.669009 -0.08451,1.932266 -0.557523,3.841859 -1.376803,5.570076 -0.106145,0.214353 -0.215384,0.426644 -0.322561,0.638938 -0.118511,0.208169 -0.234962,0.415307 -0.356567,0.619354 -0.128817,0.200957 -0.254543,0.40191 -0.385423,0.599776 l -0.417369,0.575042 c -0.149429,0.184467 -0.296796,0.368933 -0.447253,0.549277 -0.159736,0.175192 -0.316377,0.351414 -0.478172,0.520425 -0.166948,0.166947 -0.336989,0.328742 -0.507027,0.489505 -0.179314,0.152523 -0.357599,0.304012 -0.543096,0.447257 0.09687,-0.215382 0.200956,-0.422523 0.30298,-0.627601 0.09687,-0.210228 0.19271,-0.418398 0.292674,-0.622445 0.08966,-0.210231 0.184466,-0.41531 0.276184,-0.621416 0.08554,-0.209201 0.174163,-0.41531 0.260728,-0.621417 l 0.243209,-0.622448 c 0.07317,-0.211262 0.151488,-0.417369 0.226719,-0.62451 0.06698,-0.212291 0.13706,-0.42046 0.207137,-0.627597 0.06286,-0.211263 0.125727,-0.421491 0.190651,-0.62966 0.484353,-1.679784 0.778058,-3.386361 0.855348,-5.100152 0.07729,-1.714821 -0.06389,-3.440978 -0.396757,-5.15786 -0.04637,-0.212292 -0.08966,-0.427675 -0.13397,-0.643058 -0.05153,-0.213323 -0.103055,-0.427675 -0.151489,-0.644089 -0.05565,-0.212291 -0.116452,-0.425613 -0.170041,-0.642027 -0.06183,-0.212292 -0.126755,-0.425614 -0.187557,-0.642028 -0.06802,-0.212291 -0.138095,-0.425613 -0.204048,-0.642027 -0.0742,-0.212292 -0.15046,-0.425614 -0.221568,-0.643058 -0.08141,-0.212292 -0.158701,-0.427675 -0.237022,-0.645119 -0.08347,-0.214353 -0.167979,-0.429736 -0.2463,-0.652333"
       style="fill:#8832d6;fill-opacity:1;fill-rule:nonzero;stroke:none;stroke-width:0.0103054"
       id="path232" />
    <path
       d="m 36.799185,33.473108 c -0.02577,0 -0.05153,-0.001 -0.07729,-0.0021 -0.26279,-0.01237 -0.478172,-0.08554 -0.612142,-0.238055 -0.132942,-0.15252 -0.16901,-0.373056 -0.106145,-0.651302 0.01545,-0.07008 0.0371,-0.143245 0.06492,-0.219506 0.02886,-0.07523 0.06595,-0.150459 0.108205,-0.22981 0.08554,-0.157673 0.191682,-0.332865 0.332867,-0.497752 0.07007,-0.0845 0.145304,-0.17107 0.226719,-0.258666 0.08141,-0.0876 0.173129,-0.167978 0.26794,-0.253513 0.188588,-0.174162 0.409126,-0.330804 0.647179,-0.490538 0.482293,-0.306071 1.057335,-0.575042 1.69318,-0.756417 0.596685,-0.164887 1.188215,-0.235994 1.730279,-0.235994 0.03607,0 0.07214,0 0.108208,10e-4 0.28649,0.01237 0.556492,0.03092 0.807945,0.08141 0.125727,0.0237 0.2463,0.04431 0.360689,0.07626 0.11542,0.03298 0.224657,0.06698 0.327711,0.103054 0.207141,0.06802 0.388514,0.161795 0.544127,0.251452 0.07729,0.04637 0.148398,0.09069 0.212291,0.140153 0.06286,0.0505 0.119542,0.102024 0.170039,0.153551 0.197865,0.205078 0.281339,0.412217 0.24733,0.612142 -0.03401,0.199925 -0.180344,0.374087 -0.397788,0.521454 -0.05462,0.03607 -0.113361,0.07111 -0.176222,0.104084 -0.06389,0.03504 -0.131911,0.07214 -0.201988,0.104085 -0.143245,0.06905 -0.298856,0.122635 -0.467866,0.18962 -0.0845,0.03092 -0.172101,0.0608 -0.261756,0.0876 -0.09069,0.02782 -0.183438,0.06286 -0.278246,0.09172 -0.19065,0.05256 -0.390576,0.120573 -0.598745,0.174162 -0.416338,0.123665 -0.862563,0.244238 -1.33146,0.373056 -0.467865,0.13397 -0.912028,0.263818 -1.33146,0.375117 -0.206109,0.06286 -0.412216,0.108207 -0.601835,0.161795 -0.09584,0.02576 -0.193741,0.04431 -0.285462,0.06802 -0.09069,0.02267 -0.181376,0.04328 -0.268971,0.0608 -0.179314,0.03092 -0.341108,0.06595 -0.49775,0.08244 -0.07832,0.0082 -0.154582,0.01237 -0.226719,0.01649 -0.04328,0.0021 -0.08554,0.0041 -0.127788,0.0041"
       style="fill:#ffd19c;fill-opacity:1;fill-rule:nonzero;stroke:none;stroke-width:0.0103054"
       id="path234" />
    <path
       d="m 71.437749,42.191489 c -0.273096,0 -0.503936,-0.06802 -0.671915,-0.218475 -0.200954,-0.180344 -0.291643,-0.461681 -0.276184,-0.825463 0.0041,-0.09069 0.01443,-0.186528 0.03195,-0.287521 0.01753,-0.09996 0.04431,-0.203017 0.07626,-0.311223 0.06389,-0.214353 0.151488,-0.449317 0.273093,-0.688402 0.05977,-0.120574 0.125726,-0.244239 0.197863,-0.369965 0.07317,-0.125726 0.155613,-0.250421 0.241147,-0.379239 0.1721,-0.258666 0.376148,-0.515271 0.600807,-0.778059 0.454469,-0.517332 1.00993,-1.033633 1.650928,-1.499438 0.642025,-0.463744 1.306725,-0.830616 1.939476,-1.100618 0.319471,-0.13191 0.627601,-0.2463 0.926459,-0.327712 0.149427,-0.04225 0.293703,-0.08141 0.435919,-0.111299 0.142214,-0.02886 0.280306,-0.05359 0.413248,-0.07317 0.220535,-0.03401 0.430766,-0.04637 0.624507,-0.04637 0.03916,0 0.07729,0.001 0.11542,0.0021 0.11233,0.0031 0.218476,0.01031 0.318437,0.02473 0.100995,0.01443 0.195803,0.03504 0.283399,0.05874 0.350386,0.09893 0.58947,0.273093 0.697678,0.520424 0.108205,0.24836 0.07729,0.545156 -0.06287,0.865654 -0.03504,0.08038 -0.07626,0.161796 -0.124695,0.245269 -0.04741,0.08347 -0.100992,0.17004 -0.159732,0.256605 -0.119545,0.175192 -0.263819,0.349354 -0.422523,0.534851 -0.08038,0.09172 -0.166947,0.184467 -0.257637,0.276186 -0.08965,0.09275 -0.182403,0.189619 -0.281336,0.284429 -0.198895,0.186528 -0.409126,0.385422 -0.637904,0.577103 -0.45241,0.392636 -0.961496,0.789395 -1.510776,1.185123 -0.547218,0.39882 -1.083098,0.758478 -1.597338,1.06558 -0.253515,0.157674 -0.507028,0.295766 -0.747143,0.425615 -0.120573,0.06492 -0.242178,0.122635 -0.357598,0.179313 -0.116452,0.05771 -0.229813,0.11027 -0.342139,0.157673 -0.226719,0.09378 -0.436951,0.177254 -0.639967,0.234965 -0.100995,0.02988 -0.200956,0.05359 -0.294736,0.07214 -0.09378,0.01957 -0.184466,0.03401 -0.271031,0.04225 -0.05874,0.0062 -0.11542,0.0082 -0.17107,0.0082"
       style="fill:#ffd19c;fill-opacity:1;fill-rule:nonzero;stroke:none;stroke-width:0.0103054"
       id="path236" />
    <path
       d="m 42.378537,9.7696213 c -0.06802,0 -0.135002,-0.0031 -0.198895,-0.0052 -0.09069,-0.0021 -0.178285,-0.0093 -0.261758,-0.02061 -0.333896,-0.04741 -0.605958,-0.166947 -0.770843,-0.3812997 -0.16592,-0.213322 -0.20611,-0.5029047 -0.120574,-0.8563797 0.02165,-0.0876 0.05153,-0.1803446 0.08863,-0.2761846 0.03813,-0.09378 0.08553,-0.187559 0.141183,-0.286491 0.110267,-0.195803 0.248362,-0.410156 0.427675,-0.612142 0.08863,-0.103053 0.185498,-0.208169 0.288553,-0.314315 0.103051,-0.105115 0.218475,-0.203016 0.338017,-0.30607 0.121604,-0.09996 0.2463,-0.2092 0.384391,-0.301949 0.136033,-0.09584 0.280306,-0.191681 0.429735,-0.286491 0.602867,-0.365842 1.318064,-0.683249 2.104368,-0.89451 0.70695,-0.183436 1.406688,-0.264849 2.051807,-0.264849 0.0742,0 0.147367,10e-4 0.220537,0.0031 0.177251,0.0093 0.349352,0.02164 0.515268,0.03813 0.16592,0.01236 0.327715,0.04534 0.482294,0.07317 0.155613,0.02989 0.304011,0.05874 0.446225,0.09893 0.142217,0.04122 0.277215,0.08554 0.405004,0.131909 0.256606,0.08657 0.482293,0.205078 0.675003,0.320498 0.09687,0.05874 0.184469,0.116452 0.26485,0.179315 0.07935,0.06492 0.15046,0.130878 0.212294,0.196833 0.24939,0.264849 0.356567,0.535882 0.318436,0.803823 -0.03813,0.267941 -0.215385,0.507026 -0.483325,0.712104 -0.06596,0.05153 -0.139123,0.09996 -0.216412,0.146337 -0.07832,0.04947 -0.160767,0.09996 -0.249391,0.145306 -0.175194,0.09584 -0.367904,0.173131 -0.577104,0.26485 -0.104086,0.04225 -0.212291,0.08347 -0.32359,0.121604 -0.112329,0.03916 -0.226719,0.08553 -0.344201,0.123664 -0.118514,0.04122 -0.239088,0.07214 -0.362752,0.1164516 -0.123664,0.04122 -0.250421,0.08038 -0.379238,0.116451 -0.515271,0.158703 -1.070732,0.309162 -1.656081,0.4596207 -0.583286,0.157673 -1.139778,0.300918 -1.666386,0.41737 -0.129849,0.03298 -0.258666,0.0608 -0.387483,0.08657 -0.128817,0.02164 -0.24939,0.05462 -0.372026,0.07729 -0.121604,0.02473 -0.245268,0.04122 -0.360689,0.06183 -0.11542,0.02164 -0.229812,0.04019 -0.342139,0.05359 -0.226721,0.02473 -0.432828,0.05153 -0.632754,0.05565 -0.02989,10e-4 -0.05977,0.0021 -0.08863,0.0021"
       style="fill:#ffd19c;fill-opacity:1;fill-rule:nonzero;stroke:none;stroke-width:0.0103054"
       id="path238" />
    <path
       d="m 57.690325,16.988565 c -0.292675,0 -0.572983,-0.0062 -0.841955,-0.02061 -0.181375,-0.0041 -0.359657,-0.02164 -0.527636,-0.03298 -0.08451,-0.0072 -0.167979,-0.01958 -0.248359,-0.02782 -0.08038,-0.0072 -0.159736,-0.01752 -0.235997,-0.03092 -0.15561,-0.02782 -0.297824,-0.05153 -0.431794,-0.08863 -0.06699,-0.01855 -0.131911,-0.04019 -0.193744,-0.06183 -0.05977,-0.02061 -0.118511,-0.04328 -0.173129,-0.06905 -0.217444,-0.100993 -0.385423,-0.242177 -0.465806,-0.428705 -0.08038,-0.186529 -0.06492,-0.400881 0.0474,-0.634814 0.02886,-0.05874 0.06286,-0.118512 0.102024,-0.179314 0.04122,-0.05977 0.08863,-0.117482 0.141182,-0.177254 0.105118,-0.117481 0.232903,-0.243207 0.386454,-0.352445 0.07626,-0.05668 0.158704,-0.113359 0.245269,-0.169009 0.08657,-0.05565 0.180344,-0.103054 0.278246,-0.15355 0.195804,-0.104085 0.413248,-0.186528 0.646151,-0.26588 0.467865,-0.147367 1.003745,-0.241147 1.569513,-0.24733 0.0062,0 0.01236,0 0.01753,0 0.559583,0 1.091342,0.08554 1.556116,0.225689 0.233935,0.07626 0.45241,0.155611 0.649242,0.256605 0.09893,0.04947 0.192712,0.09687 0.280308,0.150459 0.08863,0.05462 0.17107,0.110268 0.247328,0.165917 0.155614,0.107176 0.284431,0.230841 0.392638,0.347292 0.05256,0.05874 0.100993,0.115421 0.142214,0.175192 0.04122,0.05977 0.07523,0.119543 0.104086,0.177254 0.116452,0.232902 0.135001,0.447254 0.05668,0.634813 -0.07832,0.187559 -0.243206,0.330804 -0.46065,0.434889 -0.05359,0.02679 -0.111299,0.0505 -0.172101,0.07111 -0.0608,0.02267 -0.124695,0.04534 -0.191682,0.06389 -0.13397,0.04019 -0.276184,0.06492 -0.430766,0.09584 -0.07626,0.0134 -0.15561,0.02473 -0.234962,0.03401 -0.08038,0.0093 -0.164889,0.02267 -0.248362,0.03092 -0.167979,0.0134 -0.346261,0.03401 -0.527637,0.04019 -0.364811,0.02473 -0.752296,0.03298 -1.159359,0.03401 -0.108208,0.001 -0.214354,0.0021 -0.318437,0.0021"
       style="fill:#ffd19c;fill-opacity:1;fill-rule:nonzero;stroke:none;stroke-width:0.0103054"
       id="path240" />
    <path
       d="m 66.81886,28.499714 c -0.01031,0 -0.01957,0 -0.02989,0 -0.04328,0 -0.08863,-0.001 -0.13397,-0.0052 -0.09275,-0.0072 -0.185497,-0.02473 -0.288552,-0.04225 -0.0505,-0.0093 -0.102023,-0.02061 -0.153551,-0.03401 -0.05153,-0.01236 -0.106145,-0.0237 -0.159732,-0.03813 -0.107177,-0.03195 -0.220538,-0.0608 -0.333896,-0.09893 -0.230843,-0.07008 -0.470959,-0.154581 -0.722412,-0.249391 -0.251452,-0.09172 -0.489505,-0.184466 -0.710043,-0.281337 -0.110267,-0.04431 -0.215381,-0.0979 -0.316374,-0.143246 -0.0505,-0.0237 -0.09996,-0.05153 -0.14737,-0.07523 -0.0474,-0.0237 -0.09378,-0.04844 -0.138092,-0.0742 -0.08863,-0.05359 -0.1721,-0.100993 -0.246299,-0.156642 -0.0371,-0.02679 -0.07214,-0.05565 -0.105115,-0.08244 -0.03298,-0.02782 -0.06286,-0.05462 -0.09069,-0.08347 -0.112327,-0.11439 -0.183435,-0.241146 -0.190647,-0.376147 -0.0072,-0.135001 0.05152,-0.26588 0.176222,-0.386453 0.03092,-0.02989 0.06595,-0.05874 0.104083,-0.0876 0.03916,-0.02782 0.08142,-0.05359 0.127789,-0.07832 0.09378,-0.04844 0.201985,-0.0979 0.322558,-0.129848 0.0608,-0.01855 0.124695,-0.03401 0.191682,-0.04844 0.06698,-0.01443 0.136029,-0.02267 0.208169,-0.03195 0.09893,-0.01237 0.201985,-0.01752 0.309161,-0.01752 0.0505,0 0.102024,10e-4 0.154583,0.0031 0.32462,0.01752 0.679125,0.0845 1.03157,0.213322 0.351417,0.131909 0.6647,0.312254 0.922337,0.511148 0.126755,0.103054 0.243207,0.204048 0.341108,0.313285 0.04946,0.05462 0.09687,0.106146 0.138092,0.159734 0.04122,0.05462 0.07935,0.109237 0.113361,0.161795 0.07008,0.103054 0.120573,0.211261 0.158704,0.309162 0.01957,0.04844 0.03504,0.09584 0.04637,0.142215 0.01134,0.04741 0.01855,0.09172 0.02267,0.135001 0.01545,0.1721 -0.02576,0.309162 -0.118514,0.407064 -0.09378,0.0979 -0.23084,0.147367 -0.389544,0.161795 -0.03092,0.0021 -0.06183,0.0031 -0.09378,0.0031"
       style="fill:#ff9cb3;fill-opacity:1;fill-rule:nonzero;stroke:none;stroke-width:0.0103054"
       id="path242" />
    <path
       d="m 67.745319,46.781523 c 0,0 0,0 0,0 v 0 m 0.280305,-1.447912 c 0,-0.0012 0,-0.0031 0,-0.0041 0,0.0012 0,0.0031 0,0.0041 m 0.0012,-0.01545 c 0,-0.0031 0,-0.0051 0,-0.0082 0,0.0031 0,0.0051 0,0.0082 m 0.0012,-0.01133 c 0.04328,-0.718287 0.0093,-1.613828 -0.137063,-2.641277 0,-0.0012 0,-0.0012 0,-0.0012 0.146338,1.028479 0.180344,1.922992 0.137063,2.642307"
       style="fill:#ed6384;fill-opacity:1;fill-rule:nonzero;stroke:none;stroke-width:0.0103054"
       id="path244" />
    <path
       d="m 34.931844,57.474421 c 0.791455,-1.239743 1.52108,-2.495972 2.184749,-3.764568 1.58085,-0.104086 3.156547,-0.256605 4.713695,-0.451378 v 0 c 0.867716,-0.109236 1.729248,-0.23084 2.582539,-0.365842 -0.885237,1.592188 -1.7849,2.938073 -2.582539,4.018083 v 0 0 c -2.273372,0.285459 -4.587969,0.4792 -6.898444,0.563705 M 29.2515,57.447631 v 0 H 29.2503 C 20.067312,57.004493 11.590077,54.515736 6.9258467,48.751918 c -0.844014,-1.043939 -1.544782,-2.129099 -2.109519,-3.244146 -0.525576,-1.034664 -0.934701,-2.094059 -1.235619,-3.167885 -0.28443,-1.017145 -0.471988,-2.046655 -0.568859,-3.080288 -0.052558,-0.557523 -0.077291,-1.115046 -0.078321,-1.6736 0,-0.291643 0.0072,-0.584317 0.02061,-0.87596 0.01546,-0.322559 0.03916,-0.646149 0.07008,-0.968709 0.100993,0.988289 0.28443,1.972456 0.556492,2.945288 0.300919,1.074855 0.710044,2.134251 1.23562,3.168916 0.564737,1.114013 1.265505,2.200204 2.109519,3.243112 4.6642303,5.764849 13.1414653,8.253609 22.3246203,8.695709 h 0.0012 c 0.787333,0.03916 1.580848,0.06183 2.377459,0.07111 -0.726531,1.209855 -1.51902,2.405283 -2.377459,3.582163 M 48.130157,55.8709 c 0.714165,-1.230468 1.429362,-2.60418 2.097152,-4.111863 1.255199,-0.293702 2.473301,-0.61111 3.643995,-0.949127 0.900693,-0.260728 1.772532,-0.531759 2.612426,-0.81413 -0.793517,1.667418 -1.696273,3.159641 -2.612426,4.466367 v 0 c -1.812723,0.523518 -3.738806,0.998596 -5.741147,1.408753 m 12.595278,-3.858347 c 0.699737,-1.472646 1.285086,-2.971054 1.752951,-4.49007 2.746394,-1.413903 4.629193,-2.926739 5.262978,-4.384956 0.05668,-0.13088 0.107174,-0.288552 0.149426,-0.471988 0.146339,1.027449 0.180345,1.92299 0.137064,2.641277 0,0.0012 -0.0012,0.002 -0.0012,0.0031 0,0.0031 0,0.0051 0,0.0082 0,0.0041 -0.0012,0.0072 -0.0012,0.01134 0,0.0012 0,0.0031 0,0.0041 -0.04019,0.630691 -0.142214,1.124319 -0.280306,1.447911 0,0 0,0 0,0 -0.002,0.0031 -0.0031,0.0051 -0.0041,0.0082 v 0 c -0.08141,0.187557 -0.183438,0.375117 -0.305043,0.563705 -0.298855,0.464775 -0.718287,0.931609 -1.244893,1.398446 v 0 c -1.260351,1.117107 -3.139029,2.22597 -5.465994,3.260634"
       style="fill:#78924c;fill-opacity:1;fill-rule:nonzero;stroke:none;stroke-width:0.0103054"
       id="path246" />
    <path
       d="m 32.364764,57.521826 c -1.043939,0 -2.082725,-0.02474 -3.113264,-0.0742 v 0 c 0.858438,-1.17688 1.650927,-2.372308 2.377458,-3.582163 0.244238,0.002 0.489506,0.0031 0.735806,0.0031 0.853288,0 1.70967,-0.01545 2.56708,-0.0474 0.728593,-0.02576 1.457187,-0.0639 2.184749,-0.111299 -0.663669,1.268595 -1.393294,2.524825 -2.184749,3.764568 v 0 c -0.85741,0.03092 -1.713792,0.04741 -2.56708,0.04741"
       style="fill:#621b97;fill-opacity:1;fill-rule:nonzero;stroke:none;stroke-width:0.0103054"
       id="path248" />
    <path
       d="m 41.830288,56.910716 v 0 c 0.797639,-1.08001 1.697302,-2.425895 2.582539,-4.018083 1.260352,-0.198894 2.502154,-0.424584 3.716131,-0.673975 h 0.0012 c 0.709012,-0.145304 1.408749,-0.298855 2.097152,-0.459622 -0.667791,1.507683 -1.382987,2.881395 -2.097152,4.111863 v 0 c 0,0 0,0 0,0 h -0.0012 c -2.018829,0.415307 -4.113922,0.764661 -6.248174,1.033633 -0.01648,0.002 -0.03298,0.0041 -0.0505,0.0062"
       style="fill:#621b97;fill-opacity:1;fill-rule:nonzero;stroke:none;stroke-width:0.0103054"
       id="path250" />
    <path
       d="m 53.871136,54.462146 v 0 c 0.916153,-1.306726 1.818906,-2.798949 2.612424,-4.466367 1.532413,-0.515268 2.955594,-1.064548 4.241708,-1.636499 0.616263,-0.274125 1.202643,-0.553399 1.752951,-0.836798 -0.467866,1.519016 -1.053214,3.017424 -1.752951,4.49007 v 0 c -1.991005,0.885234 -4.310754,1.71482 -6.854132,2.449594"
       style="fill:#621b97;fill-opacity:1;fill-rule:nonzero;stroke:none;stroke-width:0.0103054"
       id="path252" />
    <path
       d="m 56.224894,31.301757 c -0.01545,0 -0.02989,0 -0.04535,-10e-4 -0.108205,-0.0041 -0.227747,-0.02164 -0.357595,-0.05153 -0.12882,-0.03195 -0.268971,-0.0742 -0.421494,-0.126757 -0.151489,-0.05256 -0.311221,-0.118512 -0.480231,-0.193741 -0.170038,-0.07523 -0.352445,-0.157673 -0.540005,-0.252483 -0.185498,-0.09584 -0.388514,-0.193742 -0.593592,-0.30401 -0.15561,-0.08554 -0.318436,-0.17107 -0.486415,-0.261757 -0.270003,-1.92196 -0.682219,-3.826401 -1.235618,-5.703017 0.13397,0.09996 0.266909,0.197864 0.393667,0.301948 0.147366,0.118512 0.291643,0.234964 0.434888,0.350384 0.141185,0.117482 0.277215,0.237025 0.411185,0.354507 0.06699,0.05874 0.132941,0.117482 0.198894,0.175192 0.06492,0.05874 0.12882,0.119543 0.191681,0.178284 0.125727,0.119542 0.249391,0.237024 0.368936,0.353475 0.119542,0.117482 0.2329,0.237025 0.34523,0.352446 0.111298,0.117481 0.221566,0.230841 0.323589,0.348323 0.205079,0.233932 0.402944,0.456529 0.577105,0.683249 0.176222,0.223627 0.342139,0.43901 0.486415,0.653363 0.145307,0.213322 0.281337,0.413247 0.395729,0.613172 0.114389,0.198895 0.218475,0.385423 0.305039,0.564737 0.08451,0.180345 0.155611,0.350384 0.213323,0.508057 0.05771,0.156642 0.09893,0.30504 0.124695,0.442102 0.02679,0.135001 0.04019,0.258666 0.03813,0.368934 -0.0031,0.219506 -0.06389,0.386453 -0.183438,0.496721 -0.111298,0.100993 -0.268971,0.149429 -0.464772,0.149429 m -8.279371,-4.092306 c -0.535883,-0.268971 -1.088254,-0.540004 -1.657112,-0.807945 -0.677065,-0.315345 -1.343825,-0.612141 -1.993066,-0.892449 -0.161795,-0.07008 -0.322561,-0.139123 -0.482294,-0.207139 -0.160766,-0.06698 -0.319467,-0.131909 -0.47714,-0.197863 -0.156645,-0.06802 -0.314317,-0.127788 -0.468897,-0.190651 -0.154582,-0.06286 -0.307102,-0.128817 -0.459622,-0.186528 -0.151488,-0.0608 -0.301949,-0.120573 -0.450347,-0.180344 -0.149429,-0.05771 -0.295764,-0.11439 -0.441072,-0.17107 -0.07214,-0.02886 -0.144276,-0.05771 -0.216412,-0.08554 -0.07111,-0.02782 -0.142217,-0.05462 -0.213322,-0.08141 -0.142217,-0.05565 -0.28134,-0.109238 -0.418401,-0.162826 0,0 -0.0012,0 -0.0012,-0.001 -0.350383,-1.295391 -0.764662,-2.583568 -1.245924,-3.864531 0.08244,-0.0031 0.164885,-0.0052 0.24939,-0.0072 0.08966,-0.0041 0.180345,-0.0052 0.273093,-0.0052 0.200957,0 0.408095,0.0062 0.621417,0.01237 0.155613,0.0031 0.313286,0.01546 0.475081,0.02576 0.160763,0.01237 0.325652,0.02267 0.491568,0.03916 0.165917,0.01752 0.335955,0.0371 0.507025,0.05771 0.08657,0.01134 0.173132,0.02061 0.259696,0.03401 0.0876,0.0134 0.174163,0.02679 0.26279,0.04019 0.176223,0.02782 0.355536,0.05668 0.53588,0.08966 0.179317,0.03607 0.36172,0.07214 0.547218,0.109238 0.184466,0.0371 0.368935,0.08347 0.556492,0.128818 0.18756,0.04534 0.378211,0.09069 0.56783,0.145306 0.189619,0.05462 0.381301,0.109237 0.575042,0.164887 0.17107,0.05462 0.342139,0.110268 0.516302,0.165917 0.798668,1.785928 1.531383,3.803729 2.085816,6.028668"
       style="fill:#a9bd8b;fill-opacity:1;fill-rule:nonzero;stroke:none;stroke-width:0.0103054"
       id="path254" />
    <path
       d="m 40.666807,24.044683 c -0.138092,-0.05153 -0.273093,-0.103054 -0.406032,-0.153551 -0.132942,-0.0505 -0.26279,-0.105115 -0.392638,-0.151489 -0.257635,-0.09584 -0.504966,-0.199925 -0.74405,-0.288552 -0.238056,-0.09275 -0.465806,-0.188589 -0.682219,-0.274124 -0.217444,-0.08657 -0.421491,-0.179314 -0.614204,-0.261757 -0.19271,-0.08347 -0.373054,-0.17004 -0.538971,-0.253514 -0.166947,-0.08141 -0.31947,-0.162825 -0.456531,-0.245269 -0.138092,-0.08347 -0.260727,-0.162825 -0.366873,-0.243208 -0.106145,-0.07935 -0.195803,-0.160764 -0.268971,-0.241147 -0.144276,-0.162825 -0.218475,-0.325651 -0.21126,-0.487446 0.0072,-0.161795 0.09687,-0.315345 0.263818,-0.458591 0.08347,-0.07214 0.186529,-0.141184 0.308131,-0.207138 0.121604,-0.06699 0.261758,-0.130879 0.419431,-0.186528 0.158704,-0.05668 0.334927,-0.110269 0.527637,-0.160765 0.192713,-0.04843 0.402941,-0.0876 0.628632,-0.125726 0.226719,-0.04122 0.467865,-0.06492 0.724468,-0.08966 0.181376,-0.01855 0.368936,-0.02886 0.563708,-0.03607 0.481262,1.280963 0.895541,2.56914 1.245924,3.864531"
       style="fill:#bd7fff;fill-opacity:1;fill-rule:nonzero;stroke:none;stroke-width:0.0103054"
       id="path256" />
    <path
       d="m 53.300216,30.110451 c -0.05256,-0.02886 -0.107177,-0.05874 -0.160764,-0.08863 -0.221566,-0.126757 -0.45859,-0.250422 -0.697678,-0.387484 -0.118511,-0.06905 -0.244237,-0.135001 -0.367901,-0.205078 -0.124695,-0.07008 -0.250422,-0.141184 -0.379242,-0.213322 -0.128817,-0.07111 -0.259696,-0.144275 -0.392635,-0.217444 -0.06596,-0.0371 -0.131908,-0.07523 -0.198894,-0.112329 -0.06802,-0.0371 -0.136033,-0.0742 -0.204047,-0.111298 -0.136033,-0.07523 -0.274125,-0.152521 -0.414279,-0.229811 -0.140151,-0.07626 -0.282368,-0.15252 -0.426644,-0.230842 -0.141183,-0.08038 -0.289581,-0.154581 -0.436947,-0.234963 -0.14737,-0.07729 -0.293706,-0.160764 -0.446226,-0.237025 -0.151491,-0.07935 -0.30298,-0.159734 -0.457562,-0.240116 -0.153551,-0.07935 -0.310193,-0.158703 -0.467865,-0.239085 -0.09996,-0.05153 -0.201985,-0.102024 -0.304009,-0.153551 -0.554433,-2.224939 -1.287148,-4.24274 -2.085815,-6.028668 0.02165,0.0072 0.04328,0.0134 0.06492,0.02061 0.778058,0.262788 1.569513,0.576072 2.358908,0.943976 0.788365,0.372025 1.536539,0.78012 2.235245,1.210886 0.173132,0.109238 0.345233,0.218475 0.515271,0.326682 0.166948,0.11336 0.331833,0.225688 0.494659,0.336987 0.163857,0.110268 0.319467,0.22775 0.475081,0.34214 0.01957,0.01546 0.04019,0.03092 0.0608,0.04534 0.553399,1.876616 0.965615,3.781057 1.235618,5.703017"
       style="fill:#bd7fff;fill-opacity:1;fill-rule:nonzero;stroke:none;stroke-width:0.0103054"
       id="path258" />
    <path
       d="m 19.351086,35.050867 c -0.72138,3.229717 -3.988196,5.27019 -7.297265,4.554994 -3.3090683,-0.714165 -5.4072513,-3.911936 -4.6858723,-7.142684 0.721379,-3.230748 3.9892263,-5.270189 7.2982953,-4.556024 3.309069,0.714165 5.406221,3.912966 4.684842,7.143714"
       style="fill:#ffffff;fill-opacity:1;fill-rule:nonzero;stroke:none;stroke-width:0.0103054"
       id="path260" />
    <path
       d="m 17.372446,34.664414 c -0.488477,2.18887 -2.704141,3.571857 -4.9466,3.087503 -2.243489,-0.484355 -3.6646053,-2.651584 -3.1761284,-4.841485 0.4895067,-2.1899 2.7041404,-3.572887 4.9465994,-3.088533 2.243489,0.484355 3.665636,2.652614 3.176129,4.842515"
       style="fill:#262626;fill-opacity:1;fill-rule:nonzero;stroke:none;stroke-width:0.0103054"
       id="path262" />
    <path
       d="m 17.987679,32.459055 c -0.227749,1.021267 -1.260352,1.665355 -2.306352,1.439667 -1.046,-0.225689 -1.709668,-1.23665 -1.480888,-2.257917 0.227749,-1.021266 1.260352,-1.665355 2.306352,-1.439666 1.045999,0.225688 1.708638,1.236649 1.480888,2.257916"
       style="fill:#ffffff;fill-opacity:1;fill-rule:nonzero;stroke:none;stroke-width:0.0103054"
       id="path264" />
    <path
       d="m 12.898865,43.063327 c -1.172757,1.906502 -3.2565117,3.071014 -5.4196173,3.071014 -0.184467,0 -0.369965,-0.0082 -0.555462,-0.02576 -0.803823,-0.07523 -1.505621,-0.29989 -2.107458,-0.600807 -0.525576,-1.034664 -0.934701,-2.094059 -1.234588,-3.167885 0.409125,0.593592 1.567453,1.986885 3.491474,2.166198 1.750891,0.162826 3.4997193,-0.734774 4.4550313,-2.28574 0.232902,-0.379239 0.728592,-0.496721 1.106801,-0.263818 0.378209,0.232903 0.496721,0.728592 0.263819,1.1068"
       style="fill:#262626;fill-opacity:1;fill-rule:nonzero;stroke:none;stroke-width:0.0103054"
       id="path266" />
  </g>
</svg>
