<?xml version="1.0" encoding="UTF-8" standalone="no"?>
<svg
   xmlns:dc="http://purl.org/dc/elements/1.1/"
   xmlns:cc="http://creativecommons.org/ns#"
   xmlns:rdf="http://www.w3.org/1999/02/22-rdf-syntax-ns#"
   xmlns:svg="http://www.w3.org/2000/svg"
   xmlns="http://www.w3.org/2000/svg"
   xmlns:sodipodi="http://sodipodi.sourceforge.net/DTD/sodipodi-0.dtd"
   xmlns:inkscape="http://www.inkscape.org/namespaces/inkscape"
   width="320"
   height="230"
   viewBox="0 0 84.666664 60.854166"
   version="1.1"
   id="svg646"
   inkscape:version="1.0.2-2 (e86c870879, 2021-01-15)"
   sodipodi:docname="fish08.svg">
  <defs
     id="defs640" />
  <sodipodi:namedview
     id="base"
     pagecolor="#ffffff"
     bordercolor="#666666"
     borderopacity="1.0"
     inkscape:pageopacity="0.0"
     inkscape:pageshadow="2"
     inkscape:zoom="0.35"
     inkscape:cx="400"
     inkscape:cy="560"
     inkscape:document-units="px"
     inkscape:current-layer="layer1"
     inkscape:document-rotation="0"
     showgrid="false"
     units="px"
     inkscape:window-width="1267"
     inkscape:window-height="1032"
     inkscape:window-x="0"
     inkscape:window-y="45"
     inkscape:window-maximized="0" />
  <metadata
     id="metadata643">
    <rdf:RDF>
      <cc:Work
         rdf:about="">
        <dc:format>image/svg+xml</dc:format>
        <dc:type
           rdf:resource="http://purl.org/dc/dcmitype/StillImage" />
        <dc:title></dc:title>
      </cc:Work>
    </rdf:RDF>
  </metadata>
  <g
     inkscape:label="Layer 1"
     inkscape:groupmode="layer"
     id="layer1">
    <path
       d="m 62.159534,33.949468 c 8.37134,13.381895 19.28782,8.952698 19.28782,8.952698 0,0 1.05966,-9.673074 -7.41473,-12.733461 8.60174,-2.683184 7.96983,-12.393201 7.96983,-12.393201 0,0 -10.7094,-4.907505 -19.66501,8.090384 l -0.17791,8.08358"
       style="fill:#77529d;fill-opacity:1;fill-rule:nonzero;stroke:none;stroke-width:0.00972169"
       id="path524" />
    <path
       d="m 77.102734,43.605042 c -3.45801,0 -8.45884,-1.230765 -13.03289,-6.948086 v 0 c 4.57405,5.718293 9.57391,6.948086 13.03191,6.948086 2.61319,0 4.3456,-0.702876 4.3456,-0.702876 0,0 0.17013,-1.554498 -0.17208,-3.615495 v 0 c 0.34221,2.060997 0.17208,3.615495 0.17208,3.615495 0,0 -1.73241,0.702876 -4.34462,0.702876"
       style="fill:#ededed;fill-opacity:1;fill-rule:nonzero;stroke:none;stroke-width:0.00972169"
       id="path526" />
    <path
       d="m 77.101754,43.605042 c -3.458,0 -8.45786,-1.229793 -13.03191,-6.948086 0.5133,-0.661075 0.99453,-1.353259 1.39895,-2.078496 4.1706,4.353369 8.52591,5.347898 11.63394,5.347898 2.13002,0 3.67479,-0.467612 4.17254,-0.639687 0.34221,2.060997 0.17208,3.615495 0.17208,3.615495 0,0 -1.73241,0.702876 -4.3456,0.702876"
       style="fill:#6f4c92;fill-opacity:1;fill-rule:nonzero;stroke:none;stroke-width:0.00972169"
       id="path528" />
    <path
       d="m 67.009684,24.779004 c -0.20708,0 -0.37137,-0.04958 -0.48025,-0.159435 -0.16527,-0.164297 -0.18666,-0.450114 -0.07,-0.838009 0.0282,-0.09722 0.0661,-0.200267 0.1118,-0.310122 0.0476,-0.106939 0.10694,-0.215821 0.17304,-0.332481 0.13416,-0.230404 0.29457,-0.489973 0.50553,-0.741765 0.10402,-0.128326 0.21582,-0.260541 0.3354,-0.395673 0.0583,-0.06902 0.12444,-0.132214 0.18957,-0.198322 0.0661,-0.06611 0.13416,-0.132215 0.20416,-0.199294 0.07,-0.06708 0.14193,-0.135132 0.21485,-0.203183 0.0369,-0.03305 0.0739,-0.06902 0.1118,-0.102078 0.0389,-0.03208 0.0787,-0.06416 0.1186,-0.09722 0.15846,-0.13027 0.3247,-0.262485 0.49775,-0.395672 0.70093,-0.514277 1.53311,-1.000361 2.46153,-1.387285 0.93231,-0.379145 1.86559,-0.620243 2.72499,-0.749541 0.21582,-0.02722 0.42678,-0.05055 0.63191,-0.07 0.0515,-0.0049 0.10208,-0.0097 0.15263,-0.01361 0.0506,-0.0039 0.1011,-0.0049 0.15068,-0.0068 0.10014,-0.0029 0.1993,-0.0058 0.29554,-0.0078 0.0846,-9.64e-4 0.16819,-0.002 0.25082,-0.002 0.0117,0 0.0224,0 0.034,0 0.0933,9.64e-4 0.18471,-9.65e-4 0.27512,0.0068 0.17985,0.01264 0.35193,0.02722 0.51622,0.04569 0.32762,0.03014 0.62414,0.100134 0.88176,0.169158 0.12833,0.03694 0.2479,0.07194 0.35679,0.114715 0.10985,0.04569 0.20901,0.09236 0.29748,0.140965 0.35581,0.193461 0.54247,0.411227 0.5415,0.644547 -10e-4,0.233321 -0.18569,0.459836 -0.50164,0.668852 -0.0787,0.0525 -0.16624,0.104022 -0.26151,0.153603 -0.0943,0.0525 -0.19638,0.108883 -0.30526,0.16138 -0.21777,0.107911 -0.4647,0.201238 -0.73205,0.317899 -0.13319,0.05541 -0.27318,0.109855 -0.41803,0.162352 -0.0729,0.0243 -0.14583,0.05736 -0.22068,0.08555 -0.0739,0.03014 -0.14972,0.0593 -0.22749,0.08847 -0.0768,0.02819 -0.15555,0.05736 -0.23429,0.08555 -0.0399,0.01361 -0.0807,0.02722 -0.12055,0.04277 -0.0399,0.01555 -0.0797,0.03111 -0.12055,0.04764 -0.16235,0.06319 -0.32859,0.125409 -0.49969,0.185684 -0.67858,0.260541 -1.41451,0.539553 -2.18155,0.850647 -0.76315,0.318871 -1.48159,0.639687 -2.14752,0.933281 -0.16332,0.0768 -0.32568,0.150687 -0.48511,0.21971 -0.0399,0.01653 -0.0797,0.03403 -0.11958,0.05055 -0.0389,0.0175 -0.0768,0.03694 -0.11471,0.05444 -0.0768,0.03597 -0.15166,0.07097 -0.22749,0.104994 -0.0749,0.03403 -0.14972,0.06611 -0.22263,0.09819 -0.0739,0.03208 -0.14874,0.0593 -0.21777,0.09333 -0.13999,0.06513 -0.27706,0.12541 -0.41122,0.179851 -0.27124,0.105966 -0.51136,0.212905 -0.74274,0.289706 -0.11471,0.03986 -0.22651,0.07194 -0.33053,0.101106 -0.10306,0.03111 -0.20027,0.05639 -0.2936,0.07486 -0.12541,0.02528 -0.24207,0.03791 -0.34706,0.03791"
       style="fill:#a48bbd;fill-opacity:1;fill-rule:nonzero;stroke:none;stroke-width:0.00972169"
       id="path530" />
    <path
       d="m 25.950154,18.361722 c 0.473444,-2.531526 0.996472,-5.082496 2.082384,-7.418616 1.08591,-2.3351497 2.797899,-4.4651697 5.118466,-5.5831637 2.319594,-1.117993 5.292483,-1.056747 7.305844,0.549275 1.145213,0.914811 1.894756,2.221405 2.828038,3.353009 0.93328,1.1306307 2.212655,2.1543257 3.678685,2.1212717 1.981278,-0.04472 3.745763,-2.0016957 5.653163,-1.4650587 1.19771,0.3373427 1.91225,1.5457487 2.39153,2.6929067 0.47928,1.148131 0.89731,2.408061 1.88406,3.166352 0.77093,0.592051 1.77421,0.780651 2.6336,1.235626 1.33771,0.710655 2.28363,2.110578 2.44404,3.616466 0.15943,1.505889 -0.47151,3.073024 -1.63033,4.048109 l -34.38948,-6.316177"
       style="fill:#77529d;fill-opacity:1;fill-rule:nonzero;stroke:none;stroke-width:0.00972169"
       id="path532" />
    <path
       d="m 34.028871,49.765673 c 0.524971,2.787207 2.062942,5.509278 4.567246,6.841147 2.504307,1.331872 6.007028,0.89245 7.670408,-1.404783 0.633853,-0.873979 1.006194,-1.976418 1.876284,-2.616105 0.844815,-0.622186 1.970585,-0.666906 2.956365,-1.027581 1.42034,-0.52011 2.55583,-1.758653 2.95053,-3.218849 0.3947,-1.460196 0.0379,-3.103162 -0.92745,-4.26782 l -19.093383,5.693991"
       style="fill:#77529d;fill-opacity:1;fill-rule:nonzero;stroke:none;stroke-width:0.00972169"
       id="path534" />
    <path
       d="m 35.533787,53.67379 c -0.0087,-0.01265 -0.01653,-0.02527 -0.02431,-0.03889 0.0078,0.01361 0.01554,0.02626 0.02431,0.03889 v 0 m -0.02527,-0.04083 c -0.0019,-0.0019 -0.0029,-0.0039 -0.0049,-0.0068 0.0019,0.0029 0.0029,0.0049 0.0049,0.0068 m 18.696737,-6.667131 c -0.0136,-0.39859 -0.0768,-0.795233 -0.18665,-1.178269 0.10985,0.383036 0.17304,0.779679 0.18665,1.178269 v 0 m -0.18763,-1.182158 c -10e-4,-0.0039 -0.002,-0.0078 -0.004,-0.01166 0.002,0.0039 0.003,0.0078 0.004,0.01166 m -0.005,-0.01554 c -0.001,-0.0048 -0.002,-0.0088 -0.004,-0.01361 0.002,0.0049 0.003,0.0088 0.004,0.01361 m -0.006,-0.02138 c -0.001,-0.0019 -0.001,-0.0039 -0.002,-0.0049 10e-4,0.0011 10e-4,0.0029 0.002,0.0049"
       style="fill:#ededed;fill-opacity:1;fill-rule:nonzero;stroke:none;stroke-width:0.00972169"
       id="path536" />
    <path
       d="m 35.533787,53.67379 c -0.0087,-0.01265 -0.01653,-0.02527 -0.02431,-0.03889 -0.0011,0 -0.0011,-0.0011 -0.0011,-0.0019 -0.0019,-0.0019 -0.0029,-0.0039 -0.0049,-0.0068 -0.247902,-0.399562 -0.468585,-0.817593 -0.662047,-1.250211 2.795956,-0.256651 5.562748,-0.802036 8.251764,-1.612826 v 0 0 c 3.573693,-1.077163 7.009333,-2.622908 10.18833,-4.578911 v 0 c 0.24207,-0.148742 0.48219,-0.300402 0.72037,-0.453032 10e-4,0.0029 0.002,0.0068 0.003,0.01069 10e-4,0.0011 10e-4,0.0029 0.002,0.0049 10e-4,0.0019 0.002,0.0048 0.002,0.0078 0.002,0.0049 0.003,0.0088 0.004,0.01361 10e-4,0.0011 10e-4,0.0019 10e-4,0.0039 0.002,0.0039 0.003,0.0078 0.004,0.01166 0,0.0011 0.001,0.0029 0.001,0.0039 0.10985,0.383036 0.17305,0.77968 0.18666,1.178269 -0.30527,0.199293 -0.61247,0.394701 -0.92356,0.585245 -3.178998,1.956975 -6.614639,3.501751 -10.188331,4.578914 -2.46639,0.743708 -4.998888,1.264791 -7.55958,1.543803"
       style="fill:#6f4c92;fill-opacity:1;fill-rule:nonzero;stroke:none;stroke-width:0.00972169"
       id="path538" />
    <path
       d="m 10.595727,34.673732 c -0.6426031,0.426783 -1.2852061,0.852594 -1.9278091,1.279374 -0.857453,0.568719 -1.831565,1.175351 -3.01275,1.224932 -1.061608,0.04472 -2.059052,-0.416088 -2.473196,-1.052857 -0.415116,-0.637745 -0.287762,-1.41256 0.210961,-2.052247 0.49775,-0.638715 1.334787,-1.149105 2.272929,-1.508805 -0.972168,-0.253736 -1.86073,-0.667882 -2.426532,-1.248265 -0.565802,-0.579414 -0.778707,-1.33576 -0.437476,-2.015304 0.342204,-0.679546 1.28229,-1.248265 2.340982,-1.321178 1.180212,-0.08166 2.215571,0.413172 3.130381,0.88273 0.686351,0.352896 1.372702,0.705792 2.0580811,1.058691 l 0.264429,4.752929"
       style="fill:#ffbf16;fill-opacity:1;fill-rule:nonzero;stroke:none;stroke-width:0.00972169"
       id="path540" />
    <path
       d="m 6.0245919,29.824558 c -0.0029,0 -0.0058,0 -0.0078,0 -0.02041,0 -0.04083,-0.0011 -0.06125,-0.0011 -0.02139,0 -0.0418,0 -0.06319,0 -0.04278,0 -0.08555,-0.0011 -0.128326,-0.0039 -0.175963,-0.0019 -0.362619,-0.01166 -0.559969,-0.02431 -0.196378,-0.01166 -0.384007,-0.02042 -0.560941,-0.03791 -0.04375,-0.0029 -0.08749,-0.0068 -0.130271,-0.01265 -0.04277,-0.0058 -0.08361,-0.0068 -0.124437,-0.01265 -0.04083,-0.0048 -0.08166,-0.01265 -0.120549,-0.0175 -0.03889,-0.0039 -0.0768,-0.01069 -0.113744,-0.0175 -0.07583,-0.01554 -0.143881,-0.02723 -0.209988,-0.04666 -0.03208,-0.0088 -0.06416,-0.01946 -0.0943,-0.03014 -0.02916,-0.0097 -0.05736,-0.02138 -0.08458,-0.03402 -0.106939,-0.04861 -0.191517,-0.116659 -0.232349,-0.208043 -0.0418,-0.09041 -0.035,-0.196378 0.02139,-0.31401 0.01458,-0.02917 0.03208,-0.0593 0.0525,-0.08944 0.02041,-0.03014 0.04472,-0.05833 0.07194,-0.0875 0.05444,-0.05833 0.120549,-0.122494 0.199295,-0.174991 0.03986,-0.02819 0.08166,-0.05541 0.127354,-0.08263 0.04472,-0.02723 0.09333,-0.04958 0.143881,-0.07388 0.05055,-0.02236 0.10305,-0.04861 0.159435,-0.06611 0.05541,-0.01944 0.113744,-0.03791 0.174019,-0.05541 0.200266,-0.05347 0.424837,-0.0875 0.660102,-0.0875 0.04764,0 0.0943,0.002 0.142909,0.0049 0.286789,0.01653 0.558024,0.08069 0.791344,0.172074 0.05736,0.02528 0.113744,0.05152 0.167213,0.07777 0.02625,0.01265 0.0525,0.02527 0.07777,0.03986 0.02528,0.01554 0.05055,0.03014 0.07389,0.04472 0.04861,0.03014 0.09333,0.06125 0.136103,0.09138 0.0418,0.03306 0.08069,0.06611 0.116661,0.09819 0.03597,0.03403 0.07,0.06416 0.09916,0.09916 0.02916,0.035 0.05541,0.06902 0.07874,0.102078 0.02333,0.03305 0.04375,0.06513 0.06027,0.09625 0.01653,0.03305 0.03014,0.06611 0.03986,0.09721 0.04083,0.124438 0.03208,0.230405 -0.02139,0.314012 -0.05444,0.08361 -0.147769,0.13902 -0.259569,0.174018 -0.02819,0.0078 -0.05736,0.01554 -0.08749,0.02138 -0.03208,0.0068 -0.06416,0.01361 -0.09722,0.01846 -0.03305,0.0048 -0.06708,0.0088 -0.102077,0.01069 -0.03403,0.0019 -0.07194,0.0078 -0.108883,0.0097 -0.03597,0.0019 -0.07194,0.0029 -0.108883,0.0029 -0.002,0 -0.0029,0 -0.0049,0 -0.03694,0.0019 -0.07389,0.0029 -0.1118,0.0029"
       style="fill:#ffd463;fill-opacity:1;fill-rule:nonzero;stroke:none;stroke-width:0.00972169"
       id="path542" />
    <path
       d="m 4.7568849,37.096377 c -9.65e-4,0 -0.002,0 -0.002,0 0,0 9.65e-4,0 0.002,0 m -0.01069,-0.0019 c -0.69024,-0.158464 -1.272568,-0.52011 -1.564219,-0.969251 -0.164296,-0.251793 -0.243042,-0.52497 -0.248875,-0.802039 0.0058,0.277069 0.08458,0.550246 0.248875,0.802039 0.292623,0.449141 0.873979,0.810787 1.564219,0.969251 m 1.750875,-0.04666 c 0.815649,-0.217765 1.526304,-0.666909 2.170852,-1.094662 0.07777,-0.05152 0.155546,-0.103049 0.234292,-0.155546 -0.07875,0.0525 -0.156519,0.104021 -0.235265,0.156519 -0.643575,0.42678 -1.35423,0.875924 -2.169879,1.093689 m -3.563969,-1.7256 c 0,-0.0048 0,-0.01069 0,-0.01554 0,0.0049 0,0.01069 0,0.01554 m 0,-0.01653 c 0,-0.0019 0,-0.0039 0,-0.0068 0,0.0029 0,0.0048 0,0.0068 m 0,-0.0088 c 0,-0.0019 0,-0.0039 0,-0.0049 0,0.0011 0,0.0029 0,0.0049 m 0,-0.0078 c 0,-0.0019 0,-0.0029 0,-0.0039 0,0.0011 0,0.0019 0,0.0039 m 0,-0.01265 c 0,-0.0011 0,-0.0011 0,-0.0019 0,0.0011 0,0.0011 0,0.0019 m 0,-0.0068 c 0,-0.0011 0,-0.0011 0,-0.0019 0,0.0011 0,0.0011 0,0.0019 m 0,-0.0078 v 0 0"
       style="fill:#ededed;fill-opacity:1;fill-rule:nonzero;stroke:none;stroke-width:0.00972169"
       id="path544" />
    <path
       d="m 5.5112869,37.180954 c -0.259569,0 -0.513304,-0.02916 -0.754402,-0.08458 -9.65e-4,0 -0.002,0 -0.002,0 -0.0029,-0.0011 -0.0058,-0.0011 -0.0087,-0.0019 -0.69024,-0.158464 -1.271596,-0.52011 -1.564219,-0.969251 -0.164296,-0.251793 -0.243042,-0.52497 -0.248875,-0.802039 0,0 0,0 0,-0.0011 0,-0.0049 0,-0.01069 0,-0.01554 v -0.0011 c 0,-0.0019 0,-0.0039 0,-0.0068 0,0 0,-0.0011 0,-0.0019 0,-0.0019 0,-0.0039 0,-0.0048 0,-0.0011 0,-0.0019 0,-0.0029 0,-0.0019 0,-0.0029 0,-0.0039 0,-0.0029 0,-0.0058 0,-0.0088 0,-0.0011 0,-0.0011 0,-0.0019 0,-0.0011 0,-0.0029 0,-0.0048 0,-0.0011 0,-0.0011 0,-0.0019 0,-0.0019 0,-0.0039 0,-0.0058 v 0 c 0.0058,-0.255681 0.07194,-0.513305 0.191517,-0.761207 0.0175,0.03208 0.03694,0.06416 0.05736,0.09527 0.395673,0.608577 1.323121,1.055775 2.329315,1.055775 0.04764,0 0.09527,-0.0011 0.143881,-0.0029 1.181185,-0.04958 2.156269,-0.656213 3.011777,-1.223962 0.05736,-0.03791 0.114716,-0.07583 0.171102,-0.113743 0.02819,0.105966 0.05639,0.212906 0.08555,0.320816 0,-0.0011 -9.65e-4,-0.0011 -9.65e-4,-0.0019 0.08555,0.314982 0.177907,0.638714 0.279013,0.969253 -0.100134,0.06611 -0.199295,0.132216 -0.299428,0.198323 -0.07875,0.0525 -0.156519,0.104022 -0.234293,0.155546 -0.644547,0.427753 -1.355202,0.876897 -2.170852,1.094662 -0.26929,0.07097 -0.549274,0.117632 -0.841897,0.13027 -0.04861,0.0019 -0.09625,0.0029 -0.143881,0.0029"
       style="fill:#edb214;fill-opacity:1;fill-rule:nonzero;stroke:none;stroke-width:0.00972169"
       id="path546" />
    <path
       d="m 66.644144,30.991159 c -0.20221,2.462502 -1.67602,4.62752 -3.26551,6.519361 -2.86887,3.414256 -6.30063,6.336593 -10.09694,8.673686 -3.178993,1.956003 -6.614634,3.501749 -10.188327,4.578912 -3.274261,0.986752 -6.665184,1.581719 -10.083328,1.73921 v 0 c -0.302345,0.01458 -0.603717,0.02527 -0.906061,0.03305 -2.125159,0.04958 -4.259068,-0.104994 -6.341452,-0.504556 C 24.07484,51.70709 22.419239,51.222951 20.830716,50.557016 12.101616,46.89583 8.6630569,35.441744 8.2032209,30.974631 c -0.424837,-4.12491 0.949809,-8.621189 4.2755961,-11.099245 2.181546,-1.626438 4.940558,-2.242793 7.627632,-2.675407 3.58633,-0.577468 7.212518,-0.896339 10.844539,-0.960503 2.218488,-0.03986 4.437946,0.01556 6.651573,0.166241 3.362731,0.227487 6.710877,0.673713 10.015278,1.337704 2.459586,0.492889 4.894865,1.105355 7.293205,1.837398 0.13124,0.03986 0.26152,0.07972 0.39179,0.120549 2.76095,0.858424 5.53358,1.905449 7.75304,3.75743 2.21946,1.85198 3.82354,4.651825 3.58827,7.532359"
       style="fill:#ff9800;fill-opacity:1;fill-rule:nonzero;stroke:none;stroke-width:0.00972169"
       id="path548" />
    <path
       d="m 33.010039,52.502328 c 0.868147,-1.289097 1.743099,-2.737628 2.566523,-4.336843 2.646244,-0.28193 5.264292,-0.798152 7.815261,-1.52825 1.137437,-0.326647 2.263209,-0.6951 3.371482,-1.105354 -0.601774,1.064522 -1.272571,2.10766 -2.011419,3.127465 -0.558023,0.768012 -1.116049,1.469918 -1.658519,2.103772 v 0 c -2.689016,0.810789 -5.455808,1.356174 -8.251764,1.612826 v 0 c -0.609548,0.05639 -1.220071,0.09819 -1.831564,0.126384"
       style="fill:#ed8d00;fill-opacity:1;fill-rule:nonzero;stroke:none;stroke-width:0.00972169"
       id="path550" />
    <path
       d="m 25.762526,52.030824 v 0 c -1.687686,-0.323732 -3.343287,-0.807871 -4.93181,-1.473806 -0.0078,-0.0029 -0.01554,-0.0068 -0.02334,-0.0097 0.0078,0.0029 0.01554,0.0068 0.02334,0.0097 1.588523,0.665935 3.244124,1.150074 4.93181,1.473806 v 0 0 m -4.963893,-1.487417 c -0.0039,-0.0019 -0.0097,-0.0039 -0.01361,-0.0058 0.0049,0.0019 0.0088,0.0039 0.01361,0.0058 m -0.02431,-0.01069 c -0.0039,-0.0011 -0.0088,-0.0029 -0.01265,-0.0049 0.0049,0.0019 0.0087,0.0039 0.01265,0.0049 m -0.02334,-0.0097 c -0.0039,-0.0019 -0.0078,-0.0029 -0.01166,-0.0048 0.0039,0.0019 0.0078,0.0039 0.01166,0.0048 m -0.03402,-0.01458 c -0.0029,-0.0011 -0.0058,-0.0019 -0.0088,-0.0039 0.0029,0.0019 0.0058,0.0029 0.0088,0.0039 m -0.02235,-0.0097 c -0.0029,-0.0011 -0.0058,-0.0019 -0.0087,-0.0029 0.0029,0.0011 0.0058,0.0019 0.0087,0.0029 m -0.02334,-0.0097 c -0.0019,-0.0011 -0.0049,-0.0019 -0.0068,-0.0029 0.0019,0.0011 0.0048,0.0019 0.0068,0.0029 m -0.05833,-0.02527 c -0.0011,-0.0011 -0.0029,-0.0011 -0.0039,-0.0019 0.0011,0.0011 0.0029,0.0011 0.0039,0.0019 m -0.02139,-0.0097 c -0.0011,0 -0.0019,-0.0011 -0.0039,-0.0011 0.0019,0 0.0029,0.0011 0.0039,0.0011 m -4.177407,-2.724987 -0.0011,-0.0011 0.0011,0.0011 m -0.06125,-0.05444 c -0.0011,-0.0011 -0.0019,-0.0019 -0.0029,-0.0029 0.0011,0.0011 0.0019,0.0019 0.0029,0.0029 m -0.01554,-0.01458 c -0.0019,-0.0011 -0.0029,-0.0029 -0.0049,-0.0039 0.0019,0.0011 0.0029,0.0019 0.0049,0.0039 m -0.0175,-0.01554 c -0.0011,-0.0011 -0.0019,-0.0019 -0.0029,-0.0029 0.0011,0.0011 0.0019,0.0019 0.0029,0.0029 m -0.02723,-0.02431 c -0.0011,-0.0019 -0.0029,-0.0039 -0.0049,-0.0048 0.0019,0.0019 0.0039,0.0029 0.0049,0.0048 m -0.01458,-0.01458 c -0.0029,-0.0019 -0.0058,-0.0048 -0.0088,-0.0068 0.0029,0.0029 0.0058,0.0048 0.0088,0.0068 m -0.0175,-0.01554 c -0.0029,-0.0029 -0.0068,-0.0058 -0.0097,-0.0088 0.0029,0.0029 0.0058,0.0058 0.0097,0.0088 m -0.0175,-0.01554 c -0.0058,-0.0049 -0.01166,-0.01069 -0.01654,-0.01557 0.0049,0.0049 0.01166,0.01069 0.01654,0.01557 m -0.02235,-0.02138 c -0.0039,-0.0029 -0.0088,-0.0068 -0.01265,-0.01069 0.0039,0.0039 0.0088,0.0078 0.01265,0.01069 m -0.01943,-0.01653 c -0.0039,-0.0039 -0.0078,-0.0078 -0.01166,-0.01166 0.0039,0.0039 0.0078,0.0078 0.01166,0.01166 m -0.0175,-0.01653 c -0.0049,-0.0048 -0.0097,-0.0097 -0.01458,-0.01361 0.0049,0.0039 0.0097,0.0087 0.01458,0.01361 m -0.0175,-0.0175 c -0.0068,-0.0048 -0.01265,-0.01069 -0.01846,-0.01653 0.0058,0.0058 0.01166,0.01166 0.01846,0.01653 m -0.02138,-0.01846 c -0.0049,-0.0048 -0.01069,-0.01069 -0.01554,-0.01557 0.0049,0.0058 0.01069,0.0097 0.01554,0.01557 m -0.01946,-0.01846 c -0.0058,-0.0058 -0.01069,-0.01069 -0.01653,-0.01554 0.0058,0.0048 0.01069,0.01069 0.01653,0.01554 m -0.01846,-0.0175 C 12.541024,44.107785 10.357534,39.400547 9.2016259,35.599369 v 0 c 1.1568801,3.801178 3.3403701,8.508416 6.9053101,11.848788"
       style="fill:#ededed;fill-opacity:1;fill-rule:nonzero;stroke:none;stroke-width:0.00972169"
       id="path552" />
    <path
       d="m 9.2016379,35.599237 v 0 0 0 0"
       style="fill:#edb214;fill-opacity:1;fill-rule:nonzero;stroke:none;stroke-width:0.00972169"
       id="path554" />
    <path
       d="m 9.2016379,35.599237 c -0.101105,-0.330538 -0.193461,-0.65427 -0.279012,-0.969253 0,0.0011 9.64e-4,0.0011 9.64e-4,0.0019 0.08458,0.314983 0.177907,0.637742 0.27804,0.967308 v 0"
       style="fill:#dca513;fill-opacity:1;fill-rule:nonzero;stroke:none;stroke-width:0.00972169"
       id="path556" />
    <path
       d="m 25.762526,52.030824 v 0 c -1.687686,-0.323732 -3.343287,-0.807871 -4.93181,-1.473806 -0.0078,-0.0029 -0.01554,-0.0068 -0.02334,-0.0097 -0.0029,-0.0011 -0.0058,-0.0029 -0.0088,-0.0039 -0.0049,-0.0019 -0.0088,-0.0039 -0.01361,-0.0058 -0.0039,-0.0019 -0.0068,-0.0029 -0.01069,-0.0048 -0.0039,-0.0011 -0.0078,-0.0029 -0.01265,-0.0048 -0.0029,-0.0019 -0.0068,-0.0029 -0.01069,-0.0049 -0.0039,-0.0011 -0.0078,-0.0029 -0.01166,-0.0049 -0.0068,-0.0029 -0.01554,-0.0068 -0.02235,-0.0097 -0.0029,-0.0011 -0.0058,-0.0019 -0.0088,-0.0039 -0.0049,-0.0019 -0.0088,-0.0039 -0.01361,-0.0058 -0.0029,-0.0011 -0.0058,-0.0019 -0.0087,-0.0029 -0.0049,-0.0029 -0.0088,-0.0049 -0.01458,-0.0068 -0.0019,-0.0011 -0.0049,-0.0019 -0.0068,-0.0029 -0.0175,-0.0078 -0.03403,-0.01458 -0.05153,-0.02235 -0.0011,-0.0011 -0.0029,-0.0011 -0.0039,-0.0019 -0.0058,-0.0029 -0.01166,-0.0049 -0.0175,-0.0078 -0.0011,0 -0.0019,-0.0011 -0.0039,-0.0011 -1.558386,-0.687323 -2.944698,-1.624494 -4.173518,-2.724014 l -0.0011,-0.0011 c -0.02042,-0.0175 -0.03986,-0.035 -0.06027,-0.05347 -0.0011,-0.0011 -0.0019,-0.0019 -0.0029,-0.0029 -0.0049,-0.0039 -0.0088,-0.0078 -0.01265,-0.01166 -0.0019,-0.0019 -0.0029,-0.0029 -0.0049,-0.0039 -0.0039,-0.0039 -0.0078,-0.0078 -0.01265,-0.01166 -0.0011,-0.0011 -0.0019,-0.0019 -0.0029,-0.0029 -0.0088,-0.0078 -0.01554,-0.01458 -0.02431,-0.02138 -0.0011,-0.0019 -0.0029,-0.0029 -0.0048,-0.0049 -0.0029,-0.0029 -0.0068,-0.0068 -0.0097,-0.0097 -0.0029,-0.0019 -0.0058,-0.0039 -0.0088,-0.0068 -0.0029,-0.0029 -0.0058,-0.0058 -0.0088,-0.0087 -0.0039,-0.0029 -0.0068,-0.0058 -0.0097,-0.0088 -0.0029,-0.0019 -0.0048,-0.0048 -0.0078,-0.0068 -0.0049,-0.0049 -0.01166,-0.01069 -0.01653,-0.01557 -0.0019,-0.0019 -0.0039,-0.0039 -0.0058,-0.0058 -0.0039,-0.0029 -0.0088,-0.0068 -0.01265,-0.01069 -0.0019,-0.0019 -0.0039,-0.0039 -0.0068,-0.0058 -0.0039,-0.0039 -0.0078,-0.0078 -0.01166,-0.01166 -0.0019,-0.0019 -0.0039,-0.0039 -0.0058,-0.0048 -0.0049,-0.0049 -0.0097,-0.0097 -0.01458,-0.01361 -0.0011,-0.0019 -0.0019,-0.0019 -0.0029,-0.0039 -0.0068,-0.0049 -0.01265,-0.01069 -0.01846,-0.01653 -0.0011,-0.0011 -0.0019,-0.0019 -0.0029,-0.0019 -0.0048,-0.0058 -0.01069,-0.0097 -0.01554,-0.01557 -0.0019,-0.0011 -0.0029,-0.0019 -0.0039,-0.0029 -0.0058,-0.0048 -0.01069,-0.01069 -0.01653,-0.01554 0,0 -0.0011,-0.0011 -0.0019,-0.0019 -3.564756,-3.34017 -5.748246,-8.047408 -6.9051261,-11.848586 v 0 c -0.100133,-0.329566 -0.193461,-0.652325 -0.27804,-0.967307 2.0289151,4.610993 5.5345541,9.60405 11.0399431,11.799205 1.67213,0.665936 3.414256,1.150075 5.190407,1.473807 1.092717,0.199296 2.199044,0.337343 3.311205,0.419977 -0.92356,1.446588 -1.856843,2.686101 -2.702627,3.705905"
       style="fill:#ed8d00;fill-opacity:1;fill-rule:nonzero;stroke:none;stroke-width:0.00972169"
       id="path558" />
    <path
       d="m 65.468794,34.57846 v 0 c 0.62607,-1.117992 1.07036,-2.312787 1.17535,-3.587301 0,-0.0029 0,-0.0058 0,-0.0097 0,0.0039 0,0.0068 0,0.0097 -0.10499,1.274514 -0.54928,2.469309 -1.17535,3.587301"
       style="fill:#6f4c92;fill-opacity:1;fill-rule:nonzero;stroke:none;stroke-width:0.00972169"
       id="path560" />
    <path
       d="m 53.281694,46.184206 c 0.35678,-0.753431 0.68635,-1.516584 0.98772,-2.286541 0.31596,-0.807871 0.60274,-1.625464 0.85745,-2.450837 3.59314,-2.228208 6.8499,-4.939587 9.61183,-8.06219 0.68538,-0.774819 1.34937,-1.595328 1.91031,-2.463475 -0.002,0.01946 -0.003,0.03986 -0.005,0.06027 0,0.0039 0,0.0068 0,0.0097 -0.10499,1.274513 -0.54928,2.469308 -1.17535,3.5873 -0.40442,0.725237 -0.88565,1.417422 -1.39895,2.078496 v 0 c -0.22555,0.29068 -0.45692,0.575525 -0.69121,0.853564 -2.86887,3.414256 -6.30063,6.336594 -10.09694,8.673687"
       style="fill:#ed8d00;fill-opacity:1;fill-rule:nonzero;stroke:none;stroke-width:0.00972169"
       id="path562" />
    <path
       d="m 40.021315,30.611042 c -0.144851,9.431003 -3.626187,16.865174 -7.011276,21.891286 v 0 c -0.302345,0.01458 -0.603717,0.02527 -0.906061,0.03305 -2.125159,0.04958 -4.259068,-0.104994 -6.341452,-0.504556 3.329673,-4.015054 8.006775,-11.42881 8.160378,-21.512139 0.08847,-5.731903 -1.341591,-10.611216 -2.971916,-14.279207 2.218488,-0.03986 4.437946,0.01556 6.651573,0.166241 1.677964,4.603217 2.492641,9.380452 2.418754,14.205323"
       style="fill:#ffd740;fill-opacity:1;fill-rule:nonzero;stroke:none;stroke-width:0.00972169"
       id="path564" />
    <path
       d="m 56.675534,32.619541 c -0.18666,3.881869 -0.9955,7.67624 -2.40612,11.278124 -0.30137,0.769957 -0.63094,1.53311 -0.98772,2.286541 -3.178993,1.956003 -6.614634,3.501749 -10.188327,4.578912 0.54247,-0.633854 1.100496,-1.33576 1.658519,-2.103772 3.587301,-4.945421 5.549138,-10.440116 5.832038,-16.331454 0.28873,-6.021611 -1.28326,-11.034111 -2.966085,-14.584469 2.459586,0.492889 4.894865,1.105355 7.293205,1.837398 1.3834,4.231848 1.97642,8.606605 1.76449,13.03872"
       style="fill:#ffd740;fill-opacity:1;fill-rule:nonzero;stroke:none;stroke-width:0.00972169"
       id="path566" />
    <path
       d="m 21.948708,29.084738 c -0.610521,2.732764 -3.375367,4.458364 -6.175211,3.854647 -2.799846,-0.604689 -4.575025,-3.311204 -3.964504,-6.04397 0.610522,-2.733738 3.375369,-4.459336 6.175212,-3.85562 2.799845,0.604689 4.575026,3.311205 3.964503,6.044943"
       style="fill:#ffffff;fill-opacity:1;fill-rule:nonzero;stroke:none;stroke-width:0.00972169"
       id="path568" />
    <path
       d="m 20.273662,28.757117 c -0.413172,1.852952 -2.287511,3.022471 -4.185183,2.613187 -1.897674,-0.410255 -3.101218,-2.243764 -2.687074,-4.096716 0.414144,-1.852953 2.287512,-3.023443 4.185184,-2.613188 1.898644,0.409283 3.101216,2.243764 2.687073,4.096717"
       style="fill:#262626;fill-opacity:1;fill-rule:nonzero;stroke:none;stroke-width:0.00972169"
       id="path570" />
    <path
       d="m 20.794745,26.891526 c -0.193462,0.864257 -1.067441,1.409644 -1.952115,1.218127 -0.884673,-0.190545 -1.445612,-1.046053 -1.253123,-1.910311 0.193459,-0.864257 1.067441,-1.409644 1.952112,-1.218127 0.884673,0.190545 1.445615,1.046053 1.253126,1.910311"
       style="fill:#ffffff;fill-opacity:1;fill-rule:nonzero;stroke:none;stroke-width:0.00972169"
       id="path572" />
    <path
       d="m 28.016009,32.717732 c 1.025639,1.994889 2.77943,3.691322 4.925007,4.763624 2.145573,1.071329 4.67224,1.513665 7.095855,1.242431 -0.596912,-3.236351 -1.218128,-6.182991 -4.310594,-7.969838 3.257737,-1.462138 4.171575,-4.257123 5.094162,-7.415698 -2.382786,-0.517194 -4.941532,-0.333454 -7.184324,0.514277 -2.243763,0.848703 -4.16088,2.357508 -5.384839,4.238654 l -0.235267,4.62655"
       style="fill:#77529d;fill-opacity:1;fill-rule:nonzero;stroke:none;stroke-width:0.00972169"
       id="path574" />
    <path
       d="m 39.026789,38.795725 v 0 c 0.337342,-0.01069 0.674685,-0.035 1.010082,-0.07194 -0.100133,-0.543443 -0.201239,-1.078136 -0.314009,-1.600189 0.11277,0.522053 0.213876,1.056746 0.314009,1.600189 -0.335397,0.03694 -0.67274,0.06125 -1.010082,0.07194 m -5.968141,-1.257011 c -0.03986,-0.01846 -0.07875,-0.03792 -0.117632,-0.05736 -0.653298,-0.326651 -1.270626,-0.711629 -1.84226,-1.144244 0.571634,0.432615 1.188962,0.817593 1.84226,1.144244 0.03889,0.01943 0.07777,0.03889 0.117632,0.05736 v 0 m -1.959892,-1.202572 c -0.0011,-0.0011 -0.0019,-0.0011 -0.0039,-0.0019 0.0019,0.0011 0.0029,0.0011 0.0039,0.0019 m -0.942031,-0.796208 c -0.87884,-0.830232 -1.607965,-1.785871 -2.140716,-2.822202 l 0.08361,-1.654631 c 0,0.0011 0,0.0011 0,0.0011 l -0.08361,1.653661 c 0.532751,1.036331 1.261876,1.991971 2.140716,2.822202"
       style="fill:#ed8d00;fill-opacity:1;fill-rule:nonzero;stroke:none;stroke-width:0.00972169"
       id="path576" />
    <path
       d="m 38.629172,38.801559 c -0.200268,0 -0.401507,-0.0048 -0.601773,-0.01361 0.200266,0.0087 0.400534,0.01361 0.600801,0.01361 0.133185,0 0.265401,-0.0019 0.398589,-0.0058 v 0 c -0.132216,0.0039 -0.265404,0.0058 -0.397617,0.0058 m -0.611496,-0.01458 c -0.0049,0 -0.0088,0 -0.01361,0 0.0049,0 0.0088,0 0.01361,0 m -1.545745,-0.16624 c -0.0029,0 -0.0058,0 -0.0078,-0.0011 0.0029,0.0011 0.0049,0.0011 0.0078,0.0011 m -0.01361,-0.0019 c -1.185076,-0.200293 -2.337097,-0.563885 -3.399676,-1.080106 v 0 c 1.062579,0.516221 2.2146,0.879813 3.399672,1.080079"
       style="fill:#edc83b;fill-opacity:1;fill-rule:nonzero;stroke:none;stroke-width:0.00972169"
       id="path578" />
    <path
       d="m 38.6282,38.801559 c -0.200267,0 -0.400535,-0.0048 -0.600801,-0.01361 -0.0039,-0.0011 -0.0068,-0.0011 -0.0097,-0.0011 -0.0049,0 -0.0088,0 -0.01361,0 -0.513305,-0.02527 -1.025638,-0.08069 -1.532137,-0.166241 -0.0029,0 -0.0049,0 -0.0078,-0.0011 -0.0019,0 -0.0039,-0.0011 -0.0058,-0.0011 -1.185072,-0.200266 -2.337093,-0.563857 -3.399672,-1.080078 -0.03986,-0.01846 -0.07875,-0.03792 -0.117632,-0.05736 -0.653298,-0.32665 -1.270625,-0.711628 -1.842259,-1.144243 0,-0.0011 0,-0.0011 0,-0.0011 -0.0011,-0.0011 -0.0019,-0.0011 -0.0039,-0.0019 -0.328625,-0.249888 -0.641665,-0.515289 -0.938175,-0.794303 -0.87884,-0.830231 -1.607965,-1.785871 -2.140716,-2.822202 l 0.08361,-1.653661 c 1.037304,1.925866 2.754154,3.559109 4.8414,4.603217 1.732403,0.865232 3.712709,1.320207 5.687183,1.320207 0.351924,0 0.70385,-0.01458 1.054803,-0.04375 0.01361,0.0593 0.02623,0.119575 0.03986,0.179851 0.11277,0.522053 0.213876,1.056746 0.314009,1.600189 -0.335397,0.03694 -0.67274,0.06125 -1.010082,0.07194 -0.133189,0.0039 -0.265404,0.0058 -0.39859,0.0058"
       style="fill:#6f4c92;fill-opacity:1;fill-rule:nonzero;stroke:none;stroke-width:0.00972169"
       id="path580" />
    <path
       d="m 26.651085,23.052433 c 0.122493,0.107911 0.240128,0.220683 0.35873,0.333454 0.111801,0.118605 0.223599,0.239154 0.333454,0.361647 0.105967,0.125409 0.207073,0.253736 0.311095,0.383034 0.09722,0.132215 0.191516,0.267346 0.287761,0.402478 0.368452,0.549275 0.673712,1.144242 0.916756,1.767402 0.484139,1.246319 0.704822,2.607354 0.639687,3.95964 -0.06611,1.352287 -0.419006,2.685131 -1.022723,3.87798 -0.304287,0.59594 -0.665933,1.158825 -1.086882,1.669212 -0.108883,0.124439 -0.216795,0.249848 -0.325678,0.372341 -0.116659,0.117632 -0.230403,0.236237 -0.348035,0.34998 -0.12055,0.111801 -0.244014,0.219711 -0.36748,0.326651 -0.129299,0.101106 -0.257624,0.202209 -0.390812,0.29651 0.07777,-0.145826 0.158464,-0.284845 0.239152,-0.423865 0.07583,-0.141937 0.15166,-0.282902 0.229433,-0.420949 0.07,-0.142908 0.144854,-0.28193 0.216793,-0.421922 0.06611,-0.142908 0.136103,-0.2829 0.203184,-0.423865 0.261513,-0.566773 0.490946,-1.13938 0.677601,-1.720736 0.378175,-1.16077 0.607605,-2.349731 0.666909,-3.546472 0.0593,-1.195767 -0.0525,-2.402227 -0.314013,-3.594105 -0.129297,-0.596912 -0.300399,-1.189934 -0.505526,-1.779068 -0.05347,-0.146798 -0.108883,-0.292623 -0.16138,-0.442337 -0.05833,-0.145825 -0.118605,-0.29165 -0.17499,-0.441364 -0.06319,-0.144853 -0.125409,-0.291651 -0.186655,-0.440392 -0.06708,-0.145826 -0.134162,-0.292623 -0.196381,-0.445254"
       style="fill:#ffd740;fill-opacity:1;fill-rule:nonzero;stroke:none;stroke-width:0.00972169"
       id="path582" />
    <path
       d="m 40.353799,9.7492823 c -0.0418,0 -0.08555,-0.002 -0.130272,-0.0029 -0.07583,-0.0039 -0.153603,-0.01264 -0.233319,-0.0243 -0.08069,-0.01069 -0.166241,-0.02333 -0.25082,-0.03986 -0.08458,-0.01847 -0.175963,-0.03305 -0.266374,-0.05444 -0.08847,-0.02139 -0.184713,-0.03986 -0.279984,-0.06319 -0.763154,-0.184712 -1.679907,-0.411227 -2.655964,-0.49775 -0.349981,-0.03111 -0.696073,-0.0418 -1.03147,-0.0418 -0.600801,0 -1.168547,0.03597 -1.671157,0.06805 -0.09819,0.0058 -0.195408,0.0078 -0.287764,0.01361 -0.09236,0.0049 -0.18471,0.0029 -0.271235,0.0068 -0.01943,0 -0.03791,0 -0.05736,0 -0.06708,0 -0.133186,-0.002 -0.196378,-0.0049 -0.08069,-0.002 -0.158461,-0.0078 -0.233319,-0.0175 -0.07583,-0.0097 -0.146799,-0.02139 -0.212906,-0.03597 -0.06611,-0.01556 -0.129297,-0.035 -0.187628,-0.0593 -0.11666,-0.04861 -0.21582,-0.115688 -0.289707,-0.207071 -0.07291,-0.09041 -0.117632,-0.199295 -0.131243,-0.327621 -0.0058,-0.06514 -0.0049,-0.134159 0.0039,-0.208044 0.0087,-0.07389 0.02623,-0.151658 0.05444,-0.231376 0.02723,-0.08069 0.06222,-0.165269 0.105967,-0.253736 0.04472,-0.08652 0.100133,-0.17499 0.162352,-0.267346 0.06125,-0.09333 0.137074,-0.181796 0.218738,-0.276096 0.08069,-0.09527 0.17499,-0.184712 0.276096,-0.27804 0.100133,-0.09527 0.213877,-0.180823 0.333451,-0.272208 0.0593,-0.04569 0.123466,-0.08652 0.188601,-0.129298 0.06513,-0.04277 0.131243,-0.08555 0.201239,-0.127354 0.07,-0.03889 0.141938,-0.07875 0.215822,-0.117632 0.03791,-0.01945 0.07486,-0.03986 0.112771,-0.05833 0.03889,-0.01847 0.07777,-0.03597 0.116662,-0.05444 0.07875,-0.035 0.159434,-0.07194 0.242068,-0.104994 0.08263,-0.03111 0.167214,-0.06222 0.253736,-0.09333 0.08652,-0.03208 0.175963,-0.05639 0.266374,-0.08361 0.09041,-0.02527 0.181797,-0.0525 0.276096,-0.07194 0.0943,-0.02139 0.189574,-0.0418 0.286791,-0.06125 0.09722,-0.01555 0.196378,-0.03014 0.296511,-0.04375 0.243041,-0.03014 0.493861,-0.04666 0.750513,-0.04666 0.16624,0 0.334427,0.0068 0.503583,0.02139 0.431645,0.03889 0.845787,0.124438 1.230766,0.244015 0.09624,0.03111 0.190544,0.06319 0.283873,0.09527 0.09236,0.03597 0.182767,0.07291 0.272207,0.109855 0.08944,0.03597 0.174991,0.07875 0.25957,0.119577 0.0836,0.0418 0.168184,0.08166 0.24693,0.128326 0.07972,0.04569 0.157491,0.09138 0.234294,0.137076 0.07583,0.04666 0.147769,0.09624 0.218737,0.144853 0.03597,0.02528 0.07097,0.04958 0.105965,0.07388 0.03403,0.02528 0.06708,0.05152 0.100133,0.0768 0.06611,0.05152 0.130272,0.10305 0.192489,0.154574 0.06125,0.0525 0.119578,0.106939 0.176936,0.159436 0.05639,0.05444 0.111798,0.104994 0.162352,0.16138 0.102079,0.110827 0.199293,0.213877 0.280957,0.325676 0.08361,0.109855 0.160407,0.213878 0.223599,0.321788 0.06416,0.106938 0.122494,0.207072 0.166241,0.311094 0.04569,0.101105 0.08458,0.19735 0.113744,0.290678 0.02723,0.09527 0.04764,0.184712 0.06027,0.268319 0.01361,0.08263 0.01653,0.163324 0.01265,0.238181 -0.0039,0.07388 -0.01458,0.141936 -0.03305,0.204155 -0.035,0.124438 -0.09819,0.224571 -0.186658,0.3004 -0.0875,0.0768 -0.197351,0.12541 -0.320814,0.152631 -0.06125,0.01458 -0.127354,0.02236 -0.195407,0.02625 -0.02723,9.65e-4 -0.05541,0.002 -0.08458,0.002"
       style="fill:#a48bbd;fill-opacity:1;fill-rule:nonzero;stroke:none;stroke-width:0.00972169"
       id="path584" />
    <path
       d="m 54.105114,14.824001 c -0.10013,0 -0.20609,-0.02041 -0.31595,-0.05347 -0.20318,-0.06222 -0.42873,-0.166241 -0.66788,-0.285817 -0.47831,-0.24207 -1.03439,-0.526916 -1.63713,-0.73496 -0.60372,-0.206099 -1.21813,-0.32276 -1.743099,-0.424837 -0.262486,-0.0525 -0.503584,-0.108883 -0.702877,-0.184712 -0.199296,-0.0768 -0.35873,-0.179851 -0.440394,-0.335398 -0.04083,-0.07777 -0.0593,-0.163324 -0.0525,-0.258597 0.0058,-0.09333 0.035,-0.201239 0.09333,-0.307205 0.113744,-0.217766 0.339286,-0.452058 0.674685,-0.653297 0.166241,-0.101106 0.360673,-0.189573 0.578438,-0.26443 0.217767,-0.07 0.458867,-0.129298 0.718437,-0.156519 0.13999,-0.01458 0.28679,-0.02333 0.4365,-0.02333 0.12541,0 0.25471,0.0068 0.38498,0.02139 0.28582,0.03014 0.58136,0.09236 0.87398,0.191518 0.29262,0.102077 0.56386,0.234292 0.80787,0.384978 0.24596,0.150686 0.45984,0.326649 0.64747,0.507472 0.18762,0.180824 0.3422,0.374285 0.47053,0.563858 0.12638,0.192489 0.22554,0.382062 0.29456,0.563857 0.14097,0.364563 0.17499,0.687323 0.13124,0.929393 -0.0185,0.119577 -0.0622,0.222627 -0.11471,0.3004 -0.0535,0.07875 -0.12055,0.136104 -0.20027,0.172074 -0.0729,0.03305 -0.1536,0.04764 -0.23721,0.04764"
       style="fill:#a48bbd;fill-opacity:1;fill-rule:nonzero;stroke:none;stroke-width:0.00972169"
       id="path586" />
    <path
       d="m 60.467954,20.413969 c -0.0583,0 -0.12152,-0.0097 -0.1886,-0.02819 -0.0389,-0.01069 -0.0797,-0.0243 -0.12054,-0.04083 -0.0418,-0.01556 -0.0865,-0.03208 -0.13125,-0.0525 -0.0904,-0.03889 -0.18179,-0.09138 -0.28387,-0.142909 -0.0506,-0.02722 -0.10208,-0.05639 -0.1536,-0.0875 -0.0515,-0.03111 -0.10791,-0.06028 -0.16138,-0.09333 -0.10791,-0.06805 -0.22652,-0.13416 -0.34318,-0.209017 -0.24012,-0.146797 -0.49581,-0.302344 -0.76315,-0.464696 -0.27123,-0.158463 -0.52983,-0.308177 -0.77385,-0.450114 -0.12152,-0.06611 -0.23526,-0.13902 -0.34706,-0.200266 -0.0544,-0.03208 -0.10694,-0.06805 -0.15944,-0.09819 -0.0515,-0.03014 -0.10207,-0.06125 -0.14971,-0.09236 -0.0953,-0.06611 -0.18374,-0.120548 -0.26151,-0.181795 -0.0389,-0.02916 -0.0749,-0.06125 -0.10889,-0.09041 -0.034,-0.02819 -0.0651,-0.05639 -0.0923,-0.08555 -0.1118,-0.115688 -0.17402,-0.236237 -0.16235,-0.351925 0.0107,-0.115688 0.0953,-0.217766 0.24887,-0.299428 0.0389,-0.02042 0.0817,-0.03986 0.12833,-0.05833 0.0467,-0.0175 0.0972,-0.03014 0.15068,-0.04375 0.10889,-0.0243 0.2343,-0.04764 0.3704,-0.05152 0.0554,-0.002 0.11277,-0.0039 0.17304,-0.0039 0.0136,0 0.0272,0 0.0418,9.65e-4 0.0739,9.64e-4 0.15068,0.0087 0.22943,0.01653 0.16041,0.01361 0.32665,0.04861 0.50164,0.08944 0.34609,0.09138 0.71649,0.239154 1.07327,0.449142 0.35582,0.212905 0.66205,0.467613 0.90704,0.729126 0.11957,0.134159 0.2304,0.263458 0.3179,0.397617 0.0447,0.06611 0.0885,0.129298 0.12541,0.194434 0.036,0.06513 0.069,0.128326 0.0992,0.189572 0.0622,0.121521 0.1011,0.243042 0.13124,0.349981 0.0146,0.05347 0.0262,0.104022 0.034,0.153603 0.007,0.04958 0.01,0.09624 0.01,0.139992 10e-4,0.174018 -0.0476,0.297483 -0.14388,0.362619 -0.0544,0.03694 -0.12152,0.05347 -0.19735,0.05347"
       style="fill:#a48bbd;fill-opacity:1;fill-rule:nonzero;stroke:none;stroke-width:0.00972169"
       id="path588" />
    <path
       d="m 56.169034,24.595264 c -0.0933,-0.528859 -0.19833,-1.055774 -0.31596,-1.580745 0.0729,0.07194 0.14097,0.142909 0.20319,0.211933 0.43844,0.485112 0.61246,0.867174 0.48414,1.116049 -0.0613,0.118604 -0.18763,0.202211 -0.37137,0.252763 m -6.467838,-1.060635 c -0.112771,-0.02528 -0.227488,-0.05152 -0.342204,-0.07875 -1.3134,-0.280956 -2.74832,-0.582329 -4.262956,-0.860369 -1.515612,-0.267346 -2.966085,-0.485111 -4.295041,-0.679545 -0.332482,-0.04278 -0.657187,-0.0875 -0.974112,-0.134159 -0.07875,-0.01167 -0.157491,-0.02431 -0.235264,-0.03597 -0.07778,-0.01069 -0.155549,-0.01847 -0.232349,-0.02819 -0.07583,-0.0097 -0.15166,-0.01944 -0.226514,-0.02916 -0.241098,-1.11216 -0.530805,-2.218488 -0.86912,-3.315093 0.06805,-0.0078 0.137076,-0.01556 0.207072,-0.02333 0.156519,-0.01653 0.316926,-0.03305 0.479278,-0.05055 0.163325,-0.01556 0.329566,-0.03111 0.498722,-0.04666 0.08361,-0.0068 0.169159,-0.01555 0.254709,-0.02041 0.08652,-0.0039 0.172075,-0.0068 0.25957,-0.0107 0.348035,-0.01458 0.707738,-0.02528 1.07619,-0.03208 0.0078,0 0.01554,0 0.02334,0 1.467,0 3.082745,0.123466 4.751956,0.418033 0.843845,0.154575 1.659492,0.346092 2.438199,0.562885 0.541497,1.30465 1.046053,2.764847 1.448531,4.364063"
       style="fill:#ffba54;fill-opacity:1;fill-rule:nonzero;stroke:none;stroke-width:0.00972169"
       id="path590" />
    <path
       d="m 39.132756,21.688481 c -0.0768,-0.0097 -0.152633,-0.01944 -0.22846,-0.02916 -0.149715,-0.02139 -0.296511,-0.0418 -0.440394,-0.06222 -0.144851,-0.02041 -0.286789,-0.04666 -0.425808,-0.06125 -0.279012,-0.03403 -0.547331,-0.07097 -0.804956,-0.110827 -0.514278,-0.0875 -0.982863,-0.146797 -1.398949,-0.231376 -0.208046,-0.04083 -0.40345,-0.0875 -0.583302,-0.130271 -0.180824,-0.03889 -0.346092,-0.08166 -0.496779,-0.127354 -0.601771,-0.18374 -0.959528,-0.416088 -0.993557,-0.693156 -0.03305,-0.27804 0.263459,-0.575524 0.843845,-0.876896 0.144851,-0.07583 0.308176,-0.151658 0.487054,-0.227487 0.179852,-0.07194 0.377202,-0.137076 0.591079,-0.2061 0.425811,-0.131242 0.915783,-0.274151 1.464087,-0.371368 0.273178,-0.0525 0.561912,-0.10305 0.862311,-0.151658 0.08458,-0.01458 0.169159,-0.02625 0.254709,-0.03597 0.338315,1.096605 0.628022,2.202933 0.86912,3.315093"
       style="fill:#ffe47f;fill-opacity:1;fill-rule:nonzero;stroke:none;stroke-width:0.00972169"
       id="path592" />
    <path
       d="m 55.625594,24.654567 c -0.0817,0 -0.16722,-0.0029 -0.25763,-0.0087 -0.15652,-0.0097 -0.32665,-0.02722 -0.50942,-0.0525 -0.18374,-0.02333 -0.38303,-0.04764 -0.59204,-0.08263 -0.41998,-0.06514 -0.87982,-0.173046 -1.39312,-0.270263 -0.25471,-0.0525 -0.51914,-0.111799 -0.79232,-0.176934 -0.13513,-0.035 -0.27804,-0.06027 -0.41998,-0.09138 -0.14291,-0.03111 -0.28776,-0.06319 -0.43456,-0.09527 -0.14679,-0.03403 -0.29554,-0.06902 -0.44719,-0.104022 -0.0749,-0.0175 -0.15069,-0.03694 -0.22749,-0.05444 -0.0768,-0.01555 -0.15458,-0.03208 -0.23332,-0.04861 -0.20221,-0.04277 -0.408313,-0.08749 -0.617328,-0.135131 -0.402478,-1.599217 -0.907034,-3.059414 -1.448531,-4.364063 0.766069,0.214849 1.497139,0.454974 2.182519,0.710655 0.34317,0.135131 0.67566,0.270262 0.99744,0.404422 0.0807,0.03402 0.16041,0.06805 0.23916,0.101105 0.0787,0.035 0.15554,0.07194 0.23235,0.107911 0.15263,0.07389 0.30234,0.145825 0.45011,0.217766 0.1468,0.07194 0.29068,0.14388 0.43261,0.214849 0.14097,0.07194 0.27999,0.138048 0.41123,0.215821 0.2654,0.150686 0.51817,0.298456 0.75635,0.443309 0.47928,0.281929 0.88856,0.586217 1.24243,0.858424 0.17596,0.13902 0.33831,0.268319 0.48122,0.399562 0.0613,0.05736 0.11958,0.113743 0.17499,0.170129 0.11763,0.524971 0.22263,1.051886 0.31596,1.580745 -0.1468,0.03986 -0.32957,0.0593 -0.54344,0.0593"
       style="fill:#ffe47f;fill-opacity:1;fill-rule:nonzero;stroke:none;stroke-width:0.00972169"
       id="path594" />
    <path
       d="m 31.973708,27.671205 c -0.247902,0 -0.440391,-0.06027 -0.548304,-0.195406 -0.108882,-0.136104 -0.118605,-0.338314 -0.03402,-0.593022 0.02138,-0.06319 0.04861,-0.130271 0.08166,-0.200267 0.03403,-0.06902 0.07486,-0.13902 0.121523,-0.211933 0.09333,-0.145825 0.206097,-0.306233 0.349981,-0.459835 0.07097,-0.07777 0.147769,-0.158464 0.22943,-0.240126 0.08166,-0.08069 0.173047,-0.156519 0.266374,-0.237209 0.186658,-0.163324 0.402477,-0.313038 0.633853,-0.466641 0.466643,-0.296511 1.016889,-0.567746 1.622548,-0.769957 0.607608,-0.199295 1.210352,-0.30915 1.762544,-0.349981 0.158461,-0.0087 0.313037,-0.01458 0.462751,-0.01458 0.110828,0 0.218738,0.0029 0.323732,0.01167 0.123466,0.0087 0.241098,0.01555 0.355815,0.03208 0.113743,0.01653 0.223596,0.035 0.326647,0.05541 0.207073,0.03791 0.393729,0.09916 0.555108,0.159435 0.08166,0.03208 0.155546,0.06319 0.223599,0.09819 0.06902,0.03597 0.13027,0.07388 0.185683,0.112771 0.220683,0.153603 0.332481,0.321788 0.32665,0.495806 -0.0058,0.17499 -0.128327,0.340259 -0.331509,0.489973 -0.05153,0.03694 -0.106939,0.07291 -0.168186,0.107911 -0.06027,0.03694 -0.126382,0.07486 -0.195405,0.110827 -0.139992,0.07388 -0.296513,0.136103 -0.466642,0.21096 -0.08555,0.03597 -0.174018,0.07 -0.266374,0.10305 -0.09138,0.03403 -0.186656,0.07291 -0.284846,0.106938 -0.196377,0.06611 -0.402477,0.144854 -0.61927,0.212905 -0.432614,0.148742 -0.902172,0.3004 -1.395061,0.460808 -0.490945,0.165269 -0.957585,0.323732 -1.393118,0.46178 -0.215822,0.07486 -0.427753,0.134159 -0.625104,0.199294 -0.09916,0.03111 -0.198323,0.05541 -0.292622,0.08361 -0.09333,0.02819 -0.185686,0.05347 -0.275124,0.07583 -0.180824,0.0418 -0.344149,0.08458 -0.499695,0.108883 -0.07777,0.01264 -0.15263,0.02139 -0.223599,0.02819 -0.06902,0.0078 -0.136103,0.01264 -0.199293,0.01264 -0.0029,0 -0.0068,0 -0.0097,0"
       style="fill:#a48bbd;fill-opacity:1;fill-rule:nonzero;stroke:none;stroke-width:0.00972169"
       id="path596" />
  </g>
</svg>
