<?xml version="1.0" encoding="UTF-8" standalone="no"?>
<svg
   xmlns:dc="http://purl.org/dc/elements/1.1/"
   xmlns:cc="http://creativecommons.org/ns#"
   xmlns:rdf="http://www.w3.org/1999/02/22-rdf-syntax-ns#"
   xmlns:svg="http://www.w3.org/2000/svg"
   xmlns="http://www.w3.org/2000/svg"
   xmlns:sodipodi="http://sodipodi.sourceforge.net/DTD/sodipodi-0.dtd"
   xmlns:inkscape="http://www.inkscape.org/namespaces/inkscape"
   width="320"
   height="200"
   viewBox="0 0 84.666664 52.916666"
   version="1.1"
   id="svg646"
   inkscape:version="1.0.2-2 (e86c870879, 2021-01-15)"
   sodipodi:docname="fish01.svg">
  <defs
     id="defs640" />
  <sodipodi:namedview
     id="base"
     pagecolor="#ffffff"
     bordercolor="#666666"
     borderopacity="1.0"
     inkscape:pageopacity="0.0"
     inkscape:pageshadow="2"
     inkscape:zoom="0.35"
     inkscape:cx="400"
     inkscape:cy="560"
     inkscape:document-units="px"
     inkscape:current-layer="layer1"
     inkscape:document-rotation="0"
     showgrid="false"
     units="px"
     inkscape:window-width="1267"
     inkscape:window-height="1032"
     inkscape:window-x="88"
     inkscape:window-y="145"
     inkscape:window-maximized="0" />
  <metadata
     id="metadata643">
    <rdf:RDF>
      <cc:Work
         rdf:about="">
        <dc:format>image/svg+xml</dc:format>
        <dc:type
           rdf:resource="http://purl.org/dc/dcmitype/StillImage" />
        <dc:title></dc:title>
      </cc:Work>
    </rdf:RDF>
  </metadata>
  <g
     inkscape:label="Layer 1"
     inkscape:groupmode="layer"
     id="layer1">
    <path
       d="m 78.145542,46.468421 c -2.28451,0.68971 -4.614136,-0.738898 -6.387913,-2.424969 -1.773669,-1.685024 -3.602185,-3.675657 -5.969801,-3.869275 -2.540827,-0.208274 -4.729371,1.719563 -6.831046,3.258062 -5.74028,4.203142 -12.719211,6.061901 -19.711958,6.355994 -1.279361,0.05442 -2.559143,0.05547 -3.832123,0.0094 C 34.384837,49.759953 33.360007,49.69402 32.33748,49.602968 25.170475,48.962449 18.124771,47.082757 11.134954,45.211437 8.9915191,44.636855 6.7665551,44.019361 5.0801704,42.495514 c -0.818964,-0.740993 -1.466495,-1.76352 -1.793871,-2.856169 -0.192574,-0.64261 -0.274104,-1.311387 -0.214657,-1.960281 v 0 c 0.04804,-0.517019 0.185876,-1.022527 0.428687,-1.493497 1.044087,-2.025168 3.3031707,-2.495091 5.1115887,-3.388885 2.3703369,-1.171144 3.6261509,-2.781862 4.2847759,-5.498833 0.955336,-3.943582 0.802952,-7.896587 3.11311,-11.35769 C 22.733783,5.8666437 34.312413,2.7969683 44.622248,2.3511173 c 0.910646,-0.03872 1.822757,-0.04919 2.734346,-0.03035 2.474158,0.05024 4.94497,0.315026 7.377789,0.796462 2.804361,0.55365 5.558383,1.396163 8.207745,2.5306764 1.643682,0.703314 3.275853,1.531174 4.584415,2.804885 1.309088,1.273711 2.27018,3.0592093 2.263899,4.9493663 -0.01151,3.473662 -3.012739,5.921656 -5.275695,8.417795 -0.800229,0.883331 -1.585599,2.016796 -1.369579,3.223525 0.292838,1.632694 2.344589,2.28054 3.775081,1.623274 1.430492,-0.656215 7.073962,-12.867933 12.842603,-8.142539 4.12831,3.381561 3.36021,26.441275 -1.61731,27.944191"
       style="fill:#77529d;fill-opacity:1;fill-rule:nonzero;stroke:none;stroke-width:0.010466"
       id="path24" />
    <path
       d="m 78.153922,46.46633 c 8.9e-4,-0.0012 0.001,-0.0012 0.002,-0.0012 -5.9e-4,0 -0.002,0 -0.002,0.0012 m 0.008,-0.0031 c 10e-4,0 0.002,0 0.003,-0.0012 -8.9e-4,0.0012 -0.002,0.0012 -0.003,0.0012 m 0.009,-0.0031 c 5.9e-4,0 10e-4,0 0.002,0 -5.9e-4,0 -0.001,0 -0.002,0 m 0.0192,-0.0063 c 2.9e-4,0 10e-4,0 10e-4,0 -5.9e-4,0 -8.9e-4,0 -10e-4,0 m 0.008,-0.0021 c 5.9e-4,0 0.001,-8.9e-4 0.002,-8.9e-4 -6e-4,0 -10e-4,8.9e-4 -0.002,8.9e-4 m 0.009,-0.0031 c 5.9e-4,0 8.9e-4,0 0.001,-0.0012 -5.9e-4,0.0012 -8.9e-4,0.0012 -0.001,0.0012 m 0.0186,-0.0063 c 3e-4,0 10e-4,-0.0012 10e-4,-0.0012 -5.9e-4,0 -8.9e-4,0.0012 -10e-4,0.0012 m 0.009,-0.0031 c 5.9e-4,-0.0012 10e-4,-0.0012 0.002,-0.0012 -5.9e-4,0 -0.001,0.0012 -0.002,0.0012 m 0.01,-0.0042 h 3e-4 c -2.1e-4,0 -3e-4,0 -3e-4,0 m 0.0183,-0.0063 c 2.1e-4,0 -1.1e-4,0 2.1e-4,0 h -2.1e-4 m 0.009,-0.0031 c 3e-4,0 6e-4,0 8.9e-4,-0.0012 -2.9e-4,0.0012 -5.9e-4,0.0012 -8.9e-4,0.0012 m 0.0273,-0.01047 c 2.9e-4,0 0,0 2.9e-4,0 h -2.9e-4 m 0.009,-0.0042 c 2.9e-4,0 2.9e-4,0 5.9e-4,0 -2.1e-4,0 -3e-4,0 -5.9e-4,0 m 2.99746,-5.306258 c 1e-4,-0.0012 2.9e-4,-0.0012 5.9e-4,-0.0021 -2.1e-4,0.0012 -3e-4,0.0012 -5.9e-4,0.0021 m 0.005,-0.0178 c 2.9e-4,-0.0012 5.9e-4,-0.0021 8.9e-4,-0.0031 -2.1e-4,0 -6e-4,0.0021 -8.9e-4,0.0031 m 0.004,-0.0178 c 3e-4,-8.9e-4 8.9e-4,-0.0031 0.001,-0.0042 -3e-4,0.0012 -6e-4,0.0031 -0.001,0.0042 m 0.005,-0.02198 c 2.9e-4,-0.0012 5.9e-4,-0.0021 8.9e-4,-0.0031 -2.1e-4,0.0012 -6e-4,0.0031 -8.9e-4,0.0031 m 0.004,-0.01673 c 5.9e-4,-0.0031 8.9e-4,-0.0042 0.001,-0.0063 -5.9e-4,0.0021 -8.9e-4,0.0042 -0.001,0.0063 m 0.004,-0.0178 c 3e-4,-0.0021 0.001,-0.0042 0.001,-0.0063 -5.9e-4,0.0021 -8.9e-4,0.0042 -0.001,0.0063 m 0.004,-0.0178 c 6e-4,-0.0021 10e-4,-0.0042 0.002,-0.0073 -5.9e-4,0.0031 -0.001,0.0052 -0.002,0.0073 m 0.005,-0.01988 c 0.001,-0.0052 0.002,-0.0094 0.004,-0.01466 -0.001,0.0052 -0.002,0.0094 -0.004,0.01466 m 0.005,-0.01884 c 0.001,-0.0042 0.002,-0.0073 0.003,-0.01151 -10e-4,0.0042 -0.002,0.0073 -0.003,0.01151 m 0.004,-0.01673 c 0.87203,-3.576227 1.224,-8.317321 1.02807,-12.552908 0,-0.0012 1.1e-4,-0.0021 1.1e-4,-0.0031 0.19603,4.236634 -0.15594,8.979821 -1.02818,12.55605"
       style="fill:#ededed;fill-opacity:1;fill-rule:nonzero;stroke:none;stroke-width:0.010466"
       id="path26" />
    <path
       d="m 37.223004,49.831143 c -0.604514,0 -1.208195,-0.01151 -1.810303,-0.03349 C 34.384837,49.759973 33.360007,49.69404 32.33748,49.602988 25.170475,48.962469 18.124771,47.082777 11.134954,45.211457 8.9915191,44.636875 6.7665551,44.019381 5.0801704,42.495534 c -0.818964,-0.740993 -1.466495,-1.76352 -1.793871,-2.856169 -0.150396,-0.502367 -0.233077,-1.020433 -0.233705,-1.532222 -2.1e-4,-0.143383 0.0061,-0.285721 0.01905,-0.428059 v 0 c 0.04804,-0.517019 0.185876,-1.022527 0.428687,-1.493497 0.0083,-0.01466 0.0158,-0.03035 0.02449,-0.04605 0.359612,0.823673 0.895261,1.575132 1.535675,2.153901 1.6864897,1.523847 3.9114537,2.14134 6.0547836,2.715923 6.989921,1.87132 14.035522,3.751012 21.202526,4.39153 1.022424,0.09105 2.047357,0.158035 3.075118,0.194669 0.602108,0.02198 1.205997,0.03349 1.810407,0.03349 0.673381,0 1.347599,-0.01362 2.021819,-0.04186 6.992748,-0.29514 13.971676,-2.153899 19.712063,-6.357041 1.99597,-1.461053 4.070746,-3.273762 6.450923,-3.273762 0.125906,0 0.252333,0.0052 0.380018,0.01569 2.367617,0.193621 4.196026,2.185299 5.969802,3.869278 1.460738,1.388836 3.298774,2.60289 5.177836,2.60289 0.40263,0 0.80693,-0.05547 1.21008,-0.177921 2.56825,-0.775532 4.01601,-7.289563 4.24877,-13.879995 0.19593,4.235584 -0.15604,8.976679 -1.02807,12.552905 -3e-4,0.0012 -8.9e-4,0.0031 -10e-4,0.0052 -0.001,0.0042 -0.002,0.0073 -0.003,0.01151 -2.9e-4,0.0012 -8.9e-4,0.0031 -0.001,0.0042 -0.001,0.0052 -0.002,0.0094 -0.004,0.01466 -10e-4,0.0042 -0.002,0.0094 -0.003,0.01255 -5.9e-4,0.0031 -10e-4,0.0052 -0.002,0.0073 -0.001,0.0042 -0.002,0.0073 -0.003,0.01151 -3e-4,0.0021 -0.001,0.0042 -0.001,0.0063 -8.9e-4,0.0031 -0.002,0.0073 -0.003,0.01151 -6e-4,0.0021 -8.9e-4,0.0031 -10e-4,0.0063 -0.001,0.0042 -0.002,0.0094 -0.003,0.01362 -3e-4,0.0012 -5.9e-4,0.0021 -8.9e-4,0.0031 -0.001,0.0063 -0.003,0.01151 -0.004,0.0178 -3e-4,0.0012 -8.9e-4,0.0031 -0.001,0.0042 -10e-4,0.0052 -0.002,0.0094 -0.003,0.01466 -3e-4,8.9e-4 -5.9e-4,0.0021 -8.9e-4,0.0031 -10e-4,0.0052 -0.003,0.01047 -0.004,0.01569 -2.1e-4,0.0012 -3e-4,0.0012 -6e-4,0.0021 -0.68992,2.749418 -1.69308,4.77982 -2.99683,5.306259 -3e-4,0 -3e-4,0 -5.9e-4,0 -0.003,0.0012 -0.006,0.0021 -0.008,0.0042 -2.9e-4,0 0,0 -2.9e-4,0 -0.009,0.0031 -0.0176,0.0063 -0.0265,0.0094 -2.1e-4,0.0012 -5.9e-4,0.0012 -8.9e-4,0.0012 -0.003,0.0012 -0.006,0.0021 -0.008,0.0031 -3e-4,0 0,0 -2.1e-4,0 -0.006,0.0021 -0.0119,0.0042 -0.0179,0.0063 h -3e-4 c -0.003,0.0012 -0.005,0.0021 -0.008,0.0031 -5.9e-4,0 -0.001,0 -0.002,0.0012 -0.002,0 -0.005,0.0012 -0.007,0.0021 -2.9e-4,0 -0.001,0.0012 -0.001,0.0012 -0.006,0.0021 -0.0115,0.0031 -0.0172,0.0052 -5.9e-4,8.9e-4 -8.9e-4,8.9e-4 -10e-4,8.9e-4 -0.002,0.0012 -0.005,0.0012 -0.007,0.0021 -6e-4,0 -0.001,0.0012 -0.002,0.0012 -0.002,0.0012 -0.005,0.0012 -0.007,0.0021 -3e-4,0 -0.001,0 -0.001,0 -0.006,0.0021 -0.0116,0.0042 -0.0173,0.0063 -5.9e-4,0 -0.001,0 -0.002,0 -0.002,0.0012 -0.004,0.0021 -0.006,0.0021 -0.001,0.0012 -0.001,0.0012 -0.003,0.0012 -0.002,0.0012 -0.004,0.0012 -0.006,0.0021 -8.9e-4,0 -0.001,0 -0.002,0.0012 -0.003,0 -0.005,0.0012 -0.008,0.0021 v 0 c -0.40294,0.121405 -0.80766,0.177921 -1.21018,0.177921 -1.87927,0 -3.716889,-1.214054 -5.177731,-2.60289 -1.77367,-1.685023 -3.602186,-3.675657 -5.969802,-3.869278 -0.127475,-0.01047 -0.254324,-0.01569 -0.380018,-0.01569 -2.380489,0 -4.454746,1.812709 -6.451027,3.273762 -5.74028,4.203142 -12.719212,6.061901 -19.711959,6.355997 -0.674218,0.02824 -1.348542,0.04291 -2.02182,0.04291"
       style="fill:#6f4c92;fill-opacity:1;fill-rule:nonzero;stroke:none;stroke-width:0.010466"
       id="path28" />
    <path
       d="m 43.903132,29.767843 c 0,0 0.0042,2.584052 -0.291269,3.834739 -0.295454,1.250684 -0.920483,2.466833 -1.953688,3.227712 -1.226927,0.905306 -2.906927,1.052877 -4.364316,0.609118 -1.457389,-0.443758 -2.707762,-1.420233 -3.710403,-2.568354 -1.002642,-1.149166 -1.782359,-2.472066 -2.556004,-3.786595 v -2.632196 c 0.773645,-1.314528 1.553362,-2.637429 2.556004,-3.786595 1.002641,-1.149165 2.253014,-2.125643 3.710403,-2.568354 1.457389,-0.443756 3.137389,-0.296187 4.364316,0.608074 1.033205,0.761926 1.658234,1.978072 1.953688,3.228759 0.295455,1.24964 0.294093,2.548469 0.291269,3.833692"
       style="fill:#ff6b8e;fill-opacity:1;fill-rule:nonzero;stroke:none;stroke-width:0.010466"
       id="path30" />
    <path
       d="m 43.135557,10.838008 c 0,2.32031 -1.76237,4.202095 -3.936365,4.202095 -2.173891,0 -3.936364,-1.881785 -3.936364,-4.202095 0,-2.3213573 1.762473,-4.2020953 3.936364,-4.2020953 2.173995,0 3.936365,1.880738 3.936365,4.2020953"
       style="fill:#ffd740;fill-opacity:1;fill-rule:nonzero;stroke:none;stroke-width:0.010466"
       id="path32" />
    <path
       d="m 54.848673,4.1251213 c 0,2.3203104 -1.762265,4.2020954 -3.936364,4.2020954 -2.174206,0 -3.936365,-1.881785 -3.936365,-4.2020954 0,-0.645751 0.136372,-1.258012 0.38065,-1.804336 2.474158,0.05024 4.94497,0.315026 7.377789,0.796461 0.07483,0.322353 0.11429,0.660404 0.11429,1.007875"
       style="fill:#ffd740;fill-opacity:1;fill-rule:nonzero;stroke:none;stroke-width:0.010466"
       id="path34" />
    <path
       d="m 62.00134,14.219569 c 0,2.321356 -1.762473,4.202095 -3.936365,4.202095 -2.174099,0 -3.936361,-1.880739 -3.936361,-4.202095 0,-2.32031 1.762262,-4.202095 3.936361,-4.202095 2.173892,0 3.936365,1.881785 3.936365,4.202095"
       style="fill:#ffd740;fill-opacity:1;fill-rule:nonzero;stroke:none;stroke-width:0.010466"
       id="path36" />
    <path
       d="m 53.648536,22.931457 c 0,2.320312 -1.762366,4.201048 -3.936361,4.201048 -2.173995,0 -3.936365,-1.880736 -3.936365,-4.201048 0,-2.321356 1.76237,-4.202092 3.936365,-4.202092 2.173995,0 3.936361,1.880736 3.936361,4.202092"
       style="fill:#ffd740;fill-opacity:1;fill-rule:nonzero;stroke:none;stroke-width:0.010466"
       id="path38" />
    <path
       d="m 62.865307,32.052569 c 0,2.320308 -1.762369,4.202095 -3.936365,4.202095 -2.173995,0 -3.936361,-1.881787 -3.936361,-4.202095 0,-2.321356 1.762366,-4.202096 3.936361,-4.202096 2.173996,0 3.936365,1.88074 3.936365,4.202096"
       style="fill:#ffd740;fill-opacity:1;fill-rule:nonzero;stroke:none;stroke-width:0.010466"
       id="path40" />
    <path
       d="m 52.736425,39.790074 c 0,2.320311 -1.762367,4.202095 -3.936362,4.202095 -2.173995,0 -3.936364,-1.881784 -3.936364,-4.202095 0,-2.320309 1.762369,-4.202095 3.936364,-4.202095 2.173995,0 3.936362,1.881786 3.936362,4.202095"
       style="fill:#ffd740;fill-opacity:1;fill-rule:nonzero;stroke:none;stroke-width:0.010466"
       id="path42" />
    <path
       d="m 39.775344,47.681431 c 0,0.768204 -0.193096,1.487216 -0.53052,2.106802 -1.279257,0.05442 -2.55904,0.05547 -3.832227,0.0094 -1.027656,-0.03768 -2.05259,-0.103613 -3.075117,-0.194665 -0.277978,-0.57563 -0.434862,-1.229754 -0.434862,-1.921556 0,-2.320312 1.762159,-4.202095 3.936365,-4.202095 2.174099,0 3.936361,1.881783 3.936361,4.202095"
       style="fill:#ffd740;fill-opacity:1;fill-rule:nonzero;stroke:none;stroke-width:0.010466"
       id="path44" />
    <path
       d="m 38.910122,37.681178 c -0.546743,0 -1.09558,-0.08373 -1.616159,-0.241766 -0.115543,-0.03453 -0.229727,-0.07326 -0.342552,-0.115124 0.112825,0.04186 0.227009,0.08059 0.342448,0.115124 0.520579,0.158038 1.06952,0.241766 1.616159,0.241766 0.660402,0 1.317353,-0.121405 1.916426,-0.376776 -0.598969,0.255371 -1.255917,0.376776 -1.916322,0.376776 m -3.283914,-1.019389 c -0.762866,-0.485622 -1.446714,-1.108346 -2.04296,-1.790731 -0.33282,-0.382006 -0.641044,-0.782854 -0.932626,-1.195216 0.291689,0.412362 0.600016,0.81321 0.932834,1.195216 0.596142,0.682385 1.27999,1.305109 2.042752,1.790731 m 8.121921,-3.874508 c 0.157723,-1.31139 0.155003,-3.019438 0.155003,-3.019438 v 0 c 0,0.02302 0.0018,1.717468 -0.155003,3.019438 m -12.209621,-0.84042 c -0.172166,-0.286768 -0.341715,-0.574583 -0.511056,-0.862398 v -2.632196 l 0.01109,-0.01884 v 0 c -0.0038,0.0063 -0.0073,0.01255 -0.01109,0.01884 v 2.632196 c 0.169341,0.287815 0.33889,0.57563 0.511056,0.862398 m 12.364624,-2.180065 c 8.9e-4,-0.407126 0.0018,-0.815301 -0.0071,-1.223474 0,0 0,0 0,0 0.0091,0.407126 0.0082,0.816348 0.0071,1.223474"
       style="fill:#6f4c92;fill-opacity:1;fill-rule:nonzero;stroke:none;stroke-width:0.010466"
       id="path46" />
    <path
       d="m 38.910018,37.681178 c -0.546639,0 -1.09558,-0.08373 -1.616159,-0.241766 -0.115439,-0.03453 -0.229623,-0.07326 -0.342448,-0.115124 -0.464585,-0.171643 -0.906774,-0.396661 -1.325203,-0.662499 -0.762762,-0.485622 -1.44661,-1.108346 -2.042752,-1.790731 -0.332818,-0.382006 -0.641145,-0.782854 -0.932834,-1.195216 -0.394567,-0.558882 -0.758785,-1.140793 -1.112114,-1.728981 -0.172166,-0.286768 -0.341715,-0.574583 -0.511056,-0.862398 v -2.632196 c 0.0038,-0.0063 0.0073,-0.01255 0.01109,-0.01884 v 0.396662 c 0.773334,1.313481 1.553363,2.637429 2.555693,3.785547 1.002849,1.149166 2.253326,2.125644 3.710821,2.569402 0.520473,0.158035 1.069414,0.240718 1.615949,0.240718 0.983592,0 1.959337,-0.267929 2.748053,-0.849839 1.032994,-0.760876 1.658545,-1.978072 1.953792,-3.227712 0.174679,-0.738899 0.2448,-1.942486 0.273162,-2.804884 0.0088,0.408173 0.0081,0.816348 0.0071,1.223474 0,0 0,8.9e-4 0,8.9e-4 0,0 0,0 0,0 v 0 c 0,0 0.0027,1.708048 -0.155004,3.019438 -0.03632,0.30142 -0.08111,0.58191 -0.136369,0.815301 -0.295246,1.24964 -0.920694,2.466833 -1.953792,3.227712 -0.259034,0.191526 -0.53837,0.348517 -0.831523,0.474108 -0.599073,0.255371 -1.256024,0.376775 -1.916426,0.376775"
       style="fill:#ed6384;fill-opacity:1;fill-rule:nonzero;stroke:none;stroke-width:0.010466"
       id="path48" />
    <path
       d="m 26.738176,30.29219 c -0.663754,2.972341 -3.669691,4.847844 -6.713828,4.190581 -3.044243,-0.657266 -4.973962,-3.599254 -4.310104,-6.570548 0.663649,-2.972341 3.669585,-4.848894 6.713828,-4.191628 3.044138,0.657262 4.973858,3.599254 4.310104,6.571595"
       style="fill:#ffffff;fill-opacity:1;fill-rule:nonzero;stroke:none;stroke-width:0.010466"
       id="path50" />
    <path
       d="m 24.917825,29.936345 c -0.449933,2.014702 -2.487451,3.287367 -4.550925,2.841517 -2.063579,-0.44585 -3.371619,-2.44067 -2.921686,-4.454325 0.449933,-2.014705 2.487452,-3.28737 4.551031,-2.841516 2.06337,0.44585 3.371408,2.440669 2.92158,4.454324"
       style="fill:#262626;fill-opacity:1;fill-rule:nonzero;stroke:none;stroke-width:0.010466"
       id="path52" />
    <path
       d="m 25.483721,27.908037 c -0.209843,0.939845 -1.159945,1.532219 -2.122188,1.324992 -0.962243,-0.208271 -1.572305,-1.137651 -1.362462,-2.077496 0.209843,-0.9388 1.159945,-1.532222 2.122293,-1.324995 0.962242,0.208274 1.5722,1.137652 1.362357,2.077499"
       style="fill:#ffffff;fill-opacity:1;fill-rule:nonzero;stroke:none;stroke-width:0.010466"
       id="path54" />
    <path
       d="m 10.040525,37.66443 c -0.6817539,1.705957 -2.2298829,2.851984 -3.9441076,2.918967 -0.05275,0.0021 -0.105601,0.0031 -0.157931,0.0031 -0.965802,0 -1.893716,-0.345379 -2.652187,-0.947173 -0.192469,-0.642613 -0.274104,-1.311389 -0.214553,-1.96028 0.633611,1.096835 1.777963,1.775031 2.984377,1.726887 1.2888867,-0.05024 2.4539607,-0.915772 2.9685737,-2.204137 0.119521,-0.299326 0.443548,-0.438525 0.724351,-0.31084 0.2803839,0.127686 0.4109989,0.474111 0.2914769,0.773437"
       style="fill:#262626;fill-opacity:1;fill-rule:nonzero;stroke:none;stroke-width:0.010466"
       id="path56" />
    <path
       d="m 28.883495,20.369383 c 0.51817,0.550511 0.954915,1.179519 1.341217,1.844109 0.384311,0.665635 0.710533,1.374184 0.975427,2.109944 0.266049,0.734712 0.470658,1.497683 0.617912,2.275306 0.145374,0.776576 0.222298,1.568852 0.248987,2.362172 l 0.0052,0.595516 c 0.0018,0.09943 -0.004,0.198855 -0.0077,0.297235 l -0.01234,0.298278 -0.01474,0.296188 c -0.0081,0.09943 -0.01673,0.19781 -0.02646,0.29619 l -0.0289,0.296187 c -0.0093,0.09838 -0.01875,0.19676 -0.03443,0.29514 -0.02795,0.195715 -0.05641,0.391428 -0.08708,0.587141 -0.0337,0.194668 -0.07452,0.387242 -0.112615,0.580863 l -0.0294,0.14443 -0.03485,0.143385 -0.07064,0.286768 c -0.02492,0.09524 -0.04699,0.190482 -0.0742,0.28572 l -0.08373,0.281538 c -0.2246,0.751456 -0.511789,1.477797 -0.859259,2.166459 -0.349565,0.687616 -0.752086,1.34174 -1.240533,1.923648 0.07964,-0.380962 0.162851,-0.753552 0.243439,-1.122999 0.03558,-0.187341 0.0809,-0.368404 0.114184,-0.553653 0.01718,-0.0921 0.03768,-0.183154 0.05641,-0.274206 l 0.05107,-0.275257 c 0.138778,-0.731574 0.254219,-1.456867 0.345378,-2.179018 l 0.03454,-0.271071 c 0.01193,-0.09001 0.01884,-0.18106 0.02845,-0.271068 l 0.0291,-0.270023 0.01445,-0.13501 0.01068,-0.136058 0.04511,-0.539 c 0.0091,-0.181063 0.02041,-0.361075 0.03224,-0.540044 0.0071,-0.09001 0.0085,-0.180015 0.01184,-0.270023 l 0.0093,-0.270024 0.01089,-0.268976 8.9e-4,-0.268976 0.0036,-0.270021 c 0.0012,-0.08896 0.004,-0.178968 -1.07e-4,-0.268976 l -0.0091,-0.537953 c -0.02373,-0.71692 -0.06519,-1.433838 -0.141798,-2.149712 -0.0787,-0.715874 -0.182214,-1.430703 -0.311258,-2.147624 -0.129884,-0.71587 -0.285095,-1.432791 -0.463853,-2.153898 l -0.06604,-0.271071 c -0.02376,-0.09001 -0.04929,-0.180013 -0.07159,-0.271068 -0.04396,-0.182107 -0.09817,-0.361076 -0.144638,-0.545277 -0.100578,-0.36317 -0.204402,-0.729479 -0.305084,-1.105211"
       style="fill:#ffd740;fill-opacity:1;fill-rule:nonzero;stroke:none;stroke-width:0.010466"
       id="path58" />
    <path
       d="m 70.563251,28.398893 c -0.154374,0 -0.29598,-0.0314 -0.420838,-0.09943 -0.254113,-0.137104 -0.413198,-0.414453 -0.473482,-0.813209 -0.01519,-0.09943 -0.02406,-0.207227 -0.02691,-0.321303 -0.0012,-0.11408 0.0071,-0.232346 0.0202,-0.357937 0.02815,-0.251185 0.07514,-0.533767 0.166722,-0.823676 0.04364,-0.146521 0.09409,-0.298279 0.15071,-0.45527 0.05725,-0.155943 0.128836,-0.31084 0.202518,-0.473064 0.03747,-0.08058 0.0764,-0.162221 0.117112,-0.244904 0.02041,-0.04082 0.0405,-0.08268 0.06248,-0.123496 0.02272,-0.04082 0.04553,-0.08164 0.06855,-0.122452 0.09284,-0.163272 0.192262,-0.330726 0.297653,-0.499228 0.433292,-0.665638 0.99448,-1.342787 1.672047,-1.96028 0.681756,-0.613308 1.411443,-1.104164 2.116957,-1.469425 0.178653,-0.08791 0.354376,-0.170596 0.526542,-0.246999 0.04301,-0.01884 0.08593,-0.03663 0.12842,-0.05547 0.0429,-0.0178 0.0866,-0.03349 0.12946,-0.05024 0.0861,-0.0314 0.17112,-0.0628 0.25506,-0.0921 0.1685,-0.05652 0.32978,-0.113033 0.49096,-0.153849 0.16138,-0.04082 0.31754,-0.0764 0.46783,-0.104661 0.29817,-0.06279 0.58337,-0.08163 0.83581,-0.08477 0.007,0 0.0147,0 0.0219,0 0.11868,0 0.23025,0.0042 0.33658,0.01569 0.11366,0.01466 0.21948,0.03349 0.31733,0.05861 0.39111,0.09943 0.65067,0.285723 0.76235,0.552605 0.11177,0.265837 0.0676,0.587141 -0.0904,0.93252 -0.0396,0.08582 -0.0863,0.173735 -0.13972,0.261651 -0.0526,0.09105 -0.11042,0.185246 -0.1751,0.27944 -0.12831,0.190482 -0.28478,0.376775 -0.45244,0.582958 -0.085,0.101519 -0.1751,0.203037 -0.27044,0.304559 -0.0949,0.101519 -0.19017,0.211413 -0.29284,0.31712 -0.0509,0.05233 -0.10309,0.105705 -0.15647,0.159083 -0.0266,0.02617 -0.0535,0.05233 -0.0806,0.07954 -0.0265,0.02721 -0.0531,0.05547 -0.0799,0.08373 -0.1077,0.110941 -0.22,0.220832 -0.33659,0.330726 -0.4581,0.452131 -0.96591,0.918914 -1.50522,1.402442 -0.535122,0.488761 -1.050468,0.94822 -1.545406,1.358487 -0.120672,0.105705 -0.241869,0.206179 -0.36317,0.302464 -0.03046,0.02406 -0.06091,0.0471 -0.09095,0.07117 -0.02931,0.02406 -0.0584,0.04814 -0.08739,0.07222 -0.05788,0.04814 -0.115963,0.09419 -0.173841,0.140243 -0.11481,0.09106 -0.23402,0.174783 -0.344643,0.259557 -0.110209,0.08477 -0.220206,0.164316 -0.329261,0.238624 -0.222401,0.146524 -0.423036,0.283629 -0.625133,0.392475 -0.09995,0.05547 -0.20032,0.102566 -0.29535,0.146525 -0.09346,0.04396 -0.185353,0.08163 -0.275046,0.113032 -0.182529,0.0628 -0.35616,0.09629 -0.516079,0.09629"
       style="fill:#a48bbd;fill-opacity:1;fill-rule:nonzero;stroke:none;stroke-width:0.010466"
       id="path60" />
    <path
       d="m 29.170052,14.070952 c -0.119207,0 -0.233809,-0.0021 -0.343806,-0.0073 -0.861562,-0.03768 -1.441585,-0.231298 -1.644104,-0.641565 -0.20126,-0.408174 -0.003,-0.996363 0.567151,-1.69549 0.28478,-0.349565 0.663336,-0.724247 1.130538,-1.113582 0.466887,-0.390381 1.023574,-0.7922753 1.664301,-1.1931233 1.2802,-0.801694 2.899602,-1.597109 4.789132,-2.253327 1.887752,-0.657264 4.046466,-1.171144 6.352858,-1.425468 1.112324,-0.122452 2.206857,-0.181061 3.265075,-0.181061 0.0383,0 0.07651,0 0.114706,10e-4 0.746852,0.0021 1.475287,0.03558 2.179436,0.09524 0.573328,1.562572 1.998901,2.67092 3.66697,2.67092 1.097779,0 2.090582,-0.480389 2.804572,-1.253825 1.266699,0.492948 2.244639,1.047645 2.88924,1.574084 0.627124,0.512834 0.940892,0.998456 0.914413,1.4097693 -0.896829,0.132918 -1.697059,0.587142 -2.294667,1.251732 -0.716502,0.116173 -1.576491,0.193621 -2.549097,0.260604 -1.361626,0.09315 -2.944291,0.160129 -4.676833,0.271069 -0.866269,0.05442 -1.770216,0.113032 -2.703783,0.191527 -0.777938,0.06594 -1.576387,0.140245 -2.391374,0.226066 0.149352,-0.443758 0.230777,-0.922054 0.230777,-1.420235 0,-2.3213573 -1.76237,-4.2020953 -3.936365,-4.2020953 -2.173891,0 -3.936364,1.880738 -3.936364,4.2020953 0,0.879143 0.253068,1.69549 0.685838,2.370546 -1.37408,0.21874 -2.637847,0.428059 -3.756874,0.586096 -0.679136,0.09524 -1.305002,0.171642 -1.868492,0.220832 -0.419791,0.03559 -0.805775,0.05547 -1.153248,0.05547"
       style="fill:#a48bbd;fill-opacity:1;fill-rule:nonzero;stroke:none;stroke-width:0.010466"
       id="path62" />
    <path
       d="m 35.948666,13.208554 c -0.43277,-0.675056 -0.685838,-1.491403 -0.685838,-2.370546 0,-2.3213573 1.762473,-4.2020953 3.936364,-4.2020953 2.173995,0 3.936365,1.880738 3.936365,4.2020953 0,0.498181 -0.08143,0.976477 -0.230777,1.420235 -0.163061,0.01779 -0.326747,0.03558 -0.491063,0.05338 -1.971269,0.217693 -3.846461,0.486669 -5.569791,0.755644 -0.303304,0.0471 -0.601689,0.09419 -0.89526,0.141291"
       style="fill:#ffe47f;fill-opacity:1;fill-rule:nonzero;stroke:none;stroke-width:0.010466"
       id="path64" />
    <path
       d="m 50.912309,8.3272167 c -1.668069,0 -3.093642,-1.108348 -3.66697,-2.670921 0.327169,0.02721 0.649101,0.05966 0.965278,0.09629 1.994505,0.234438 3.755094,0.675056 5.17941,1.197309 0.110941,0.04082 0.219995,0.08163 0.326854,0.123498 -0.71399,0.773437 -1.706793,1.253826 -2.804572,1.253826"
       style="fill:#ffe47f;fill-opacity:1;fill-rule:nonzero;stroke:none;stroke-width:0.010466"
       id="path66" />
    <path
       d="m 55.225867,11.308977 c 0.597608,-0.66459 1.397838,-1.118814 2.294667,-1.251732 -0.003,0.04814 -0.01056,0.09419 -0.02281,0.140244 -0.118476,0.441665 -0.648997,0.745179 -1.483555,0.953452 -0.238624,0.05966 -0.502055,0.111986 -0.788298,0.158036"
       style="fill:#ffe47f;fill-opacity:1;fill-rule:nonzero;stroke:none;stroke-width:0.010466"
       id="path68" />
    <path
       d="m 35.646931,27.557425 c -0.02009,0 -0.04008,0 -0.05997,-0.0012 -0.25359,-0.0094 -0.484889,-0.07431 -0.661659,-0.218737 -0.176773,-0.143385 -0.281012,-0.355845 -0.304981,-0.630055 -0.006,-0.06907 -0.007,-0.141291 -0.003,-0.216646 0.0049,-0.07536 0.01727,-0.151754 0.0336,-0.232343 0.03412,-0.160129 0.08498,-0.338051 0.168187,-0.511789 0.0405,-0.08896 0.08614,-0.178968 0.137105,-0.271067 0.05118,-0.0921 0.112089,-0.181063 0.17583,-0.273163 0.125905,-0.18734 0.283207,-0.364217 0.457049,-0.54423 0.354169,-0.350612 0.800438,-0.679243 1.315887,-0.933567 0.517438,-0.250137 1.050786,-0.3998 1.545095,-0.462597 0.179179,-0.01884 0.351763,-0.03244 0.518277,-0.03244 0.06499,0 0.12894,0.0021 0.192156,0.0063 0.111985,0.0073 0.219052,0.01362 0.323187,0.02931 0.104138,0.01673 0.203773,0.03663 0.298282,0.05966 0.188598,0.04082 0.359717,0.109891 0.506763,0.182107 0.07368,0.03663 0.141605,0.07326 0.203773,0.116171 0.06238,0.04291 0.118788,0.08896 0.169235,0.136058 0.201575,0.187343 0.304559,0.399803 0.309374,0.62796 0.0049,0.22816 -0.08603,0.450039 -0.234856,0.656219 -0.03726,0.05128 -0.07829,0.101518 -0.122556,0.15071 -0.04417,0.05024 -0.09137,0.102566 -0.141712,0.151757 -0.100368,0.100472 -0.212878,0.189432 -0.333025,0.28886 -0.06028,0.0471 -0.122873,0.09315 -0.187658,0.138152 -0.06468,0.045 -0.130614,0.09524 -0.199062,0.139196 -0.137523,0.08687 -0.279443,0.184202 -0.430257,0.267929 -0.2987,0.178968 -0.62168,0.349565 -0.96737,0.514928 -0.343495,0.170596 -0.676208,0.321306 -1.001701,0.44585 -0.158978,0.06698 -0.322665,0.119313 -0.47547,0.174782 -0.07714,0.02617 -0.157302,0.0471 -0.232554,0.07117 -0.07483,0.02302 -0.149662,0.04396 -0.224495,0.0628 -0.152176,0.03349 -0.291583,0.06698 -0.43256,0.08478 -0.06981,0.0094 -0.140036,0.01466 -0.206808,0.0178 -0.04521,0.0042 -0.09001,0.0052 -0.134174,0.0052"
       style="fill:#ff9cb3;fill-opacity:1;fill-rule:nonzero;stroke:none;stroke-width:0.010466"
       id="path70" />
  </g>
</svg>
