<?xml version="1.0" encoding="UTF-8" standalone="no"?>
<svg
   xmlns:dc="http://purl.org/dc/elements/1.1/"
   xmlns:cc="http://creativecommons.org/ns#"
   xmlns:rdf="http://www.w3.org/1999/02/22-rdf-syntax-ns#"
   xmlns:svg="http://www.w3.org/2000/svg"
   xmlns="http://www.w3.org/2000/svg"
   xmlns:sodipodi="http://sodipodi.sourceforge.net/DTD/sodipodi-0.dtd"
   xmlns:inkscape="http://www.inkscape.org/namespaces/inkscape"
   width="320"
   height="230"
   viewBox="0 0 84.666664 60.854166"
   version="1.1"
   id="svg646"
   inkscape:version="1.0.2-2 (e86c870879, 2021-01-15)"
   sodipodi:docname="fish05.svg">
  <defs
     id="defs640" />
  <sodipodi:namedview
     id="base"
     pagecolor="#ffffff"
     bordercolor="#666666"
     borderopacity="1.0"
     inkscape:pageopacity="0.0"
     inkscape:pageshadow="2"
     inkscape:zoom="0.35"
     inkscape:cx="400"
     inkscape:cy="560"
     inkscape:document-units="px"
     inkscape:current-layer="layer1"
     inkscape:document-rotation="0"
     showgrid="false"
     units="px"
     inkscape:window-width="1267"
     inkscape:window-height="1032"
     inkscape:window-x="88"
     inkscape:window-y="0"
     inkscape:window-maximized="0" />
  <metadata
     id="metadata643">
    <rdf:RDF>
      <cc:Work
         rdf:about="">
        <dc:format>image/svg+xml</dc:format>
        <dc:type
           rdf:resource="http://purl.org/dc/dcmitype/StillImage" />
        <dc:title></dc:title>
      </cc:Work>
    </rdf:RDF>
  </metadata>
  <g
     inkscape:label="Layer 1"
     inkscape:groupmode="layer"
     id="layer1">
    <path
       d="m 66.128385,48.091188 c 2.15898,2.60109 4.65392,4.92083 7.40443,6.88607 1.15111,0.82237 2.42177,1.60868 3.83567,1.67463 2.34138,0.10821 4.81674,-2.13013 5.1764,-4.41793 0.43076,-2.73814 -2.53101,-3.50177 -2.67219,-6.81496 -0.15458,-3.59555 3.24723,-4.6941 2.67219,-7.75378 -0.43592,-2.31459 -2.88448,-4.52304 -5.1764,-4.41689 -1.4139,0.066 -2.68456,0.85123 -3.83567,1.67463 -2.75051,1.96421 -5.24545,4.28498 -7.40443,6.88503 v 6.2832"
       style="fill:#ff6b8e;fill-opacity:1;fill-rule:nonzero;stroke:none;stroke-width:0.0103054"
       id="path210" />
    <path
       d="m 76.641955,56.555018 c -0.72859,-0.15768 -1.417,-0.48745 -2.07036,-0.8842 0.65233,0.39675 1.34177,0.72652 2.07036,0.8842 m 3.14727,-0.55855 c 1.39947,-0.81619 2.52173,-2.27853 2.75566,-3.76251 0.0804,-0.5132 0.0423,-0.95737 -0.0742,-1.36134 0.11645,0.40397 0.15458,0.84814 0.0742,1.36134 -0.2329,1.48398 -1.35619,2.94632 -2.75566,3.76251 m -6.7892,-1.40669 c -1.51592,-1.12123 -2.9494,-2.35169 -4.28911,-3.67903 1.33867,1.32631 2.77319,2.5578 4.28911,3.67903"
       style="fill:#ededed;fill-opacity:1;fill-rule:nonzero;stroke:none;stroke-width:0.0103054"
       id="path212" />
    <path
       d="m 77.533365,56.654978 c -0.0546,0 -0.11026,-10e-4 -0.16488,-0.003 -0.2463,-0.0113 -0.48848,-0.0453 -0.72653,-0.0969 -0.72859,-0.15767 -1.41803,-0.48744 -2.07036,-0.8842 -0.3576,-0.21641 -0.70283,-0.45343 -1.03981,-0.69355 -0.17828,-0.12779 -0.35554,-0.2566 -0.53176,-0.38748 -1.51592,-1.12123 -2.95044,-2.35273 -4.28911,-3.67903 -0.77187,-0.76466 -1.5118,-1.56024 -2.21772,-2.3857 0.52661,-0.46684 0.94604,-0.93367 1.24489,-1.39844 1.76017,1.87146 3.70376,3.57082 5.7937,5.06407 1.15214,0.8234 2.4228,1.6097 3.8367,1.67463 0.0546,0.003 0.11026,0.004 0.16488,0.004 1.96937,0 3.99644,-1.61588 4.74976,-3.4894 0.0742,0.1587 0.13809,0.32256 0.18756,0.49259 0.11645,0.40398 0.15458,0.84814 0.0742,1.36135 -0.23393,1.48398 -1.35619,2.94631 -2.75566,3.7625 -0.70798,0.41222 -1.48604,0.65852 -2.25586,0.65852"
       style="fill:#ed6384;fill-opacity:1;fill-rule:nonzero;stroke:none;stroke-width:0.0103054"
       id="path214" />
    <path
       d="m 31.571295,20.810738 c 0.30195,-5.64529 3.38017,-11.0793297 8.08561,-14.2750293 3.73056,-2.53513 8.41848,-3.61617 12.90339,-3.08029 1.66845,0.1989 2.66807,1.95082 1.98482,3.48529 -1.00993,2.2692499 -1.62001,4.7136893 -1.78077,7.1890493 3.09574,-1.61177 6.90153,-1.72822 10.14773,-0.4689 1.51695,0.58844 2.0384,2.45887 1.08721,3.77899 -1.48088,2.05696 -2.33005,4.56426 -2.3486,7.09321 0.56989,-0.0546 3.86865,-0.31638 6.39657,2.06623 0.19477,0.18343 0.37305,0.37099 0.53588,0.55958 0.97386,1.13256 0.70695,2.8649 -0.54207,3.68521 -0.32874,0.21641 -0.66058,0.47096 -0.98416,0.76981 -3.00403,2.77525 -2.65467,6.97058 -2.59284,7.59096 l -32.89277,-18.39411"
       style="fill:#ff6b8e;fill-opacity:1;fill-rule:nonzero;stroke:none;stroke-width:0.0103054"
       id="path216" />
    <path
       d="m 68.043125,46.562908 c -0.76053,1.75088 -3.32246,3.58112 -7.01591,5.22277 -1.991,0.88523 -4.31075,1.71482 -6.85412,2.44959 -1.81272,0.52352 -3.7388,0.9986 -5.74114,1.40875 h -0.001 c -2.03428,0.4184 -4.14689,0.77084 -6.29866,1.03982 v 0 c -2.27337,0.28546 -4.58796,0.4792 -6.89843,0.5637 -1.9065,0.0701 -3.80784,0.0639 -5.68033,-0.0268 h -0.001 c -9.18314,-0.44313 -17.66036,-2.93188 -22.3245899,-8.69569 -0.84401,-1.04394 -1.54478,-2.1291 -2.10951,-3.24414 -0.52558,-1.03466 -0.9347,-2.09406 -1.23562,-3.16788 -0.28443,-1.01714 -0.47199,-2.04665 -0.56886,-3.08028 -0.0794,-0.84917 -0.0969,-1.70039 -0.0577,-2.54956 0.36481,-7.77027 5.57728,-15.30145 12.8631999,-18.67853 5.06098,-2.34551 10.74647,-2.88551 16.32375,-2.28883 1.75913,0.18859 3.50796,0.49053 5.22381,0.88523 0.20508,0.0464 0.40912,0.0948 0.61214,0.14325 v 0 c 2.41249,0.5771 4.63743,1.24489 6.69232,1.98688 2.37437,0.85741 4.51789,1.81272 6.45324,2.84016 1.50768,0.80074 2.88758,1.64475 4.14999,2.51864 3.44097,2.38261 6.01011,4.99297 7.9063,7.57447 4.98369,6.78714 5.31037,13.37538 4.5622,15.09844"
       style="fill:#77529d;fill-opacity:1;fill-rule:nonzero;stroke:none;stroke-width:0.0103054"
       id="path218" />
    <path
       d="m 42.345585,35.041468 c -0.12263,5.34129 -1.3531,10.66505 -3.65738,15.82291 -0.96562,2.16207 -2.12085,4.29632 -3.45437,6.38316 -1.9065,0.0701 -3.80785,0.0639 -5.68034,-0.0268 5.12282,-7.02519 7.91352,-14.70168 8.08768,-22.28645 0.15252,-6.62946 -1.59425,-13.14557 -5.19805,-19.41846 1.75914,0.18859 3.50796,0.49053 5.22381,0.88523 0.20508,0.0464 0.40913,0.0948 0.61214,0.14325 v 0 c 0.52558,1.11092 1.00066,2.23215 1.42421,3.35749 1.8694,4.96205 2.75875,10.05498 2.6423,15.13967"
       style="fill:#ffd740;fill-opacity:1;fill-rule:nonzero;stroke:none;stroke-width:0.0103054"
       id="path220" />
    <path
       d="m 53.984505,35.226968 c 0.0299,8.63901 -2.76494,15.61577 -5.55255,20.41705 h -0.001 c -2.03428,0.4184 -4.14689,0.77084 -6.29866,1.03982 2.91334,-3.94388 7.18184,-11.43796 7.14783,-21.44141 -0.0247,-6.93657 -2.1291,-12.64988 -4.30869,-16.71124 2.37436,0.85741 4.51789,1.81272 6.45324,2.84017 1.68287,4.47666 2.54337,9.12955 2.55986,13.85561"
       style="fill:#ffd740;fill-opacity:1;fill-rule:nonzero;stroke:none;stroke-width:0.0103054"
       id="path222" />
    <path
       d="m 64.168295,38.853438 c -0.11336,4.43544 -1.16966,8.78432 -3.14108,12.93224 -1.991,0.88523 -4.31075,1.71482 -6.85412,2.44959 2.61654,-3.73467 5.1259,-8.98218 5.29182,-15.50241 0.15458,-6.05545 -1.78386,-11.14322 -3.89029,-14.84286 3.44097,2.38261 6.01011,4.99296 7.9063,7.57447 0.48745,2.2847 0.75539,4.75594 0.68737,7.38897"
       style="fill:#ffd740;fill-opacity:1;fill-rule:nonzero;stroke:none;stroke-width:0.0103054"
       id="path224" />
    <path
       d="m 33.006835,40.029278 c 1.37783,1.41803 2.80307,2.87006 4.73533,3.77796 1.93123,0.90894 4.51583,1.1573 6.35431,0.13088 0.14118,-0.0783 2.24039,-1.43348 2.29707,-3.4554 0.0526,-1.85394 -1.6705,-2.30841 -1.62413,-4.16441 0.0454,-1.77665 1.64474,-2.12188 1.62413,-3.86349 -0.0237,-2.01265 -2.17856,-3.38945 -2.29707,-3.4554 -1.83848,-1.02642 -4.42308,-0.77703 -6.35431,0.13087 -1.93226,0.90791 -3.3575,2.35994 -4.73533,3.77899 v 7.12"
       style="fill:#ff6b8e;fill-opacity:1;fill-rule:nonzero;stroke:none;stroke-width:0.0103054"
       id="path226" />
    <path
       d="m 43.333875,44.279228 c 0.26485,-0.0927 0.52042,-0.20611 0.7626,-0.34111 0.14118,-0.0783 2.24039,-1.43348 2.29707,-3.4554 0.009,-0.31019 -0.0319,-0.58122 -0.10614,-0.82649 0.0742,0.24527 0.11542,0.5163 0.10614,0.82649 -0.0567,2.02192 -2.15589,3.37708 -2.29707,3.4554 -0.24218,0.13603 -0.49775,0.24836 -0.7626,0.34111 m -9.67161,-3.58113 c -0.22054,-0.22259 -0.43902,-0.44622 -0.65543,-0.66882 v 0 c 0.21641,0.2226 0.43489,0.44623 0.65543,0.66882"
       style="fill:#6f4c92;fill-opacity:1;fill-rule:nonzero;stroke:none;stroke-width:0.0103054"
       id="path228" />
    <path
       d="m 41.277945,44.604878 c -1.22119,0 -2.47639,-0.29989 -3.53578,-0.79764 -1.62825,-0.76569 -2.89684,-1.9168 -4.0799,-3.10914 -0.22054,-0.22259 -0.43902,-0.44622 -0.65543,-0.66882 v -1.7952 c 1.37783,1.41803 2.80307,2.87006 4.73533,3.77796 1.05939,0.49775 2.31459,0.79764 3.53578,0.79764 1.00581,0 1.98791,-0.20302 2.81853,-0.66676 0.11954,-0.067 1.66432,-1.06249 2.15074,-2.60727 0.0144,0.0392 0.0278,0.0794 0.0402,0.12058 0.0742,0.24527 0.11542,0.5163 0.10614,0.82649 -0.0567,2.02192 -2.15589,3.37708 -2.29707,3.4554 -0.24218,0.135 -0.49775,0.24836 -0.7626,0.34111 -0.64306,0.22363 -1.34382,0.32565 -2.05593,0.32565"
       style="fill:#ed6384;fill-opacity:1;fill-rule:nonzero;stroke:none;stroke-width:0.0103054"
       id="path230" />
    <path
       d="m 30.559305,26.185008 c 0.17107,0.15973 0.33492,0.32668 0.49981,0.49466 0.15458,0.17519 0.31019,0.35141 0.46168,0.53176 0.14634,0.18446 0.28649,0.37305 0.42871,0.56164 0.135,0.19271 0.26485,0.38955 0.39675,0.58638 0.12367,0.20199 0.24218,0.40603 0.36482,0.61111 0.11335,0.20714 0.2195,0.41943 0.3308,0.63069 0.10202,0.21435 0.20095,0.43077 0.29989,0.64821 0.0886,0.22054 0.17828,0.4421 0.26485,0.66573 0.66366,1.79314 0.96458,3.73674 0.88008,5.669 -0.0845,1.93226 -0.55753,3.84185 -1.3768,5.57006 -0.10615,0.21436 -0.21539,0.42665 -0.32256,0.63894 -0.11852,0.20817 -0.23497,0.41531 -0.35657,0.61935 -0.12882,0.20096 -0.25454,0.40191 -0.38542,0.59978 l -0.41737,0.57504 c -0.14943,0.18447 -0.2968,0.36893 -0.44725,0.54928 -0.15974,0.17519 -0.31638,0.35141 -0.47818,0.52042 -0.16694,0.16695 -0.33698,0.32874 -0.50702,0.4895 -0.17931,0.15253 -0.3576,0.30402 -0.5431,0.44726 0.0969,-0.21538 0.20096,-0.42252 0.30298,-0.6276 0.0969,-0.21023 0.19271,-0.4184 0.29268,-0.62244 0.0896,-0.21023 0.18446,-0.41531 0.27618,-0.62142 0.0855,-0.2092 0.17416,-0.41531 0.26073,-0.62141 l 0.24321,-0.62245 c 0.0732,-0.21126 0.15148,-0.41737 0.22671,-0.62451 0.067,-0.21229 0.13707,-0.42046 0.20714,-0.6276 0.0629,-0.21126 0.12573,-0.42149 0.19065,-0.62966 0.48435,-1.67978 0.77806,-3.38635 0.85535,-5.10014 0.0773,-1.71482 -0.0639,-3.44097 -0.39676,-5.15785 -0.0464,-0.21229 -0.0897,-0.42767 -0.13397,-0.64306 -0.0515,-0.21332 -0.10305,-0.42767 -0.15149,-0.64408 -0.0556,-0.21229 -0.11645,-0.42562 -0.17004,-0.64203 -0.0618,-0.21229 -0.12675,-0.42561 -0.18755,-0.64203 -0.068,-0.21229 -0.1381,-0.42561 -0.20405,-0.64202 -0.0742,-0.21229 -0.15046,-0.42562 -0.22157,-0.64306 -0.0814,-0.21229 -0.1587,-0.42767 -0.23702,-0.64512 -0.0835,-0.21435 -0.16798,-0.42973 -0.2463,-0.65233"
       style="fill:#ffd740;fill-opacity:1;fill-rule:nonzero;stroke:none;stroke-width:0.0103054"
       id="path232" />
    <path
       d="m 37.101175,33.246268 c -0.0258,0 -0.0515,-10e-4 -0.0773,-0.002 -0.26279,-0.0123 -0.47817,-0.0855 -0.61214,-0.23805 -0.13295,-0.15252 -0.16901,-0.37305 -0.10615,-0.6513 0.0155,-0.0701 0.0371,-0.14325 0.0649,-0.2195 0.0289,-0.0752 0.066,-0.15046 0.10821,-0.22982 0.0855,-0.15767 0.19168,-0.33286 0.33287,-0.49775 0.0701,-0.0845 0.1453,-0.17107 0.22671,-0.25866 0.0814,-0.0876 0.17313,-0.16798 0.26794,-0.25351 0.18859,-0.17417 0.40913,-0.33081 0.64718,-0.49054 0.48229,-0.30607 1.05733,-0.57504 1.69318,-0.75642 0.59668,-0.16488 1.18821,-0.23599 1.73027,-0.23599 0.0361,0 0.0721,0 0.10821,10e-4 0.28649,0.0124 0.55649,0.0309 0.80795,0.0814 0.12572,0.0237 0.2463,0.0443 0.36068,0.0763 0.11542,0.033 0.22466,0.067 0.32772,0.10306 0.20714,0.068 0.38851,0.16179 0.54412,0.25145 0.0773,0.0464 0.1484,0.0907 0.21229,0.14015 0.0629,0.0505 0.11954,0.10203 0.17004,0.15355 0.19787,0.20508 0.28134,0.41222 0.24733,0.61214 -0.034,0.19993 -0.18034,0.37409 -0.39779,0.52146 -0.0546,0.0361 -0.11336,0.0711 -0.17622,0.10408 -0.0639,0.035 -0.13191,0.0721 -0.20199,0.10408 -0.14324,0.0691 -0.29885,0.12264 -0.46786,0.18962 -0.0845,0.0309 -0.1721,0.0608 -0.26176,0.0876 -0.0907,0.0278 -0.18344,0.0629 -0.27824,0.0917 -0.19065,0.0525 -0.39058,0.12057 -0.59875,0.17416 -0.41633,0.12367 -0.86256,0.24424 -1.33145,0.37306 -0.46787,0.13396 -0.91203,0.26381 -1.33146,0.37511 -0.20611,0.0629 -0.41222,0.10821 -0.60184,0.1618 -0.0958,0.0258 -0.19374,0.0443 -0.28546,0.068 -0.0907,0.0227 -0.18137,0.0433 -0.26897,0.0608 -0.17931,0.0309 -0.34111,0.066 -0.49775,0.0824 -0.0783,0.008 -0.15458,0.0124 -0.22672,0.0165 -0.0433,0.002 -0.0855,0.004 -0.12778,0.004"
       style="fill:#ff9cb3;fill-opacity:1;fill-rule:nonzero;stroke:none;stroke-width:0.0103054"
       id="path234" />
    <path
       d="m 71.739675,41.964638 c -0.2731,0 -0.50394,-0.068 -0.67191,-0.21848 -0.20096,-0.18034 -0.29165,-0.46168 -0.27619,-0.82546 0.004,-0.0907 0.0144,-0.18653 0.0319,-0.28752 0.0175,-0.1 0.0443,-0.20302 0.0763,-0.31123 0.0639,-0.21435 0.15149,-0.44931 0.27309,-0.68839 0.0598,-0.12058 0.12573,-0.24424 0.19787,-0.36997 0.0732,-0.12572 0.15561,-0.25042 0.24114,-0.37924 0.1721,-0.25866 0.37615,-0.51527 0.60081,-0.77806 0.45447,-0.51732 1.00993,-1.03363 1.65092,-1.49943 0.64203,-0.46374 1.30673,-0.83062 1.93948,-1.10062 0.31947,-0.13191 0.6276,-0.2463 0.92645,-0.32771 0.14943,-0.0423 0.29371,-0.0814 0.43592,-0.1113 0.14222,-0.0289 0.28031,-0.0536 0.41325,-0.0732 0.22053,-0.034 0.43076,-0.0464 0.6245,-0.0464 0.0392,0 0.0773,10e-4 0.11542,0.002 0.11233,0.003 0.21848,0.0103 0.31844,0.0247 0.101,0.0144 0.1958,0.035 0.2834,0.0587 0.35038,0.0989 0.58947,0.27309 0.69768,0.52042 0.1082,0.24836 0.0773,0.54516 -0.0629,0.86566 -0.035,0.0804 -0.0763,0.16179 -0.12469,0.24526 -0.0474,0.0835 -0.101,0.17004 -0.15974,0.25661 -0.11954,0.17519 -0.26381,0.34935 -0.42252,0.53485 -0.0804,0.0917 -0.16694,0.18447 -0.25763,0.27618 -0.0897,0.0927 -0.18241,0.18962 -0.28134,0.28443 -0.19889,0.18653 -0.40912,0.38542 -0.6379,0.5771 -0.45241,0.39264 -0.9615,0.7894 -1.51078,1.18512 -0.54721,0.39882 -1.08309,0.75848 -1.59733,1.06558 -0.25352,0.15768 -0.50703,0.29577 -0.74714,0.42562 -0.12058,0.0649 -0.24218,0.12263 -0.3576,0.17931 -0.11645,0.0577 -0.22981,0.11027 -0.34214,0.15767 -0.22672,0.0938 -0.43695,0.17726 -0.63996,0.23497 -0.101,0.0299 -0.20096,0.0536 -0.29474,0.0721 -0.0938,0.0196 -0.18447,0.034 -0.27103,0.0423 -0.0587,0.006 -0.11542,0.008 -0.17107,0.008"
       style="fill:#ff9cb3;fill-opacity:1;fill-rule:nonzero;stroke:none;stroke-width:0.0103054"
       id="path236" />
    <path
       d="m 42.680515,9.5428183 c -0.068,0 -0.135,-0.003 -0.1989,-0.005 -0.0907,-0.002 -0.17828,-0.009 -0.26175,-0.0206 -0.3339,-0.0474 -0.60596,-0.1669497 -0.77085,-0.3812997 -0.16592,-0.2133199 -0.20611,-0.5028999 -0.12057,-0.8563799 0.0216,-0.0876 0.0515,-0.18034 0.0886,-0.27618 0.0381,-0.0938 0.0855,-0.18756 0.14118,-0.28649 0.11027,-0.1958 0.24836,-0.41016 0.42767,-0.61214 0.0886,-0.10306 0.1855,-0.20817 0.28856,-0.31432 0.10305,-0.10511 0.21847,-0.20301 0.33801,-0.30607 0.12161,-0.1 0.2463,-0.2092 0.38439,-0.30195 0.13604,-0.0958 0.28031,-0.19168 0.42974,-0.28649 0.60286,-0.36584 1.31806,-0.68324 2.10436,-0.89451 0.70695,-0.18343 1.40669,-0.26484 2.05181,-0.26484 0.0742,0 0.14736,10e-4 0.22053,0.003 0.17725,0.009 0.34935,0.0216 0.51527,0.0381 0.16592,0.0124 0.32771,0.0454 0.48229,0.0732 0.15562,0.0299 0.30401,0.0587 0.44623,0.0989 0.14221,0.0412 0.27721,0.0855 0.405,0.13191 0.25661,0.0866 0.48229,0.20508 0.675,0.3205 0.0969,0.0587 0.18447,0.11645 0.26485,0.17931 0.0793,0.0649 0.15046,0.13088 0.21229,0.19684 0.24939,0.26485 0.35657,0.53588 0.31844,0.80382 -0.0381,0.26794 -0.21538,0.50702 -0.48332,0.7121 -0.066,0.0515 -0.13913,0.1 -0.21642,0.14634 -0.0783,0.0495 -0.16076,0.1 -0.24939,0.14531 -0.17519,0.0958 -0.3679,0.17312 -0.5771,0.26484 -0.10409,0.0423 -0.21229,0.0835 -0.32359,0.12161 -0.11233,0.0392 -0.22672,0.0855 -0.3442,0.12366 -0.11851,0.0412 -0.23909,0.0721 -0.36275,0.11645 -0.12366,0.0412 -0.25042,0.0804 -0.37924,0.11646 -0.51527,0.1587 -1.07073,0.30916 -1.65608,0.45961 -0.58328,0.1576799 -1.13977,0.3009199 -1.66638,0.4173699 -0.12985,0.033 -0.25866,0.0608 -0.38748,0.0866 -0.12882,0.0216 -0.24939,0.0546 -0.37203,0.0773 -0.1216,0.0247 -0.24526,0.0412 -0.36068,0.0618 -0.11542,0.0216 -0.22982,0.0402 -0.34214,0.0536 -0.22672,0.0247 -0.43283,0.0515 -0.63276,0.0556 -0.0299,0.001 -0.0598,0.002 -0.0886,0.002"
       style="fill:#ff9cb3;fill-opacity:1;fill-rule:nonzero;stroke:none;stroke-width:0.0103054"
       id="path238" />
    <path
       d="m 57.992275,16.761748 c -0.29267,0 -0.57298,-0.006 -0.84195,-0.0206 -0.18138,-0.004 -0.35966,-0.0216 -0.52764,-0.033 -0.0845,-0.007 -0.16798,-0.0196 -0.24836,-0.0278 -0.0804,-0.007 -0.15973,-0.0175 -0.23599,-0.0309 -0.15561,-0.0278 -0.29783,-0.0515 -0.4318,-0.0886 -0.067,-0.0186 -0.13191,-0.0402 -0.19374,-0.0618 -0.0598,-0.0206 -0.11851,-0.0433 -0.17313,-0.0691 -0.21744,-0.10099 -0.38542,-0.24218 -0.46581,-0.4287 -0.0804,-0.18653 -0.0649,-0.40088 0.0474,-0.63482 0.0289,-0.0587 0.0629,-0.11851 0.10202,-0.17931 0.0412,-0.0598 0.0886,-0.11748 0.14119,-0.17725 0.10511,-0.11749 0.2329,-0.24321 0.38645,-0.35245 0.0763,-0.0567 0.1587,-0.11336 0.24527,-0.16901 0.0866,-0.0557 0.18034,-0.10305 0.27824,-0.15355 0.19581,-0.10408 0.41325,-0.18652 0.64615,-0.26588 0.46787,-0.14736 1.00375,-0.24114 1.56951,-0.24733 0.006,0 0.0124,0 0.0175,0 0.55958,0 1.09134,0.0855 1.55611,0.22569 0.23394,0.0763 0.45241,0.15561 0.64924,0.25661 0.0989,0.0495 0.19272,0.0969 0.28031,0.15046 0.0886,0.0546 0.17107,0.11026 0.24733,0.16591 0.15561,0.10718 0.28443,0.23084 0.39264,0.34729 0.0525,0.0587 0.10099,0.11542 0.14221,0.1752 0.0412,0.0598 0.0752,0.11954 0.10409,0.17725 0.11645,0.2329 0.135,0.44725 0.0567,0.63481 -0.0783,0.18756 -0.2432,0.3308 -0.46065,0.43489 -0.0536,0.0268 -0.11129,0.0505 -0.1721,0.0711 -0.0608,0.0227 -0.12469,0.0453 -0.19168,0.0639 -0.13397,0.0402 -0.27618,0.0649 -0.43076,0.0958 -0.0763,0.0134 -0.15561,0.0247 -0.23496,0.034 -0.0804,0.009 -0.16489,0.0227 -0.24837,0.0309 -0.16797,0.0134 -0.34626,0.034 -0.52763,0.0402 -0.36481,0.0247 -0.7523,0.033 -1.15936,0.034 -0.10821,10e-4 -0.21435,0.002 -0.31844,0.002"
       style="fill:#ff9cb3;fill-opacity:1;fill-rule:nonzero;stroke:none;stroke-width:0.0103054"
       id="path240" />
    <path
       d="m 67.120795,28.272878 c -0.0103,0 -0.0196,0 -0.0299,0 -0.0433,0 -0.0886,-10e-4 -0.13397,-0.005 -0.0927,-0.007 -0.18549,-0.0247 -0.28855,-0.0422 -0.0505,-0.009 -0.10202,-0.0206 -0.15355,-0.034 -0.0515,-0.0123 -0.10614,-0.0237 -0.15973,-0.0381 -0.10718,-0.0319 -0.22054,-0.0608 -0.33389,-0.0989 -0.23085,-0.0701 -0.47096,-0.15458 -0.72242,-0.24939 -0.25145,-0.0917 -0.4895,-0.18447 -0.71004,-0.28134 -0.11026,-0.0443 -0.21538,-0.0979 -0.31637,-0.14324 -0.0505,-0.0237 -0.1,-0.0515 -0.14737,-0.0752 -0.0474,-0.0237 -0.0938,-0.0484 -0.13809,-0.0742 -0.0886,-0.0536 -0.1721,-0.10099 -0.2463,-0.15664 -0.0371,-0.0268 -0.0721,-0.0557 -0.10512,-0.0824 -0.033,-0.0278 -0.0629,-0.0546 -0.0907,-0.0835 -0.11233,-0.11439 -0.18344,-0.24114 -0.19065,-0.37614 -0.007,-0.13501 0.0515,-0.26588 0.17622,-0.38646 0.0309,-0.0299 0.066,-0.0587 0.10408,-0.0876 0.0392,-0.0278 0.0814,-0.0536 0.12779,-0.0783 0.0938,-0.0484 0.20199,-0.0979 0.32256,-0.12985 0.0608,-0.0185 0.12469,-0.034 0.19168,-0.0484 0.067,-0.0144 0.13603,-0.0227 0.20817,-0.0319 0.0989,-0.0123 0.20198,-0.0175 0.30916,-0.0175 0.0505,0 0.10202,0.001 0.15458,0.003 0.32462,0.0175 0.67913,0.0845 1.03157,0.21333 0.35142,0.13191 0.6647,0.31225 0.92234,0.51114 0.12675,0.10306 0.2432,0.20405 0.3411,0.31329 0.0495,0.0546 0.0969,0.10615 0.1381,0.15973 0.0412,0.0546 0.0794,0.10924 0.11336,0.1618 0.0701,0.10305 0.12057,0.21126 0.1587,0.30916 0.0196,0.0484 0.035,0.0958 0.0464,0.14221 0.0113,0.0474 0.0185,0.0917 0.0227,0.135 0.0155,0.17211 -0.0258,0.30917 -0.11851,0.40707 -0.0938,0.0979 -0.23084,0.14736 -0.38954,0.16179 -0.0309,0.002 -0.0618,0.003 -0.0938,0.003"
       style="fill:#ff9cb3;fill-opacity:1;fill-rule:nonzero;stroke:none;stroke-width:0.0103054"
       id="path242" />
    <path
       d="m 68.047255,46.554658 c 0,0 0,0 0,0 v 0 m 0.2803,-1.44791 c 0,-0.001 0,-0.003 0,-0.004 0,0.001 0,0.003 0,0.004 m 10e-4,-0.0154 c 0,-0.003 0,-0.005 0,-0.008 0,0.003 0,0.005 0,0.008 m 0.001,-0.0113 c 0.0433,-0.71829 0.009,-1.61383 -0.13707,-2.64128 0,-0.001 0,-0.001 0,-0.001 0.14634,1.02848 0.18035,1.92299 0.13707,2.64231"
       style="fill:#ed6384;fill-opacity:1;fill-rule:nonzero;stroke:none;stroke-width:0.0103054"
       id="path244" />
    <path
       d="m 35.233835,57.247538 c 0.79145,-1.23974 1.52108,-2.49597 2.18474,-3.76456 1.58085,-0.10409 3.15655,-0.25661 4.71369,-0.45138 v 0 c 0.86771,-0.10923 1.72925,-0.23084 2.58254,-0.36584 -0.88524,1.59219 -1.7849,2.93807 -2.58254,4.01808 v 0 0 c -2.27337,0.28546 -4.58796,0.4792 -6.89843,0.5637 m -5.68034,-0.0268 v 0 h -0.001 c -9.18314,-0.44313 -17.66036,-2.93188 -22.3245899,-8.69569 -0.84401,-1.04394 -1.54478,-2.1291 -2.10951,-3.24414 -0.52558,-1.03466 -0.9347,-2.09406 -1.23562,-3.16788 -0.28443,-1.01714 -0.47199,-2.04665 -0.56886,-3.08028 -0.0525,-0.55752 -0.0773,-1.11505 -0.0783,-1.6736 0,-0.29164 0.007,-0.58432 0.0206,-0.87596 0.0155,-0.32256 0.0392,-0.64615 0.0701,-0.96871 0.10099,0.98829 0.28443,1.97246 0.55649,2.94529 0.30092,1.07485 0.71004,2.13424 1.23562,3.16891 0.56473,1.11401 1.2655,2.2002 2.10951,3.2431 4.6642299,5.76484 13.1414499,8.2536 22.3245899,8.6957 h 0.001 c 0.78733,0.0392 1.58084,0.0618 2.37745,0.0711 -0.72653,1.20985 -1.51902,2.40527 -2.37745,3.58215 m 18.87845,-1.57672 c 0.71417,-1.23047 1.42936,-2.60418 2.09715,-4.11186 1.2552,-0.2937 2.4733,-0.61111 3.64399,-0.94912 0.90069,-0.26073 1.77253,-0.53176 2.61242,-0.81413 -0.79352,1.66741 -1.69627,3.15963 -2.61242,4.46636 v 0 c -1.81272,0.52351 -3.7388,0.99859 -5.74114,1.40875 m 12.59526,-3.85834 c 0.69973,-1.47265 1.28508,-2.97105 1.75295,-4.49007 2.74639,-1.4139 4.62918,-2.92673 5.26297,-4.38494 0.0567,-0.13088 0.10717,-0.28856 0.14942,-0.47199 0.14634,1.02745 0.18035,1.92299 0.13707,2.64127 0,0.001 -0.001,0.002 -0.001,0.003 0,0.003 0,0.005 0,0.008 0,0.004 -10e-4,0.007 -10e-4,0.0113 0,10e-4 0,0.003 0,0.004 -0.0402,0.63069 -0.14222,1.12432 -0.28031,1.44791 0,0 0,0 0,0 -0.002,0.003 -0.003,0.005 -0.004,0.008 v 0 c -0.0814,0.18755 -0.18343,0.37511 -0.30504,0.5637 -0.29885,0.46477 -0.71828,0.93161 -1.24489,1.39844 v 0 c -1.26035,1.11711 -3.13902,2.22597 -5.46598,3.26063"
       style="fill:#6f4c92;fill-opacity:1;fill-rule:nonzero;stroke:none;stroke-width:0.0103054"
       id="path246" />
    <path
       d="m 32.666755,57.294948 c -1.04393,0 -2.08272,-0.0247 -3.11326,-0.0742 v 0 c 0.85844,-1.17688 1.65093,-2.37231 2.37746,-3.58216 0.24423,0.002 0.4895,0.003 0.7358,0.003 0.85329,0 1.70967,-0.0155 2.56708,-0.0474 0.72859,-0.0258 1.45718,-0.0639 2.18474,-0.11129 -0.66366,1.26859 -1.39329,2.52482 -2.18474,3.76456 v 0 c -0.85741,0.0309 -1.71379,0.0474 -2.56708,0.0474"
       style="fill:#edc83b;fill-opacity:1;fill-rule:nonzero;stroke:none;stroke-width:0.0103054"
       id="path248" />
    <path
       d="m 42.132265,56.683838 v 0 c 0.79764,-1.08001 1.6973,-2.42589 2.58254,-4.01808 1.26034,-0.19889 2.50214,-0.42458 3.71612,-0.67397 h 10e-4 c 0.70901,-0.14531 1.40875,-0.29886 2.09715,-0.45962 -0.66779,1.50768 -1.38299,2.88139 -2.09715,4.11185 v 0 c 0,0 0,0 0,0 h -10e-4 c -2.01883,0.41531 -4.11392,0.76466 -6.24816,1.03363 -0.0165,0.002 -0.033,0.004 -0.0505,0.006"
       style="fill:#edc83b;fill-opacity:1;fill-rule:nonzero;stroke:none;stroke-width:0.0103054"
       id="path250" />
    <path
       d="m 54.173095,54.235268 v 0 c 0.91615,-1.30672 1.8189,-2.79894 2.61242,-4.46636 1.53241,-0.51526 2.95559,-1.06454 4.2417,-1.63649 0.61626,-0.27413 1.20264,-0.5534 1.75295,-0.8368 -0.46787,1.51901 -1.05322,3.01742 -1.75295,4.49006 v 0 c -1.991,0.88523 -4.31075,1.71482 -6.85412,2.44959"
       style="fill:#edc83b;fill-opacity:1;fill-rule:nonzero;stroke:none;stroke-width:0.0103054"
       id="path252" />
    <path
       d="m 56.526845,31.074918 c -0.0155,0 -0.0299,0 -0.0453,-0.001 -0.10821,-0.004 -0.22775,-0.0216 -0.3576,-0.0515 -0.12882,-0.0319 -0.26897,-0.0742 -0.42149,-0.12676 -0.15149,-0.0526 -0.31122,-0.11851 -0.48023,-0.19374 -0.17004,-0.0752 -0.35245,-0.15767 -0.54001,-0.25248 -0.18549,-0.0958 -0.38851,-0.19374 -0.59359,-0.30401 -0.15561,-0.0855 -0.31843,-0.17107 -0.48641,-0.26176 -0.27,-1.92196 -0.68222,-3.82639 -1.23562,-5.70301 0.13397,0.1 0.26691,0.19787 0.39367,0.30195 0.14736,0.11851 0.29164,0.23497 0.43489,0.35039 0.14118,0.11748 0.27721,0.23702 0.41118,0.3545 0.067,0.0587 0.13294,0.11748 0.19889,0.17519 0.0649,0.0587 0.12882,0.11955 0.19169,0.17829 0.12572,0.11954 0.24939,0.23702 0.36893,0.35347 0.11954,0.11748 0.2329,0.23703 0.34523,0.35245 0.1113,0.11748 0.22156,0.23084 0.32359,0.34832 0.20508,0.23393 0.40294,0.45653 0.5771,0.68325 0.17622,0.22362 0.34214,0.43901 0.48642,0.65336 0.1453,0.21332 0.28133,0.41325 0.39572,0.61317 0.11439,0.19889 0.21848,0.38542 0.30504,0.56474 0.0845,0.18034 0.15561,0.35038 0.21332,0.50805 0.0577,0.15664 0.0989,0.30504 0.1247,0.4421 0.0268,0.135 0.0402,0.25867 0.0381,0.36893 -0.003,0.21951 -0.0639,0.38646 -0.18344,0.49673 -0.1113,0.10099 -0.26897,0.14942 -0.46477,0.14942 m -8.27936,-4.09213 c -0.53588,-0.26897 -1.08825,-0.54 -1.6571,-0.80794 -0.67707,-0.31535 -1.34383,-0.61214 -1.99307,-0.89245 -0.16179,-0.0701 -0.32256,-0.13913 -0.48229,-0.20714 -0.16077,-0.067 -0.31947,-0.13191 -0.47714,-0.19787 -0.15664,-0.068 -0.31432,-0.12778 -0.4689,-0.19064 -0.15458,-0.0629 -0.3071,-0.12882 -0.45962,-0.18653 -0.15148,-0.0608 -0.30194,-0.12057 -0.45034,-0.18035 -0.14943,-0.0577 -0.29577,-0.11439 -0.44107,-0.17106 -0.0721,-0.0289 -0.14428,-0.0577 -0.21642,-0.0855 -0.0711,-0.0278 -0.14221,-0.0546 -0.21332,-0.0814 -0.14221,-0.0557 -0.28134,-0.10924 -0.4184,-0.16283 0,0 -10e-4,0 -10e-4,-10e-4 -0.35038,-1.29539 -0.76466,-2.58356 -1.24592,-3.86452 0.0824,-0.003 0.16489,-0.005 0.24939,-0.007 0.0897,-0.004 0.18035,-0.005 0.27309,-0.005 0.20096,0 0.4081,0.006 0.62142,0.0124 0.15561,0.003 0.31329,0.0155 0.47508,0.0258 0.16076,0.0124 0.32565,0.0227 0.49157,0.0392 0.16591,0.0175 0.33595,0.0371 0.50702,0.0577 0.0866,0.0113 0.17313,0.0206 0.2597,0.034 0.0876,0.0134 0.17416,0.0268 0.26279,0.0402 0.17622,0.0278 0.35553,0.0567 0.53588,0.0897 0.17931,0.0361 0.36172,0.0721 0.54721,0.10924 0.18447,0.0371 0.36894,0.0835 0.55649,0.12881 0.18756,0.0454 0.37821,0.0907 0.56783,0.14531 0.18962,0.0546 0.3813,0.10924 0.57504,0.16489 0.17107,0.0546 0.34214,0.11026 0.51631,0.16591 0.79866,1.78593 1.53138,3.80373 2.08581,6.02866"
       style="fill:#a48bbd;fill-opacity:1;fill-rule:nonzero;stroke:none;stroke-width:0.0103054"
       id="path254" />
    <path
       d="m 40.968785,23.817858 c -0.13809,-0.0515 -0.27309,-0.10305 -0.40603,-0.15355 -0.13294,-0.0505 -0.26279,-0.10511 -0.39264,-0.15149 -0.25763,-0.0958 -0.50496,-0.19992 -0.74405,-0.28855 -0.23805,-0.0927 -0.4658,-0.18859 -0.68221,-0.27412 -0.21745,-0.0866 -0.42149,-0.17932 -0.61421,-0.26176 -0.19271,-0.0835 -0.37305,-0.17004 -0.53897,-0.25351 -0.16694,-0.0814 -0.31947,-0.16283 -0.45653,-0.24527 -0.13809,-0.0835 -0.26072,-0.16283 -0.36687,-0.24321 -0.10614,-0.0794 -0.1958,-0.16076 -0.26897,-0.24115 -0.14428,-0.16282 -0.21848,-0.32565 -0.21126,-0.48744 0.007,-0.1618 0.0969,-0.31534 0.26382,-0.45859 0.0835,-0.0721 0.18653,-0.14118 0.30813,-0.20714 0.1216,-0.067 0.26176,-0.13088 0.41943,-0.18653 0.1587,-0.0567 0.33492,-0.11027 0.52763,-0.16076 0.19272,-0.0484 0.40295,-0.0876 0.62864,-0.12573 0.22671,-0.0412 0.46786,-0.0649 0.72446,-0.0897 0.18138,-0.0186 0.36894,-0.0289 0.56371,-0.0361 0.48126,1.28096 0.89554,2.56913 1.24592,3.86452"
       style="fill:#ffe47f;fill-opacity:1;fill-rule:nonzero;stroke:none;stroke-width:0.0103054"
       id="path256" />
    <path
       d="m 53.602175,29.883618 c -0.0526,-0.0289 -0.10718,-0.0587 -0.16077,-0.0886 -0.22156,-0.12676 -0.45859,-0.25042 -0.69767,-0.38748 -0.11851,-0.0691 -0.24424,-0.135 -0.3679,-0.20508 -0.1247,-0.0701 -0.25042,-0.14118 -0.37924,-0.21332 -0.12882,-0.0711 -0.2597,-0.14428 -0.39264,-0.21744 -0.066,-0.0371 -0.13191,-0.0752 -0.19889,-0.11233 -0.068,-0.0371 -0.13603,-0.0742 -0.20405,-0.1113 -0.13603,-0.0752 -0.27412,-0.15252 -0.41428,-0.22981 -0.14015,-0.0763 -0.28236,-0.15252 -0.42664,-0.23084 -0.14118,-0.0804 -0.28958,-0.15458 -0.43695,-0.23497 -0.14737,-0.0773 -0.2937,-0.16076 -0.44622,-0.23702 -0.15149,-0.0794 -0.30298,-0.15973 -0.45756,-0.24012 -0.15355,-0.0794 -0.31019,-0.1587 -0.46787,-0.23908 -0.1,-0.0515 -0.20198,-0.10203 -0.30401,-0.15355 -0.55443,-2.22494 -1.28714,-4.24273 -2.08581,-6.02866 0.0216,0.007 0.0433,0.0134 0.0649,0.0206 0.77805,0.26279 1.56951,0.57608 2.3589,0.94398 0.78836,0.37202 1.53654,0.78012 2.23524,1.21088 0.17313,0.10924 0.34523,0.21848 0.51527,0.32668 0.16695,0.11336 0.33183,0.22569 0.49466,0.33699 0.16386,0.11027 0.31947,0.22775 0.47508,0.34214 0.0196,0.0154 0.0402,0.0309 0.0608,0.0453 0.5534,1.87662 0.96562,3.78105 1.23562,5.70301"
       style="fill:#ffe47f;fill-opacity:1;fill-rule:nonzero;stroke:none;stroke-width:0.0103054"
       id="path258" />
    <path
       d="m 19.653105,34.824028 c -0.72138,3.22971 -3.98819,5.27017 -7.29725,4.55498 -3.3090699,-0.71416 -5.4072499,-3.91193 -4.6858699,-7.14267 0.72138,-3.23074 3.9892199,-5.27018 7.2982799,-4.55602 3.30907,0.71417 5.40622,3.91296 4.68484,7.14371"
       style="fill:#ffffff;fill-opacity:1;fill-rule:nonzero;stroke:none;stroke-width:0.0103054"
       id="path260" />
    <path
       d="m 17.674465,34.437568 c -0.48848,2.18887 -2.70414,3.57185 -4.94659,3.0875 -2.24349,-0.48435 -3.6645999,-2.65158 -3.1761199,-4.84148 0.4894999,-2.18989 2.7041299,-3.57288 4.9465899,-3.08852 2.24348,0.48435 3.66563,2.65261 3.17612,4.8425"
       style="fill:#262626;fill-opacity:1;fill-rule:nonzero;stroke:none;stroke-width:0.0103054"
       id="path262" />
    <path
       d="m 18.289695,32.232218 c -0.22775,1.02126 -1.26035,1.66535 -2.30635,1.43966 -1.04599,-0.22569 -1.70966,-1.23665 -1.48088,-2.25791 0.22775,-1.02127 1.26035,-1.66535 2.30635,-1.43967 1.046,0.22569 1.70863,1.23665 1.48088,2.25792"
       style="fill:#ffffff;fill-opacity:1;fill-rule:nonzero;stroke:none;stroke-width:0.0103054"
       id="path264" />
    <path
       d="m 13.200895,42.836468 c -1.17276,1.9065 -3.2565099,3.07101 -5.4196099,3.07101 -0.18447,0 -0.36996,-0.008 -0.55546,-0.0258 -0.80382,-0.0752 -1.50562,-0.29989 -2.10746,-0.60081 -0.52557,-1.03466 -0.93469,-2.09406 -1.23458,-3.16788 0.40912,0.59359 1.56745,1.98688 3.49146,2.16619 1.75089,0.16283 3.4997199,-0.73477 4.4550299,-2.28573 0.2329,-0.37924 0.72859,-0.49672 1.1068,-0.26382 0.37821,0.2329 0.49672,0.72859 0.26382,1.1068"
       style="fill:#262626;fill-opacity:1;fill-rule:nonzero;stroke:none;stroke-width:0.0103054"
       id="path266" />
  </g>
</svg>
