<?xml version="1.0" encoding="UTF-8" standalone="no"?>
<svg
   xmlns:dc="http://purl.org/dc/elements/1.1/"
   xmlns:cc="http://creativecommons.org/ns#"
   xmlns:rdf="http://www.w3.org/1999/02/22-rdf-syntax-ns#"
   xmlns:svg="http://www.w3.org/2000/svg"
   xmlns="http://www.w3.org/2000/svg"
   xmlns:sodipodi="http://sodipodi.sourceforge.net/DTD/sodipodi-0.dtd"
   xmlns:inkscape="http://www.inkscape.org/namespaces/inkscape"
   width="320"
   height="270"
   viewBox="0 0 84.666664 71.4375"
   version="1.1"
   id="svg646"
   inkscape:version="1.0.2-2 (e86c870879, 2021-01-15)"
   sodipodi:docname="fish13.svg">
  <defs
     id="defs640" />
  <sodipodi:namedview
     id="base"
     pagecolor="#ffffff"
     bordercolor="#666666"
     borderopacity="1.0"
     inkscape:pageopacity="0.0"
     inkscape:pageshadow="2"
     inkscape:zoom="0.35"
     inkscape:cx="400"
     inkscape:cy="560"
     inkscape:document-units="px"
     inkscape:current-layer="layer1"
     inkscape:document-rotation="0"
     showgrid="false"
     units="px"
     inkscape:window-width="1267"
     inkscape:window-height="1032"
     inkscape:window-x="647"
     inkscape:window-y="380"
     inkscape:window-maximized="0" />
  <metadata
     id="metadata643">
    <rdf:RDF>
      <cc:Work
         rdf:about="">
        <dc:format>image/svg+xml</dc:format>
        <dc:type
           rdf:resource="http://purl.org/dc/dcmitype/StillImage" />
        <dc:title></dc:title>
      </cc:Work>
    </rdf:RDF>
  </metadata>
  <g
     inkscape:label="Layer 1"
     inkscape:groupmode="layer"
     id="layer1">
    <path
       d="m 63.154578,48.162036 c 1.58548,2.697785 3.63023,5.155767 6.0304,7.251904 1.56194,1.362809 3.42576,2.627129 5.55295,2.697784 3.08639,0.102774 5.70174,-2.440851 6.56032,-5.237128 0.85858,-2.795206 0.85858,-14.51451 0,-17.310787 -0.85858,-2.796273 -3.47393,-5.339899 -6.56032,-5.237128 -2.12719,0.07066 -3.99101,1.334975 -5.55295,2.697784 -2.40017,2.096137 -4.44492,4.554119 -6.0304,7.251904 v 7.885667"
       style="fill:#e793d0;fill-opacity:1;fill-rule:nonzero;stroke:none;stroke-width:0.0107055"
       id="path130" />
    <path
       d="m 69.452618,55.643039 c -0.0899,-0.07601 -0.17878,-0.153091 -0.26764,-0.229099 -1.60261,-1.400278 -3.04678,-2.961139 -4.30146,-4.647255 v 0 c 1.25468,1.686116 2.69885,3.246977 4.30146,4.647255 0.0889,0.07708 0.17772,0.153088 0.26764,0.229099 m 10.84039,-0.67766 c 0.43892,-0.651963 0.7815,-1.362809 1.00524,-2.090783 0.0428,-0.139171 0.0835,-0.299755 0.12205,-0.480676 -0.0385,0.180921 -0.0792,0.341505 -0.12205,0.480676 -0.22267,0.727974 -0.56632,1.43882 -1.00524,2.090783 m 1.12836,-2.577883 c 0,-0.0012 0.001,-0.0021 0.001,-0.0021 0,0.0012 -0.001,0.0012 -0.001,0.0021 m 0.52135,-8.066589 c 0,-0.570605 -0.004,-1.140138 -0.0139,-1.703246 0,-0.0021 0,-0.0043 0,-0.0064 0.01,0.565251 0.0139,1.137995 0.0139,1.709671"
       style="fill:#ededed;fill-opacity:1;fill-rule:nonzero;stroke:none;stroke-width:0.0107055"
       id="path132" />
    <path
       d="m 74.918848,58.114938 c -0.06,0 -0.12097,-0.0012 -0.18092,-0.0032 -2.00728,-0.06637 -3.78012,-1.195804 -5.28531,-2.468685 -0.0899,-0.07601 -0.17878,-0.15202 -0.26764,-0.229099 -1.60261,-1.400278 -3.04678,-2.961139 -4.30146,-4.647255 0.19377,-0.286909 0.37469,-0.58131 0.54384,-0.885347 0.18199,-0.326517 0.34792,-0.662668 0.49887,-1.008455 0.9924,1.185098 2.08329,2.29847 3.25875,3.325127 1.56194,1.362809 3.42576,2.628198 5.55295,2.698853 0.06,0.0021 0.12097,0.0032 0.18092,0.0032 3.00717,0 5.53795,-2.499733 6.3794,-5.240342 0.36613,-1.190449 0.57596,-3.99636 0.63056,-7.042074 0.01,0.563108 0.0139,1.132641 0.0139,1.703246 -0.004,3.228775 -0.17772,6.440425 -0.52029,8.064449 0,0 -10e-4,0.0012 -10e-4,0.0021 0,0.0021 -0.001,0.0043 -0.001,0.0064 -0.0385,0.180921 -0.0792,0.341505 -0.12204,0.480676 -0.22375,0.727974 -0.56632,1.43882 -1.00525,2.090783 -1.214,1.801735 -3.16668,3.149559 -5.37416,3.149559"
       style="fill:#e072c0;fill-opacity:1;fill-rule:nonzero;stroke:none;stroke-width:0.0107055"
       id="path134" />
    <path
       d="m 69.477248,39.509855 c -0.22589,0 -0.43358,-0.04603 -0.61236,-0.149877 -0.27299,-0.158441 -0.4507,-0.441065 -0.52243,-0.843594 -0.0171,-0.100631 -0.0289,-0.207686 -0.0332,-0.322235 -0.002,-0.113476 0.006,-0.231238 0.0203,-0.355421 0.03,-0.248366 0.0803,-0.52778 0.18413,-0.809336 0.0493,-0.142382 0.10599,-0.289048 0.17022,-0.441065 0.0642,-0.150948 0.14559,-0.296544 0.23017,-0.450703 0.0428,-0.07708 0.0867,-0.154159 0.13275,-0.23231 0.0235,-0.03854 0.0471,-0.07815 0.0717,-0.116687 0.0257,-0.03747 0.0525,-0.07494 0.0781,-0.11348 0.10599,-0.152017 0.21946,-0.305108 0.34044,-0.460335 0.49566,-0.605934 1.13799,-1.194733 1.90129,-1.679694 0.76652,-0.478534 1.57585,-0.802912 2.33594,-0.987047 0.1927,-0.04175 0.38005,-0.07815 0.56311,-0.108124 0.046,-0.0064 0.091,-0.01393 0.13596,-0.02142 0.045,-0.0064 0.091,-0.0097 0.13596,-0.01393 0.091,-0.0075 0.17985,-0.01393 0.26657,-0.01927 0.13596,-0.0075 0.26657,-0.01499 0.39503,-0.01499 0.0375,0 0.0749,0 0.11134,0.0021 0.16486,0.0075 0.32223,0.02033 0.47211,0.03747 0.29761,0.02889 0.57167,0.103842 0.80826,0.184135 0.11884,0.04175 0.22803,0.08457 0.32866,0.134889 0.10171,0.05353 0.19377,0.110267 0.27728,0.170216 0.33187,0.237663 0.50958,0.521358 0.5342,0.836101 0.0246,0.314739 -0.1017,0.631624 -0.32117,0.932447 -0.0546,0.07494 -0.11561,0.148806 -0.18199,0.220532 -0.0664,0.07494 -0.13703,0.154159 -0.21304,0.228028 -0.15094,0.153088 -0.32223,0.289049 -0.50423,0.446419 -0.091,0.07494 -0.18627,0.148809 -0.28476,0.219464 -0.0996,0.0728 -0.19913,0.15523 -0.30297,0.228028 -0.0524,0.03747 -0.10491,0.07494 -0.15951,0.110266 -0.0268,0.01927 -0.0535,0.03533 -0.0803,0.0546 -0.0268,0.02033 -0.0535,0.03961 -0.0803,0.05995 -0.1092,0.07815 -0.22054,0.154159 -0.33616,0.228028 -0.45391,0.311529 -0.94422,0.621987 -1.46344,0.944225 -0.51493,0.328656 -1.00738,0.636975 -1.48485,0.911035 -0.11562,0.07173 -0.23231,0.140242 -0.35007,0.203405 -0.03,0.01605 -0.0599,0.03212 -0.0888,0.0471 -0.0289,0.01605 -0.0557,0.03319 -0.0846,0.04924 -0.0557,0.03319 -0.11133,0.06531 -0.16807,0.09528 -0.11134,0.06316 -0.22803,0.11669 -0.33616,0.1745 -0.10705,0.05888 -0.21411,0.112409 -0.32223,0.162723 -0.22053,0.09528 -0.41644,0.191631 -0.61985,0.261215 -0.0996,0.0364 -0.20126,0.06638 -0.29761,0.09314 -0.0942,0.02889 -0.18628,0.05139 -0.27834,0.06852 -0.12633,0.02355 -0.24944,0.0364 -0.3672,0.0364"
       style="fill:#efb7e0;fill-opacity:1;fill-rule:nonzero;stroke:none;stroke-width:0.0107055"
       id="path136" />
    <path
       d="m 25.358828,21.296596 c 0.51921,-3.529602 1.0759,-7.114873 2.58323,-10.335086 1.50627,-3.2191435 4.12162,-6.0796515 7.50242,-6.9960415 3.38186,-0.915321 7.47885,0.603789 8.83631,3.8968 0.53313,1.293224 0.62306,2.7245495 0.96028,4.0841475 0.33616,1.360668 1.02131,2.758806 2.27278,3.340114 1.2761,0.594155 2.70849,0.185205 4.13125,-0.223745 1.50626,-0.433572 3.00075,-0.866074 4.28648,-0.110266 1.32748,0.77936 1.77176,2.511509 1.86169,4.0713 0.0899,1.55872 -0.0321,3.197731 0.63911,4.602293 1.04379,2.18285 3.6752,3.129216 4.93845,5.187883 1.07804,1.753559 0.96136,4.057383 0.19805,5.972597 -0.76223,1.916283 -2.09185,3.529601 -3.40006,5.108661 L 25.358828,21.296596"
       style="fill:#e793d0;fill-opacity:1;fill-rule:nonzero;stroke:none;stroke-width:0.0107055"
       id="path138" />
    <path
       d="m 38.068388,59.691856 c 0.70228,2.318811 1.45167,4.721123 3.08639,6.510012 1.63366,1.788889 4.42673,2.76523 6.54428,1.586556 2.04903,-1.141206 2.85194,-3.863614 4.94808,-4.918105 1.31891,-0.663743 2.89797,-0.528853 4.30253,-0.985978 1.58228,-0.514934 2.88406,-1.818862 3.39686,-3.401136 0.51279,-1.58227 0.2216,-3.402207 -0.75795,-4.745746 l -21.52019,5.954397"
       style="fill:#e793d0;fill-opacity:1;fill-rule:nonzero;stroke:none;stroke-width:0.0107055"
       id="path140" />
    <path
       d="m 39.588568,63.854152 c -0.25265,-0.51172 -0.47532,-1.042713 -0.67658,-1.584413 4.78214,-0.808264 9.49577,-2.028692 14.06809,-3.648434 0.8286,-0.29333 1.66363,-0.612351 2.49331,-0.962423 1.67969,-0.707633 3.33155,-1.539449 4.83246,-2.531848 0.16486,0.4871 0.26121,0.996681 0.28369,1.510544 -2.30703,1.575849 -4.99411,2.759876 -7.60946,3.685902 -4.35714,1.543734 -8.8406,2.72455 -13.39151,3.530672"
       style="fill:#e072c0;fill-opacity:1;fill-rule:nonzero;stroke:none;stroke-width:0.0107055"
       id="path142" />
    <path
       d="m 66.295568,47.906175 c -1.85419,5.608609 -7.74757,8.74318 -13.31549,10.71513 -5.4309,1.923779 -11.05878,3.284449 -16.76695,4.059526 -1.93662,0.263354 -3.88288,0.459267 -5.83342,0.586661 -0.97099,0.06316 -1.95162,0.107055 -2.93545,0.123114 -5.93299,0.102771 -11.9848,-0.766513 -16.78622,-4.141958 C 6.5888795,56.38814 4.1715793,52.404626 3.1470643,48.045349 v -0.0012 c -0.188417,-0.800772 -0.329729,-1.61546 -0.425008,-2.437641 l -0.0022,-0.01927 c -0.08993,-0.775078 -0.139171,-1.55658 -0.149877,-2.342363 -0.114548,-8.544058 4.3806899,-17.479934 11.7396387,-21.828506 6.58924,-3.89573 14.72113,-4.738253 22.22033,-3.202014 7.50027,1.536238 14.40639,5.312067 20.41859,10.049249 0.40681,0.321164 0.81041,0.646612 1.21079,0.980624 2.37662,1.978374 4.58517,4.185848 6.20705,6.796918 0.14131,0.228028 0.27834,0.459267 0.41109,0.693716 1.90344,3.367949 2.73204,7.497059 1.51804,11.171184"
       style="fill:#00289c;fill-opacity:1;fill-rule:nonzero;stroke:none;stroke-width:0.0107055"
       id="path144" />
    <path
       d="m 44.083808,26.655767 c 0,2.593942 -2.10256,4.6965 -4.6965,4.6965 -2.59394,0 -4.6965,-2.102558 -4.6965,-4.6965 0,-2.593942 2.10256,-4.696501 4.6965,-4.696501 2.59394,0 4.6965,2.102559 4.6965,4.696501"
       style="fill:#c4cb1c;fill-opacity:1;fill-rule:nonzero;stroke:none;stroke-width:0.0107055"
       id="path146" />
    <path
       d="m 53.414718,37.37304 c 0,2.593939 -2.10256,4.697571 -4.6965,4.697571 -2.59394,0 -4.69757,-2.103632 -4.69757,-4.697571 0,-2.593943 2.10363,-4.696504 4.69757,-4.696504 2.59394,0 4.6965,2.102561 4.6965,4.696504"
       style="fill:#c4cb1c;fill-opacity:1;fill-rule:nonzero;stroke:none;stroke-width:0.0107055"
       id="path148" />
    <path
       d="m 61.925588,47.586082 c 0,2.595011 -2.10256,4.697572 -4.6965,4.697572 -2.59394,0 -4.6965,-2.102561 -4.6965,-4.697572 0,-2.593943 2.10256,-4.6965 4.6965,-4.6965 2.59394,0 4.6965,2.102557 4.6965,4.6965"
       style="fill:#c4cb1c;fill-opacity:1;fill-rule:nonzero;stroke:none;stroke-width:0.0107055"
       id="path150" />
    <path
       d="m 64.366438,36.041275 c -0.8543,1.17011 -2.23638,1.931271 -3.79617,1.931271 -2.59394,0 -4.6965,-2.102558 -4.6965,-4.697572 0,-1.712878 0.91639,-3.210576 2.28563,-4.030618 2.37662,1.978375 4.58516,4.185848 6.20704,6.796919"
       style="fill:#c4cb1c;fill-opacity:1;fill-rule:nonzero;stroke:none;stroke-width:0.0107055"
       id="path152" />
    <path
       d="m 48.434518,52.377861 c 0,2.593942 -2.10363,4.696503 -4.69757,4.696503 -2.59394,0 -4.6965,-2.102561 -4.6965,-4.696503 0,-2.59394 2.10256,-4.696501 4.6965,-4.696501 2.59394,0 4.69757,2.102561 4.69757,4.696501"
       style="fill:#c4cb1c;fill-opacity:1;fill-rule:nonzero;stroke:none;stroke-width:0.0107055"
       id="path154" />
    <path
       d="m 36.392978,61.392959 c 0,0.446421 -0.0632,0.878923 -0.17985,1.287872 -1.93662,0.263354 -3.88288,0.459267 -5.83342,0.586661 -0.97099,0.06316 -1.95162,0.107055 -2.93545,0.123114 -0.28584,-0.605933 -0.44535,-1.282519 -0.44535,-1.997647 0,-2.59394 2.10256,-4.6965 4.6965,-4.6965 2.59501,0 4.69757,2.10256 4.69757,4.6965"
       style="fill:#c4cb1c;fill-opacity:1;fill-rule:nonzero;stroke:none;stroke-width:0.0107055"
       id="path156" />
    <path
       d="m 31.191178,42.847828 c 1.10909,1.292154 2.261,2.617495 3.83792,3.430041 1.57585,0.812549 3.70303,0.992399 5.14292,-0.0043 0.97206,-0.673375 1.48271,-1.774969 1.6251,-2.869071 0.14238,-1.094102 0.14238,-5.483356 0,-6.577458 -0.14239,-1.094102 -0.65304,-2.195696 -1.6251,-2.869071 -1.43989,-0.997752 -3.56707,-0.816831 -5.14292,-0.0043 -1.57692,0.812549 -2.72883,2.13789 -3.83792,3.430041 v 5.464085"
       style="fill:#e793d0;fill-opacity:1;fill-rule:nonzero;stroke:none;stroke-width:0.0107055"
       id="path158" />
    <path
       d="m 37.782548,46.9566 c -0.94957,0 -1.92699,-0.252651 -2.75345,-0.678731 -0.89069,-0.458193 -1.64436,-1.080182 -2.33165,-1.767477 0.68729,0.687295 1.44202,1.309284 2.33165,1.767477 0.82539,0.42608 1.80388,0.678731 2.75345,0.678731 0.86394,0 1.70432,-0.208758 2.38947,-0.683013 0.2944,-0.203402 0.54598,-0.446418 0.75795,-0.716197 -0.21197,0.269779 -0.46355,0.512795 -0.75795,0.716197 -0.68515,0.474255 -1.52553,0.683013 -2.38947,0.683013 m 3.94712,-3.161334 c 0.0278,-0.129536 0.0503,-0.260143 0.0674,-0.39075 0.0846,-0.648755 0.11883,-2.456912 0.10277,-4.04882 0,-0.0096 0,-0.01821 0,-0.02783 0.016,1.59833 -0.0182,3.423617 -0.10277,4.076654 -0.0171,0.130607 -0.0396,0.261214 -0.0674,0.390751"
       style="fill:#ed6384;fill-opacity:1;fill-rule:nonzero;stroke:none;stroke-width:0.0107055"
       id="path160" />
    <path
       d="m 37.782548,46.9566 c -0.94957,0 -1.92806,-0.252651 -2.75345,-0.678731 -0.88963,-0.458193 -1.64436,-1.080182 -2.33165,-1.767477 -0.531,-0.529922 -1.02238,-1.099455 -1.50627,-1.662564 v -1.576917 c 1.11016,1.293222 2.25993,2.618562 3.83792,3.431112 0.82646,0.426077 1.80388,0.677656 2.75345,0.677656 0.86394,0 1.70432,-0.207687 2.38947,-0.681941 0.97206,-0.673375 1.48271,-1.77497 1.6251,-2.869072 0.0567,-0.437854 0.091,-1.40242 0.10277,-2.47297 0.016,1.591908 -0.0182,3.400065 -0.10277,4.04882 -0.0171,0.130607 -0.0396,0.261214 -0.0674,0.39075 -0.13382,0.629483 -0.39396,1.245048 -0.7997,1.762124 -0.21197,0.269779 -0.46355,0.512795 -0.75795,0.716197 -0.68515,0.474255 -1.52553,0.683013 -2.38947,0.683013"
       style="fill:#e072c0;fill-opacity:1;fill-rule:nonzero;stroke:none;stroke-width:0.0107055"
       id="path162" />
    <path
       d="m 35.026958,37.776636 c -0.0578,0 -0.11562,-0.0032 -0.17022,-0.0086 -0.21732,-0.02249 -0.4036,-0.09207 -0.53848,-0.228028 -0.13275,-0.134889 -0.2002,-0.325445 -0.19377,-0.557755 0.006,-0.231239 0.0867,-0.505299 0.24729,-0.793279 0.15952,-0.287978 0.40039,-0.590943 0.71727,-0.872496 0.31581,-0.280484 0.70763,-0.539557 1.15406,-0.73868 0.44641,-0.198052 0.9014,-0.319024 1.32319,-0.365056 0.1456,-0.01605 0.28798,-0.02355 0.42394,-0.02355 0.25801,0 0.49674,0.02783 0.70763,0.07601 0.32224,0.07601 0.57917,0.19912 0.75474,0.35114 0.17664,0.150949 0.27192,0.328659 0.28156,0.519216 0.0171,0.382187 -0.29226,0.734398 -0.72798,1.056633 -0.21946,0.161652 -0.47211,0.316882 -0.74831,0.46676 -0.2762,0.150948 -0.57381,0.298683 -0.89177,0.438925 -0.63269,0.281553 -1.23862,0.503157 -1.77497,0.614494 -0.20019,0.03961 -0.38968,0.06423 -0.56418,0.06423"
       style="fill:#efb7e0;fill-opacity:1;fill-rule:nonzero;stroke:none;stroke-width:0.0107055"
       id="path164" />
    <path
       d="m 29.021178,30.349164 c 0.16058,0.159509 0.31153,0.327588 0.46355,0.495664 0.14238,0.174498 0.28476,0.350069 0.42286,0.529922 0.13382,0.183064 0.26015,0.369339 0.38968,0.556685 0.12097,0.190559 0.2398,0.384326 0.3565,0.580239 0.45391,0.786852 0.82539,1.626163 1.11122,2.495451 0.57382,1.739643 0.81469,3.595974 0.73976,5.434109 -0.076,1.839204 -0.47105,3.668772 -1.18832,5.354888 -0.35756,0.842525 -0.79755,1.648646 -1.3157,2.394819 -0.13382,0.184135 -0.26764,0.36827 -0.40467,0.547053 -0.14559,0.175568 -0.28691,0.352211 -0.43571,0.522426 -0.15202,0.168076 -0.30939,0.330802 -0.46569,0.492454 -0.16594,0.15523 -0.3308,0.309389 -0.50423,0.454984 0.0621,-0.220532 0.13382,-0.431433 0.20448,-0.641259 0.0653,-0.21304 0.1306,-0.422866 0.20019,-0.628414 0.061,-0.211969 0.12739,-0.417513 0.19163,-0.623058 0.0567,-0.209829 0.11776,-0.415374 0.17878,-0.618779 0.23338,-0.823252 0.43143,-1.640083 0.60058,-2.45584 0.33401,-1.630448 0.53848,-3.259825 0.60807,-4.896694 0.0707,-1.63687 0.002,-3.276953 -0.19377,-4.93095 -0.0996,-0.826466 -0.2291,-1.657214 -0.39289,-2.496522 -0.0439,-0.208759 -0.0878,-0.418585 -0.1274,-0.631625 -0.0471,-0.210897 -0.0964,-0.421798 -0.13917,-0.636978 -0.0525,-0.210897 -0.10063,-0.42608 -0.14881,-0.643398 -0.0525,-0.214112 -0.10598,-0.430362 -0.15094,-0.655177"
       style="fill:#001142;fill-opacity:1;fill-rule:nonzero;stroke:none;stroke-width:0.0107055"
       id="path166" />
    <path
       d="m 32.482258,10.524725 c -0.18627,0 -0.35542,-0.03747 -0.4978,-0.127396 -0.21411,-0.134889 -0.34686,-0.381115 -0.3747,-0.7258317 -0.0278,-0.3447168 0.0578,-0.7836428 0.27942,-1.2696718 0.11134,-0.243015 0.25907,-0.493523 0.44107,-0.747244 0.18413,-0.250508 0.40145,-0.50637 0.65838,-0.747243 0.50958,-0.48603 1.16905,-0.924955 1.93449,-1.235414 0.76758,-0.307248 1.54801,-0.44749 2.25136,-0.449631 0.0193,-0.0011 0.0375,-0.0011 0.0557,-0.0011 0.33187,0 0.64661,0.03426 0.93673,0.0835 0.30725,0.05781 0.58773,0.13596 0.8361,0.234451 0.49674,0.19591 0.86286,0.453913 1.08126,0.72155 0.21946,0.267638 0.29333,0.537416 0.2323,0.782572 -0.061,0.247297 -0.24729,0.449631 -0.50422,0.62413 -0.25694,0.172359 -0.58666,0.324377 -0.95601,0.468901 -0.74295,0.286907 -1.63579,0.577026 -2.55968,0.947436 -0.92281,0.372552 -1.76748,0.7825718 -2.50187,1.0898195 -0.3672,0.150947 -0.70978,0.269778 -1.01488,0.324376 -0.10385,0.01713 -0.20234,0.02676 -0.29762,0.02676"
       style="fill:#efb7e0;fill-opacity:1;fill-rule:nonzero;stroke:none;stroke-width:0.0107055"
       id="path168" />
    <path
       d="m 50.417178,18.036772 c -0.0343,0 -0.0685,-0.0011 -0.1017,-0.0032 -0.20341,-0.01499 -0.36827,-0.07494 -0.46248,-0.19377 -0.0953,-0.119901 -0.10919,-0.289048 -0.0385,-0.504229 0.0171,-0.05353 0.0396,-0.110266 0.0674,-0.169147 0.0289,-0.05781 0.0653,-0.114548 0.10491,-0.174499 0.0824,-0.118831 0.18092,-0.25372 0.31046,-0.373622 0.0632,-0.06209 0.13168,-0.126325 0.20554,-0.190558 0.0728,-0.06316 0.15524,-0.119901 0.23981,-0.179852 0.16914,-0.125254 0.36399,-0.230168 0.57381,-0.336153 0.42394,-0.199122 0.92175,-0.354351 1.45809,-0.423937 0.19912,-0.02462 0.3961,-0.03533 0.58773,-0.03533 0.32759,0 0.64126,0.03212 0.93031,0.08885 0.2291,0.05139 0.44428,0.104914 0.63912,0.184135 0.0974,0.03854 0.19056,0.0728 0.27727,0.11669 0.0867,0.04389 0.16915,0.08886 0.24623,0.133818 0.15416,0.08457 0.28369,0.190558 0.39182,0.285837 0.0535,0.04924 0.10277,0.09528 0.14452,0.143454 0.0418,0.05032 0.0771,0.09956 0.10706,0.147736 0.12097,0.190557 0.1488,0.359704 0.0867,0.497805 -0.0621,0.139172 -0.20768,0.237662 -0.40145,0.301895 -0.0482,0.01606 -0.0996,0.02891 -0.15416,0.04068 -0.0546,0.01392 -0.11348,0.02783 -0.17343,0.03961 -0.12205,0.02355 -0.24944,0.03212 -0.39182,0.05353 -0.0707,0.0086 -0.14239,0.01606 -0.21625,0.02034 -0.0728,0.0054 -0.15095,0.01713 -0.22803,0.02248 -0.15523,0.0075 -0.3201,0.02998 -0.48924,0.03854 -0.33937,0.03319 -0.70228,0.0653 -1.0834,0.110267 -0.38004,0.05032 -0.73975,0.108126 -1.07697,0.159512 -0.16594,0.03212 -0.3308,0.05139 -0.48282,0.08136 -0.0771,0.01392 -0.15523,0.02141 -0.22803,0.03426 -0.0717,0.01392 -0.14345,0.02462 -0.21411,0.03426 -0.14238,0.01392 -0.2687,0.0364 -0.39289,0.04282 -0.061,0.0043 -0.12204,0.0043 -0.17771,0.0054 -0.0193,0.0011 -0.0385,0.0011 -0.0578,0.0011"
       style="fill:#efb7e0;fill-opacity:1;fill-rule:nonzero;stroke:none;stroke-width:0.0107055"
       id="path170" />
    <path
       d="m 62.725288,29.615837 c -0.12526,0 -0.33187,-0.1745 -0.60807,-0.42608 -0.0407,-0.0364 -0.0814,-0.07387 -0.12419,-0.114548 -0.0417,-0.03961 -0.0888,-0.07815 -0.13489,-0.119902 -0.0899,-0.08564 -0.1927,-0.170217 -0.29547,-0.262284 -0.21197,-0.178782 -0.44427,-0.36934 -0.69907,-0.558827 -0.25693,-0.185205 -0.50851,-0.35114 -0.74296,-0.498876 -0.11883,-0.06959 -0.23016,-0.142383 -0.33829,-0.203405 -0.0546,-0.03105 -0.10491,-0.06423 -0.1563,-0.09207 -0.0503,-0.0289 -0.0996,-0.05674 -0.1456,-0.08457 -0.37255,-0.216251 -0.61877,-0.375763 -0.59201,-0.504229 0.0128,-0.06209 0.0931,-0.104914 0.23231,-0.128466 0.0353,-0.0054 0.0739,-0.0096 0.11562,-0.01285 0.0182,-0.0011 0.0364,-0.0022 0.0557,-0.0022 0.0257,0 0.0514,0.0011 0.0792,0.0022 0.0953,0.0032 0.20554,0.0096 0.3233,0.03212 0.0599,0.0096 0.12205,0.02141 0.18628,0.03533 0.0642,0.01392 0.12954,0.03319 0.19805,0.05246 0.13703,0.0364 0.27834,0.09207 0.42715,0.150947 0.29226,0.125255 0.60272,0.295472 0.9014,0.512793 0.29654,0.219463 0.55241,0.463548 0.76009,0.705493 0.10063,0.124183 0.19484,0.241944 0.27192,0.361845 0.0385,0.05995 0.0771,0.11562 0.1092,0.173429 0.0321,0.05781 0.0621,0.113478 0.0899,0.167006 0.0567,0.104914 0.0953,0.208757 0.12847,0.298683 0.015,0.04603 0.03,0.08779 0.0396,0.128465 0.01,0.04175 0.0171,0.07922 0.0214,0.114548 0.0203,0.139174 0.003,0.229099 -0.0525,0.260144 -0.015,0.0086 -0.0321,0.01284 -0.0503,0.01284"
       style="fill:#efb7e0;fill-opacity:1;fill-rule:nonzero;stroke:none;stroke-width:0.0107055"
       id="path172" />
    <path
       d="m 26.542848,63.398099 c -1.84027,0 -3.6859,-0.100631 -5.49513,-0.346858 1.80816,0.246227 3.65272,0.346858 5.49192,0.346858 0.3019,0 0.60379,-0.0021 0.90462,-0.0075 v 0 c 0.29868,-0.0053 0.59844,-0.01284 0.89712,-0.02249 v 0 c -0.29868,0.0096 -0.59737,0.01715 -0.89712,0.02249 -0.29976,0.0053 -0.60058,0.0075 -0.90141,0.0075 m 3.81437,-0.129536 c 0.008,-0.0012 0.015,-0.0012 0.0225,-0.0012 v 0 0 c 0.0417,-0.0032 0.0824,-0.0053 0.12311,-0.0086 -0.0407,0.0032 -0.0814,0.0053 -0.12311,0.0086 -0.008,0 -0.015,0 -0.0225,0.0012 m -9.31057,-0.217322 c -0.0107,-0.0021 -0.0203,-0.0032 -0.031,-0.0043 0.0107,0.0012 0.0203,0.0021 0.031,0.0043 m -0.0385,-0.0053 c -0.009,-0.0012 -0.0171,-0.0032 -0.0246,-0.0043 0.007,0.0012 0.0161,0.0032 0.0246,0.0043 m -0.0343,-0.0053 c -0.008,-0.0012 -0.015,-0.0021 -0.0225,-0.0032 0.007,0.0012 0.015,0.0021 0.0225,0.0032 m -0.0364,-0.0053 c -0.005,0 -0.0128,-0.0012 -0.0182,-0.0021 0.005,0.0012 0.0128,0.0021 0.0182,0.0021 m -0.0353,-0.0043 c -0.005,-0.0012 -0.0107,-0.0021 -0.016,-0.0021 0.005,0 0.0107,0.0012 0.016,0.0021 m -0.0353,-0.0053 c -0.004,0 -0.009,-0.0012 -0.0128,-0.0021 0.004,0.0012 0.009,0.0021 0.0128,0.0021 m -0.0332,-0.0043 c -0.003,-0.0012 -0.007,-0.0012 -0.0118,-0.0021 0.004,0.0012 0.009,0.0012 0.0118,0.0021 m -0.0364,-0.0053 c -0.002,0 -0.005,-0.0012 -0.007,-0.0012 0.002,0 0.005,0.0012 0.007,0.0012 m -0.0343,-0.0053 c -0.002,0 -0.003,0 -0.005,-0.0012 0.002,0.0012 0.003,0.0012 0.005,0.0012 m -0.0375,-0.0053 v 0 0 m -0.0289,-0.0043 c -0.001,0 -0.002,0 -0.004,0 0.002,0 0.003,0 0.004,0 m -0.0985,-0.01499 c -10e-4,0 -0.002,0 -0.002,0 0,0 0.001,0 0.002,0 m 14.52736,-0.164866 h 10e-4 c 0.36291,-0.04389 0.72476,-0.091 1.08661,-0.140242 v 0 c 0.9014,-0.123115 1.80173,-0.259072 2.69885,-0.411092 v 0 c -0.89712,0.15202 -1.79638,0.289048 -2.69885,0.411092 -0.36185,0.04925 -0.72477,0.09635 -1.08768,0.140242 m -15.52939,-0.0021 v 0 0 m -0.0278,-0.0053 c -0.002,0 -0.003,0 -0.004,0 0.001,0 0.002,0 0.004,0 m -0.0278,-0.0053 c -0.003,0 -0.006,-0.0012 -0.009,-0.0012 0.002,0 0.005,0.0012 0.009,0.0012 m -0.031,-0.0053 c -0.003,-0.0012 -0.006,-0.0012 -0.01,-0.0021 0.003,0.0012 0.006,0.0012 0.01,0.0021 m -0.0289,-0.0053 c -0.004,-0.0012 -0.009,-0.0021 -0.0128,-0.0021 0.004,0 0.009,0.0012 0.0128,0.0021 m -0.03,-0.0053 c -0.005,-0.0012 -0.0107,-0.0021 -0.015,-0.0032 0.004,0.0012 0.01,0.0021 0.015,0.0032 m -0.03,-0.0064 c -0.005,-0.0012 -0.0118,-0.0021 -0.0182,-0.0032 0.006,0.0012 0.0128,0.0021 0.0182,0.0032 m -0.0289,-0.0053 c -0.006,-0.0012 -0.0139,-0.0021 -0.0214,-0.0043 0.007,0.0021 0.015,0.0032 0.0214,0.0043 m -0.031,-0.0053 c -0.006,-0.0021 -0.015,-0.0032 -0.0225,-0.0043 0.008,0.0012 0.0161,0.0021 0.0225,0.0043 m -0.03,-0.0064 c -0.009,-0.0012 -0.0161,-0.0032 -0.0246,-0.0043 0.009,0.0012 0.0161,0.0032 0.0246,0.0043 m -0.0278,-0.0053 c -0.01,-0.0021 -0.0193,-0.0032 -0.0289,-0.0053 0.01,0.0021 0.0193,0.0032 0.0289,0.0053 m -0.0321,-0.0064 c -0.009,-0.0012 -0.0193,-0.0032 -0.0289,-0.0053 0.0107,0.0021 0.0193,0.0043 0.0289,0.0053 m -0.03,-0.0053 c -0.01,-0.0021 -0.0203,-0.0043 -0.03,-0.0064 0.01,0.0021 0.0203,0.0043 0.03,0.0064 m -0.031,-0.0064 c -3.06819,-0.607002 -5.98758,-1.694682 -8.55155,-3.496417 -2.7555891,-1.937695 -4.7543082,-4.389253 -6.0753673,-7.125578 1.3210591,2.735253 3.3197782,5.187883 6.0753673,7.125578 2.56397,1.801735 5.48336,2.889415 8.55155,3.496417 M 4.5796407,52.115748 c -0.002,-0.0043 -0.004,-0.0097 -0.007,-0.01499 0.003,0.0053 0.005,0.01071 0.007,0.01499 m -0.0128,-0.02677 c -0.002,-0.0032 -0.004,-0.0075 -0.006,-0.01177 0.002,0.0043 0.004,0.0086 0.006,0.01177 m -0.0139,-0.02783 c -10e-4,-0.0032 -0.003,-0.0064 -0.004,-0.0086 0.002,0.0021 0.003,0.0053 0.004,0.0086 m -0.015,-0.03319 -0.001,-0.0012 0.001,0.0012"
       style="fill:#ededed;fill-opacity:1;fill-rule:nonzero;stroke:none;stroke-width:0.0107055"
       id="path174" />
    <path
       d="m 65.926228,48.872883 v 0 c 0.13703,-0.314743 0.26015,-0.635907 0.36934,-0.966708 0.45499,-1.377798 0.62306,-2.819826 0.55455,-4.260786 0.0685,1.44096 -0.0996,2.882988 -0.55455,4.260786 -0.10919,0.330801 -0.23231,0.651965 -0.36934,0.966708"
       style="fill:#6f4c92;fill-opacity:1;fill-rule:nonzero;stroke:none;stroke-width:0.0107055"
       id="path176" />
    <path
       d="m 65.427358,49.881338 c 0.18199,-0.326516 0.34792,-0.662668 0.49887,-1.008455 v 0 c -0.15095,0.345787 -0.31688,0.681939 -0.49887,1.008455"
       style="fill:#674788;fill-opacity:1;fill-rule:nonzero;stroke:none;stroke-width:0.0107055"
       id="path178" />
    <path
       d="m 2.9961173,47.34949 c 0,-0.0043 -0.0011,-0.0075 -0.0022,-0.01177 0.0011,0.0043 0.0022,0.0075 0.0022,0.01177 m -0.0054,-0.02783 c -0.09956,-0.50316 -0.181994,-1.01167 -0.245156,-1.522322 0.06423,0.510652 0.145595,1.019162 0.245156,1.522322 m -0.245156,-1.523393 c -0.0022,-0.0096 -0.0032,-0.02033 -0.0043,-0.03105 0.0011,0.01071 0.0022,0.02142 0.0043,0.03105 m -0.0064,-0.05138 c -0.0011,-0.0021 -0.0011,-0.0053 -0.0011,-0.0075 0,0.0021 0,0.0053 0.0011,0.0075 m -0.0182,-0.144525 c 0,-0.0053 -0.0011,-0.01071 -0.0011,-0.01499 -0.08993,-0.775077 -0.139172,-1.556579 -0.149877,-2.342363 -0.0096,-0.707632 0.01284,-1.418479 0.06637,-2.128251 -0.05353,0.709772 -0.07494,1.420619 -0.06637,2.128251 0.01071,0.785784 0.05995,1.567286 0.149877,2.342363 l 0.0011,0.01499"
       style="fill:#ededed;fill-opacity:1;fill-rule:nonzero;stroke:none;stroke-width:0.0107055"
       id="path180" />
    <path
       d="m 38.911988,62.269739 v 0 0 0 0"
       style="fill:#6f4c92;fill-opacity:1;fill-rule:nonzero;stroke:none;stroke-width:0.0107055"
       id="path182" />
    <path
       d="m 38.911988,62.269739 v 0 c 4.78214,-0.808264 9.49577,-2.028692 14.06809,-3.648434 0.8286,-0.29333 1.6647,-0.612351 2.49331,-0.962423 -0.82968,0.350072 -1.66471,0.669093 -2.49331,0.962423 -4.57232,1.619742 -9.28595,2.84017 -14.06809,3.648434"
       style="fill:#674788;fill-opacity:1;fill-rule:nonzero;stroke:none;stroke-width:0.0107055"
       id="path184" />
    <path
       d="m 26.539638,63.398099 c -1.8392,0 -3.68376,-0.100631 -5.49192,-0.346858 h -0.001 c -0.0107,-0.0021 -0.0203,-0.0032 -0.031,-0.0043 -0.002,-0.0012 -0.005,-0.0012 -0.007,-0.0012 -0.009,-0.0012 -0.0172,-0.0032 -0.0246,-0.0043 -0.003,0 -0.006,0 -0.01,-0.0012 -0.007,-0.0012 -0.015,-0.0021 -0.0225,-0.0032 -0.005,0 -0.009,-0.0012 -0.0139,-0.0021 -0.005,0 -0.0128,-0.0012 -0.0182,-0.0021 -0.006,-0.0012 -0.0118,-0.0012 -0.0171,-0.0021 -0.005,-0.0012 -0.0107,-0.0021 -0.0161,-0.0021 -0.006,-0.0012 -0.0128,-0.0021 -0.0193,-0.0032 -0.004,0 -0.009,-0.0012 -0.0128,-0.0021 -0.006,0 -0.0128,-0.0012 -0.0203,-0.0021 -0.003,-0.0012 -0.007,-0.0012 -0.0118,-0.0021 -0.009,-0.0012 -0.0161,-0.0021 -0.0246,-0.0032 -0.002,0 -0.005,-0.0012 -0.007,-0.0012 -0.009,-0.0012 -0.0171,-0.0032 -0.0268,-0.0043 -0.002,0 -0.003,0 -0.005,-0.0012 -0.0107,-0.0012 -0.0214,-0.0021 -0.0321,-0.0043 v 0 c -0.01,-0.0012 -0.0193,-0.0032 -0.0289,-0.0043 -10e-4,0 -0.002,0 -0.004,0 -0.0311,-0.0053 -0.0632,-0.0097 -0.0942,-0.01499 -0.001,0 -0.002,0 -0.002,0 -0.33508,-0.05032 -0.66802,-0.105985 -0.99989,-0.167008 v 0 c -0.01,-0.0021 -0.0193,-0.0032 -0.0278,-0.0053 -0.002,0 -0.003,0 -0.004,0 -0.007,-0.0021 -0.0161,-0.0032 -0.0236,-0.0053 -0.003,0 -0.006,-0.0012 -0.009,-0.0012 -0.007,-0.0012 -0.015,-0.0032 -0.0225,-0.0043 -0.003,-0.0012 -0.006,-0.0012 -0.01,-0.0021 -0.006,-0.0012 -0.0128,-0.0021 -0.0193,-0.0032 -0.004,-0.0012 -0.009,-0.0021 -0.0128,-0.0021 -0.006,-0.0012 -0.0118,-0.0021 -0.0172,-0.0032 -0.005,-0.0012 -0.0107,-0.0021 -0.015,-0.0032 -0.005,-0.0012 -0.01,-0.0021 -0.015,-0.0032 -0.005,-0.0012 -0.0118,-0.0021 -0.0182,-0.0032 -0.003,0 -0.007,-0.0012 -0.0107,-0.0021 -0.006,-0.0012 -0.0139,-0.0021 -0.0214,-0.0043 -0.003,0 -0.006,-0.0012 -0.01,-0.0012 -0.006,-0.0021 -0.015,-0.0032 -0.0225,-0.0043 -0.002,-0.0012 -0.005,-0.0012 -0.007,-0.0021 -0.009,-0.0012 -0.0161,-0.0032 -0.0246,-0.0043 -10e-4,0 -0.002,-0.0012 -0.003,-0.0012 -0.01,-0.0021 -0.0193,-0.0032 -0.0289,-0.0053 -10e-4,0 -0.002,0 -0.003,-0.0012 -0.01,-0.0012 -0.0182,-0.0032 -0.0289,-0.0053 0,0 0,0 -10e-4,0 -0.01,-0.0021 -0.0203,-0.0043 -0.03,-0.0064 -0.001,0 0,0 -0.001,0 -3.06819,-0.607001 -5.98758,-1.694682 -8.55155,-3.496417 -2.7555891,-1.937695 -4.7543082,-4.390324 -6.0753673,-7.125578 -10e-4,-0.0021 -0.002,-0.0043 -0.003,-0.0075 -0.002,-0.0043 -0.004,-0.0096 -0.007,-0.01499 -10e-4,-0.0032 -0.003,-0.0075 -0.005,-0.01178 -0.002,-0.0032 -0.004,-0.0075 -0.006,-0.01177 -0.002,-0.0053 -0.004,-0.01071 -0.007,-0.01605 -0.001,-0.0032 -0.002,-0.0064 -0.004,-0.0086 -0.003,-0.0086 -0.008,-0.01605 -0.0107,-0.02461 l -10e-4,-0.0012 C 3.8319103,50.537013 3.3233973,48.966517 3.0000923,47.348917 c 0,-0.0043 -0.0011,-0.0075 -0.0022,-0.01177 -0.0011,-0.0053 -0.0022,-0.01071 -0.0032,-0.01605 -0.09956,-0.50316 -0.180923,-1.01167 -0.245156,-1.522322 v -0.0012 c -0.0022,-0.0097 -0.0032,-0.02033 -0.0043,-0.03105 -0.0011,-0.0064 -0.0022,-0.01284 -0.0022,-0.02033 -0.0011,-0.0021 -0.0011,-0.0053 -0.0011,-0.0075 -0.0064,-0.04603 -0.01178,-0.091 -0.01713,-0.137028 l -0.0011,-0.01499 c -0.08993,-0.775078 -0.139171,-1.55658 -0.149877,-2.342363 -0.0086,-0.707633 0.01285,-1.41848 0.06638,-2.128252 0.02141,-0.28798 0.0471,-0.575957 0.07922,-0.863935 0.0011,0.01284 0.0032,0.0257 0.0043,0.03854 0.613425,5.303502 3.1153008,10.270852 7.9381287,13.661282 4.5584,3.205226 10.24409,4.149451 15.88481,4.149451 0.30083,0 0.60058,-0.0021 0.90141,-0.0075 0.31046,-0.0053 0.62092,-0.01284 0.93138,-0.02355 -0.85109,0.850014 -1.37673,2.024406 -1.37673,3.321913 0,0.714058 0.15951,1.391714 0.44535,1.997648 -0.30083,0.0053 -0.60272,0.0075 -0.90462,0.0075 m 1.80174,-0.02998 c 0.68301,-0.02249 1.36281,-0.05674 2.03832,-0.100631 -0.007,0 -0.015,0 -0.0225,0.0012 -0.66802,0.04282 -1.34033,0.07708 -2.01584,0.09956 v 0 m 2.03832,-0.100631 c 1.58655,-0.103842 3.1699,-0.252648 4.74682,-0.446419 h -0.001 c -1.53624,0.188417 -3.07783,0.335081 -4.62264,0.437855 -0.0407,0.0032 -0.0814,0.0053 -0.12311,0.0086 m 5.83342,-0.58666 c 0.11669,-0.40895 0.17986,-0.841451 0.17986,-1.287872 0,-1.555508 -0.75688,-2.934377 -1.92164,-3.789744 0.58131,-0.06637 1.16262,-0.139171 1.74178,-0.218393 1.76534,-0.239803 3.52211,-0.535276 5.26925,-0.886415 0.66909,0.367199 1.43775,0.575957 2.25457,0.575957 1.61225,0 3.03501,-0.812549 3.88075,-2.050104 1.80601,-0.50637 3.5949,-1.07269 5.36238,-1.698961 1.01167,-0.358636 2.03511,-0.75474 3.0425,-1.197947 0.38433,0.101702 0.789,0.156301 1.20651,0.156301 2.18606,0 4.02313,-1.494487 4.54663,-3.516755 2.05438,-1.635801 3.69125,-3.648433 4.51986,-6.15673 0.11562,-0.35114 0.21411,-0.706565 0.29225,-1.065197 0.14025,0.694787 0.2291,1.398138 0.26229,2.100418 0.0685,1.44096 -0.0996,2.882988 -0.55454,4.260785 -0.1092,0.330802 -0.23231,0.651966 -0.36934,0.966709 -0.15095,0.345787 -0.31688,0.681938 -0.49888,1.008455 -2.02762,3.646295 -5.90515,6.071087 -9.95397,7.777544 -0.82861,0.350072 -1.6647,0.669093 -2.49331,0.962423 -4.57232,1.619742 -9.28595,2.84017 -14.06809,3.648434 v 0 c -0.89712,0.15202 -1.79745,0.287977 -2.69886,0.411092"
       style="fill:#001861;fill-opacity:1;fill-rule:nonzero;stroke:none;stroke-width:0.0107055"
       id="path186" />
    <path
       d="m 57.229088,52.283654 c -0.41752,0 -0.82218,-0.0546 -1.20651,-0.156302 2.05653,-0.904614 4.04882,-2.002997 5.75313,-3.360454 -0.5235,2.022268 -2.36056,3.516756 -4.54662,3.516756"
       style="fill:#8c9014;fill-opacity:1;fill-rule:nonzero;stroke:none;stroke-width:0.0107055"
       id="path188" />
    <path
       d="m 43.736948,57.074364 c -0.81683,0 -1.58548,-0.208758 -2.25458,-0.575957 2.06188,-0.414303 4.10984,-0.905685 6.13532,-1.474147 -0.84573,1.237555 -2.26849,2.050104 -3.88074,2.050104"
       style="fill:#8c9014;fill-opacity:1;fill-rule:nonzero;stroke:none;stroke-width:0.0107055"
       id="path190" />
    <path
       d="m 27.444258,63.390606 v 0 c -0.28584,-0.605933 -0.44535,-1.28359 -0.44535,-1.997647 0,-1.297507 0.52564,-2.471899 1.37673,-3.321914 0.67123,-0.02249 1.34033,-0.05674 2.00407,-0.09956 1.36709,-0.08992 2.73097,-0.211969 4.09163,-0.368267 1.16476,0.855368 1.92164,2.234236 1.92164,3.789744 0,0.446421 -0.0632,0.878923 -0.17985,1.287872 v 0 c -0.36185,0.04925 -0.72369,0.09635 -1.08661,0.140242 -1.57692,0.193771 -3.16026,0.342577 -4.74681,0.446419 v 0 0 c -0.67552,0.04389 -1.35532,0.07815 -2.03833,0.100631 -0.29868,0.0097 -0.59844,0.01715 -0.89712,0.02249"
       style="fill:#8c9014;fill-opacity:1;fill-rule:nonzero;stroke:none;stroke-width:0.0107055"
       id="path192" />
    <path
       d="m 55.622188,36.414898 c -0.0685,0 -0.14024,-0.0021 -0.21304,-0.0075 -0.167,-0.01393 -0.34471,-0.04068 -0.53527,-0.07815 -0.18949,-0.03854 -0.38861,-0.091 -0.59523,-0.155228 -0.20768,-0.06316 -0.42715,-0.134889 -0.65196,-0.220535 -0.15951,-0.06209 -0.32652,-0.125254 -0.49674,-0.194838 -0.65839,-1.798525 -2.38518,-3.082115 -4.41173,-3.082115 -0.50958,0 -0.99882,0.08136 -1.45809,0.230171 -0.0107,-0.0053 -0.0225,-0.01071 -0.0332,-0.01712 -0.16914,-0.08136 -0.33936,-0.165933 -0.50958,-0.252648 -0.68515,-0.339365 -1.39064,-0.688363 -2.11755,-1.040574 -0.72797,-0.347929 -1.44096,-0.683013 -2.1336,-1.007387 -0.10277,-0.04604 -0.20447,-0.09421 -0.30618,-0.141314 1.1669,-0.854299 1.92378,-2.235307 1.92378,-3.791886 0,-1.36388 -0.58024,-2.59073 -1.50841,-3.449311 0.17129,0.03426 0.34365,0.07387 0.51708,0.112408 0.21625,0.05032 0.43678,0.09849 0.65518,0.159512 0.21946,0.05781 0.44106,0.118831 0.66374,0.183064 0.2216,0.06744 0.44535,0.138101 0.67016,0.210898 0.89712,0.297613 1.80709,0.66267 2.7117,1.095172 0.90248,0.437855 1.75463,0.922814 2.54684,1.437748 0.19698,0.130607 0.39075,0.261214 0.58238,0.391822 0.18842,0.134889 0.37469,0.270849 0.55668,0.405738 0.18414,0.132748 0.35971,0.275131 0.53314,0.413232 0.17343,0.139171 0.34579,0.275131 0.50851,0.418585 0.16379,0.142383 0.32545,0.283696 0.48282,0.425008 0.1563,0.142383 0.30617,0.286907 0.45391,0.430361 0.0739,0.07173 0.14667,0.142383 0.21946,0.213039 0.0717,0.07173 0.14132,0.145595 0.20983,0.217322 0.1381,0.144524 0.27192,0.287977 0.40253,0.42929 0.12953,0.144525 0.25158,0.29012 0.37255,0.43143 0.1199,0.143456 0.23766,0.282628 0.34686,0.426081 0.21839,0.286905 0.42715,0.559898 0.60807,0.83824 0.14667,0.219461 0.28476,0.433572 0.40788,0.64447 -0.0985,0.378976 -0.15095,0.776149 -0.15095,1.185098 0,1.006316 0.31582,1.938767 0.8543,2.702067 -0.0364,0.04496 -0.0749,0.08565 -0.11776,0.123115 -0.18949,0.169147 -0.43678,0.265496 -0.72904,0.300822 -0.0824,0.0097 -0.16915,0.01393 -0.25908,0.01393 m -20.93138,-9.747379 c -0.0685,-0.05139 -0.13275,-0.102773 -0.19484,-0.15523 -0.14881,-0.125254 -0.28049,-0.247297 -0.39504,-0.37041 -0.11454,-0.123113 -0.21197,-0.247297 -0.29011,-0.372551 -0.15416,-0.250509 -0.23231,-0.504229 -0.21947,-0.756879 0.0139,-0.25372 0.11883,-0.495664 0.3126,-0.722621 0.0964,-0.113478 0.21519,-0.223745 0.35436,-0.329729 0.14024,-0.107055 0.30189,-0.208757 0.48388,-0.300824 0.182,-0.09314 0.38433,-0.183064 0.607,-0.266567 0.22268,-0.08136 0.46462,-0.153089 0.72584,-0.221604 0.0728,-0.01927 0.14773,-0.03747 0.22481,-0.0546 -0.98597,0.860722 -1.60903,2.127182 -1.60903,3.539237 0,0.0043 0,0.0086 0,0.01178"
       style="fill:#0243ff;fill-opacity:1;fill-rule:nonzero;stroke:none;stroke-width:0.0107055"
       id="path194" />
    <path
       d="m 42.160028,30.447653 c -0.0707,-0.03319 -0.13917,-0.06637 -0.20876,-0.09849 -0.17128,-0.07708 -0.34043,-0.154159 -0.5085,-0.233381 -0.33616,-0.154159 -0.66589,-0.306176 -0.98812,-0.453914 -0.32438,-0.147734 -0.64126,-0.29333 -0.94958,-0.434643 -0.0771,-0.0364 -0.15309,-0.07173 -0.2291,-0.108125 -0.0771,-0.03426 -0.15309,-0.06852 -0.22802,-0.102772 -0.15095,-0.06959 -0.29976,-0.139172 -0.44535,-0.209828 -0.14667,-0.06851 -0.2912,-0.13596 -0.43358,-0.201263 -0.14238,-0.06744 -0.28048,-0.139172 -0.41858,-0.202334 -0.2762,-0.127396 -0.53956,-0.266567 -0.79542,-0.390751 -0.25479,-0.127395 -0.49781,-0.260143 -0.73011,-0.382186 -0.23124,-0.124184 -0.45071,-0.255862 -0.65839,-0.375763 -0.20662,-0.123113 -0.40039,-0.249438 -0.57917,-0.373622 -0.10384,-0.06959 -0.2034,-0.141312 -0.29654,-0.213039 0,-0.0032 0,-0.0075 0,-0.01178 0,-1.412054 0.62306,-2.678514 1.60903,-3.539236 0.19484,-0.04389 0.39825,-0.08029 0.61129,-0.11669 0.29761,-0.05139 0.61021,-0.08457 0.93994,-0.112408 0.3308,-0.03212 0.67445,-0.03961 1.03415,-0.0471 0.046,-0.0011 0.091,-0.0011 0.13703,-0.0011 0.13596,0 0.27299,0.0043 0.41216,0.0075 0.18628,0.0054 0.37684,0.01071 0.56953,0.02248 0.1927,0.01285 0.38862,0.0289 0.58774,0.04603 0.0985,0.0096 0.19912,0.0182 0.29975,0.02891 0.10063,0.01285 0.20233,0.02569 0.30404,0.03854 0.2034,0.02676 0.41109,0.05353 0.61984,0.08671 0.20769,0.03533 0.41859,0.0728 0.6327,0.113478 0.0428,0.0075 0.0846,0.01499 0.12739,0.02355 0.92817,0.858581 1.50841,2.085431 1.50841,3.449311 0,1.556579 -0.75688,2.937586 -1.92378,3.791885"
       style="fill:#e8ec76;fill-opacity:1;fill-rule:nonzero;stroke:none;stroke-width:0.0107055"
       id="path196" />
    <path
       d="m 53.129948,35.758651 c -0.0685,-0.02783 -0.1381,-0.05567 -0.20768,-0.08564 -0.24088,-0.105984 -0.49567,-0.21304 -0.75367,-0.332941 -0.25693,-0.122044 -0.52992,-0.241945 -0.80184,-0.377905 -0.13489,-0.06852 -0.27834,-0.132747 -0.41859,-0.201263 -0.14024,-0.07066 -0.28262,-0.141313 -0.42822,-0.21304 -0.14559,-0.07066 -0.29333,-0.143453 -0.44106,-0.218393 -0.0739,-0.03747 -0.14774,-0.07494 -0.22268,-0.113477 -0.076,-0.03747 -0.15201,-0.07494 -0.22802,-0.112409 -0.3019,-0.153088 -0.61343,-0.310457 -0.93138,-0.471041 -0.31688,-0.159512 -0.64019,-0.323306 -0.97099,-0.490311 -0.15523,-0.07601 -0.31046,-0.15523 -0.46569,-0.23552 0.45927,-0.148806 0.94851,-0.230171 1.45809,-0.230171 2.02655,0 3.75334,1.28359 4.41173,3.082115"
       style="fill:#e8ec76;fill-opacity:1;fill-rule:nonzero;stroke:none;stroke-width:0.0107055"
       id="path198" />
    <path
       d="m 56.728068,35.977041 c -0.53848,-0.7633 -0.8543,-1.695751 -0.8543,-2.702067 0,-0.40895 0.0525,-0.806122 0.15095,-1.185098 0.031,0.05353 0.061,0.107055 0.0899,0.160583 0.1456,0.263354 0.27942,0.512792 0.38755,0.761161 0.10919,0.246227 0.20447,0.479605 0.27941,0.704422 0.0728,0.226957 0.12953,0.441065 0.16915,0.64126 0.0417,0.200191 0.0632,0.389679 0.0664,0.565248 0.004,0.176642 -0.007,0.337223 -0.0364,0.483889 -0.0439,0.226957 -0.12847,0.417514 -0.25265,0.570602"
       style="fill:#e8ec76;fill-opacity:1;fill-rule:nonzero;stroke:none;stroke-width:0.0107055"
       id="path200" />
    <path
       d="m 20.860378,38.531373 c -0.77722,3.478215 -4.29398,5.673914 -7.85677,4.904187 -3.56171,-0.768653 -5.8194988,-4.21154 -5.0433594,-7.688687 0.7772197,-3.478215 4.2939794,-5.673912 7.8567694,-4.905258 3.56172,0.769727 5.8195,4.212613 5.04336,7.689758"
       style="fill:#ffffff;fill-opacity:1;fill-rule:nonzero;stroke:none;stroke-width:0.0107055"
       id="path202" />
    <path
       d="m 18.729978,38.115999 c -0.52671,2.357351 -2.91082,3.845414 -5.32491,3.324059 -2.41516,-0.521358 -3.94605,-2.855158 -3.4193303,-5.212509 0.5267003,-2.357348 2.9108203,-3.845411 5.3259803,-3.324056 2.41409,0.521358 3.94497,2.855158 3.41826,5.212506"
       style="fill:#262626;fill-opacity:1;fill-rule:nonzero;stroke:none;stroke-width:0.0107055"
       id="path204" />
    <path
       d="m 19.392648,35.74152 c -0.24622,1.099455 -1.35745,1.793171 -2.48367,1.550158 -1.12622,-0.243016 -1.84027,-1.330694 -1.59405,-2.430149 0.24516,-1.099455 1.35746,-1.793171 2.4826,-1.550155 1.12622,0.243013 1.84028,1.331762 1.59512,2.430146"
       style="fill:#ffffff;fill-opacity:1;fill-rule:nonzero;stroke:none;stroke-width:0.0107055"
       id="path206" />
    <path
       d="m 11.419198,46.02415 c -1.1123,1.864897 -3.1078094,2.999678 -5.1557682,2.999678 -0.29333,0 -0.5877297,-0.02249 -0.8789197,-0.07066 C 4.4916707,48.807573 3.7497843,48.461786 3.1470643,48.044273 v 0 c -0.188417,-0.800772 -0.329729,-1.615461 -0.425008,-2.437642 0.466758,0.664812 1.40028,1.672199 2.8958338,1.915212 1.7546291,0.285838 3.5852679,-0.614494 4.5551879,-2.24066 0.20662,-0.343645 0.6509,-0.456054 0.99454,-0.251577 0.34472,0.206615 0.45606,0.650891 0.25158,0.994539"
       style="fill:#262626;fill-opacity:1;fill-rule:nonzero;stroke:none;stroke-width:0.0107055"
       id="path208" />
  </g>
</svg>
