<?xml version="1.0" encoding="UTF-8" standalone="no"?>
<svg
   xmlns:dc="http://purl.org/dc/elements/1.1/"
   xmlns:cc="http://creativecommons.org/ns#"
   xmlns:rdf="http://www.w3.org/1999/02/22-rdf-syntax-ns#"
   xmlns:svg="http://www.w3.org/2000/svg"
   xmlns="http://www.w3.org/2000/svg"
   xmlns:sodipodi="http://sodipodi.sourceforge.net/DTD/sodipodi-0.dtd"
   xmlns:inkscape="http://www.inkscape.org/namespaces/inkscape"
   width="320"
   height="280"
   viewBox="0 0 84.666664 74.083332"
   version="1.1"
   id="svg646"
   inkscape:version="1.0.2-2 (e86c870879, 2021-01-15)"
   sodipodi:docname="fish03.svg">
  <defs
     id="defs640" />
  <sodipodi:namedview
     id="base"
     pagecolor="#ffffff"
     bordercolor="#666666"
     borderopacity="1.0"
     inkscape:pageopacity="0.0"
     inkscape:pageshadow="2"
     inkscape:zoom="0.35"
     inkscape:cx="400"
     inkscape:cy="560"
     inkscape:document-units="px"
     inkscape:current-layer="layer1"
     inkscape:document-rotation="0"
     showgrid="false"
     units="px"
     inkscape:window-width="1267"
     inkscape:window-height="1032"
     inkscape:window-x="269"
     inkscape:window-y="103"
     inkscape:window-maximized="0" />
  <metadata
     id="metadata643">
    <rdf:RDF>
      <cc:Work
         rdf:about="">
        <dc:format>image/svg+xml</dc:format>
        <dc:type
           rdf:resource="http://purl.org/dc/dcmitype/StillImage" />
        <dc:title></dc:title>
      </cc:Work>
    </rdf:RDF>
  </metadata>
  <g
     inkscape:label="Layer 1"
     inkscape:groupmode="layer"
     id="layer1">
    <path
       d="m 64.245341,47.986312 c 1.585509,2.697809 3.630275,5.155815 6.030479,7.251975 1.561949,1.362829 3.425791,2.627158 5.552996,2.697808 3.086428,0.102819 5.701798,-2.44087 6.560386,-5.237178 0.858587,-2.795233 0.858587,-14.514661 0,-17.310954 -0.858588,-2.796309 -3.473958,-5.339967 -6.560386,-5.237194 -2.127205,0.0707 -3.991047,1.334995 -5.552996,2.697824 -2.400204,2.096144 -4.44497,4.554166 -6.030479,7.251974 v 7.885745"
       style="fill:#77529d;fill-opacity:1;fill-rule:nonzero;stroke:none;stroke-width:0.0107056"
       id="path138" />
    <path
       d="m 70.543456,55.467392 c -0.08991,-0.07608 -0.178787,-0.153075 -0.267636,-0.229105 -1.602631,-1.400298 -3.046823,-2.961172 -4.301516,-4.647303 v 0 c 1.254693,1.686131 2.698885,3.247005 4.301516,4.647303 0.08883,0.07715 0.177712,0.153074 0.267636,0.229105 m 10.840491,-0.677664 c 0.438939,-0.651967 0.781513,-1.362829 1.005255,-2.090811 0.04288,-0.139089 0.08345,-0.299757 0.122029,-0.48068 -0.03857,0.180923 -0.07915,0.341514 -0.122029,0.48068 -0.222681,0.727982 -0.566316,1.438844 -1.005255,2.090811 m 1.128376,-2.577916 c 0,-0.0012 0.0012,-0.0015 0.0012,-0.0015 0,0.0012 -0.0012,0.0012 -0.0012,0.0015 m 0.521362,-8.066668 c 0,-0.570619 -0.0046,-1.140148 -0.01383,-1.703267 0,-0.0015 0,-0.0046 0,-0.0061 0.0092,0.565255 0.01383,1.137996 0.01383,1.709675"
       style="fill:#ededed;fill-opacity:1;fill-rule:nonzero;stroke:none;stroke-width:0.0107056"
       id="path140" />
    <path
       d="m 76.00974,57.939308 c -0.05994,0 -0.120955,-0.0012 -0.180924,-0.0031 -2.007296,-0.06639 -3.780154,-1.195813 -5.28536,-2.468704 -0.08991,-0.07608 -0.178787,-0.151998 -0.267636,-0.229104 -1.602631,-1.400299 -3.046823,-2.961172 -4.301516,-4.647302 0.193773,-0.286908 0.374697,-0.581317 0.543847,-0.885361 0.182,-0.326514 0.347923,-0.66268 0.498877,-1.008466 0.992406,1.185117 2.083312,2.298492 3.258792,3.32517 1.561949,1.362814 3.425791,2.628218 5.552996,2.698869 0.05994,0.0015 0.120954,0.0031 0.180924,0.0031 3.007201,0 5.538011,-2.499764 6.379462,-5.240406 0.366135,-1.190451 0.575968,-3.996395 0.630558,-7.042142 0.0092,0.563119 0.01383,1.132647 0.01383,1.703266 -0.0046,3.228807 -0.177712,6.440493 -0.520301,8.064533 0,0 -0.0012,0.0012 -0.0012,0.0015 0,0.0015 -0.0012,0.0046 -0.0012,0.0061 -0.03857,0.180923 -0.07915,0.341498 -0.12203,0.48068 -0.223741,0.727982 -0.566316,1.438828 -1.005254,2.090795 -1.214011,1.801751 -3.166716,3.149595 -5.374208,3.149595"
       style="fill:#6f4c92;fill-opacity:1;fill-rule:nonzero;stroke:none;stroke-width:0.0107056"
       id="path142" />
    <path
       d="m 70.568076,39.334039 c -0.225892,0 -0.433574,-0.04611 -0.612361,-0.149847 -0.272984,-0.158438 -0.45071,-0.441074 -0.522438,-0.843603 -0.01706,-0.100667 -0.02889,-0.207681 -0.0332,-0.322242 -0.0015,-0.113422 0.0061,-0.231241 0.02028,-0.355422 0.02997,-0.248363 0.08023,-0.527786 0.184136,-0.809346 0.04918,-0.142316 0.106046,-0.289044 0.170212,-0.441059 0.06424,-0.150923 0.145544,-0.296544 0.23018,-0.45071 0.04288,-0.07715 0.08668,-0.154166 0.132788,-0.232318 0.02352,-0.03857 0.04718,-0.07823 0.07177,-0.116651 0.02566,-0.0375 0.05241,-0.075 0.07807,-0.113422 0.106046,-0.152 0.219469,-0.305106 0.340439,-0.460347 0.49568,-0.605937 1.138011,-1.194738 1.901326,-1.679706 0.766513,-0.478544 1.575858,-0.802922 2.335962,-0.987058 0.192696,-0.0418 0.380043,-0.07807 0.563104,-0.108044 0.04611,-0.0061 0.09098,-0.01383 0.136015,-0.02137 0.04503,-0.0061 0.09098,-0.0092 0.136016,-0.01383 0.09098,-0.0077 0.179863,-0.01383 0.266575,-0.01921 0.136015,-0.0077 0.266574,-0.01537 0.395028,-0.01537 0.0375,0 0.075,0 0.111425,0.0015 0.164863,0.0077 0.322242,0.02028 0.47212,0.0375 0.297604,0.0289 0.57168,0.103893 0.808269,0.18415 0.118803,0.0418 0.22803,0.08453 0.328666,0.13494 0.101743,0.05348 0.193772,0.110349 0.277272,0.170227 0.331878,0.237666 0.509589,0.521361 0.534211,0.836103 0.02459,0.314741 -0.101743,0.631634 -0.321166,0.932467 -0.05456,0.075 -0.115575,0.148771 -0.182,0.220529 -0.06639,0.075 -0.137091,0.154166 -0.213045,0.228029 -0.150923,0.153075 -0.322241,0.289045 -0.504225,0.446423 -0.09098,0.075 -0.186287,0.148772 -0.284772,0.219469 -0.09959,0.07285 -0.199135,0.155226 -0.302968,0.22803 -0.05241,0.0375 -0.10497,0.075 -0.159515,0.110195 -0.02674,0.01921 -0.05348,0.03535 -0.08023,0.05456 -0.02674,0.02029 -0.05348,0.03965 -0.08037,0.05994 -0.109273,0.07807 -0.220529,0.154151 -0.33615,0.228029 -0.453923,0.31153 -0.944239,0.621998 -1.463465,0.944239 -0.514937,0.32865 -1.00739,0.636968 -1.484858,0.911043 -0.115574,0.07177 -0.232317,0.140319 -0.350074,0.203409 -0.02997,0.01599 -0.05994,0.03212 -0.08883,0.04703 -0.02889,0.01599 -0.05563,0.03319 -0.08453,0.04918 -0.05563,0.0332 -0.111272,0.06532 -0.168076,0.09529 -0.111271,0.06317 -0.228029,0.11665 -0.33615,0.174499 -0.107121,0.05886 -0.21412,0.112347 -0.322241,0.162727 -0.220529,0.09529 -0.416453,0.191636 -0.619846,0.261227 -0.09959,0.03642 -0.201272,0.06639 -0.297621,0.09314 -0.09421,0.02889 -0.186287,0.05134 -0.278348,0.06855 -0.126332,0.02351 -0.249438,0.03642 -0.367194,0.03642"
       style="fill:#a48bbd;fill-opacity:1;fill-rule:nonzero;stroke:none;stroke-width:0.0107056"
       id="path144" />
    <path
       d="m 26.449217,21.120603 c 0.51921,-3.529639 1.075905,-7.114945 2.583263,-10.335192 1.506268,-3.2191854 4.121652,-6.0797206 7.502489,-6.9961106 3.381897,-0.9153308 7.478928,0.603785 8.836393,3.8968339 0.53315,1.2932378 0.623074,2.7245817 0.9603,4.0841827 0.33615,1.360692 1.021314,2.758839 2.272795,3.340155 1.276116,0.594164 2.708521,0.185211 4.131304,-0.223742 1.506267,-0.433589 3.000776,-0.866088 4.286514,-0.110349 1.327496,0.779361 1.771783,2.511537 1.861707,4.071335 0.08991,1.558736 -0.03212,3.197761 0.639118,4.602347 1.0438,2.182872 3.675245,3.129247 4.938498,5.187938 1.078057,1.753569 0.96136,4.057425 0.19806,5.97266 -0.762239,1.916297 -2.091871,3.529624 -3.40011,5.10871 L 26.449217,21.120603"
       style="fill:#77529d;fill-opacity:1;fill-rule:nonzero;stroke:none;stroke-width:0.0107056"
       id="path146" />
    <path
       d="m 39.158899,59.516242 c 0.702301,2.31884 1.451692,4.72118 3.086428,6.510083 1.633677,1.788903 4.426773,2.765263 6.544342,1.58657 2.049053,-1.141208 2.851974,-3.863654 4.948134,-4.91815 1.318919,-0.663755 2.898004,-0.528861 4.302576,-0.985996 1.582297,-0.514937 2.884095,-1.818873 3.396897,-3.40117 0.512785,-1.582283 0.221605,-3.40223 -0.757967,-4.745786 l -21.52041,5.954449"
       style="fill:#77529d;fill-opacity:1;fill-rule:nonzero;stroke:none;stroke-width:0.0107056"
       id="path148" />
    <path
       d="m 40.679106,63.678591 c -0.25265,-0.511726 -0.475331,-1.042724 -0.676603,-1.584435 4.782195,-0.80827 9.495875,-2.028704 14.068237,-3.648472 0.828619,-0.293331 1.663662,-0.612361 2.493341,-0.962435 1.679705,-0.707634 3.331578,-1.539465 4.832498,-2.531871 0.164877,0.487105 0.261226,0.996695 0.283711,1.510556 -2.307068,1.575873 -4.994164,2.759915 -7.60955,3.685942 -4.357181,1.543752 -8.84068,2.724581 -13.391634,3.530715"
       style="fill:#6f4c92;fill-opacity:1;fill-rule:nonzero;stroke:none;stroke-width:0.0107056"
       id="path150" />
    <path
       d="m 67.386376,47.730449 c -1.854221,5.608663 -7.747655,8.743273 -13.315636,10.715235 -5.43095,1.923797 -11.058885,3.284489 -16.767122,4.059562 -1.936629,0.263363 -3.882911,0.459271 -5.83348,0.58668 -0.970997,0.06317 -1.951629,0.106968 -2.935474,0.123105 -5.93304,0.102819 -11.984928,-0.766512 -16.78638,-4.142 C 7.6790861,56.212496 5.2617451,52.228949 4.2372191,47.869616 v -0.0012 c -0.188408,-0.800769 -0.329726,-1.615464 -0.425014,-2.437658 l -0.0015,-0.01921 c -0.08991,-0.775088 -0.139243,-1.556601 -0.149847,-2.342386 -0.114501,-8.544179 4.38074,-17.480148 11.7397589,-21.82877 6.589311,-3.895774 14.721282,-4.738301 22.220559,-3.202049 7.500352,1.536252 14.406525,5.312118 20.418792,10.049359 0.406816,0.321166 0.810421,0.646619 1.210814,0.980634 2.376642,1.978386 4.58521,4.185878 6.207114,6.796976 0.141241,0.228045 0.278332,0.459271 0.411089,0.693724 1.903448,3.367989 2.732067,7.497141 1.518056,11.17131"
       style="fill:#ff6b8e;fill-opacity:1;fill-rule:nonzero;stroke:none;stroke-width:0.0107056"
       id="path152" />
    <path
       d="m 45.174378,26.479827 c 0,2.593961 -2.102568,4.696545 -4.696544,4.696545 -2.59396,0 -4.696544,-2.102584 -4.696544,-4.696545 0,-2.593976 2.102584,-4.69656 4.696544,-4.69656 2.593976,0 4.696544,2.102584 4.696544,4.69656"
       style="fill:#ffd740;fill-opacity:1;fill-rule:nonzero;stroke:none;stroke-width:0.0107056"
       id="path154" />
    <path
       d="m 54.50539,37.197199 c 0,2.593975 -2.102583,4.697619 -4.696543,4.697619 -2.593976,0 -4.697621,-2.103644 -4.697621,-4.697619 0,-2.593961 2.103645,-4.696545 4.697621,-4.696545 2.59396,0 4.696543,2.102584 4.696543,4.696545"
       style="fill:#ffd740;fill-opacity:1;fill-rule:nonzero;stroke:none;stroke-width:0.0107056"
       id="path156" />
    <path
       d="m 63.016345,47.410344 c 0,2.595037 -2.102583,4.697621 -4.696543,4.697621 -2.593977,0 -4.69656,-2.102584 -4.69656,-4.697621 0,-2.59396 2.102583,-4.696543 4.69656,-4.696543 2.59396,0 4.696543,2.102583 4.696543,4.696543"
       style="fill:#ffd740;fill-opacity:1;fill-rule:nonzero;stroke:none;stroke-width:0.0107056"
       id="path158" />
    <path
       d="m 65.457231,35.865431 c -0.854315,1.170116 -2.236401,1.931281 -3.796214,1.931281 -2.593976,0 -4.696544,-2.102568 -4.696544,-4.69762 0,-1.712888 0.916391,-3.21061 2.285644,-4.030652 2.376642,1.978386 4.58521,4.185893 6.207114,6.796991"
       style="fill:#ffd740;fill-opacity:1;fill-rule:nonzero;stroke:none;stroke-width:0.0107056"
       id="path160" />
    <path
       d="m 49.525135,52.202176 c 0,2.593976 -2.103644,4.69656 -4.697619,4.69656 -2.593961,0 -4.696545,-2.102584 -4.696545,-4.69656 0,-2.59396 2.102584,-4.696543 4.696545,-4.696543 2.593975,0 4.697619,2.102583 4.697619,4.696543"
       style="fill:#ffd740;fill-opacity:1;fill-rule:nonzero;stroke:none;stroke-width:0.0107056"
       id="path162" />
    <path
       d="m 37.483481,61.217372 c 0,0.446422 -0.06317,0.878921 -0.179863,1.287874 -1.936629,0.263363 -3.882911,0.459271 -5.83348,0.58668 -0.970997,0.06317 -1.951629,0.106968 -2.935474,0.123105 -0.285832,-0.605937 -0.445347,-1.282525 -0.445347,-1.997659 0,-2.593976 2.102568,-4.696559 4.696544,-4.696559 2.595036,0 4.69762,2.102583 4.69762,4.696559"
       style="fill:#ffd740;fill-opacity:1;fill-rule:nonzero;stroke:none;stroke-width:0.0107056"
       id="path164" />
    <path
       d="m 32.281621,42.672043 c 1.109102,1.292177 2.261022,2.617521 3.837971,3.430079 1.575858,0.812558 3.703062,0.992405 5.142966,-0.0046 0.972073,-0.673391 1.482722,-1.774994 1.625116,-2.869111 0.142316,-1.094102 0.142316,-5.483405 0,-6.577522 -0.142317,-1.094102 -0.653043,-2.195719 -1.625116,-2.869096 -1.439904,-0.997754 -3.567108,-0.816846 -5.142966,-0.0046 -1.576949,0.812558 -2.728869,2.137901 -3.837971,3.430063 v 5.464148"
       style="fill:#77529d;fill-opacity:1;fill-rule:nonzero;stroke:none;stroke-width:0.0107056"
       id="path166" />
    <path
       d="m 38.873067,46.780862 c -0.949588,0 -1.927009,-0.25265 -2.753475,-0.67874 -0.890709,-0.458196 -1.644389,-1.080194 -2.331689,-1.767494 0.6873,0.6873 1.44204,1.309298 2.331689,1.767494 0.82539,0.42609 1.803887,0.67874 2.753475,0.67874 0.863936,0 1.704327,-0.208757 2.389491,-0.683012 0.294409,-0.203409 0.545983,-0.446423 0.757952,-0.71621 -0.211969,0.269787 -0.463543,0.512801 -0.757952,0.71621 -0.685164,0.474255 -1.525555,0.683012 -2.389491,0.683012 m 3.947153,-3.161368 c 0.02782,-0.12956 0.05025,-0.260151 0.06747,-0.390756 0.08453,-0.648755 0.118803,-2.45693 0.102819,-4.04885 0,-0.0092 0,-0.01829 0,-0.02782 0.01599,1.598342 -0.01813,3.423654 -0.102819,4.076697 -0.01706,0.130636 -0.03965,0.261211 -0.06747,0.390756"
       style="fill:#ed6384;fill-opacity:1;fill-rule:nonzero;stroke:none;stroke-width:0.0107056"
       id="path168" />
    <path
       d="m 38.873067,46.780862 c -0.949588,0 -1.928085,-0.25265 -2.753475,-0.67874 -0.889649,-0.458196 -1.644389,-1.080194 -2.331689,-1.767494 -0.530998,-0.529922 -1.022391,-1.099466 -1.506282,-1.662585 v -1.576934 c 1.110178,1.293238 2.259961,2.618597 3.837971,3.431155 0.826466,0.426074 1.803887,0.677664 2.753475,0.677664 0.863936,0 1.704327,-0.207696 2.389491,-0.681952 0.972073,-0.673377 1.482722,-1.774978 1.625116,-2.869096 0.05672,-0.437862 0.09098,-1.402434 0.102818,-2.472992 0.01599,1.59192 -0.01813,3.400095 -0.102818,4.04885 -0.01706,0.130636 -0.03965,0.261227 -0.06747,0.390756 -0.133864,0.629498 -0.393969,1.245057 -0.79971,1.762146 -0.211969,0.269787 -0.463543,0.512801 -0.757951,0.71621 -0.685165,0.474255 -1.525555,0.683012 -2.389492,0.683012"
       style="fill:#6f4c92;fill-opacity:1;fill-rule:nonzero;stroke:none;stroke-width:0.0107056"
       id="path170" />
    <path
       d="m 36.11744,37.600803 c -0.05779,0 -0.115575,-0.0031 -0.170212,-0.0092 -0.217332,-0.02244 -0.403604,-0.09206 -0.538497,-0.228029 -0.132788,-0.134939 -0.200197,-0.325438 -0.193773,-0.557756 0.0061,-0.231241 0.08668,-0.505301 0.247303,-0.793285 0.159515,-0.287984 0.400392,-0.590952 0.717269,-0.872512 0.315818,-0.280484 0.70765,-0.539558 1.154072,-0.738679 0.446423,-0.198061 0.901406,-0.31903 1.323208,-0.365059 0.145544,-0.01599 0.287984,-0.02351 0.423938,-0.02351 0.258015,0 0.496741,0.02782 0.707649,0.07608 0.322241,0.07608 0.579165,0.199121 0.75474,0.351151 0.17665,0.150923 0.271923,0.32865 0.28156,0.51921 0.01706,0.382195 -0.292257,0.734406 -0.727983,1.056647 -0.219454,0.161652 -0.472119,0.316894 -0.748315,0.466771 -0.276212,0.150924 -0.573816,0.298681 -0.891785,0.438924 -0.632695,0.281559 -1.238632,0.503164 -1.774979,0.614497 -0.200196,0.03965 -0.389696,0.06424 -0.564195,0.06424"
       style="fill:#a48bbd;fill-opacity:1;fill-rule:nonzero;stroke:none;stroke-width:0.0107056"
       id="path172" />
    <path
       d="m 30.111597,30.173254 c 0.160591,0.159515 0.31153,0.327589 0.46356,0.49568 0.142316,0.174499 0.284756,0.350059 0.422861,0.529922 0.133864,0.18306 0.260151,0.369347 0.389696,0.556696 0.120954,0.190559 0.239803,0.384316 0.356484,0.580239 0.453922,0.786861 0.825406,1.626176 1.111254,2.495476 0.573815,1.739661 0.814694,3.596003 0.739754,5.434163 -0.07608,1.839221 -0.471043,3.668805 -1.188329,5.354936 -0.357559,0.842543 -0.797558,1.648676 -1.315722,2.394856 -0.133864,0.184135 -0.267636,0.368271 -0.404665,0.547058 -0.145545,0.175559 -0.286909,0.352211 -0.435711,0.522422 -0.151999,0.168075 -0.309393,0.330802 -0.465695,0.492468 -0.165939,0.155227 -0.330802,0.309393 -0.504241,0.454984 0.06209,-0.22053 0.133864,-0.431438 0.204484,-0.641271 0.06532,-0.213044 0.130637,-0.422862 0.200196,-0.628422 0.06101,-0.211969 0.12741,-0.417514 0.19162,-0.623059 0.05672,-0.209832 0.117727,-0.415377 0.178788,-0.618785 0.233378,-0.823254 0.431438,-1.6401 0.600589,-2.45587 0.334014,-1.630465 0.538483,-3.259853 0.608073,-4.896741 0.0707,-1.636888 0.0015,-3.276988 -0.193771,-4.930997 -0.09959,-0.826467 -0.229106,-1.657237 -0.392893,-2.496552 -0.04395,-0.208758 -0.08776,-0.41859 -0.127408,-0.631619 -0.04718,-0.210908 -0.09636,-0.421817 -0.139243,-0.636998 -0.05241,-0.210893 -0.100667,-0.426075 -0.148772,-0.643392 -0.05241,-0.21412 -0.106046,-0.430377 -0.150924,-0.655194"
       style="fill:#ffd740;fill-opacity:1;fill-rule:nonzero;stroke:none;stroke-width:0.0107056"
       id="path174" />
    <path
       d="m 33.572721,10.348625 c -0.186271,0 -0.355423,-0.0375 -0.497816,-0.127409 C 32.860801,10.086277 32.728059,9.8400963 32.70021,9.4953856 32.67239,9.1506594 32.758,8.7117369 32.979633,8.225693 33.090904,7.9826786 33.238708,7.7321643 33.420707,7.4784379 33.604843,7.2279394 33.82216,6.9720764 34.079099,6.7311984 c 0.509589,-0.486044 1.169056,-0.924966 1.934508,-1.235435 0.767588,-0.307241 1.548025,-0.447483 2.251386,-0.449635 0.01921,-0.0011 0.0375,-0.0011 0.05563,-0.0011 0.331878,0 0.646619,0.03428 0.93674,0.08345 0.307256,0.05779 0.58774,0.136015 0.836102,0.234453 0.496741,0.195925 0.862876,0.453923 1.08127,0.721559 0.219468,0.26765 0.293331,0.537422 0.232317,0.782588 -0.06101,0.247302 -0.247302,0.449634 -0.504241,0.6241338 -0.256939,0.1723631 -0.586665,0.3243776 -0.956012,0.4689074 -0.742967,0.2869081 -1.635812,0.5770282 -2.559703,0.947436 -0.92283,0.3725593 -1.767493,0.7825882 -2.5019,1.0898449 -0.367211,0.1509235 -0.709785,0.2697715 -1.014891,0.3243775 -0.103894,0.01706 -0.202332,0.02674 -0.29762,0.02674"
       style="fill:#a48bbd;fill-opacity:1;fill-rule:nonzero;stroke:none;stroke-width:0.0107056"
       id="path176" />
    <path
       d="m 51.507826,17.860735 c -0.03428,0 -0.06855,-0.0012 -0.101743,-0.0031 -0.203409,-0.01537 -0.368272,-0.075 -0.462483,-0.193772 -0.09529,-0.119878 -0.109274,-0.289044 -0.03858,-0.50424 0.01706,-0.05348 0.03965,-0.110196 0.06747,-0.169136 0.02889,-0.05779 0.06532,-0.114499 0.104969,-0.174515 0.08238,-0.118802 0.180939,-0.253711 0.310469,-0.37362 0.06317,-0.06209 0.131712,-0.126333 0.205545,-0.19056 0.07285,-0.06317 0.155241,-0.119878 0.239802,-0.179848 0.169151,-0.125257 0.363999,-0.230181 0.573831,-0.336165 0.423938,-0.199121 0.921755,-0.354348 1.458101,-0.423938 0.19912,-0.02459 0.396105,-0.03535 0.58774,-0.03535 0.327591,0 0.641255,0.03212 0.930315,0.08883 0.229106,0.05133 0.444287,0.10497 0.63912,0.184135 0.09744,0.03858 0.19056,0.07285 0.277271,0.116651 0.08668,0.04396 0.169151,0.08883 0.246242,0.133864 0.154151,0.08453 0.283696,0.19056 0.391816,0.285832 0.05348,0.04918 0.102819,0.09529 0.144469,0.143393 0.0418,0.05026 0.07715,0.09959 0.107122,0.147695 0.120953,0.19056 0.148771,0.359711 0.08668,0.497817 -0.0621,0.139243 -0.207697,0.237666 -0.401469,0.301893 -0.0481,0.01598 -0.09959,0.02889 -0.154151,0.04073 -0.05456,0.01383 -0.113423,0.02782 -0.173439,0.03965 -0.122029,0.02352 -0.249438,0.03212 -0.391816,0.05348 -0.0707,0.0092 -0.142317,0.01598 -0.216258,0.02029 -0.07285,0.0046 -0.150923,0.01706 -0.228029,0.02244 -0.155226,0.0077 -0.320105,0.02997 -0.489241,0.03858 -0.339378,0.0332 -0.702285,0.06532 -1.083405,0.110349 -0.380059,0.05026 -0.73977,0.108198 -1.076996,0.159515 -0.165939,0.03212 -0.330802,0.05133 -0.482817,0.0813 -0.07715,0.01383 -0.155227,0.02136 -0.228029,0.03427 -0.07177,0.01383 -0.143393,0.02459 -0.214121,0.03427 -0.142317,0.01383 -0.268711,0.03642 -0.392893,0.04288 -0.06101,0.0046 -0.122029,0.0046 -0.177711,0.0046 -0.01921,0.0012 -0.03858,0.0012 -0.05779,0.0012"
       style="fill:#a48bbd;fill-opacity:1;fill-rule:nonzero;stroke:none;stroke-width:0.0107056"
       id="path178" />
    <path
       d="m 63.816055,29.439923 c -0.125258,0 -0.331878,-0.174499 -0.608074,-0.42609 -0.04073,-0.03642 -0.0813,-0.07392 -0.124181,-0.114498 -0.0418,-0.03966 -0.08883,-0.07823 -0.13494,-0.119879 -0.08991,-0.0856 -0.192712,-0.170227 -0.295483,-0.262301 -0.211969,-0.178773 -0.444287,-0.369333 -0.699074,-0.558832 -0.256938,-0.185196 -0.508513,-0.351135 -0.742967,-0.498877 -0.118802,-0.06962 -0.230165,-0.142318 -0.338302,-0.20341 -0.05456,-0.03104 -0.10497,-0.06424 -0.156303,-0.09206 -0.05025,-0.02889 -0.09959,-0.05672 -0.145543,-0.08453 -0.37256,-0.216256 -0.618786,-0.375771 -0.592029,-0.50424 0.01229,-0.06209 0.09314,-0.10497 0.232318,-0.128484 0.03535,-0.0046 0.07392,-0.0092 0.115574,-0.01229 0.01829,-0.0012 0.03642,-0.0015 0.05563,-0.0015 0.02566,0 0.05134,0.0012 0.0793,0.0015 0.09529,0.0031 0.205544,0.0092 0.323302,0.03212 0.05994,0.0092 0.122029,0.02137 0.186287,0.03535 0.06424,0.01383 0.12956,0.0332 0.198044,0.05241 0.137092,0.03642 0.278348,0.09206 0.427166,0.150924 0.292256,0.125256 0.602725,0.295483 0.901406,0.512801 0.296544,0.21947 0.552407,0.46356 0.760103,0.705498 0.100667,0.124182 0.194832,0.241954 0.271924,0.361847 0.03858,0.05994 0.07715,0.115575 0.109119,0.17344 0.03212,0.05779 0.06209,0.113422 0.08991,0.166999 0.05671,0.104969 0.09529,0.208772 0.128484,0.298696 0.01537,0.04596 0.02997,0.08776 0.03965,0.128485 0.0092,0.0418 0.01706,0.07915 0.02137,0.114498 0.02028,0.139243 0.0031,0.229106 -0.05241,0.260151 -0.01536,0.0092 -0.03212,0.01229 -0.05025,0.01229"
       style="fill:#a48bbd;fill-opacity:1;fill-rule:nonzero;stroke:none;stroke-width:0.0107056"
       id="path180" />
    <path
       d="m 27.633258,63.222532 c -1.840297,0 -3.685942,-0.100667 -5.495193,-0.346863 1.808176,0.246227 3.65276,0.346863 5.491981,0.346863 0.301893,0 0.603786,-0.0015 0.904618,-0.0077 v 0 c 0.298681,-0.0046 0.598437,-0.0123 0.897133,-0.02244 v 0 c -0.298696,0.0092 -0.597376,0.01721 -0.897133,0.02244 -0.299756,0.0046 -0.600589,0.0077 -0.901406,0.0077 m 3.814396,-0.129561 c 0.0077,-0.0012 0.01537,-0.0012 0.02244,-0.0012 v 0 0 c 0.0418,-0.0031 0.08238,-0.0046 0.123105,-0.0092 -0.04073,0.0031 -0.08131,0.0046 -0.123105,0.0092 -0.0077,0 -0.01537,0 -0.02244,0.0012 m -9.310665,-0.217317 c -0.01076,-0.0015 -0.02029,-0.0031 -0.03104,-0.0046 0.01076,0.0012 0.02029,0.0015 0.03104,0.0046 m -0.03858,-0.0046 c -0.0092,-0.0012 -0.01706,-0.0031 -0.02459,-0.0046 0.0077,0.0012 0.01598,0.0031 0.02459,0.0046 m -0.03427,-0.0046 c -0.0077,-0.0012 -0.01537,-0.0015 -0.02244,-0.0031 0.0077,0.0012 0.01537,0.0015 0.02244,0.0031 m -0.03642,-0.0046 c -0.0046,0 -0.0123,-0.0012 -0.01814,-0.0015 0.0046,0.0012 0.0123,0.0015 0.01814,0.0015 m -0.03535,-0.0046 c -0.0046,-0.0012 -0.01076,-0.0015 -0.01614,-0.0015 0.0046,0 0.01076,0.0012 0.01614,0.0015 m -0.03535,-0.0046 c -0.0046,0 -0.0092,-0.0012 -0.0123,-0.0015 0.0046,0.0012 0.0092,0.0015 0.0123,0.0015 m -0.0332,-0.0046 c -0.0031,-0.0012 -0.0077,-0.0012 -0.0123,-0.0015 0.0046,0.0012 0.0092,0.0012 0.0123,0.0015 m -0.03642,-0.0046 c -0.0015,0 -0.0046,-0.0012 -0.0077,-0.0012 0.0015,0 0.0046,0.0012 0.0077,0.0012 m -0.03427,-0.0046 c -0.0015,0 -0.0031,0 -0.0046,-0.0012 0.0015,0.0012 0.0031,0.0012 0.0046,0.0012 m -0.0375,-0.0046 v 0 0 m -0.02889,-0.0046 c -0.0012,0 -0.0015,0 -0.0046,0 0.0015,0 0.0031,0 0.0046,0 m -0.09852,-0.01537 c -0.0012,0 -0.0015,0 -0.0015,0 0,0 0.0012,0 0.0015,0 M 36.215725,62.6493 h 0.0012 c 0.362908,-0.04395 0.724771,-0.09098 1.086618,-0.140319 v 0 c 0.901405,-0.123106 1.80175,-0.259075 2.698884,-0.41109 v 0 c -0.897134,0.152 -1.796403,0.289045 -2.698884,0.41109 -0.361847,0.04918 -0.724771,0.09636 -1.087693,0.140319 M 20.686298,62.6478 v 0 0 m -0.02782,-0.0046 c -0.0015,0 -0.0031,0 -0.0046,0 0.0012,0 0.0015,0 0.0046,0 m -0.02782,-0.0046 c -0.0031,0 -0.0062,-0.0012 -0.0092,-0.0012 0.0015,0 0.0046,0.0012 0.0092,0.0012 m -0.03104,-0.0046 c -0.0031,-0.0012 -0.0062,-0.0012 -0.0092,-0.0015 0.0031,0.0012 0.0062,0.0012 0.0092,0.0015 m -0.02889,-0.0046 c -0.0046,-0.0012 -0.0092,-0.0015 -0.0123,-0.0015 0.0046,0 0.0092,0.0012 0.0123,0.0015 m -0.02997,-0.0046 c -0.0046,-0.0012 -0.01076,-0.0015 -0.01537,-0.0031 0.0046,0.0012 0.0092,0.0015 0.01537,0.0031 m -0.02997,-0.0061 c -0.0046,-0.0012 -0.0123,-0.0015 -0.01814,-0.0031 0.0062,0.0012 0.0123,0.0015 0.01814,0.0031 m -0.02889,-0.0046 c -0.0062,-0.0012 -0.01383,-0.0015 -0.02136,-0.0046 0.0077,0.0015 0.01537,0.0031 0.02136,0.0046 m -0.03104,-0.0046 c -0.0062,-0.0015 -0.01537,-0.0031 -0.02244,-0.0046 0.0077,0.0012 0.01614,0.0015 0.02244,0.0046 m -0.02997,-0.0061 c -0.0092,-0.0012 -0.01614,-0.0031 -0.02459,-0.0046 0.0092,0.0012 0.01598,0.0031 0.02459,0.0046 m -0.02782,-0.0046 c -0.0092,-0.0015 -0.01921,-0.0031 -0.02889,-0.0046 0.0092,0.0015 0.01921,0.0031 0.02889,0.0046 m -0.03212,-0.0061 c -0.0092,-0.0012 -0.01921,-0.0031 -0.02889,-0.0046 0.01076,0.0015 0.01921,0.0046 0.02889,0.0046 m -0.02997,-0.0046 c -0.0092,-0.0015 -0.02029,-0.0046 -0.02997,-0.0061 0.0092,0.0015 0.02029,0.0046 0.02997,0.0061 M 20.299938,62.582 C 17.231707,61.974986 14.312293,60.887293 11.748287,59.085543 8.9926752,57.147838 6.9939391,54.696255 5.6728691,51.959901 c 1.32107,2.735278 3.3198061,5.187937 6.0754179,7.125642 2.564006,1.80175 5.48342,2.889443 8.551636,3.496457 M 5.6695151,51.951908 c -0.0015,-0.0046 -0.0046,-0.0092 -0.0077,-0.01537 0.0031,0.0046 0.0046,0.01076 0.0077,0.01537 m -0.01229,-0.02674 c -0.0015,-0.0031 -0.0046,-0.0077 -0.0061,-0.0123 0.0015,0.0046 0.0046,0.0092 0.0061,0.0123 m -0.01383,-0.02782 c -0.0012,-0.0031 -0.0031,-0.0061 -0.0046,-0.0092 0.0015,0.0015 0.0031,0.0046 0.0046,0.0092 m -0.01537,-0.0332 -0.0012,-0.0012 0.0012,0.0012"
       style="fill:#ededed;fill-opacity:1;fill-rule:nonzero;stroke:none;stroke-width:0.0107056"
       id="path182" />
    <path
       d="m 67.017028,48.697158 v 0 c 0.137091,-0.314741 0.260151,-0.635907 0.369348,-0.966709 0.454983,-1.377813 0.623058,-2.819853 0.554543,-4.260833 0.06855,1.44098 -0.09959,2.88302 -0.554543,4.260833 -0.10912,0.330802 -0.232318,0.651968 -0.369348,0.966709"
       style="fill:#6f4c92;fill-opacity:1;fill-rule:nonzero;stroke:none;stroke-width:0.0107056"
       id="path184" />
    <path
       d="m 66.518151,49.705624 c 0.182,-0.326513 0.347923,-0.662664 0.498877,-1.008466 v 0 c -0.150922,0.345802 -0.316877,0.681953 -0.498877,1.008466"
       style="fill:#674788;fill-opacity:1;fill-rule:nonzero;stroke:none;stroke-width:0.0107056"
       id="path186" />
    <path
       d="m 4.0862811,47.173754 c 0,-0.0046 -0.0012,-0.0077 -0.0015,-0.01229 0.0012,0.0046 0.0015,0.0077 0.0015,0.01229 m -0.0046,-0.02782 c -0.09959,-0.503165 -0.182,-1.011678 -0.245166,-1.522328 0.06424,0.51065 0.145544,1.019163 0.245166,1.522328 M 3.8365151,45.62253 c -0.0015,-0.0092 -0.0031,-0.02028 -0.0046,-0.03104 0.0012,0.01076 0.0015,0.02137 0.0046,0.03104 m -0.0061,-0.05134 c -0.0012,-0.0015 -0.0012,-0.0046 -0.0012,-0.0077 0,0.0015 0,0.0046 0.0012,0.0077 m -0.01829,-0.144468 c 0,-0.0046 -0.0012,-0.01076 -0.0012,-0.01537 -0.08991,-0.775088 -0.139243,-1.5566 -0.149848,-2.342385 -0.0092,-0.707649 0.01229,-1.418495 0.06639,-2.128281 -0.05348,0.709786 -0.075,1.420632 -0.06639,2.128281 0.01076,0.785785 0.05994,1.567297 0.149848,2.342385 l 0.0012,0.01537"
       style="fill:#ededed;fill-opacity:1;fill-rule:nonzero;stroke:none;stroke-width:0.0107056"
       id="path188" />
    <path
       d="m 40.002503,62.094156 v 0 0 0 0"
       style="fill:#6f4c92;fill-opacity:1;fill-rule:nonzero;stroke:none;stroke-width:0.0107056"
       id="path190" />
    <path
       d="m 40.002503,62.094156 v 0 c 4.782195,-0.80827 9.495875,-2.028704 14.068237,-3.648472 0.828619,-0.293331 1.664722,-0.612361 2.493341,-0.962435 -0.829679,0.350074 -1.664722,0.669104 -2.493341,0.962435 -4.572362,1.619768 -9.286042,2.840202 -14.068237,3.648472"
       style="fill:#674788;fill-opacity:1;fill-rule:nonzero;stroke:none;stroke-width:0.0107056"
       id="path192" />
    <path
       d="m 27.630046,63.222532 c -1.839221,0 -3.683805,-0.100667 -5.491981,-0.346863 h -0.0012 c -0.01076,-0.0015 -0.02029,-0.0031 -0.03104,-0.0046 -0.0015,-0.0012 -0.0046,-0.0012 -0.0077,-0.0012 -0.0092,-0.0012 -0.01706,-0.0031 -0.02459,-0.0046 -0.0031,0 -0.0062,0 -0.0092,-0.0012 -0.0077,-0.0012 -0.01537,-0.0015 -0.02244,-0.0031 -0.0046,0 -0.0092,-0.0012 -0.01383,-0.0015 -0.0046,0 -0.0123,-0.0012 -0.01814,-0.0015 -0.0061,-0.0012 -0.0123,-0.0012 -0.01706,-0.0015 -0.0046,-0.0012 -0.01076,-0.0015 -0.01598,-0.0015 -0.0062,-0.0012 -0.0123,-0.0015 -0.01921,-0.0031 -0.0046,0 -0.0092,-0.0012 -0.0123,-0.0015 -0.0062,0 -0.0123,-0.0012 -0.02029,-0.0015 -0.0031,-0.0012 -0.0077,-0.0012 -0.0123,-0.0015 -0.0092,-0.0012 -0.01598,-0.0015 -0.02459,-0.0031 -0.0015,0 -0.0046,-0.0012 -0.0077,-0.0012 -0.0092,-0.0012 -0.01706,-0.0031 -0.02674,-0.0046 -0.0015,0 -0.0031,0 -0.0046,-0.0012 -0.01076,-0.0012 -0.02136,-0.0015 -0.03212,-0.0046 v 0 c -0.0092,-0.0012 -0.01921,-0.0031 -0.02889,-0.0046 -0.0012,0 -0.0015,0 -0.0046,0 -0.03104,-0.0046 -0.06317,-0.0092 -0.09421,-0.01537 -0.0012,0 -0.0015,0 -0.0015,0 -0.335105,-0.05033 -0.668043,-0.10611 -0.999921,-0.16708 v 0 c -0.0092,-0.0015 -0.01921,-0.0031 -0.02782,-0.0046 -0.0015,0 -0.0031,0 -0.0046,0 -0.0077,-0.0015 -0.01614,-0.0031 -0.02351,-0.0046 -0.0031,0 -0.0061,-0.0012 -0.0092,-0.0012 -0.0077,-0.0012 -0.01537,-0.0031 -0.02244,-0.0046 -0.0031,-0.0012 -0.0061,-0.0012 -0.0092,-0.0015 -0.0061,-0.0012 -0.0123,-0.0015 -0.01921,-0.0031 -0.0046,-0.0012 -0.0092,-0.0015 -0.0123,-0.0015 -0.0062,-0.0012 -0.0123,-0.0015 -0.01706,-0.0031 -0.0046,-0.0012 -0.01076,-0.0015 -0.01537,-0.0031 -0.0046,-0.0012 -0.0092,-0.0015 -0.01537,-0.0031 -0.0046,-0.0012 -0.0123,-0.0015 -0.01814,-0.0031 -0.0031,0 -0.0077,-0.0012 -0.01076,-0.0015 -0.0062,-0.0012 -0.01383,-0.0015 -0.02136,-0.0046 -0.0031,0 -0.0062,-0.0012 -0.0092,-0.0012 -0.0062,-0.0015 -0.01537,-0.0031 -0.02244,-0.0046 -0.0015,-0.0012 -0.0046,-0.0012 -0.0077,-0.0015 -0.0092,-0.0012 -0.01598,-0.0031 -0.02459,-0.0046 -0.0012,0 -0.0015,-0.0012 -0.0031,-0.0012 -0.0092,-0.0015 -0.01921,-0.0031 -0.02889,-0.0046 -0.0012,0 -0.0015,0 -0.0031,-0.0012 -0.0092,-0.0012 -0.01829,-0.0031 -0.02889,-0.0046 0,0 0,0 -0.0012,0 -0.0092,-0.0015 -0.02029,-0.0046 -0.02997,-0.0061 -0.0012,0 0,0 -0.0012,0 -3.068216,-0.607014 -5.98763,-1.694707 -8.551636,-3.496458 -2.7556117,-1.937721 -4.7543469,-4.390363 -6.0754179,-7.125657 -0.0012,-0.0015 -0.0015,-0.0046 -0.0031,-0.0077 -0.0015,-0.0046 -0.0046,-0.0092 -0.0077,-0.01537 -0.0012,-0.0031 -0.0031,-0.0077 -0.0046,-0.01229 -0.0015,-0.0031 -0.0046,-0.0077 -0.0061,-0.0123 -0.0015,-0.0046 -0.0046,-0.01076 -0.0077,-0.01599 -0.0012,-0.0031 -0.0015,-0.0061 -0.0046,-0.0092 -0.0031,-0.0092 -0.0077,-0.01614 -0.01076,-0.02459 l -0.0012,-0.0012 c -0.708709,-1.489145 -1.217223,-3.059656 -1.540525,-4.677271 0,-0.0046 -0.0012,-0.0077 -0.0015,-0.01229 -0.0012,-0.0046 -0.0015,-0.01076 -0.0031,-0.01599 -0.09959,-0.503166 -0.180924,-1.011679 -0.245166,-1.522328 v -0.0012 c -0.0015,-0.0092 -0.0031,-0.02028 -0.0046,-0.03104 -0.0012,-0.0061 -0.0015,-0.01229 -0.0015,-0.02028 -0.0012,-0.0015 -0.0012,-0.0046 -0.0012,-0.0077 -0.0061,-0.04595 -0.01229,-0.09098 -0.01706,-0.137091 l -0.0012,-0.01537 c -0.08991,-0.775088 -0.139089,-1.556601 -0.149848,-2.342386 -0.0092,-0.707649 0.01229,-1.418495 0.06639,-2.12828 0.02136,-0.287984 0.04718,-0.575969 0.07915,-0.863936 0.0012,0.01229 0.0031,0.02566 0.0046,0.03857 0.613423,5.303558 3.115323,10.270965 7.9381999,13.661423 4.558453,3.205261 10.244191,4.1495 15.884974,4.1495 0.300833,0 0.600589,-0.0015 0.901422,-0.0077 0.310453,-0.0046 0.620921,-0.01229 0.931389,-0.02351 -0.851102,0.850012 -1.376751,2.024417 -1.376751,3.321943 0,0.714058 0.159514,1.391722 0.445362,1.997659 -0.300833,0.0046 -0.602726,0.0077 -0.904634,0.0077 m 1.801767,-0.02997 c 0.683012,-0.02244 1.362812,-0.05672 2.038341,-0.100668 -0.0077,0 -0.01537,0 -0.02244,0.0012 -0.668028,0.04288 -1.340343,0.07715 -2.015872,0.09959 v 0 m 2.038357,-0.100666 c 1.58657,-0.103895 3.169928,-0.252651 4.746862,-0.446423 h -0.0012 c -1.536252,0.188423 -3.077867,0.335075 -4.62268,0.437862 -0.04073,0.0031 -0.08131,0.0046 -0.123106,0.0092 m 5.833495,-0.586665 c 0.11665,-0.408953 0.179847,-0.841451 0.179847,-1.287874 0,-1.555524 -0.75689,-2.934414 -1.921659,-3.789789 0.581316,-0.06639 1.162632,-0.139243 1.741812,-0.218393 1.765358,-0.239803 3.522139,-0.535287 5.269284,-0.886421 0.669104,0.367194 1.437768,0.575951 2.254614,0.575951 1.612267,0 3.035035,-0.812557 3.880774,-2.050113 1.806039,-0.506377 3.594941,-1.072709 5.362435,-1.698979 1.011679,-0.358635 2.035145,-0.754755 3.042536,-1.197966 0.384331,0.101743 0.789012,0.156302 1.206525,0.156302 2.186084,0 4.023168,-1.494494 4.546666,-3.51679 2.054402,-1.635812 3.69129,-3.648472 4.519909,-6.156781 0.115574,-0.351151 0.214105,-0.706574 0.292256,-1.065208 0.140319,0.694785 0.229106,1.398146 0.262287,2.100431 0.06855,1.44098 -0.09959,2.88302 -0.554543,4.260834 -0.109274,0.330801 -0.232317,0.651967 -0.369348,0.966709 -0.150923,0.345802 -0.316877,0.681952 -0.498877,1.008466 -2.027644,3.646335 -5.905206,6.071145 -9.954071,7.777624 -0.828618,0.350074 -1.664721,0.669104 -2.49334,0.962436 -4.572362,1.619752 -9.286043,2.840202 -14.068222,3.648472 v 0 c -0.897134,0.151999 -1.79748,0.287983 -2.698885,0.411089"
       style="fill:#ed6384;fill-opacity:1;fill-rule:nonzero;stroke:none;stroke-width:0.0107056"
       id="path194" />
    <path
       d="m 58.319802,52.107965 c -0.417529,0 -0.822194,-0.05456 -1.206527,-0.156303 2.056554,-0.904618 4.048865,-2.003008 5.753193,-3.360488 -0.523499,2.022296 -2.360583,3.516791 -4.546666,3.516791"
       style="fill:#edc83b;fill-opacity:1;fill-rule:nonzero;stroke:none;stroke-width:0.0107056"
       id="path196" />
    <path
       d="m 44.827516,56.898736 c -0.816831,0 -1.585495,-0.208772 -2.254599,-0.575968 2.061902,-0.414302 4.109879,-0.905694 6.135388,-1.474161 -0.84574,1.237571 -2.268523,2.050129 -3.880789,2.050129"
       style="fill:#edc83b;fill-opacity:1;fill-rule:nonzero;stroke:none;stroke-width:0.0107056"
       id="path198" />
    <path
       d="m 28.534664,63.215031 v 0 c -0.285832,-0.605937 -0.445347,-1.283601 -0.445347,-1.997659 0,-1.297526 0.525634,-2.471931 1.376738,-3.321958 0.671239,-0.02244 1.340343,-0.05672 2.004083,-0.09959 1.367101,-0.08991 2.731006,-0.211969 4.091683,-0.368272 1.164768,0.855376 1.92166,2.234265 1.92166,3.78979 0,0.446423 -0.06317,0.878921 -0.179863,1.287875 v 0 c -0.361847,0.04918 -0.723695,0.09636 -1.086618,0.140318 -1.576934,0.193772 -3.160291,0.342575 -4.746862,0.446422 v 0 0 c -0.675527,0.04395 -1.355328,0.07807 -2.038341,0.100667 -0.298696,0.0092 -0.598452,0.01721 -0.897133,0.02244"
       style="fill:#edc83b;fill-opacity:1;fill-rule:nonzero;stroke:none;stroke-width:0.0107056"
       id="path200" />
    <path
       d="m 56.712883,36.23905 c -0.06855,0 -0.140319,-0.0015 -0.213045,-0.0077 -0.166999,-0.01383 -0.34471,-0.04073 -0.53527,-0.07823 -0.1895,-0.03858 -0.38862,-0.09098 -0.595241,-0.155227 -0.207681,-0.06317 -0.42715,-0.134939 -0.651968,-0.220529 -0.159514,-0.06209 -0.326513,-0.125258 -0.49674,-0.194849 -0.658392,-1.798539 -2.385204,-3.08214 -4.411772,-3.08214 -0.509589,0 -0.998845,0.08131 -1.458117,0.230166 -0.01076,-0.0046 -0.02244,-0.01076 -0.03319,-0.01706 -0.169151,-0.08131 -0.339362,-0.165939 -0.509589,-0.252651 -0.685149,-0.339377 -1.390663,-0.688376 -2.117569,-1.040587 -0.727982,-0.347938 -1.440964,-0.683028 -2.133629,-1.007405 -0.102818,-0.04611 -0.204468,-0.09421 -0.30618,-0.141241 1.16692,-0.854315 1.923796,-2.235341 1.923796,-3.791927 0,-1.363904 -0.58024,-2.590764 -1.508419,-3.449352 0.171302,0.03427 0.343651,0.07392 0.517089,0.112347 0.216258,0.05026 0.436787,0.09851 0.65518,0.159515 0.219469,0.05779 0.441074,0.118802 0.663755,0.183075 0.221605,0.06747 0.445347,0.138168 0.670165,0.210894 0.897133,0.29762 1.807099,0.662679 2.711732,1.095178 0.902482,0.437861 1.754646,0.92283 2.546855,1.437767 0.196984,0.130636 0.390756,0.261212 0.582392,0.391832 0.188423,0.13494 0.374695,0.270847 0.556695,0.405741 0.184135,0.132788 0.359711,0.27512 0.533134,0.413227 0.173424,0.139243 0.345787,0.275135 0.508514,0.418589 0.163802,0.142317 0.325453,0.283696 0.482832,0.425014 0.156302,0.142316 0.306165,0.286908 0.453907,0.430362 0.07392,0.07177 0.14662,0.14247 0.219469,0.213045 0.07177,0.07177 0.141241,0.145543 0.209832,0.217332 0.138167,0.144469 0.271924,0.287969 0.40253,0.429286 0.12956,0.144469 0.251574,0.290121 0.372558,0.431438 0.119879,0.143393 0.237651,0.282636 0.346863,0.42609 0.218393,0.286908 0.42715,0.559892 0.608074,0.838239 0.14662,0.21947 0.284771,0.433574 0.407877,0.644482 -0.09852,0.378984 -0.150924,0.776149 -0.150924,1.185102 0,1.006331 0.315818,1.938797 0.8543,2.702097 -0.03642,0.04503 -0.075,0.0856 -0.117726,0.123106 -0.189484,0.16915 -0.436786,0.265499 -0.729058,0.300817 -0.08238,0.0092 -0.169151,0.01383 -0.259075,0.01383 M 35.781321,26.491261 c -0.06855,-0.05134 -0.132789,-0.102818 -0.194849,-0.155226 -0.148771,-0.125258 -0.280483,-0.247303 -0.395028,-0.370424 -0.114499,-0.123105 -0.211969,-0.247302 -0.290121,-0.372543 -0.154166,-0.250515 -0.232317,-0.504241 -0.219468,-0.756892 0.01383,-0.253726 0.118802,-0.495665 0.312605,-0.722634 0.09636,-0.113423 0.215181,-0.223741 0.354347,-0.329726 0.140319,-0.107122 0.301908,-0.208757 0.483892,-0.300833 0.182,-0.09314 0.384332,-0.183059 0.607014,-0.266574 0.222681,-0.0813 0.464619,-0.153075 0.725845,-0.221606 0.07285,-0.01921 0.147696,-0.0375 0.224818,-0.05456 -0.985997,0.860725 -1.609055,2.127206 -1.609055,3.539277 0,0.0046 0,0.0092 0,0.01229"
       style="fill:#ff9cb3;fill-opacity:1;fill-rule:nonzero;stroke:none;stroke-width:0.0107056"
       id="path202" />
    <path
       d="m 43.250582,30.271753 c -0.0707,-0.0332 -0.139243,-0.06639 -0.208757,-0.09851 -0.171288,-0.07715 -0.340439,-0.154151 -0.508513,-0.233378 -0.336151,-0.154166 -0.665892,-0.306182 -0.988118,-0.453923 -0.324393,-0.147696 -0.64127,-0.293333 -0.949588,-0.43465 -0.07715,-0.03642 -0.153074,-0.07177 -0.229105,-0.108045 -0.07715,-0.03428 -0.153075,-0.06854 -0.228029,-0.102817 -0.150924,-0.06962 -0.299757,-0.13909 -0.445363,-0.209834 -0.14662,-0.06854 -0.29118,-0.136015 -0.433574,-0.201256 -0.142317,-0.06747 -0.280484,-0.139243 -0.41859,-0.202348 -0.276196,-0.127409 -0.539558,-0.26656 -0.795421,-0.390741 -0.254787,-0.127409 -0.497816,-0.26015 -0.730118,-0.382195 -0.231242,-0.124183 -0.450711,-0.255864 -0.658407,-0.375773 -0.206605,-0.123105 -0.400377,-0.249438 -0.579164,-0.37362 -0.103895,-0.06962 -0.203409,-0.14124 -0.296545,-0.213044 0,-0.0031 0,-0.0077 0,-0.01229 0,-1.412071 0.623058,-2.678536 1.609054,-3.539276 0.194834,-0.04396 0.398241,-0.08023 0.611286,-0.11665 0.29762,-0.05133 0.610225,-0.08453 0.939951,-0.112348 0.330802,-0.03212 0.674453,-0.03965 1.034164,-0.04703 0.04596,-0.0012 0.09098,-0.0012 0.137091,-0.0012 0.136015,0 0.272999,0.0046 0.412165,0.0077 0.186287,0.0046 0.376832,0.01076 0.569544,0.02244 0.192696,0.0123 0.388604,0.02889 0.58774,0.04611 0.09851,0.0092 0.199121,0.01814 0.299757,0.02889 0.100666,0.0123 0.202332,0.02567 0.304029,0.03858 0.203408,0.02674 0.411104,0.05348 0.619861,0.08668 0.207682,0.03535 0.41859,0.07285 0.632695,0.113423 0.04288,0.0077 0.08453,0.01537 0.127409,0.02351 0.928178,0.858589 1.508419,2.085462 1.508419,3.449352 0,1.556586 -0.756876,2.937612 -1.923797,3.791927"
       style="fill:#ffe47f;fill-opacity:1;fill-rule:nonzero;stroke:none;stroke-width:0.0107056"
       id="path204" />
    <path
       d="m 54.220619,35.582795 c -0.06855,-0.02782 -0.138167,-0.05563 -0.207681,-0.0856 -0.240878,-0.106046 -0.495681,-0.213045 -0.753679,-0.332954 -0.256939,-0.122029 -0.529922,-0.241939 -0.801846,-0.377908 -0.13494,-0.06855 -0.278348,-0.132787 -0.418589,-0.201256 -0.140319,-0.0707 -0.282636,-0.141395 -0.428227,-0.213045 -0.145543,-0.0707 -0.293331,-0.143393 -0.441073,-0.218393 -0.07393,-0.0375 -0.147697,-0.07501 -0.222682,-0.113423 -0.07592,-0.0375 -0.151999,-0.075 -0.228029,-0.112347 -0.301893,-0.153075 -0.613422,-0.310454 -0.931375,-0.471044 -0.316894,-0.159515 -0.640195,-0.323318 -0.971012,-0.490317 -0.155227,-0.07608 -0.310454,-0.155227 -0.465696,-0.23553 0.459272,-0.148771 0.948528,-0.230165 1.458117,-0.230165 2.026568,0 3.75338,1.283602 4.411772,3.08214"
       style="fill:#ffe47f;fill-opacity:1;fill-rule:nonzero;stroke:none;stroke-width:0.0107056"
       id="path206" />
    <path
       d="m 57.818773,35.801189 c -0.538483,-0.7633 -0.8543,-1.695767 -0.8543,-2.702097 0,-0.408953 0.05241,-0.806119 0.150924,-1.185102 0.03104,0.05348 0.06101,0.107122 0.08991,0.160575 0.145544,0.263363 0.279423,0.512801 0.387544,0.761179 0.109273,0.246227 0.204484,0.479605 0.279423,0.704422 0.07285,0.226969 0.129561,0.441075 0.169151,0.641271 0.0418,0.200196 0.06317,0.38968 0.06639,0.565255 0.0046,0.176636 -0.0077,0.337226 -0.03642,0.483892 -0.04395,0.226954 -0.128485,0.417514 -0.252651,0.570605"
       style="fill:#ffe47f;fill-opacity:1;fill-rule:nonzero;stroke:none;stroke-width:0.0107056"
       id="path208" />
    <path
       d="m 21.950717,38.355543 c -0.777224,3.478261 -4.294015,5.67398 -7.856835,4.90424 -3.561761,-0.768664 -5.8195709,-4.211576 -5.0434222,-7.688761 0.7772399,-3.478245 4.2940302,-5.673964 7.8568512,-4.905316 3.561745,0.76974 5.819555,4.212668 5.043406,7.689837"
       style="fill:#ffffff;fill-opacity:1;fill-rule:nonzero;stroke:none;stroke-width:0.0107056"
       id="path210" />
    <path
       d="m 19.8203,37.940166 c -0.52671,2.357385 -2.910853,3.845456 -5.324965,3.324094 -2.415189,-0.521362 -3.946093,-2.855187 -3.419367,-5.212557 0.52671,-2.35737 2.910853,-3.845456 5.326042,-3.324094 2.414112,0.521361 3.945001,2.855186 3.41829,5.212557"
       style="fill:#262626;fill-opacity:1;fill-rule:nonzero;stroke:none;stroke-width:0.0107056"
       id="path212" />
    <path
       d="m 20.48298,35.565674 c -0.246226,1.099466 -1.357465,1.79319 -2.483703,1.550161 -1.126224,-0.243014 -1.840297,-1.330692 -1.594055,-2.430173 0.24515,-1.099466 1.357465,-1.793175 2.482627,-1.550161 1.126224,0.243014 1.840282,1.331768 1.595131,2.430173"
       style="fill:#ffffff;fill-opacity:1;fill-rule:nonzero;stroke:none;stroke-width:0.0107056"
       id="path214" />
    <path
       d="m 12.509448,45.848396 c -1.112314,1.864917 -3.1078378,2.999717 -5.1558159,2.999717 -0.293332,0 -0.58774,-0.02244 -0.878936,-0.0707 -0.892845,-0.145545 -1.634752,-0.491393 -2.237477,-0.908906 v 0 c -0.188408,-0.800785 -0.329726,-1.615479 -0.425014,-2.437673 0.466771,0.664816 1.400299,1.672221 2.895869,1.915236 1.754661,0.285832 3.5853059,-0.614498 4.5552419,-2.24069 0.20662,-0.34365 0.650907,-0.456059 0.994542,-0.251574 0.344726,0.20662 0.456059,0.650891 0.25159,0.994542"
       style="fill:#262626;fill-opacity:1;fill-rule:nonzero;stroke:none;stroke-width:0.0107056"
       id="path216" />
  </g>
</svg>
