<?xml version="1.0" encoding="UTF-8" standalone="no"?>
<svg
   xmlns:dc="http://purl.org/dc/elements/1.1/"
   xmlns:cc="http://creativecommons.org/ns#"
   xmlns:rdf="http://www.w3.org/1999/02/22-rdf-syntax-ns#"
   xmlns:svg="http://www.w3.org/2000/svg"
   xmlns="http://www.w3.org/2000/svg"
   xmlns:sodipodi="http://sodipodi.sourceforge.net/DTD/sodipodi-0.dtd"
   xmlns:inkscape="http://www.inkscape.org/namespaces/inkscape"
   width="320"
   height="230"
   viewBox="0 0 84.666664 60.854166"
   version="1.1"
   id="svg646"
   inkscape:version="1.0.2-2 (e86c870879, 2021-01-15)"
   sodipodi:docname="fish06.svg">
  <defs
     id="defs640" />
  <sodipodi:namedview
     id="base"
     pagecolor="#ffffff"
     bordercolor="#666666"
     borderopacity="1.0"
     inkscape:pageopacity="0.0"
     inkscape:pageshadow="2"
     inkscape:zoom="0.35"
     inkscape:cx="400"
     inkscape:cy="560"
     inkscape:document-units="px"
     inkscape:current-layer="layer1"
     inkscape:document-rotation="0"
     showgrid="false"
     units="px"
     inkscape:window-width="1267"
     inkscape:window-height="1032"
     inkscape:window-x="0"
     inkscape:window-y="45"
     inkscape:window-maximized="0" />
  <metadata
     id="metadata643">
    <rdf:RDF>
      <cc:Work
         rdf:about="">
        <dc:format>image/svg+xml</dc:format>
        <dc:type
           rdf:resource="http://purl.org/dc/dcmitype/StillImage" />
        <dc:title></dc:title>
      </cc:Work>
    </rdf:RDF>
  </metadata>
  <g
     inkscape:label="Layer 1"
     inkscape:groupmode="layer"
     id="layer1">
    <path
       d="m 25.147188,18.470355 c 1.11751,-3.454509 2.27301,-6.982982 4.47506,-9.8697324 2.20105,-2.886751 5.68654,-5.060811 9.30097,-4.711961 2.01413,0.194915 3.87133,1.135508 5.65456,2.092094 2.7588,1.47936 5.47563,3.037686 8.14547,4.6739774 2.38397,1.459369 4.83691,3.09566 6.09836,5.589582 1.26045,2.49392 0.80365,6.07537 -1.67328,7.37081 l -32.00114,-5.14477"
       style="fill:#77529d;fill-opacity:1;fill-rule:nonzero;stroke:none;stroke-width:0.00999568"
       id="path448" />
    <path
       d="m 60.806748,31.589675 c 1.69527,3.07067 3.4625,6.2263 6.29928,8.44334 2.83577,2.21704 7.04295,3.27858 10.29554,1.63429 2.18305,-1.10352 3.59544,-3.23959 4.26715,-5.47163 0.67271,-2.23203 1.00057,-11.556 0.48779,-13.82401 -0.51378,-2.26802 -1.77223,-4.487061 -3.87332,-5.722525 -3.12965,-1.840204 -7.4028,-1.039551 -10.3885,0.998567 -2.98671,2.038118 -4.97185,5.078798 -6.88003,8.037518 l -0.20791,5.90445"
       style="fill:#77529d;fill-opacity:1;fill-rule:nonzero;stroke:none;stroke-width:0.00999568"
       id="path450" />
    <path
       d="m 73.885088,42.466965 c -2.40995,0 -4.89688,-0.96259 -6.77906,-2.43395 v 0 0 c 1.88218,1.47136 4.36911,2.43395 6.78006,2.43395 0.60574,0 1.20648,-0.061 1.79123,-0.18892 -0.58475,0.12895 -1.18649,0.18892 -1.79223,0.18892 m 7.97155,-7.12092 c 0.096,-0.55576 0.18092,-1.25546 0.25489,-2.04311 v 0 c -0.074,0.78765 -0.15893,1.48735 -0.25489,2.04311"
       style="fill:#ededed;fill-opacity:1;fill-rule:nonzero;stroke:none;stroke-width:0.00999568"
       id="path452" />
    <path
       d="m 73.886088,42.466965 c -2.41095,0 -4.89788,-0.96259 -6.78006,-2.43395 v 0 c -2.02613,-1.58331 -3.50649,-3.64542 -4.80392,-5.81348 0.049,-0.086 0.099,-0.17293 0.14793,-0.25989 0.087,-0.15393 0.17193,-0.30887 0.25589,-0.4638 0.051,-0.093 0.1,-0.18592 0.14894,-0.27988 v -10e-4 c 0.074,-0.13994 0.14693,-0.28188 0.2169,-0.42382 0.062,-0.12294 0.12195,-0.24689 0.18092,-0.37083 1.11752,1.63928 2.39796,3.16462 4.01826,4.39909 1.93117,1.47136 4.48406,2.43395 6.95799,2.43395 1.25346,0 2.48593,-0.2469 3.60844,-0.79966 2.13208,-1.05054 3.54847,-3.03668 4.27415,-5.15077 -0.074,0.78766 -0.15893,1.48736 -0.25489,2.04312 -0.059,0.34285 -0.12195,0.63072 -0.18792,0.84963 v 0 0 c -0.67171,2.23203 -2.0841,4.36811 -4.26715,5.47163 -0.55076,0.27888 -1.12951,0.47979 -1.72425,0.61074 -0.58475,0.12794 -1.18549,0.18892 -1.79123,0.18892"
       style="fill:#6f4c92;fill-opacity:1;fill-rule:nonzero;stroke:none;stroke-width:0.00999568"
       id="path454" />
    <path
       d="m 64.341218,29.279675 c -0.28288,1.3804 -0.82964,2.68483 -1.48635,3.93529 v 10e-4 c -0.29488,0.56375 -0.61374,1.11651 -0.9396,1.66128 -0.83464,1.39339 -1.73425,2.75281 -2.69583,4.06624 -3.43851,4.69397 -7.67568,8.80319 -12.63353,11.82988 -6.34426,3.87232 -13.90199,5.90144 -21.29678,5.14377 -5.5636,-0.57075 -10.99425,-2.7768 -15.28339,-6.38524 -3.6674102,-3.08466 -5.5595902,-7.73665 -6.4262202,-12.48059 -0.14294,-0.78167 -0.25789,-1.56433 -0.34885,-2.34499 -0.047,-0.40782 -0.088,-0.81665 -0.12195,-1.22147 -0.35784,-4.19818 0.51478,-8.66825 3.2456,-11.87686 1.91917,-2.25402 4.6250002,-3.737382 7.4587702,-4.593012 2.83478,-0.855631 5.81149,-1.123513 8.76821,-1.265451 3.65641,-0.175924 7.32283,-0.16593 10.97824,0.028 2.52891,0.133944 5.05382,0.356846 7.56873,0.666712 5.19075,0.637723 10.33753,1.649287 15.38334,3.026681 0.29087,0.08 0.58475,0.16193 0.87762,0.2499 2.33699,0.6917 4.68397,1.66727 6.02339,3.66241 0.056,0.083 0.10896,0.16693 0.16093,0.25289 0.99657,1.65828 1.1585,3.74038 0.76767,5.64356"
       style="fill:#ff9800;fill-opacity:1;fill-rule:nonzero;stroke:none;stroke-width:0.00999568"
       id="path456" />
    <path
       d="m 27.193298,28.986795 c 1.13151,-1.47136 2.41895,-2.82178 3.83534,-4.02126 0.7057,-0.59874 1.45337,-1.16549 2.3,-1.54033 0.84664,-0.37584 1.80622,-0.55076 2.70883,-0.34285 1.6293,0.37484 2.7708,1.93616 3.15164,3.56446 0.34485,1.47136 0.11395,7.55873 -0.33986,9.0001 -0.50278,1.59431 -1.75923,3.06567 -3.41252,3.31657 -0.9146,0.13893 -1.85919,-0.10796 -2.67484,-0.54677 -0.81565,-0.43781 -1.51834,-1.05954 -2.17706,-1.70926 -1.32143,-1.30344 -2.50391,-2.74681 -3.52047,-4.29914 l 0.12894,-3.42152"
       style="fill:#77529d;fill-opacity:1;fill-rule:nonzero;stroke:none;stroke-width:0.00999568"
       id="path458" />
    <path
       d="m 34.914958,39.002465 c -0.57275,0 -1.14551,-0.13494 -1.68028,-0.35984 0.53477,0.2239 1.10753,0.35984 1.68028,0.35984 0.17492,0 0.34885,-0.013 0.52177,-0.039 0.77467,-0.11795 1.46237,-0.50379 2.02612,-1.04455 -0.56375,0.54076 -1.25145,0.9266 -2.02612,1.04455 -0.17292,0.026 -0.34785,0.039 -0.52177,0.039 m -2.83078,-1.00557 c -0.53876,-0.37783 -1.03055,-0.82664 -1.49935,-1.28944 -0.002,-0.002 -0.003,-0.003 -0.004,-0.004 0.001,0.001 0.002,0.002 0.004,0.004 0.4688,0.4628 0.96059,0.91161 1.49935,1.28944 m 6.64813,-2.01612 c 0.042,-0.10995 0.082,-0.22191 0.11694,-0.33386 0.11096,-0.35185 0.20892,-0.98157 0.28788,-1.75324 0,-0.001 0,-0.001 0,-0.001 -0.079,0.77166 -0.17692,1.40239 -0.28788,1.75424 -0.035,0.11195 -0.075,0.2239 -0.11694,0.33385 m -10.02767,-1.33642 c -0.58574,-0.71569 -1.1335,-1.46237 -1.64028,-2.23603 l 0.07,-1.8562 v 0 l -0.07,1.8562 c 0.50678,0.77366 1.05454,1.52034 1.64028,2.23603"
       style="fill:#ed8d00;fill-opacity:1;fill-rule:nonzero;stroke:none;stroke-width:0.00999568"
       id="path460" />
    <path
       d="m 34.914958,39.002465 c -0.57275,0 -1.14551,-0.13594 -1.68028,-0.35984 -0.16093,-0.067 -0.31886,-0.14294 -0.47279,-0.22591 -0.2349,-0.12594 -0.4598,-0.26688 -0.67771,-0.41982 -0.53876,-0.37783 -1.03055,-0.82664 -1.49935,-1.28944 -0.002,-0.002 -0.003,-0.003 -0.004,-0.004 -0.66172,-0.65272 -1.28844,-1.34042 -1.87619,-2.05911 -0.58575,-0.71569 -1.13351,-1.46237 -1.64029,-2.23604 l 0.07,-1.85619 c 1.03155,1.51335 2.22604,2.92174 3.55746,4.19618 0.67971,0.64972 1.40339,1.27145 2.24403,1.70926 0.6817,0.35585 1.44937,0.58575 2.21804,0.58575 0.17992,0 0.35984,-0.013 0.53876,-0.039 1.6293,-0.2399 2.88476,-1.59731 3.44451,-3.11066 -0.079,0.77167 -0.17692,1.4014 -0.28787,1.75324 -0.035,0.11196 -0.075,0.22391 -0.11695,0.33386 -0.27988,0.72469 -0.71469,1.40639 -1.26945,1.93816 -0.56376,0.54077 -1.25146,0.9266 -2.02612,1.04455 -0.17293,0.026 -0.34685,0.039 -0.52178,0.039"
       style="fill:#6f4c92;fill-opacity:1;fill-rule:nonzero;stroke:none;stroke-width:0.00999568"
       id="path462" />
    <path
       d="m 24.706378,22.221725 c 0.25389,0.24889 0.48579,0.51878 0.70469,0.80066 0.11195,0.13894 0.21391,0.28487 0.31786,0.43081 0.054,0.072 0.10096,0.14793 0.14994,0.2229 l 0.14694,0.22491 c 0.37783,0.60873 0.69669,1.25945 0.95658,1.93416 l 0.18192,0.51178 c 0.055,0.17292 0.10296,0.34784 0.15493,0.52177 0.027,0.087 0.048,0.17492 0.069,0.26389 0.022,0.088 0.043,0.17692 0.063,0.26488 0.019,0.089 0.043,0.17693 0.059,0.26689 l 0.049,0.26788 c 0.032,0.17892 0.066,0.35885 0.085,0.53977 0.021,0.18092 0.043,0.36184 0.061,0.54376 l 0.031,0.54576 0.007,0.13595 c 10e-4,0.046 0,0.092 0,0.13694 l -0.001,0.27388 -0.003,0.27388 -0.002,0.13594 c -0.002,0.046 -0.006,0.091 -0.009,0.13694 l -0.042,0.54577 c -0.004,0.045 -0.006,0.091 -0.012,0.13594 l -0.018,0.13494 -0.039,0.27088 -0.039,0.27088 c -0.012,0.09 -0.034,0.17893 -0.052,0.26789 -0.038,0.17792 -0.073,0.35684 -0.11395,0.53377 -0.045,0.17592 -0.094,0.35084 -0.14294,0.52577 -0.012,0.044 -0.024,0.088 -0.037,0.13094 l -0.043,0.12895 -0.085,0.25789 c -0.031,0.086 -0.058,0.17192 -0.09,0.25688 l -0.1,0.2529 c -0.26788,0.6717 -0.59474,1.31742 -0.98257,1.92016 -0.1,0.14894 -0.19492,0.30087 -0.30187,0.44381 l -0.15794,0.21691 c -0.054,0.071 -0.10995,0.13994 -0.16592,0.20991 -0.22291,0.27888 -0.45881,0.54576 -0.7167,0.79066 0.29988,-0.64373 0.57776,-1.28045 0.81765,-1.92517 0.2419,-0.64472 0.44781,-1.29444 0.61474,-1.95016 0.16392,-0.65571 0.30686,-1.31243 0.38683,-1.97814 l 0.017,-0.12395 c 0.006,-0.042 0.013,-0.083 0.016,-0.12494 l 0.024,-0.2489 0.025,-0.24989 0.013,-0.12395 c 0.004,-0.042 0.005,-0.084 0.007,-0.12594 l 0.028,-0.49978 c 0.002,-0.041 0.006,-0.083 0.007,-0.12495 v -0.12495 l 0.002,-0.24989 c 0.012,-0.33385 -0.009,-0.66771 -0.019,-1.00157 -0.026,-0.33285 -0.044,-0.6667 -0.088,-0.99856 l -0.028,-0.24989 c -0.008,-0.083 -0.025,-0.16493 -0.037,-0.2479 -0.014,-0.083 -0.027,-0.16592 -0.039,-0.24889 -0.012,-0.083 -0.024,-0.16693 -0.041,-0.24889 l -0.096,-0.49579 -0.11095,-0.49378 c -0.15893,-0.65672 -0.35685,-1.30944 -0.58874,-1.95715 -0.2329,-0.64772 -0.50279,-1.28745 -0.79366,-1.93517"
       style="fill:#ffd740;fill-opacity:1;fill-rule:nonzero;stroke:none;stroke-width:0.00999568"
       id="path464" />
    <path
       d="m 51.299868,27.023645 c -0.19492,2.14208 -2.0891,3.72039 -4.23117,3.52548 -2.14208,-0.19492 -3.72039,-2.0891 -3.52548,-4.23117 0.19492,-2.14108 2.0891,-3.72039 4.23117,-3.52548 2.14208,0.19492 3.72039,2.0891 3.52548,4.23117"
       style="fill:#ffd740;fill-opacity:1;fill-rule:nonzero;stroke:none;stroke-width:0.00999568"
       id="path466" />
    <path
       d="m 41.146258,17.319847 c -0.19391,2.142078 -2.08909,3.720388 -4.23017,3.526478 -2.14207,-0.19492 -3.72139,-2.0891 -3.52647,-4.231172 0.027,-0.290873 0.084,-0.570753 0.16992,-0.837638 2.52891,0.133944 5.05382,0.356846 7.56873,0.665712 0.038,0.284877 0.045,0.578751 0.018,0.87662"
       style="fill:#ffd740;fill-opacity:1;fill-rule:nonzero;stroke:none;stroke-width:0.00999568"
       id="path468" />
    <path
       d="m 63.573548,23.636115 c -0.41182,1.89218 -2.17905,3.2256 -4.15819,3.04568 -2.14108,-0.19491 -3.72039,-2.08909 -3.52548,-4.23117 0.10196,-1.12351 0.67171,-2.09209 1.49935,-2.72982 2.33699,0.6917 4.68397,1.66728 6.02339,3.66242 0.056,0.083 0.10996,0.16693 0.16093,0.25289"
       style="fill:#ffd740;fill-opacity:1;fill-rule:nonzero;stroke:none;stroke-width:0.00999568"
       id="path470" />
    <path
       d="m 62.854868,33.214965 v 10e-4 c -0.29488,0.56375 -0.61374,1.11651 -0.9396,1.66128 -0.83464,1.39339 -1.73425,2.75281 -2.69583,4.06624 -0.05,-0.002 -0.1,-0.006 -0.14994,-0.01 -2.14207,-0.19492 -3.72039,-2.0891 -3.52547,-4.23117 0.19492,-2.14207 2.0891,-3.72039 4.23117,-3.52548 1.35341,0.12295 2.48192,0.9246 3.07967,2.03812"
       style="fill:#ffd740;fill-opacity:1;fill-rule:nonzero;stroke:none;stroke-width:0.00999568"
       id="path472" />
    <path
       d="m 48.635018,39.976045 c -0.19492,2.14207 -2.0891,3.72039 -4.23117,3.52547 -2.14207,-0.19491 -3.72039,-2.08909 -3.52547,-4.23117 0.19491,-2.14107 2.08909,-3.72039 4.23117,-3.52547 2.14207,0.19491 3.72039,2.08909 3.52547,4.23117"
       style="fill:#ffd740;fill-opacity:1;fill-rule:nonzero;stroke:none;stroke-width:0.00999568"
       id="path474" />
    <path
       d="m 57.521178,41.133545 c -3.10366,3.78136 -6.76408,7.09393 -10.93527,9.63982 -6.34426,3.87233 -13.90199,5.90145 -21.29678,5.14378 -5.5636,-0.57076 -10.99425,-2.7768 -15.28339,-6.38524 -1.8821902,-1.58331 -3.2975702,-3.58045 -4.3451202,-5.78949 4.5760202,-3.14964 10.5564302,-4.29514 15.9251102,-2.79779 5.10879,1.42338 9.4749,4.95286 14.65266,6.10236 4.41109,0.97957 9.07207,0.12794 13.25326,-1.58432 2.81978,-1.1555 5.45964,-2.68384 8.02953,-4.32912"
       style="fill:#ffd740;fill-opacity:1;fill-rule:nonzero;stroke:none;stroke-width:0.00999568"
       id="path476" />
    <path
       d="m 20.965998,29.083755 c -0.77867,3.04868 -3.9433,4.89188 -7.06694,4.11722 -3.12265,-0.77467 -5.0238302,-3.87432 -4.2441697,-6.924 0.7796597,-3.04868 3.9432897,-4.89189 7.0669397,-4.11622 3.12365,0.77466 5.02383,3.87432 4.24417,6.923"
       style="fill:#ffffff;fill-opacity:1;fill-rule:nonzero;stroke:none;stroke-width:0.00999568"
       id="path478" />
    <path
       d="m 19.097798,28.658945 c -0.52877,2.0671 -2.67384,3.31656 -4.79092,2.79079 -2.11708,-0.52478 -3.40553,-2.62587 -2.87676,-4.69297 0.52877,-2.06611 2.67285,-3.31557 4.78993,-2.79079 2.11808,0.52577 3.40553,2.62686 2.87775,4.69297"
       style="fill:#262626;fill-opacity:1;fill-rule:nonzero;stroke:none;stroke-width:0.00999568"
       id="path480" />
    <path
       d="m 19.746518,26.581845 c -0.24689,0.96358 -1.24746,1.54633 -2.23403,1.30143 -0.98757,-0.24489 -1.58831,-1.22447 -1.34242,-2.18805 0.24689,-0.96458 1.24746,-1.54633 2.23403,-1.30144 0.98758,0.2449 1.58832,1.22447 1.34242,2.18806"
       style="fill:#ffffff;fill-opacity:1;fill-rule:nonzero;stroke:none;stroke-width:0.00999568"
       id="path482" />
    <path
       d="m 10.569498,34.363475 c -0.2529,1.00056 -0.8466397,1.89818 -1.6702802,2.5279 -0.82465,0.62873 -1.8452,0.96359 -2.87376,0.9406 l -0.04,-10e-4 c -0.87962,-0.027 -1.70826,-0.30886 -2.40596,-0.77966 -0.14294,-0.78066 -0.25789,-1.56432 -0.34885,-2.34399 0.52877,1.04055 1.59431,1.74925 2.79579,1.78623 l 0.028,10e-4 c 1.49635,0.032 2.84976,-1.00156 3.2176,-2.45893 0.091,-0.35885 0.4538105,-0.57575 0.8126502,-0.48479 0.35785,0.091 0.57576,0.4538 0.48479,0.81265"
       style="fill:#262626;fill-opacity:1;fill-rule:nonzero;stroke:none;stroke-width:0.00999568"
       id="path484" />
    <path
       d="m 28.386778,56.074075 c -1.03355,0 -2.0671,-0.052 -3.09765,-0.15693 -3.18363,-0.32686 -6.32227,-1.18849 -9.23001,-2.5419 2.90774,1.35341 6.04738,2.21504 9.23001,2.5419 1.03055,0.10495 2.0641,0.15693 3.09765,0.15693 6.38024,0 12.73849,-1.96815 18.19913,-5.30071 v 0 c 0.016,-0.01 0.032,-0.02 0.047,-0.029 10e-4,-0.001 0.002,-0.001 0.003,-0.001 0.91061,-0.55876 1.79722,-1.1535 2.65885,-1.78123 -0.87762,0.63972 -1.78023,1.24446 -2.70883,1.81122 -5.45963,3.33256 -11.81888,5.30071 -18.19912,5.30071"
       style="fill:#ededed;fill-opacity:1;fill-rule:nonzero;stroke:none;stroke-width:0.00999568"
       id="path486" />
    <path
       d="m 46.585908,50.773365 c 0.016,-0.01 0.032,-0.02 0.047,-0.029 -0.015,0.009 -0.031,0.019 -0.047,0.029 m 0.05,-0.03 c 3.33556,-2.04412 6.34526,-4.57802 9.00311,-7.44978 -1.93217,2.0881 -4.05025,3.99727 -6.34426,5.66855 -0.86162,0.62773 -1.74824,1.22247 -2.65885,1.78123"
       style="fill:#ed8d00;fill-opacity:1;fill-rule:nonzero;stroke:none;stroke-width:0.00999568"
       id="path488" />
    <path
       d="m 8.0505878,47.550765 c -0.001,0 -0.001,0 -0.001,-10e-4 0,10e-4 0.001,10e-4 0.001,10e-4 m -0.013,-0.016 c -0.001,-10e-4 -0.003,-0.003 -0.004,-0.004 0.001,10e-4 0.003,0.003 0.004,0.004 m -0.015,-0.018 c -0.002,-0.002 -0.004,-0.004 -0.006,-0.006 0.002,0.002 0.004,0.004 0.006,0.006 m -0.021,-0.025 c -0.003,-0.004 -0.006,-0.008 -0.01,-0.012 0.004,0.004 0.007,0.008 0.01,0.012 m -0.016,-0.02 c -0.004,-0.004 -0.007,-0.009 -0.011,-0.013 0.004,0.004 0.007,0.009 0.011,0.013 m -0.016,-0.02 c -0.005,-0.005 -0.009,-0.011 -0.014,-0.017 0.005,0.006 0.009,0.011 0.014,0.017"
       style="fill:#ed8d00;fill-opacity:1;fill-rule:nonzero;stroke:none;stroke-width:0.00999568"
       id="path490" />
    <path
       d="m 6.4122878,45.177795 v 0 0 m -0.056,-0.097 c 0,0 0,0 0,-0.001 0,0.001 0,0.001 0,0.001 m -0.011,-0.02 c 0,0 0,0 -0.001,-10e-4 0.001,10e-4 0.001,10e-4 0.001,10e-4 m -0.055,-0.097 c 0,-10e-4 0,-10e-4 -10e-4,-10e-4 10e-4,0 10e-4,0 10e-4,10e-4 m -0.055,-0.098 c 0,-10e-4 0,-10e-4 0,-0.002 0,10e-4 0,10e-4 0,0.002 m -0.011,-0.021 v 0 0 m -0.043,-0.077 c 0,-10e-4 0,-0.002 -10e-4,-0.002 10e-4,0 10e-4,0.001 10e-4,0.002 m -0.011,-0.021 v -10e-4 10e-4 m -0.042,-0.078 c 0,-0.001 -10e-4,-0.001 -10e-4,-0.002 0,0 10e-4,10e-4 10e-4,0.002 m -0.011,-0.021 c 0,0 0,0 -10e-4,-0.001 l 10e-4,0.001 m -0.053,-0.099 c 0,-10e-4 0,-10e-4 -10e-4,-10e-4 10e-4,0 10e-4,10e-4 10e-4,10e-4"
       style="fill:#ededed;fill-opacity:1;fill-rule:nonzero;stroke:none;stroke-width:0.00999568"
       id="path492" />
    <path
       d="m 7.9536278,47.432815 c -0.57176,-0.70869 -1.08453,-1.46337 -1.54134,-2.25502 v 0 c -0.019,-0.032 -0.038,-0.065 -0.056,-0.097 0,0 0,0 0,-0.001 -0.004,-0.006 -0.007,-0.012 -0.011,-0.019 0,0 0,0 -0.001,-10e-4 -0.018,-0.032 -0.036,-0.064 -0.054,-0.096 0,-10e-4 0,-10e-4 -10e-4,-10e-4 -0.018,-0.032 -0.036,-0.065 -0.054,-0.097 0,-10e-4 0,-10e-4 0,-0.002 -0.004,-0.006 -0.007,-0.012 -0.011,-0.019 v 0 c -0.014,-0.026 -0.028,-0.051 -0.043,-0.077 0,-10e-4 0,-0.002 -10e-4,-0.002 -0.003,-0.007 -0.006,-0.013 -0.01,-0.019 v -10e-4 c -0.014,-0.026 -0.028,-0.051 -0.042,-0.077 0,-0.001 -10e-4,-0.002 -10e-4,-0.002 -0.003,-0.006 -0.007,-0.013 -0.01,-0.019 l -10e-4,-0.001 c -0.017,-0.032 -0.035,-0.065 -0.052,-0.098 0,0 0,-10e-4 -10e-4,-10e-4 -0.79566,-1.50435 -1.40739,-3.12465 -1.86819,-4.79293 -0.01,-0.036 -0.012,-0.053 -0.005,-0.053 0.064,0 0.85463,1.44037 2.67285,3.27758 -0.41083,0.23889 -0.81165,0.49379 -1.20248,0.76267 0.62572,1.32043 1.3834,2.56489 2.293,3.6904"
       style="fill:#ed8d00;fill-opacity:1;fill-rule:nonzero;stroke:none;stroke-width:0.00999568"
       id="path494" />
    <path
       d="m 57.968978,40.579785 c 0.42782,-0.53677 0.84463,-1.08253 1.25046,-1.63629 v 0 0 0 0 c -0.40583,0.55376 -0.82264,1.09952 -1.25046,1.63629"
       style="fill:#ededed;fill-opacity:1;fill-rule:nonzero;stroke:none;stroke-width:0.00999568"
       id="path496" />
    <path
       d="m 50.885048,44.855925 c 2.42395,-1.51934 4.45107,-3.20461 6.13534,-4.88888 0.40782,-0.40782 0.79366,-0.81465 1.1615,-1.21947 0.28188,0.094 0.57875,0.15793 0.88761,0.18592 0.05,0.004 0.1,0.008 0.14994,0.01 v 0 c -0.40583,0.55376 -0.82264,1.09952 -1.25046,1.63629 -0.14794,0.18592 -0.29687,0.36984 -0.4478,0.55376 -2.14208,1.37141 -4.33313,2.66185 -6.63613,3.72239 m 4.75494,-1.56332 c 0.038,-0.041 0.077,-0.083 0.11495,-0.12495 -0.039,0.042 -0.077,0.084 -0.11495,0.12495 m 0.11595,-0.12595 c 0.013,-0.014 0.025,-0.027 0.037,-0.041 -0.012,0.014 -0.024,0.027 -0.037,0.041 m 0.041,-0.044 c 0.024,-0.026 0.048,-0.053 0.071,-0.079 -0.023,0.026 -0.048,0.053 -0.071,0.079 m 0.077,-0.085 c 0.011,-0.012 0.023,-0.025 0.034,-0.037 -0.011,0.012 -0.023,0.025 -0.034,0.037 m 0.04,-0.044 c 0.012,-0.013 0.023,-0.025 0.035,-0.038 -0.012,0.013 -0.023,0.025 -0.035,0.038 m 0.036,-0.039 c 0.011,-0.012 0.022,-0.025 0.033,-0.037 -0.011,0.012 -0.022,0.025 -0.033,0.037 m 0.04,-0.045 c 0.011,-0.011 0.021,-0.023 0.032,-0.035 -0.011,0.012 -0.022,0.024 -0.032,0.035 m 0.041,-0.045 c 0.011,-0.012 0.021,-0.023 0.031,-0.035 -0.01,0.012 -0.02,0.023 -0.031,0.035 m 0.038,-0.043 c 0.009,-0.01 0.019,-0.02 0.028,-0.03 -0.009,0.01 -0.019,0.02 -0.028,0.03 m 0.037,-0.04 c 0.01,-0.011 0.02,-0.023 0.03,-0.034 -0.01,0.011 -0.02,0.023 -0.03,0.034 m 0.041,-0.045 c 0.01,-0.012 0.019,-0.022 0.029,-0.033 -0.01,0.011 -0.019,0.022 -0.029,0.033 m 0.04,-0.046 c 0.007,-0.008 0.015,-0.016 0.022,-0.024 -0.007,0.008 -0.014,0.016 -0.022,0.024 m 0.034,-0.037 c 0.009,-0.011 0.018,-0.021 0.027,-0.031 -0.009,0.01 -0.018,0.02 -0.027,0.031 m 0.042,-0.047 c 0.008,-0.01 0.016,-0.019 0.025,-0.029 -0.009,0.01 -0.017,0.019 -0.025,0.029 m 0.04,-0.046 c 0.006,-0.007 0.012,-0.014 0.018,-0.021 -0.006,0.007 -0.012,0.015 -0.018,0.021 m 0.04,-0.045 c 0.006,-0.007 0.012,-0.014 0.018,-0.02 -0.006,0.007 -0.012,0.013 -0.018,0.02 m 0.035,-0.039 c 0.007,-0.009 0.015,-0.018 0.023,-0.027 -0.008,0.009 -0.016,0.018 -0.023,0.027 m 0.04,-0.046 c 0.005,-0.006 0.011,-0.012 0.016,-0.018 -0.005,0.006 -0.011,0.012 -0.016,0.018 m 0.039,-0.044 c 0.006,-0.007 0.011,-0.013 0.017,-0.02 -0.006,0.007 -0.011,0.014 -0.017,0.02 m 0.033,-0.038 c 0.008,-0.009 0.017,-0.019 0.025,-0.028 -0.008,0.009 -0.017,0.019 -0.025,0.028 m 0.041,-0.047 c 0.005,-0.006 0.01,-0.011 0.015,-0.017 -0.005,0.006 -0.01,0.011 -0.015,0.017 m 0.041,-0.047 c 0.005,-0.005 0.01,-0.01 0.014,-0.016 -0.004,0.005 -0.009,0.011 -0.014,0.016 m 0.032,-0.036 c 0.007,-0.008 0.014,-0.016 0.021,-0.025 -0.007,0.008 -0.014,0.017 -0.021,0.025 m 0.042,-0.048 c 0.003,-0.004 0.007,-0.009 0.011,-0.013 -0.004,0.005 -0.008,0.009 -0.011,0.013 m 0.041,-0.048 c 0.003,-0.004 0.007,-0.008 0.01,-0.011 -0.003,0.004 -0.006,0.007 -0.01,0.011 m 0.071,-0.082 c 0.003,-0.003 0.006,-0.007 0.009,-0.01 -0.003,0.003 -0.006,0.007 -0.009,0.01 m 0.042,-0.049 c 0.003,-0.003 0.006,-0.006 0.008,-0.009 -0.002,0.003 -0.005,0.006 -0.008,0.009 m 0.046,-0.053 c 0.001,-0.002 0.002,-0.003 0.004,-0.005 -0.002,0.002 -0.003,0.003 -0.004,0.005 m 0.025,-0.029 c 10e-4,-0.002 0.003,-0.004 0.004,-0.006 -10e-4,0.002 -0.003,0.004 -0.004,0.006 m 0.042,-0.05 c 0.002,-0.002 0.003,-0.004 0.005,-0.005 -0.002,0.002 -0.003,0.003 -0.005,0.005 m 0.069,-0.08 c 10e-4,-0.001 10e-4,-0.002 0.002,-0.003 -0.001,10e-4 -0.001,0.002 -0.002,0.003 m 0.041,-0.049 c 0.002,-0.003 0.004,-0.005 0.006,-0.007 -0.002,0.002 -0.004,0.004 -0.006,0.007 m 0.11196,-0.13194 c 10e-4,-0.002 0.002,-0.003 0.003,-0.005 -10e-4,0.002 -0.002,0.003 -0.003,0.005 m 0.043,-0.052 c 10e-4,-0.001 0.002,-0.002 0.003,-0.003 -10e-4,10e-4 -0.002,0.002 -0.003,0.003 m 0.024,-0.028 v 0 0 m 0.043,-0.051 c 10e-4,-0.001 0.002,-0.003 0.003,-0.004 -10e-4,0.001 -0.002,0.003 -0.003,0.004 m 0.043,-0.053 c 0.001,0 0.001,-10e-4 0.002,-0.002 -10e-4,10e-4 -10e-4,0.002 -0.002,0.002 m 0.066,-0.079 c 10e-4,-10e-4 0.002,-10e-4 0.002,-0.002 -0.001,10e-4 -0.001,10e-4 -0.002,0.002 m 0.044,-0.053 h 0.001 -0.001 m 0.065,-0.078 c 10e-4,-0.001 0.002,-0.002 0.002,-0.003 0,10e-4 -10e-4,0.002 -0.002,0.003 m 0.042,-0.052 c 0.001,-10e-4 0.002,-0.002 0.003,-0.003 -10e-4,0.001 -0.002,0.002 -0.003,0.003"
       style="fill:#ed8d00;fill-opacity:1;fill-rule:nonzero;stroke:none;stroke-width:0.00999568"
       id="path498" />
    <path
       d="m 59.759208,38.191815 c 0.76067,-1.07853 1.47935,-2.18506 2.15606,-3.31456 0.12995,-0.21791 0.25989,-0.43682 0.38584,-0.65772 v 10e-4 c -0.12595,0.21991 -0.25589,0.43881 -0.38584,0.65672 -0.67671,1.12951 -1.39539,2.23603 -2.15606,3.31456"
       style="fill:#ededed;fill-opacity:1;fill-rule:nonzero;stroke:none;stroke-width:0.00999568"
       id="path500" />
    <path
       d="m 62.301108,34.220535 v -10e-4 c 0,0 0,0 10e-4,0 v 0 c 0,0 -10e-4,0 -10e-4,10e-4 m 2.00113,-4.75794 c 0.014,-0.061 0.027,-0.12195 0.039,-0.18292 10e-4,-0.003 10e-4,-0.007 0.002,-0.011 0,0.004 -0.001,0.007 -0.002,0.011 -0.012,0.061 -0.025,0.12194 -0.039,0.18292"
       style="fill:#6f4c92;fill-opacity:1;fill-rule:nonzero;stroke:none;stroke-width:0.00999568"
       id="path502" />
    <path
       d="m 62.302108,34.219535 v 0 c 0.002,-0.004 0.005,-0.009 0.007,-0.013 0.047,-0.082 0.094,-0.16393 0.14094,-0.24689 -0.049,0.087 -0.099,0.17393 -0.14793,0.25989 m 0.40382,-0.72369 c 0.05,-0.093 0.1,-0.18692 0.14894,-0.27988 v -10e-4 c 0.074,-0.13994 0.14693,-0.28188 0.21691,-0.42382 -0.07,0.14194 -0.14295,0.28388 -0.21691,0.42382 v 10e-4 c -0.049,0.094 -0.098,0.18692 -0.14894,0.27988"
       style="fill:#674788;fill-opacity:1;fill-rule:nonzero;stroke:none;stroke-width:0.00999568"
       id="path504" />
    <path
       d="m 62.309098,34.206545 c 0.18792,-0.32686 0.37084,-0.65672 0.54577,-0.99058 v -10e-4 c -0.085,-0.15893 -0.18193,-0.31286 -0.28888,-0.4578 1.22547,-2.11609 1.74225,-3.54047 1.78123,-3.54047 0.005,0 0.003,0.017 -0.004,0.052 -10e-4,0.004 -10e-4,0.008 -0.002,0.011 -0.012,0.061 -0.025,0.12195 -0.039,0.18292 -0.25789,1.1575 -0.6987,2.26302 -1.23047,3.32856 -0.07,0.14194 -0.14294,0.28388 -0.21691,0.42382 v 10e-4 c -0.049,0.093 -0.099,0.18692 -0.14893,0.27988 -0.084,0.15593 -0.16893,0.30987 -0.25589,0.4638 -0.047,0.083 -0.094,0.16493 -0.14094,0.24689"
       style="fill:#ed8d00;fill-opacity:1;fill-rule:nonzero;stroke:none;stroke-width:0.00999568"
       id="path506" />
    <path
       d="m 59.219438,38.943495 v 0 c -0.05,-0.002 -0.1,-0.006 -0.14994,-0.01 -0.30886,-0.028 -0.60573,-0.092 -0.88761,-0.18592 1.98714,-2.18805 3.41052,-4.30813 4.3841,-5.9904 0.10695,0.14493 0.20391,0.29887 0.28888,0.4578 v 10e-4 c -0.17493,0.33386 -0.35785,0.66371 -0.54577,0.99057 -0.002,0.004 -0.005,0.009 -0.007,0.013 -10e-4,0 -10e-4,0 -10e-4,0 -0.12595,0.2209 -0.25589,0.43981 -0.38583,0.65771 -0.67671,1.12951 -1.3954,2.23603 -2.15607,3.31457 -0.17792,0.25189 -0.35784,0.50278 -0.53977,0.75167 v 0"
       style="fill:#edc83b;fill-opacity:1;fill-rule:nonzero;stroke:none;stroke-width:0.00999568"
       id="path508" />
    <path
       d="m 28.386778,56.074075 c -1.03355,0 -2.0671,-0.052 -3.09765,-0.15693 -3.18263,-0.32686 -6.32227,-1.18849 -9.23001,-2.5419 0,0 -0.001,-10e-4 -0.002,-10e-4 -10e-4,0 -10e-4,-0.001 -0.002,-0.001 -2.17206,-1.01256 -4.21517,-2.299 -6.04938,-3.84133 -0.7176902,-0.60374 -1.3674102,-1.26846 -1.9551502,-1.98115 0,0 -0.001,0 -0.001,-10e-4 -0.004,-0.005 -0.008,-0.01 -0.012,-0.015 -0.001,-10e-4 -0.003,-0.003 -0.004,-0.004 -0.004,-0.005 -0.008,-0.01 -0.011,-0.014 -0.002,-0.002 -0.004,-0.004 -0.006,-0.006 -0.005,-0.007 -0.01,-0.013 -0.015,-0.019 -0.003,-0.004 -0.006,-0.008 -0.01,-0.012 -0.002,-0.003 -0.004,-0.005 -0.006,-0.008 -0.004,-0.004 -0.007,-0.009 -0.011,-0.013 -0.002,-0.002 -0.003,-0.005 -0.005,-0.007 -0.005,-0.006 -0.009,-0.011 -0.014,-0.017 -0.001,-10e-4 -0.001,-10e-4 -0.002,-0.002 -0.9096,-1.12551 -1.66727,-2.36997 -2.293,-3.6904 0.39083,-0.26888 0.79166,-0.52377 1.20248,-0.76267 2.9667105,2.9977 8.6712402,7.05395 18.4260202,7.6327 1.17749,0.07 2.323,0.10395 3.43452,0.10395 9.64982,0 16.8537,-2.5329 22.1614,-5.86046 2.30301,-1.06054 4.49406,-2.35098 6.63613,-3.72239 -0.005,0.006 -0.009,0.011 -0.014,0.017 -10e-4,10e-4 -0.002,0.002 -0.003,0.003 -0.013,0.016 -0.026,0.033 -0.04,0.049 0,10e-4 -10e-4,0.002 -0.002,0.003 -0.022,0.026 -0.043,0.052 -0.064,0.078 h -0.001 c -0.014,0.017 -0.028,0.034 -0.042,0.051 0,0.001 -10e-4,0.001 -0.002,0.002 -0.021,0.026 -0.043,0.052 -0.064,0.077 -0.001,0.001 -0.001,0.002 -0.002,0.002 -0.013,0.017 -0.027,0.033 -0.04,0.049 -10e-4,10e-4 -0.002,0.003 -0.003,0.004 -0.015,0.017 -0.029,0.034 -0.043,0.051 v 0 c -0.007,0.008 -0.014,0.017 -0.021,0.025 -10e-4,0.001 -0.002,0.002 -0.003,0.003 -0.013,0.016 -0.026,0.032 -0.04,0.047 -10e-4,0.002 -0.002,0.003 -0.003,0.005 -0.035,0.042 -0.07,0.083 -0.10595,0.12494 -0.002,0.002 -0.004,0.004 -0.006,0.007 -0.013,0.015 -0.026,0.031 -0.039,0.046 -10e-4,0.001 -10e-4,0.002 -0.002,0.003 -0.021,0.024 -0.043,0.05 -0.064,0.075 -0.002,10e-4 -0.003,0.003 -0.005,0.005 -0.012,0.015 -0.025,0.03 -0.038,0.044 -10e-4,0.002 -0.003,0.004 -0.004,0.006 -0.007,0.008 -0.014,0.016 -0.021,0.024 -0.002,0.002 -0.003,0.003 -0.004,0.005 -0.013,0.014 -0.025,0.029 -0.038,0.044 -0.002,0.003 -0.005,0.006 -0.008,0.009 -0.011,0.013 -0.022,0.026 -0.033,0.039 -0.003,0.003 -0.006,0.007 -0.009,0.01 -0.02,0.024 -0.041,0.047 -0.061,0.071 -0.003,0.003 -0.007,0.007 -0.01,0.011 -0.01,0.012 -0.02,0.024 -0.03,0.035 -0.004,0.004 -0.008,0.009 -0.011,0.013 -0.007,0.008 -0.014,0.016 -0.021,0.023 -0.007,0.009 -0.014,0.017 -0.021,0.025 -0.006,0.007 -0.012,0.013 -0.018,0.02 -0.004,0.006 -0.009,0.011 -0.014,0.016 -0.008,0.01 -0.017,0.02 -0.026,0.03 -0.005,0.006 -0.01,0.011 -0.015,0.017 -0.005,0.006 -0.011,0.013 -0.016,0.019 -0.008,0.009 -0.017,0.019 -0.025,0.028 -0.005,0.006 -0.011,0.012 -0.016,0.018 -0.006,0.007 -0.011,0.013 -0.017,0.02 -0.008,0.009 -0.015,0.017 -0.023,0.026 -0.005,0.006 -0.011,0.012 -0.016,0.018 -0.006,0.007 -0.011,0.013 -0.017,0.019 -0.008,0.009 -0.016,0.018 -0.023,0.027 -0.006,0.006 -0.011,0.012 -0.017,0.019 -0.006,0.006 -0.012,0.013 -0.018,0.02 -0.007,0.008 -0.014,0.016 -0.022,0.024 -0.006,0.007 -0.012,0.014 -0.018,0.021 -0.005,0.006 -0.01,0.012 -0.015,0.017 -0.009,0.01 -0.017,0.019 -0.025,0.029 -0.005,0.005 -0.01,0.01 -0.015,0.016 -0.009,0.01 -0.018,0.02 -0.027,0.031 -0.004,0.004 -0.008,0.008 -0.012,0.013 -0.007,0.008 -0.015,0.016 -0.022,0.024 -0.004,0.004 -0.007,0.008 -0.011,0.013 -0.01,0.011 -0.019,0.021 -0.029,0.033 -0.004,0.003 -0.007,0.007 -0.011,0.011 -0.01,0.011 -0.02,0.023 -0.03,0.034 -0.003,0.003 -0.006,0.007 -0.009,0.01 -0.009,0.01 -0.019,0.02 -0.028,0.03 -0.002,0.003 -0.004,0.006 -0.007,0.008 -0.01,0.012 -0.02,0.023 -0.031,0.035 -0.003,0.003 -0.006,0.007 -0.009,0.01 -0.011,0.012 -0.021,0.024 -0.032,0.035 -0.002,0.003 -0.005,0.005 -0.007,0.008 -0.011,0.012 -0.022,0.025 -0.033,0.037 -10e-4,0 -10e-4,10e-4 -10e-4,10e-4 -0.012,0.013 -0.023,0.025 -0.035,0.038 -0.002,0.002 -0.004,0.005 -0.006,0.007 -0.011,0.012 -0.023,0.025 -0.034,0.037 -0.002,0.002 -0.004,0.004 -0.006,0.006 -0.023,0.026 -0.047,0.053 -0.071,0.079 -0.002,10e-4 -0.003,0.002 -0.004,0.003 -0.012,0.014 -0.024,0.027 -0.037,0.041 l -10e-4,0.001 c -0.038,0.042 -0.077,0.084 -0.11494,0.12495 -0.001,10e-4 -0.001,10e-4 -0.001,10e-4 -2.65785,2.87176 -5.66754,5.40566 -9.0031,7.44978 -10e-4,0 -0.002,0 -0.003,10e-4 -0.015,0.009 -0.031,0.019 -0.047,0.029 v 0 c -5.46063,3.33256 -11.81888,5.30071 -18.19912,5.30071"
       style="fill:#edc83b;fill-opacity:1;fill-rule:nonzero;stroke:none;stroke-width:0.00999568"
       id="path510" />
    <path
       d="m 67.314928,23.140335 c -0.27987,0 -0.49078,-0.069 -0.60873,-0.21891 -0.13394,-0.17093 -0.13194,-0.43282 -0.005,-0.76667 0.032,-0.083 0.072,-0.17092 0.11895,-0.26289 0.048,-0.09 0.10495,-0.18292 0.16793,-0.27988 0.12894,-0.19291 0.28387,-0.40482 0.47479,-0.61373 0.095,-0.10595 0.19592,-0.21391 0.30487,-0.32486 0.10795,-0.10995 0.2269,-0.2159 0.34985,-0.32686 0.24489,-0.2249 0.52477,-0.43981 0.82364,-0.65971 0.60474,-0.42881 1.31044,-0.84264 2.0911,-1.19348 0.78266,-0.346854 1.56232,-0.596747 2.28501,-0.759677 0.36384,-0.07597 0.70969,-0.139937 1.04055,-0.172924 0.16493,-0.01799 0.32286,-0.03498 0.47779,-0.04198 0.14894,-0.007 0.29387,-0.01 0.43082,-0.01 0.005,0 0.01,0 0.014,0 0.015,0 0.029,0 0.044,0 0.26589,0 0.51178,0.02499 0.72969,0.05598 0.11495,0.01799 0.2219,0.03699 0.32186,0.06197 0.099,0.02598 0.19092,0.05498 0.27388,0.08696 0.33385,0.127943 0.52977,0.30087 0.56775,0.515776 0.038,0.213905 -0.085,0.449805 -0.32986,0.688705 -0.061,0.06 -0.12994,0.11995 -0.20591,0.17992 -0.075,0.062 -0.15793,0.12594 -0.24689,0.18892 -0.17792,0.12694 -0.38283,0.24889 -0.60774,0.38383 -0.11195,0.066 -0.2299,0.13094 -0.35384,0.19591 -0.12295,0.066 -0.24989,0.13695 -0.38284,0.20392 -0.26588,0.13194 -0.54576,0.27888 -0.84363,0.41682 -0.59275,0.28687 -1.24346,0.58174 -1.92917,0.88561 -0.6837,0.30787 -1.33742,0.59475 -1.94715,0.84464 -0.30187,0.12894 -0.59774,0.24089 -0.87363,0.34985 -0.13794,0.054 -0.27588,0.10095 -0.40682,0.14893 -0.13094,0.049 -0.25889,0.093 -0.38283,0.13294 -0.25089,0.076 -0.4778,0.14794 -0.6917,0.19592 -0.10596,0.024 -0.20891,0.042 -0.30487,0.058 -0.096,0.016 -0.18592,0.027 -0.27188,0.033 -0.042,0.003 -0.084,0.004 -0.12395,0.004"
       style="fill:#a48bbd;fill-opacity:1;fill-rule:nonzero;stroke:none;stroke-width:0.00999568"
       id="path512" />
    <path
       d="m 50.585168,13.997286 c -0.091,0 -0.18791,-0.005 -0.28987,-0.01598 -0.12494,-0.014 -0.25889,-0.03598 -0.39982,-0.06497 -0.14195,-0.02799 -0.29388,-0.05997 -0.45181,-0.100954 -0.31786,-0.07897 -0.65772,-0.194917 -1.03455,-0.314864 -0.18692,-0.06297 -0.37984,-0.131944 -0.57775,-0.20691 -0.098,-0.03898 -0.20192,-0.07197 -0.30487,-0.109954 -0.10296,-0.03798 -0.20691,-0.07697 -0.31286,-0.11795 -0.10596,-0.03998 -0.21191,-0.08197 -0.31987,-0.124945 -0.054,-0.02199 -0.10795,-0.04398 -0.16293,-0.06597 -0.055,-0.021 -0.11095,-0.04198 -0.16692,-0.06297 -0.22391,-0.08497 -0.45081,-0.176925 -0.68171,-0.272884 -0.9326,-0.36984 -1.94016,-0.788657 -2.9987,-1.225468 -1.06154,-0.430816 -2.0731,-0.837638 -2.9977,-1.227468 -0.2329,-0.09396 -0.4588,-0.1879214 -0.67871,-0.2838784 -0.054,-0.024 -0.10895,-0.04798 -0.16293,-0.07197 -0.054,-0.02298 -0.10795,-0.04498 -0.16193,-0.06697 -0.10695,-0.04498 -0.21291,-0.08996 -0.31586,-0.134942 -0.10396,-0.04498 -0.20591,-0.09096 -0.30587,-0.135942 -0.1,-0.04498 -0.19791,-0.09396 -0.29487,-0.134941 -0.19392,-0.08496 -0.37884,-0.170926 -0.55676,-0.256889 -0.35285,-0.178922 -0.67671,-0.334857 -0.95859,-0.500784 -0.14194,-0.08097 -0.27288,-0.165928 -0.39283,-0.244893 -0.12194,-0.07797 -0.2319,-0.155934 -0.33085,-0.233899 -0.39383,-0.311866 -0.60174,-0.621732 -0.56576,-0.909607 0.037,-0.287875 0.31787,-0.526772 0.80865,-0.708693 0.12295,-0.04598 0.25889,-0.08796 0.40683,-0.126945 0.14793,-0.03698 0.30686,-0.06497 0.47879,-0.09196 0.34185,-0.04998 0.73368,-0.09396 1.1595,-0.09396 0.071,-9.92e-4 0.14393,-0.002 0.2169,-0.002 0.14694,0 0.29887,0.002 0.45381,0.006 0.11695,0.002 0.23489,0.01199 0.35484,0.01999 0.12095,0.009 0.2429,0.01899 0.36784,0.03099 0.12395,0.01099 0.25089,0.02399 0.37884,0.03798 0.065,0.007 0.12994,0.01299 0.19492,0.02199 0.064,0.01 0.12994,0.01899 0.19491,0.02899 0.26289,0.04098 0.53277,0.08596 0.80865,0.136941 1.10053,0.219904 2.29001,0.563755 3.49049,1.050545 1.19748,0.493786 2.28701,1.08253 3.2256,1.697266 0.2319,0.156932 0.45681,0.313863 0.67271,0.468795 0.053,0.03899 0.10696,0.07797 0.15993,0.115952 0.052,0.03998 0.10296,0.08096 0.15394,0.120947 0.10095,0.07997 0.19991,0.15993 0.29687,0.2388974 0.097,0.07896 0.19092,0.156932 0.28388,0.234896 0.091,0.07897 0.18192,0.153934 0.26688,0.234899 0.16993,0.158932 0.33086,0.314864 0.48179,0.466797 0.30287,0.299873 0.55176,0.60474 0.76067,0.880621 0.10396,0.13894 0.19692,0.271881 0.27688,0.400827 0.079,0.131941 0.14594,0.256887 0.20191,0.375836 0.22191,0.473796 0.25489,0.840636 0.079,1.072537 -0.13994,0.18292 -0.39883,0.267883 -0.75068,0.267883"
       style="fill:#a48bbd;fill-opacity:1;fill-rule:nonzero;stroke:none;stroke-width:0.00999568"
       id="path514" />
    <path
       d="m 31.548408,27.872285 c -0.12894,0 -0.23789,-0.032 -0.31786,-0.10096 -0.10995,-0.095 -0.15393,-0.25289 -0.13294,-0.4638 0.005,-0.053 0.015,-0.10895 0.028,-0.16793 0.014,-0.059 0.034,-0.11895 0.056,-0.18192 0.047,-0.12594 0.10595,-0.26588 0.18992,-0.40682 0.04,-0.071 0.085,-0.14394 0.13294,-0.21891 0.049,-0.074 0.10496,-0.14693 0.16293,-0.2219 0.11395,-0.15393 0.25089,-0.30187 0.40083,-0.4548 0.30286,-0.29888 0.6717,-0.59175 1.09452,-0.84364 0.42382,-0.24989 0.85763,-0.43281 1.26645,-0.55476 0.20491,-0.057 0.40183,-0.10595 0.59075,-0.13294 0.094,-0.014 0.18492,-0.028 0.27288,-0.035 0.089,-0.006 0.17492,-0.01 0.25689,-0.012 0.023,-0.001 0.046,-0.001 0.068,-0.001 0.13694,0 0.26489,0.014 0.37883,0.031 0.067,0.01 0.12895,0.022 0.18693,0.038 0.058,0.017 0.11195,0.035 0.16092,0.056 0.19492,0.083 0.31187,0.19792 0.34286,0.33985 0.03,0.14194 -0.028,0.29787 -0.14994,0.45581 -0.031,0.039 -0.066,0.079 -0.10395,0.11895 -0.038,0.04 -0.08,0.083 -0.12495,0.12494 -0.09,0.084 -0.19392,0.16393 -0.30786,0.25289 -0.057,0.044 -0.11695,0.087 -0.17893,0.12995 -0.063,0.043 -0.12694,0.0909 -0.19392,0.13494 -0.13394,0.087 -0.27487,0.18392 -0.42481,0.27488 -0.29787,0.18991 -0.62473,0.38483 -0.96958,0.58774 -0.34285,0.20491 -0.67071,0.39683 -0.98058,0.56676 -0.15193,0.088 -0.30487,0.16493 -0.44581,0.24089 -0.071,0.037 -0.14293,0.07 -0.2109,0.10496 -0.068,0.034 -0.13394,0.066 -0.19992,0.095 -0.13294,0.056 -0.25289,0.10895 -0.36984,0.14793 -0.059,0.019 -0.11595,0.035 -0.16992,0.049 -0.053,0.015 -0.10496,0.026 -0.15394,0.034 -0.054,0.008 -0.10495,0.013 -0.15393,0.013"
       style="fill:#a48bbd;fill-opacity:1;fill-rule:nonzero;stroke:none;stroke-width:0.00999568"
       id="path516" />
    <path
       d="m 50.076398,23.821035 c -0.60974,-0.56875 -1.4074,-0.94659 -2.30201,-1.02856 -0.11995,-0.011 -0.2389,-0.016 -0.35784,-0.016 -0.65972,0 -1.28845,0.16693 -1.84021,0.4648 -1.82421,-0.32186 -3.97727,-0.72168 -6.29727,-1.08652 -3.16163,-0.49879 -6.04738,-0.83664 -8.18346,-1.1675 -1.06654,-0.16793 -1.94416,-0.34085 -2.56389,-0.54676 -0.31086,-0.10396 -0.55576,-0.21491 -0.72768,-0.33686 -0.17193,-0.12194 -0.26889,-0.25589 -0.28288,-0.39982 -0.014,-0.14494 0.058,-0.29288 0.20791,-0.44381 0.14993,-0.15094 0.37883,-0.30387 0.6807,-0.45181 0.60274,-0.29687 1.49736,-0.579744 2.62387,-0.793653 0.71669,-0.135942 1.52634,-0.243895 2.40996,-0.308866 0.31986,1.660279 1.70426,2.979709 3.47249,3.140639 0.11995,0.01 0.2389,0.016 0.35685,0.016 1.69526,0 3.17962,-1.10252 3.6954,-2.678836 1.33842,0.258886 2.59887,0.592746 3.74038,0.978576 0.71769,0.2379 1.3874,0.50078 2.00513,0.76467 0.61573,0.26988 1.18049,0.54176 1.68327,0.81864 1.00657,0.54877 1.77124,1.09253 2.25403,1.56033 0.24189,0.2329 0.41282,0.4488 0.50878,0.63872 0.0969,0.18992 0.11895,0.35285 0.062,0.48579 -0.057,0.13394 -0.19192,0.2309 -0.39283,0.29487 -0.19192,0.06 -0.44481,0.091 -0.75267,0.096"
       style="fill:#ffba54;fill-opacity:1;fill-rule:nonzero;stroke:none;stroke-width:0.00999568"
       id="path518" />
    <path
       d="m 49.981438,23.822035 c -0.64772,0 -1.51735,-0.10396 -2.5559,-0.26689 -0.56775,-0.091 -1.18648,-0.19691 -1.8492,-0.31386 0.55176,-0.29787 1.18049,-0.4648 1.84021,-0.4648 0.11894,0 0.23789,0.005 0.35784,0.016 0.89461,0.082 1.69227,0.4598 2.30201,1.02855 -0.014,0.001 -0.028,0.001 -0.042,0.001 -0.017,0 -0.035,0 -0.053,0"
       style="fill:#ffe47f;fill-opacity:1;fill-rule:nonzero;stroke:none;stroke-width:0.00999568"
       id="path520" />
    <path
       d="m 37.272938,20.862315 c -0.11795,0 -0.2369,-0.006 -0.35685,-0.016 -1.76823,-0.16093 -3.15263,-1.48036 -3.47249,-3.140642 0.50577,-0.03698 1.03555,-0.05997 1.58631,-0.06597 0.11795,-0.0011 0.2369,-0.002 0.35684,-0.002 1.41539,0 2.95472,0.115949 4.54604,0.363842 0.34985,0.05498 0.6947,0.115949 1.03555,0.181922 -0.51578,1.576318 -2.00014,2.678848 -3.6954,2.678848"
       style="fill:#ffe47f;fill-opacity:1;fill-rule:nonzero;stroke:none;stroke-width:0.00999568"
       id="path522" />
  </g>
</svg>
