<?xml version="1.0" encoding="UTF-8" standalone="no"?>
<svg
   xmlns:dc="http://purl.org/dc/elements/1.1/"
   xmlns:cc="http://creativecommons.org/ns#"
   xmlns:rdf="http://www.w3.org/1999/02/22-rdf-syntax-ns#"
   xmlns:svg="http://www.w3.org/2000/svg"
   xmlns="http://www.w3.org/2000/svg"
   xmlns:sodipodi="http://sodipodi.sourceforge.net/DTD/sodipodi-0.dtd"
   xmlns:inkscape="http://www.inkscape.org/namespaces/inkscape"
   width="320"
   height="200"
   viewBox="0 0 84.666664 52.916666"
   version="1.1"
   id="svg646"
   inkscape:version="1.0.2-2 (e86c870879, 2021-01-15)"
   sodipodi:docname="fish04.svg">
  <defs
     id="defs640" />
  <sodipodi:namedview
     id="base"
     pagecolor="#ffffff"
     bordercolor="#666666"
     borderopacity="1.0"
     inkscape:pageopacity="0.0"
     inkscape:pageshadow="2"
     inkscape:zoom="0.35"
     inkscape:cx="400"
     inkscape:cy="560"
     inkscape:document-units="px"
     inkscape:current-layer="layer1"
     inkscape:document-rotation="0"
     showgrid="false"
     units="px"
     inkscape:window-width="1267"
     inkscape:window-height="1032"
     inkscape:window-x="172"
     inkscape:window-y="165"
     inkscape:window-maximized="0" />
  <metadata
     id="metadata643">
    <rdf:RDF>
      <cc:Work
         rdf:about="">
        <dc:format>image/svg+xml</dc:format>
        <dc:type
           rdf:resource="http://purl.org/dc/dcmitype/StillImage" />
        <dc:title></dc:title>
      </cc:Work>
    </rdf:RDF>
  </metadata>
  <g
     inkscape:label="Layer 1"
     inkscape:groupmode="layer"
     id="layer1">
    <path
       d="m 24.527777,13.992331 c 0.993849,-2.554534 2.008523,-5.1458174 3.672897,-7.3237514 1.664279,-2.1769236 4.095837,-3.9221351 6.82898,-4.1231886 2.124361,-0.1561487 4.205444,0.6194946 6.122417,1.5482314 6.477182,3.1373024 11.997762,8.2167806 15.661173,14.4117676 0.729311,1.232871 1.400959,2.558623 1.482606,3.989484 0.08175,1.429851 -0.566427,2.989309 -1.8687,3.586359 L 24.527777,13.992331"
       style="fill:#ffbf16;fill-opacity:1;fill-rule:nonzero;stroke:none;stroke-width:0.0102059"
       id="path72" />
    <path
       d="m 65.011132,23.28277 c 2.099254,-2.647406 5.196751,-4.483454 8.527137,-5.05498 2.596391,-0.444984 5.706838,0.111243 7.013709,2.398384 0.946907,1.657439 0.669611,3.7323 0.151153,5.569366 -0.518469,1.837058 -1.257475,3.672079 -1.14919,5.577529 0.201871,3.553691 3.315697,6.723645 2.611388,10.21305 -0.432426,2.143237 -2.325417,3.80272 -4.437942,4.365065 -2.112621,0.562346 -4.387109,0.160231 -6.403898,-0.682778 -6.279697,-2.626999 -10.357668,-9.624171 -9.061826,-16.358024 0.421095,-2.18815 1.363921,-4.279337 2.749469,-6.027612"
       style="fill:#ffbf16;fill-opacity:1;fill-rule:nonzero;stroke:none;stroke-width:0.0102059"
       id="path74" />
    <path
       d="m 78.304639,46.168494 c 1.871659,-0.688897 3.468069,-2.237128 3.86069,-4.182375 0.166357,-0.824638 0.119616,-1.630905 -0.05156,-2.429008 0.171352,0.798103 0.218093,1.60437 0.05188,2.429008 -0.392926,1.946265 -1.989336,3.493478 -3.860995,4.182375"
       style="fill:#ededed;fill-opacity:1;fill-rule:nonzero;stroke:none;stroke-width:0.0102059"
       id="path76" />
    <path
       d="m 75.668756,46.611432 c -1.479648,0 -2.972061,-0.369455 -4.345163,-0.943026 -3.356013,-1.404327 -6.082725,-4.055823 -7.696886,-7.24823 0.438135,-0.425586 0.81698,-0.858317 1.129894,-1.297174 1.629782,2.337154 3.899675,4.241578 6.566992,5.357079 1.372998,0.574597 2.865612,0.944044 4.345059,0.944044 0.6937,0 1.384433,-0.08165 2.058735,-0.261266 1.956273,-0.519485 3.724348,-1.981988 4.318535,-3.89662 0.02438,0.09696 0.04707,0.193917 0.06784,0.290872 0.171152,0.798103 0.217893,1.60437 0.05156,2.429008 -0.392621,1.945247 -1.989031,3.493478 -3.86069,4.182375 -0.189835,0.06944 -0.382726,0.130641 -0.577252,0.18269 -0.674198,0.17962 -1.36514,0.260248 -2.058631,0.260248"
       style="fill:#edb214;fill-opacity:1;fill-rule:nonzero;stroke:none;stroke-width:0.0102059"
       id="path78" />
    <path
       d="m 42.177971,45.131576 c 0.875059,1.500272 1.769299,3.025033 3.047284,4.200754 1.27788,1.175714 3.020846,1.972799 4.737375,1.70847 1.728059,-0.265356 3.114232,-1.519661 4.38844,-2.716817 1.460667,-1.371675 2.931846,-2.756613 4.091242,-4.391599 1.159387,-1.633968 1.999846,-3.55778 2.035874,-5.561195 l -18.300215,6.760387"
       style="fill:#ffbf16;fill-opacity:1;fill-rule:nonzero;stroke:none;stroke-width:0.0102059"
       id="path80" />
    <path
       d="m 44.336932,48.395422 c -0.303733,-0.363328 -0.585511,-0.745028 -0.852911,-1.13898 0.31516,-0.08062 0.63032,-0.161248 0.944966,-0.243921 0.255661,-0.06736 0.511114,-0.135733 0.766158,-0.205135 1.099279,-0.298008 2.191718,-0.613377 3.2665,-0.94609 2.526163,-0.779724 4.955684,-1.651312 7.15587,-2.599438 1.578655,-0.680734 3.039426,-1.400254 4.332414,-2.154471 -0.232086,0.63991 -0.531121,1.260431 -0.877915,1.852374 -1.063964,0.575608 -2.223255,1.12979 -3.454595,1.660501 -2.200298,0.948126 -4.629908,1.819714 -7.155774,2.600465 -1.324317,0.408233 -2.674863,0.792996 -4.032658,1.150206 -0.03095,0.0082 -0.0611,0.01628 -0.09206,0.02454"
       style="fill:#edb214;fill-opacity:1;fill-rule:nonzero;stroke:none;stroke-width:0.0102059"
       id="path82" />
    <path
       d="m 65.281082,36.257541 c -1.298705,2.594339 -4.955685,4.975379 -9.663567,7.004317 -2.200186,0.948126 -4.629707,1.819714 -7.15587,2.599438 -1.324012,0.40926 -2.674863,0.794023 -4.032457,1.151225 -2.208558,0.580724 -4.436095,1.089993 -6.599443,1.518642 -1.672137,0.331695 -3.305592,0.615421 -4.862908,0.846072 -1.718574,0.256166 -3.343761,0.449057 -4.82413,0.571527 -0.434567,0.03672 -0.870465,0.06632 -1.308191,0.08981 C 20.713622,50.362103 14.311255,49.356819 9.5302993,45.581659 7.3472571,43.857882 5.607763,41.565633 4.4583749,39.009055 4.1768936,38.383434 3.930422,37.741479 3.7220153,37.087279 3.6362871,36.819887 3.5568857,36.550449 3.4844205,36.278975 3.3229634,35.677844 3.1940624,35.068557 3.0981264,34.45518 2.9589213,33.574412 2.8903371,32.683435 2.894114,31.794495 2.917689,27.113051 5.6661393,22.06827 8.9362156,18.864637 c 2.0478134,-2.005459 4.4958024,-3.611875 7.1502574,-4.695742 4.312711,-1.760519 8.998951,-2.271833 13.673771,-1.994233 1.913092,0.11227 3.825478,0.35721 5.708571,0.703186 0.59337,0.109207 1.183676,0.227596 1.77011,0.355166 1.186843,0.259229 2.371137,0.558263 3.54584,0.898121 2.092824,0.604195 4.155745,1.336978 6.157732,2.202439 1.794198,0.775643 3.540123,1.656412 5.212974,2.64537 2.223047,1.314517 4.317201,2.819889 6.22836,4.520195 2.19131,1.949329 4.14176,4.154823 5.770107,6.624655 1.208486,1.831958 2.109366,4.171148 1.127144,6.133747"
       style="fill:#0897f5;fill-opacity:1;fill-rule:nonzero;stroke:none;stroke-width:0.0102059"
       id="path84" />
    <path
       d="m 37.604499,27.902983 c -0.01989,6.487895 -1.233481,12.88088 -3.607272,19.001357 -0.323532,0.833827 -0.666854,1.658465 -1.030086,2.472895 -1.718982,0.256166 -3.343864,0.449057 -4.824434,0.572553 -0.434262,0.03568 -0.870152,0.06527 -1.308095,0.08878 2.709776,-5.194803 5.514767,-12.818614 5.543546,-22.151914 0.01828,-6.025567 -1.100707,-11.317332 -2.617914,-15.713013 1.913405,0.113288 3.825173,0.358228 5.708676,0.704204 1.278385,4.359966 2.152827,9.403728 2.135579,15.025135"
       style="fill:#81d4fa;fill-opacity:1;fill-rule:nonzero;stroke:none;stroke-width:0.0102059"
       id="path86" />
    <path
       d="m 48.47522,27.881549 c 0.03288,6.586894 -1.328093,13.020703 -4.046233,19.130972 -2.208661,0.580724 -4.436103,1.089993 -6.599242,1.518642 2.780397,-4.915166 5.462508,-11.922538 5.419135,-20.623072 -0.02614,-5.26625 -1.060501,-9.900752 -2.464315,-13.776956 2.093224,0.604195 4.156041,1.336978 6.157724,2.202439 0.91415,3.452655 1.511497,7.318651 1.532931,11.547975"
       style="fill:#81d4fa;fill-opacity:1;fill-rule:nonzero;stroke:none;stroke-width:0.0102059"
       id="path88" />
    <path
       d="m 56.999807,39.432596 c -0.392524,1.291047 -0.854034,2.568831 -1.382388,3.828236 -2.200298,0.949152 -4.629908,1.82074 -7.155774,2.600464 2.647614,-4.41507 5.041717,-10.484523 4.978546,-17.944023 -0.02775,-3.269972 -0.521522,-6.258263 -1.28472,-8.938329 2.222847,1.314517 4.316993,2.819889 6.228256,4.520195 0.170951,1.404328 0.269742,2.862758 0.282708,4.374247 0.03296,3.920091 -0.527752,7.809566 -1.666628,11.55921"
       style="fill:#81d4fa;fill-opacity:1;fill-rule:nonzero;stroke:none;stroke-width:0.0102059"
       id="path90" />
    <path
       d="m 38.722662,22.496919 c 1.358204,0.04795 2.763148,0.902203 3.067587,2.226928 0.468959,2.040165 -1.717859,3.966014 -1.331357,6.023523 0.206771,1.100201 1.133872,2.022812 1.107547,3.142402 -0.02277,0.96956 -0.80168,1.800316 -1.708678,2.144255 -0.906999,0.343948 -1.915033,0.285772 -2.873166,0.134723 -3.12505,-0.493961 -8.629095,-2.295312 -7.541347,-6.449116 0.884955,-3.379171 5.764911,-7.34723 9.279414,-7.222715"
       style="fill:#ffbf16;fill-opacity:1;fill-rule:nonzero;stroke:none;stroke-width:0.0102059"
       id="path92" />
    <path
       d="m 39.503822,36.147316 c 0.119407,-0.03159 0.237491,-0.06936 0.353939,-0.113289 0.381089,-0.144922 0.739727,-0.375573 1.029059,-0.665417 -0.289228,0.289844 -0.647769,0.520495 -1.028851,0.665417 -0.116456,0.04386 -0.234636,0.08165 -0.354147,0.113289 m 2.061895,-2.233055 c 0,-8.02e-4 1.04e-4,-8.02e-4 1.04e-4,-0.0024 0,8.02e-4 -1.04e-4,8.02e-4 -1.04e-4,0.0024 m 2.08e-4,-0.004 c 2.01e-4,-0.0064 2.89e-4,-0.01331 5.78e-4,-0.02045 0.0072,-0.31026 -0.05846,-0.605213 -0.16197,-0.893021 1.04e-4,0 1.04e-4,0 1.04e-4,0 0.103385,0.287808 0.169315,0.582761 0.161866,0.893021 -1.04e-4,0.0072 -2.89e-4,0.01427 -5.78e-4,0.02045 M 30.447104,33.375459 c -2.96e-4,0 -5.85e-4,-8.02e-4 -8.02e-4,-8.02e-4 2.89e-4,0 5.78e-4,8.02e-4 8.02e-4,8.02e-4 m -0.0072,-0.0072 c -1.05e-4,0 -5.78e-4,-8.02e-4 -8.02e-4,-8.02e-4 2.96e-4,0 5.85e-4,0 8.02e-4,8.02e-4 m -0.0064,-0.0072 c -5.78e-4,0 -0.0016,-8.02e-4 -0.0016,-0.0024 5.77e-4,8.02e-4 8.02e-4,0.0024 0.0016,0.0024 m -0.0072,-0.0072 c -5.78e-4,-8.01e-4 -0.0016,-8.01e-4 -0.0024,-0.0024 5.77e-4,8.02e-4 0.0016,8.02e-4 0.0024,0.0024 m -0.0072,-0.0072 c -8.02e-4,-8.02e-4 -0.0016,-0.0024 -0.0032,-0.0032 8.02e-4,8.02e-4 0.0016,0.0024 0.0032,0.0032 m -0.0064,-0.0072 c -8.02e-4,-8.02e-4 -0.0024,-0.0024 -0.0032,-0.0032 8.02e-4,8.02e-4 0.0024,0.0024 0.0032,0.0032 m -0.0064,-0.0064 c -0.0016,-0.0024 -0.0032,-0.0032 -0.004,-0.0048 0.0016,0.0024 0.0032,0.0032 0.004,0.0048 m -0.0072,-0.0082 c -0.0016,-8.02e-4 -0.0032,-0.0032 -0.0048,-0.004 0.0016,8.02e-4 0.0032,0.0032 0.0048,0.004 m -0.0072,-0.0072 c -0.0016,-8.02e-4 -0.0032,-0.0032 -0.0056,-0.0048 0.0016,0.0024 0.0032,0.004 0.0056,0.0048 m -0.0072,-0.0072 c -0.0016,-0.0024 -0.004,-0.004 -0.0056,-0.0064 0.0024,0.0024 0.004,0.004 0.0056,0.0064 m -0.0072,-0.0072 c -0.0024,-0.0024 -0.004,-0.004 -0.0056,-0.0064 0.0024,0.0024 0.004,0.004 0.0056,0.0064 m -0.0072,-0.0082 c -0.0024,-0.0024 -0.004,-0.004 -0.0056,-0.0064 0.0024,0.0024 0.004,0.004 0.0056,0.0064 m -0.0072,-0.0072 c -0.0024,-0.0024 -0.004,-0.004 -0.0064,-0.0064 0.0024,0.0024 0.004,0.004 0.0064,0.0064 m -0.0072,-0.0072 c -0.0024,-0.0024 -0.0048,-0.0048 -0.0064,-0.0072 0.0024,0.0024 0.004,0.0048 0.0064,0.0072 m -0.0072,-0.0072 c -0.815961,-0.880768 -1.246952,-1.981988 -0.956802,-3.345492 1.04e-4,0 1.04e-4,0 2e-4,0 -0.289949,1.363504 0.140745,2.465742 0.956602,3.345492"
       style="fill:#078ce4;fill-opacity:1;fill-rule:nonzero;stroke:none;stroke-width:0.0102059"
       id="path94" />
    <path
       d="m 38.322688,36.288157 c -0.446916,0 -0.897705,-0.05004 -1.338093,-0.119407 -1.985557,-0.313324 -4.93211,-1.155306 -6.537491,-2.793355 -2.96e-4,0 -5.85e-4,-8.02e-4 -8.02e-4,-8.02e-4 -0.0024,-0.0024 -0.004,-0.004 -0.0064,-0.0064 -2.89e-4,-8.02e-4 -5.78e-4,-8.02e-4 -8.02e-4,-8.02e-4 -0.0024,-0.0024 -0.004,-0.004 -0.0056,-0.0064 -5.78e-4,0 -8.02e-4,-8.02e-4 -0.0016,-0.0024 -0.0016,-8.02e-4 -0.0032,-0.0032 -0.0048,-0.0048 -5.78e-4,-8.02e-4 -0.0016,-8.02e-4 -0.0024,-0.0024 -0.0016,-0.0024 -0.0032,-0.0032 -0.0048,-0.0048 -8.02e-4,-8.01e-4 -0.0016,-0.0024 -0.0032,-0.0032 -8.02e-4,-8.02e-4 -0.0032,-0.0024 -0.004,-0.004 -8.02e-4,-8.02e-4 -0.0024,-0.0024 -0.0032,-0.0032 -8.02e-4,-8.02e-4 -0.0024,-0.0024 -0.0032,-0.0032 -0.0016,-0.0024 -0.0032,-0.0032 -0.004,-0.0048 -8.01e-4,-8.01e-4 -0.0016,-0.0024 -0.0024,-0.0032 -0.0016,-8.02e-4 -0.0032,-0.0032 -0.0048,-0.004 -8.02e-4,-8.02e-4 -0.0016,-0.0024 -0.0024,-0.0032 -0.0016,-8.02e-4 -0.0032,-0.0032 -0.0056,-0.0048 -5.85e-4,-8.02e-4 -8.02e-4,-8.02e-4 -0.0016,-0.0024 -0.0024,-0.0024 -0.004,-0.004 -0.0056,-0.0064 -5.77e-4,0 -8.02e-4,-8.02e-4 -0.0016,-8.02e-4 -0.0024,-0.0024 -0.004,-0.004 -0.0056,-0.0064 -5.77e-4,-8.02e-4 -8.02e-4,-8.02e-4 -0.0016,-0.0024 -0.0024,-0.0024 -0.004,-0.004 -0.0056,-0.0064 -2.88e-4,0 -5.77e-4,0 -8.02e-4,-8.02e-4 -0.0024,-0.0024 -0.004,-0.004 -0.0064,-0.0064 -2.09e-4,-8.02e-4 -5.78e-4,-8.02e-4 -5.78e-4,-8.02e-4 -0.0024,-0.0024 -0.004,-0.0048 -0.0064,-0.0072 -9.6e-5,0 -2e-4,0 -2.88e-4,0 -0.815858,-0.879742 -1.246551,-1.98198 -0.956594,-3.345492 0.674503,2.871938 4.969861,4.205853 7.591047,4.619195 0.440388,0.0704 0.891481,0.119406 1.338405,0.119406 0.525299,0 1.04488,-0.0684 1.534969,-0.254129 0.668994,-0.254121 1.26849,-0.772588 1.546603,-1.41658 0.103386,0.287808 0.169211,0.582761 0.161866,0.893021 -1.04e-4,0.0072 -2.88e-4,0.01427 -5.85e-4,0.02045 -9.6e-5,8.02e-4 -9.6e-5,0.0024 -9.6e-5,0.0024 0,8.02e-4 -1.05e-4,8.02e-4 -1.05e-4,0.0024 -0.02045,0.553156 -0.285659,1.05937 -0.678897,1.454341 -0.28934,0.289844 -0.647969,0.520503 -1.029059,0.665425 -0.116448,0.04386 -0.234532,0.08165 -0.353939,0.113289 -0.383439,0.101036 -0.780655,0.140833 -1.181134,0.140833"
       style="fill:#edb214;fill-opacity:1;fill-rule:nonzero;stroke:none;stroke-width:0.0102059"
       id="path96" />
    <path
       d="m 34.124388,26.792582 c -0.07449,0 -0.13441,-0.01836 -0.178401,-0.05814 -0.08461,-0.0765 -0.09542,-0.231669 -0.02582,-0.445994 0.0696,-0.213306 0.218911,-0.485806 0.457628,-0.783814 0.238517,-0.295971 0.567558,-0.61644 0.991099,-0.910366 0.42314,-0.29189 0.946594,-0.551119 1.537927,-0.711349 0.03681,-0.01018 0.07361,-0.02045 0.110226,-0.03063 0.03729,-0.0072 0.07441,-0.01532 0.111452,-0.0235 0.07417,-0.01427 0.148082,-0.02959 0.221357,-0.04386 l 0.05485,-0.01018 0.04948,-0.0082 c 0.03336,-0.0048 0.06671,-0.0091 0.09991,-0.01427 0.06736,-0.01018 0.136864,-0.01836 0.206979,-0.0255 0.154922,-0.01636 0.314238,-0.02654 0.474885,-0.02654 0.131756,0 0.264225,0.0064 0.396085,0.02245 0.291689,0.03472 0.57613,0.111243 0.823724,0.226569 0.248917,0.114315 0.455279,0.266374 0.617963,0.419467 0.161361,0.157167 0.280567,0.318424 0.361805,0.469473 0.08195,0.151048 0.129205,0.289844 0.151048,0.408233 0.04314,0.237795 -0.008,0.388844 -0.107675,0.442938 -0.03183,0.01732 -0.06776,0.0255 -0.107467,0.0255 -0.08788,0 -0.194326,-0.03881 -0.317301,-0.09389 -0.178609,-0.08063 -0.395892,-0.195953 -0.644914,-0.273518 -0.126143,-0.03673 -0.255861,-0.06944 -0.394762,-0.08267 -0.07257,-0.0082 -0.147681,-0.01227 -0.226473,-0.01227 -0.07209,0 -0.147167,0.0032 -0.226368,0.01018 -0.165643,0.01227 -0.350675,0.04282 -0.561937,0.08471 -0.05469,0.01123 -0.109816,0.02245 -0.165434,0.03368 -0.02927,0.0064 -0.0587,0.01227 -0.08818,0.01836 l -0.04498,0.01018 -0.03937,0.0091 c -0.05276,0.01227 -0.105727,0.0255 -0.159107,0.03777 l -0.08052,0.01836 -0.08003,0.02245 c -0.429772,0.11737 -0.835255,0.269437 -1.206345,0.433749 -0.37057,0.165338 -0.707372,0.336794 -1.001603,0.482743 -0.438953,0.219424 -0.788409,0.378636 -1.00967,0.378636"
       style="fill:#ffd463;fill-opacity:1;fill-rule:nonzero;stroke:none;stroke-width:0.0102059"
       id="path98" />
    <path
       d="m 25.312201,21.070131 c 0.180446,0.104099 0.354147,0.217388 0.529789,0.333731 0.166052,0.123497 0.333122,0.250048 0.496929,0.381708 0.15788,0.135733 0.314029,0.276574 0.468855,0.419459 0.14748,0.149004 0.293525,0.301071 0.438856,0.455183 0.564487,0.628684 1.04998,1.33697 1.442505,2.098332 0.787896,1.522724 1.208173,3.257728 1.204092,5.003958 -0.004,1.74623 -0.434567,3.479189 -1.231043,4.997831 -0.396903,0.759317 -0.886991,1.465575 -1.455559,2.090169 -0.146462,0.153094 -0.293525,0.304134 -0.442016,0.45212 -0.156053,0.142886 -0.312915,0.28169 -0.471926,0.417423 -0.164825,0.130641 -0.332817,0.255148 -0.499783,0.378644 -0.176669,0.114307 -0.351188,0.226569 -0.53254,0.32965 0.08807,-0.192891 0.183092,-0.373537 0.276069,-0.553164 0.08777,-0.184727 0.174519,-0.36741 0.264433,-0.543974 0.08052,-0.183701 0.163189,-0.363329 0.246777,-0.539893 0.07554,-0.182683 0.152476,-0.36231 0.229937,-0.538867 0.29577,-0.717475 0.54245,-1.435977 0.744626,-2.155489 0.401602,-1.441077 0.618372,-2.893373 0.62409,-4.340576 0.0056,-1.448214 -0.20269,-2.902555 -0.595206,-4.345677 -0.197694,-0.721557 -0.440485,-1.441069 -0.732374,-2.160581 -0.07658,-0.177591 -0.152581,-0.35721 -0.227187,-0.539901 -0.08277,-0.177583 -0.164111,-0.357202 -0.244026,-0.541929 -0.0891,-0.176565 -0.174928,-0.359247 -0.261779,-0.543975 -0.09216,-0.180646 -0.186259,-0.36231 -0.273519,-0.554182"
       style="fill:#81d4fa;fill-opacity:1;fill-rule:nonzero;stroke:none;stroke-width:0.0102059"
       id="path100" />
    <path
       d="m 46.519766,11.389829 c -0.08746,0 -0.182787,-0.0072 -0.285459,-0.02045 C 45.800663,11.315255 45.236176,11.146894 44.58095,10.890727 43.925636,10.634561 43.179782,10.292658 42.377292,9.9027963 41.574602,9.5129253 40.71465,9.0781586 39.820818,8.6362385 38.927901,8.1984081 38.080707,7.7962931 37.303123,7.4452092 37.205856,7.4013468 37.109823,7.3574443 37.01501,7.3145762 36.919988,7.2727184 36.826201,7.2308847 36.733529,7.1900614 36.549002,7.1043332 36.367955,7.0308496 36.193636,6.9502293 36.018507,6.8757354 35.849192,6.7991806 35.685481,6.7277337 35.521578,6.659334 35.364403,6.5838377 35.21285,6.5205539 35.061392,6.4542391 34.916878,6.3848209 34.778788,6.3235819 34.640914,6.2623189 34.510578,6.1949856 34.387498,6.1378362 34.264411,6.078658 34.149494,6.0174029 34.042845,5.9582087 33.936196,5.9020776 33.838111,5.8439098 33.749528,5.7867523 33.660937,5.7275741 33.581536,5.671427 33.512543,5.6163143 33.443582,5.5601832 33.384869,5.5030257 33.337414,5.4458763 33.242601,5.3325877 33.192892,5.216244 33.196982,5.1009187 c 0.004,-0.1153333 0.06182,-0.2245323 0.171761,-0.3286314 0.05493,-0.050999 0.122879,-0.101044 0.203612,-0.149004 0.08062,-0.048994 0.174006,-0.094918 0.279228,-0.1347226 0.105326,-0.040815 0.222896,-0.079626 0.35231,-0.1163437 0.129102,-0.034721 0.269333,-0.062225 0.420991,-0.089818 0.152068,-0.028547 0.31322,-0.043862 0.485598,-0.060221 0.172788,-0.017321 0.35353,-0.02141 0.544584,-0.0255 0.03793,-8.019e-4 0.07618,-8.019e-4 0.11462,-8.019e-4 0.155844,0 0.31597,0.00722 0.482839,0.014273 0.207284,0.011226 0.421296,0.032636 0.643279,0.057174 0.219833,0.030631 0.449778,0.059178 0.681142,0.1051255 0.116039,0.022452 0.234532,0.043862 0.353225,0.069362 0.118292,0.027584 0.238108,0.055089 0.359247,0.083683 0.96762,0.2357585 1.994233,0.6113396 3.009115,1.1093827 1.011097,0.5000878 1.912586,1.0675409 2.681807,1.6360044 0.769829,0.5684715 1.411777,1.1348983 1.914118,1.653357 0.502429,0.5174399 0.867602,0.9869126 1.076313,1.3716753 0.208607,0.385789 0.260962,0.689923 0.130224,0.879751 -0.09991,0.144923 -0.299644,0.214325 -0.581229,0.214325"
       style="fill:#ffd463;fill-opacity:1;fill-rule:nonzero;stroke:none;stroke-width:0.0102059"
       id="path102" />
    <path
       d="m 67.769485,26.96302 c -0.153903,0 -0.291681,-0.03264 -0.407824,-0.10308 -0.236168,-0.144923 -0.358534,-0.440894 -0.357411,-0.878724 -0.0016,-0.111244 0.01315,-0.224533 0.03304,-0.348021 0.02053,-0.12247 0.04908,-0.254129 0.08604,-0.392934 0.0174,-0.06936 0.04073,-0.138796 0.06632,-0.209216 0.02542,-0.07041 0.05284,-0.142886 0.08246,-0.217388 0.06062,-0.146967 0.123488,-0.306179 0.208703,-0.458246 0.08237,-0.154104 0.173509,-0.314342 0.273118,-0.47968 0.105735,-0.159212 0.220547,-0.321487 0.34373,-0.488862 0.252494,-0.325568 0.546429,-0.659299 0.888628,-0.97466 0.680533,-0.635829 1.543444,-1.222671 2.538207,-1.65642 0.995797,-0.430686 2.023124,-0.6593 2.963392,-0.713394 0.11798,-0.0064 0.234227,-0.01018 0.348735,-0.01331 0.05701,-8.02e-4 0.113898,-0.0024 0.170333,-0.0032 0.0056,-8.02e-4 0.01115,-8.02e-4 0.01676,-8.02e-4 0.05228,0 0.106553,0.0024 0.158707,0.0032 0.232695,0.0048 0.463041,0.0255 0.68492,0.05308 0.445584,0.05918 0.86862,0.167375 1.247056,0.318424 0.37854,0.152067 0.711044,0.343939 0.97385,0.56439 0.06551,0.05308 0.126752,0.113288 0.1835,0.168401 0.02823,0.0275 0.05549,0.05509 0.08155,0.08266 0.02582,0.02959 0.0506,0.05918 0.07417,0.08777 0.04715,0.05814 0.09032,0.113281 0.128388,0.170438 0.03721,0.05814 0.07024,0.115325 0.09909,0.170438 0.0591,0.107162 0.09512,0.219424 0.118902,0.316379 0.01131,0.05004 0.02053,0.09594 0.02349,0.141867 0.0032,0.04691 0.0024,0.09083 -5.86e-4,0.132678 -0.01387,0.166356 -0.07722,0.292908 -0.177069,0.388844 -0.09961,0.09695 -0.230651,0.159204 -0.373023,0.204117 -0.03552,0.01123 -0.07185,0.02141 -0.108485,0.03063 -0.03689,0.0091 -0.0753,0.0194 -0.115639,0.02959 -0.07906,0.01941 -0.155026,0.03167 -0.239936,0.05204 -0.330981,0.06736 -0.675834,0.145941 -1.106937,0.264337 -0.215246,0.05814 -0.451815,0.124507 -0.712375,0.204117 -0.131147,0.04186 -0.265861,0.08266 -0.407312,0.129614 -0.03544,0.01123 -0.07104,0.0235 -0.107066,0.03472 -0.03785,0.01331 -0.0761,0.02654 -0.114611,0.03977 -0.07674,0.02654 -0.154417,0.05204 -0.232896,0.07658 -0.625926,0.208198 -1.292779,0.453138 -1.981171,0.750136 -1.373816,0.599079 -2.570458,1.291047 -3.537669,1.823795 -0.125942,0.06223 -0.236576,0.131651 -0.352415,0.189827 -0.05717,0.02959 -0.114002,0.05822 -0.170438,0.08573 -0.05685,0.02654 -0.112879,0.05204 -0.164416,0.07963 -0.105526,0.05308 -0.209329,0.100026 -0.310774,0.140849 -0.100931,0.04186 -0.202585,0.07449 -0.292603,0.107155 -0.186972,0.06223 -0.363224,0.09696 -0.522332,0.09696"
       style="fill:#ffd463;fill-opacity:1;fill-rule:nonzero;stroke:none;stroke-width:0.0102059"
       id="path104" />
    <path
       d="m 24.71985,50.09471 c -5.454033,0 -10.956859,-1.170621 -15.1895507,-4.513051 -0.3066926,-0.242903 -0.6045963,-0.496006 -0.8934308,-0.759325 0.2888345,0.263319 0.5867382,0.516422 0.8934308,0.759325 4.2326917,3.341411 9.7355177,4.513051 15.1894467,4.513051 0.706457,0 1.412803,-0.0194 2.11477,-0.05613 h 9.6e-5 v 0 c 0.437943,-0.02341 0.873833,-0.05308 1.308095,-0.08878 1.48057,-0.123496 3.105452,-0.316387 4.824434,-0.572553 1.04e-4,0 1.04e-4,0 1.04e-4,0 1.020183,-0.151049 2.073122,-0.32455 3.148112,-0.520503 -1.075086,0.195953 -2.128234,0.369454 -3.148216,0.520503 -1.718982,0.256166 -3.343864,0.449057 -4.824434,0.572553 -0.434262,0.03568 -0.870152,0.06527 -1.308095,0.08878 -0.701959,0.03673 -1.408208,0.05613 -2.114762,0.05613 m 14.380734,-1.822776 c 0.32516,-0.06944 0.651241,-0.138804 0.978237,-0.211261 2.88e-4,0 8.02e-4,0 8.02e-4,0 1.04e-4,0 2.08e-4,0 2.96e-4,0 1.128868,-0.248004 2.267239,-0.516422 3.403669,-0.804231 v 0 c -1.466184,0.370474 -2.935423,0.710331 -4.383437,1.015492 M 8.6348879,44.820297 c -0.014995,-0.01331 -0.02999,-0.0275 -0.044985,-0.04082 0.014995,0.01331 0.02991,0.0275 0.044985,0.04082 m -0.049716,-0.04595 c -0.00642,-0.0048 -0.013472,-0.01227 -0.020047,-0.01836 0.00642,0.0064 0.013391,0.01227 0.020047,0.01836 m -0.021971,-0.01941 c -0.00642,-0.0064 -0.013391,-0.01331 -0.020127,-0.0194 0.00642,0.0064 0.013391,0.01227 0.020127,0.0194 m -0.027424,-0.0255 c -0.00481,-0.0048 -0.010264,-0.01018 -0.015316,-0.01427 0.00481,0.004 0.010104,0.0092 0.015316,0.01427 m -0.023816,-0.02245 c -0.00481,-0.0048 -0.010504,-0.01018 -0.015636,-0.01427 0.00481,0.004 0.010424,0.0091 0.015636,0.01427 m -0.02566,-0.0235 c -0.00321,-0.0032 -0.00641,-0.0072 -0.010104,-0.01018 0.00321,0.0032 0.00722,0.0072 0.010104,0.01018 m -0.028707,-0.02758 c -0.00241,-0.0024 -0.00561,-0.0048 -0.00802,-0.0072 0.00241,0.0024 0.00561,0.0048 0.00802,0.0072 m -0.020608,-0.01941 c -0.0016,-0.0024 -0.00401,-0.004 -0.00561,-0.0048 0.0016,0.0024 0.00401,0.0032 0.00561,0.0048 m -0.049235,-0.04699 c -5.774e-4,0 -8.019e-4,-8.02e-4 -0.0016,-8.02e-4 5.854e-4,0 8.019e-4,8.02e-4 0.0016,8.02e-4 M 6.2812477,42.170718 h -2.886e-4 c 1.042e-4,0 2.004e-4,0 2.886e-4,0 m -0.036325,-0.051 c -8.019e-4,-8.02e-4 -0.00241,-0.0032 -0.00321,-0.004 8.019e-4,8.01e-4 0.00241,0.0032 0.00321,0.004 m -0.014273,-0.0194 c -0.0016,-0.0024 -0.00321,-0.0048 -0.00481,-0.0072 0.0016,0.0024 0.00321,0.0048 0.00481,0.0072 m -0.021089,-0.02959 c -0.00241,-0.004 -0.00481,-0.0072 -0.00722,-0.01123 0.00241,0.004 0.00481,0.0072 0.00722,0.01123 m -0.015717,-0.02245 c -0.00401,-0.0048 -0.00722,-0.01018 -0.010986,-0.01532 0.00321,0.0048 0.00722,0.01018 0.010986,0.01532 m -0.018363,-0.0255 c -0.00401,-0.0064 -0.00834,-0.01227 -0.012669,-0.01836 0.00401,0.0064 0.0085,0.01227 0.012669,0.01836 m -0.018363,-0.02654 c -0.00481,-0.0072 -0.010424,-0.01532 -0.015396,-0.02245 0.00481,0.0082 0.010264,0.01532 0.015396,0.02245 m -0.016118,-0.02349 c -0.00561,-0.0082 -0.011467,-0.01636 -0.01708,-0.02454 0.00561,0.0082 0.011306,0.01628 0.01708,0.02454 m -0.020367,-0.02863 c -0.011788,-0.01732 -0.023575,-0.03368 -0.035202,-0.051 0.011627,0.01732 0.023495,0.03368 0.035202,0.051 m -0.036245,-0.05204 c -1.0976429,-1.58601 -1.9424879,-3.354693 -2.4861575,-5.20604 0.039532,0.133696 0.08062,0.267392 0.1233842,0.401089 0.2084067,0.654199 0.4548782,1.296154 0.7363596,1.921775 0.4533466,1.008339 0.9984436,1.975863 1.626414,2.883165 M 3.5974123,36.682975 c -1.042e-4,0 -2.085e-4,0 -3.207e-4,-8.02e-4 1.042e-4,0 2.085e-4,8.02e-4 3.207e-4,8.02e-4 m -0.087877,-0.309242 c -0.00858,-0.03159 -0.017,-0.06327 -0.0255,-0.09389 -0.1452349,-0.540913 -0.264337,-1.088969 -0.356392,-1.640088 0.092264,0.551119 0.2111571,1.099175 0.3563923,1.639068 0.00834,0.03167 0.01692,0.06327 0.0255,0.09491"
       style="fill:#ededed;fill-opacity:1;fill-rule:nonzero;stroke:none;stroke-width:0.0102059"
       id="path106" />
    <path
       d="m 65.513577,35.681925 c 2.89e-4,-0.0024 8.02e-4,-0.0032 0.0016,-0.004 -5.78e-4,8.02e-4 -8.02e-4,0.0032 -0.0016,0.004 m 0.004,-0.01331 c 5.78e-4,-0.0024 0.0016,-0.004 0.0024,-0.0064 -5.77e-4,0.0024 -0.0016,0.004 -0.0024,0.0064 m 0.004,-0.01227 c 0.245453,-0.802185 0.220964,-1.650293 0.02381,-2.48922 0.197285,0.838927 0.221878,1.687035 -0.02381,2.48922 m 0.02341,-2.490239 c -5.85e-4,-0.004 -0.0016,-0.0072 -0.0024,-0.01018 8.02e-4,0.0032 0.0016,0.0064 0.0024,0.01018 m -0.004,-0.01636 c -5.77e-4,-0.0032 -8.02e-4,-0.0048 -0.0016,-0.0072 5.78e-4,0.0024 8.02e-4,0.004 0.0016,0.0072 m -0.0048,-0.02141 c 0,-8.02e-4 -1.04e-4,-8.02e-4 -2.01e-4,-8.02e-4 9.7e-5,0 2.01e-4,0 2.01e-4,8.02e-4"
       style="fill:#edb214;fill-opacity:1;fill-rule:nonzero;stroke:none;stroke-width:0.0102059"
       id="path108" />
    <path
       d="m 43.484021,47.256442 v 0 c 1.04e-4,0 -9.7e-5,0 0,0 v 0 0"
       style="fill:#edb214;fill-opacity:1;fill-rule:nonzero;stroke:none;stroke-width:0.0102059"
       id="path110" />
    <path
       d="m 43.484021,47.256442 v 0 c 0.31516,-0.08062 0.63032,-0.161248 0.944966,-0.243921 v 0 c 2.01e-4,0 2.01e-4,0 2.01e-4,0 0.255557,-0.06736 0.510913,-0.135733 0.765957,-0.205135 -0.255044,0.06944 -0.510497,0.137778 -0.766158,0.205135 -0.314646,0.08267 -0.629806,0.163301 -0.944966,0.243921"
       style="fill:#dca513;fill-opacity:1;fill-rule:nonzero;stroke:none;stroke-width:0.0102059"
       id="path112" />
    <path
       d="m 24.719746,50.09471 c -5.453929,0 -10.956755,-1.17164 -15.1894467,-4.513051 -0.3066926,-0.242903 -0.6045963,-0.496006 -0.8934308,-0.759325 -5.773e-4,-8.02e-4 -8.019e-4,-8.02e-4 -0.0016,-0.0024 -0.015075,-0.01331 -0.02999,-0.0275 -0.044985,-0.04082 -0.0016,-0.0024 -0.00321,-0.0032 -0.00481,-0.0048 -0.00642,-0.0064 -0.013391,-0.01227 -0.020047,-0.01836 -5.774e-4,0 -0.0016,-8.02e-4 -0.00241,-8.02e-4 -0.00642,-0.0072 -0.013391,-0.01331 -0.020127,-0.01941 -0.00241,-0.0024 -0.00481,-0.004 -0.00722,-0.0064 -0.00481,-0.0048 -0.010104,-0.01018 -0.015316,-0.01427 -0.00321,-0.0032 -0.00561,-0.0048 -0.0085,-0.0082 -0.00481,-0.0048 -0.010424,-0.01018 -0.015637,-0.01427 -0.00321,-0.0032 -0.00642,-0.0064 -0.010023,-0.0091 -0.00321,-0.0032 -0.00642,-0.0072 -0.010104,-0.01018 -0.00641,-0.0064 -0.012269,-0.01123 -0.018603,-0.01732 -0.00241,-0.0024 -0.00561,-0.0048 -0.00802,-0.0072 -0.00401,-0.004 -0.00834,-0.0082 -0.01267,-0.01227 -0.0016,-0.0024 -0.00401,-0.0032 -0.00561,-0.0048 -0.014594,-0.01427 -0.028787,-0.0275 -0.043381,-0.04186 -5.774e-4,0 -8.019e-4,-8.02e-4 -0.0016,-8.02e-4 -0.7735022,-0.736872 -1.4777067,-1.548239 -2.104763,-2.417782 -1.043e-4,0 -2.005e-4,0 -2.887e-4,0 -0.012028,-0.01732 -0.023976,-0.03368 -0.036004,-0.051 -8.018e-4,-8.02e-4 -0.00241,-0.0032 -0.00321,-0.004 -0.00321,-0.0048 -0.00722,-0.01018 -0.010745,-0.01532 -0.0016,-0.0024 -0.00321,-0.0048 -0.00481,-0.0072 -0.00561,-0.0072 -0.010825,-0.01532 -0.016358,-0.02245 -0.00241,-0.004 -0.00481,-0.0072 -0.00722,-0.01123 -0.00321,-0.004 -0.00561,-0.0072 -0.00818,-0.01123 -0.00401,-0.0048 -0.00722,-0.01018 -0.010986,-0.01531 -0.00241,-0.004 -0.00481,-0.0072 -0.00722,-0.01018 -0.00401,-0.0064 -0.00834,-0.01227 -0.01267,-0.01836 -0.00241,-0.0032 -0.00401,-0.0048 -0.00561,-0.0082 -0.00481,-0.0072 -0.010344,-0.01427 -0.015396,-0.02245 -2.085e-4,0 -5.854e-4,0 -5.854e-4,-8.02e-4 -0.00561,-0.0082 -0.011467,-0.01636 -0.01708,-0.02454 -8.019e-4,-8.02e-4 -0.00241,-0.0032 -0.00321,-0.004 -0.011788,-0.01732 -0.023575,-0.03368 -0.035202,-0.051 -2.887e-4,0 -5.774e-4,-8.02e-4 -8.019e-4,-8.02e-4 C 5.457909,40.985815 4.9128121,40.018292 4.4594654,39.009953 4.1779841,38.384332 3.9315125,37.742377 3.7231059,37.088177 c -0.04274,-0.133696 -0.083892,-0.267392 -0.1233922,-0.401089 -3.127e-4,-8.01e-4 -5.212e-4,-0.0024 -8.019e-4,-0.0032 -9.62e-5,0 -2.004e-4,-8.02e-4 -3.127e-4,-8.02e-4 -0.03007,-0.102054 -0.059258,-0.205135 -0.087572,-0.308216 -0.00858,-0.03167 -0.01716,-0.06327 -0.0255,-0.09492 C 3.3402919,35.740053 3.2213982,35.191997 3.1291348,34.640878 3.1187908,34.579618 3.1089278,34.51739 3.0992248,34.456151 2.9603165,33.574364 2.8912271,32.684405 2.8955091,31.795473 c 0.00321,-0.617458 0.053244,-1.240023 0.1462536,-1.8636 0.017721,0.13166 0.036646,0.263311 0.057494,0.394971 0.095728,0.614395 0.2247328,1.223689 0.3862941,1.824813 0.9747643,3.635346 3.1091246,6.982883 6.0458705,9.301666 4.2323957,3.342429 9.7358237,4.514069 15.1895507,4.514069 0.706867,0 1.412403,-0.0194 2.114771,-0.05717 0.437935,-0.02245 0.873833,-0.05204 1.308095,-0.08878 0.220747,-0.01836 0.444766,-0.03777 0.671752,-0.05918 -0.636959,1.565584 -1.311358,2.995427 -1.979847,4.277293 h -1.04e-4 c -0.70196,0.03672 -1.408313,0.05613 -2.114763,0.05613 m 8.247492,-0.717476 c 0.363128,-0.81443 0.706458,-1.639067 1.029981,-2.472887 0.248308,-0.640936 0.483963,-1.28391 0.706859,-1.929938 1.019982,-0.170438 2.06507,-0.361292 3.125659,-0.572553 0.7432,-0.14696 1.494145,-0.304135 2.249181,-0.469473 -0.7039,1.690099 -1.472816,3.226086 -2.249181,4.598788 0.7432,-0.146968 1.494049,-0.304143 2.249084,-0.470499 -0.327003,0.07249 -0.653077,0.141867 -0.978244,0.211261 -0.425682,0.08879 -0.849432,0.175546 -1.27084,0.259238 -0.57653,0.114298 -1.148466,0.222487 -1.714387,0.325568 -1.074983,0.195945 -2.12793,0.369447 -3.148112,0.520495 m 7.112802,-1.316562 c 1.04e-4,0 2.09e-4,0 2.89e-4,0 -9.6e-5,0 -2.01e-4,0 -2.89e-4,0 m 4.34894,-1.048144 c 0.67553,-1.518642 1.267271,-3.056666 1.774504,-4.613069 0.758812,-0.214324 1.51262,-0.436812 2.258161,-0.666444 0.83596,-0.258211 1.661617,-0.52663 2.471764,-0.80423 -0.742373,1.819714 -1.59304,3.466944 -2.471764,4.932519 2.525859,-0.779733 4.955477,-1.65132 7.155767,-2.600465 0.528362,-1.259413 0.989871,-2.537189 1.382388,-3.828244 0.107467,-0.354139 0.209938,-0.709304 0.306997,-1.065496 3.842726,-1.832976 6.773145,-3.919064 7.937031,-6.1664 0.117474,0.305153 0.216369,0.615413 0.291681,0.926692 1.04e-4,0 2.08e-4,0 2.08e-4,8.02e-4 8.02e-4,0.004 0.0024,0.0092 0.0032,0.01427 5.85e-4,0.0024 8.02e-4,0.004 0.0016,0.0072 5.77e-4,0.0024 8.01e-4,0.004 0.0016,0.0064 8.02e-4,0.0032 0.0016,0.0064 0.0024,0.01018 2e-4,0 2.89e-4,8.02e-4 2.89e-4,8.02e-4 0.197172,0.838927 0.221669,1.687035 -0.02382,2.489221 -5.77e-4,0.0024 -8.02e-4,0.004 -0.0016,0.0064 -5.77e-4,0.0024 -0.0016,0.004 -0.0024,0.0064 -8.02e-4,0.0032 -0.0016,0.0064 -0.0032,0.0091 -5.85e-4,8.02e-4 -8.02e-4,0.0024 -0.0016,0.004 -0.0611,0.194936 -0.138186,0.386808 -0.232695,0.575616 -1.298697,2.594347 -4.95558,4.975379 -9.663462,7.003291 -2.200291,0.949152 -4.629908,1.82074 -7.155767,2.600473 -1.07499,0.332705 -2.167229,0.648073 -3.2665,0.946081 -0.255052,0.06936 -0.5104,0.137786 -0.765957,0.205143 v 0"
       style="fill:#078ce4;fill-opacity:1;fill-rule:nonzero;stroke:none;stroke-width:0.0102059"
       id="path114" />
    <path
       d="m 26.834612,50.038571 v 0 c 0.668489,-1.281857 1.342896,-2.7117 1.979848,-4.277292 1.295537,-0.12247 2.690074,-0.294945 4.152681,-0.512333 0.56929,-0.08471 1.148979,-0.176564 1.736944,-0.274537 -0.222896,0.646029 -0.45855,1.289002 -0.706858,1.929931 -0.323532,0.833827 -0.666854,1.658465 -1.029982,2.472895 0,0 0,0 -1.04e-4,0 -1.718982,0.256166 -3.343864,0.449057 -4.824434,0.572553 -0.434262,0.03568 -0.870152,0.06527 -1.308095,0.08878"
       style="fill:#78c5e8;fill-opacity:1;fill-rule:nonzero;stroke:none;stroke-width:0.0102059"
       id="path116" />
    <path
       d="m 37.829745,48.531163 c 0.776365,-1.372693 1.54528,-2.90868 2.24918,-4.598779 1.442505,-0.317405 2.900213,-0.667471 4.350062,-1.04917 0.593474,-0.156149 1.185417,-0.317405 1.774504,-0.483754 -0.50724,1.556395 -1.098974,3.094426 -1.774504,4.613061 v 0 c -0.314646,0.08267 -0.629806,0.163301 -0.944966,0.243921 -9.7e-5,0 1.04e-4,0 0,0 -1.136422,0.287809 -2.274792,0.556227 -3.403669,0.804231 -1.04e-4,0 -2.08e-4,0 -2.88e-4,0 -2.89e-4,0 -8.02e-4,0 -8.02e-4,0 -0.755035,0.166356 -1.505885,0.323531 -2.249084,0.47049"
       style="fill:#78c5e8;fill-opacity:1;fill-rule:nonzero;stroke:none;stroke-width:0.0102059"
       id="path118" />
    <path
       d="m 48.461645,45.861296 c 0.878732,-1.465566 1.72939,-3.112797 2.471772,-4.93251 1.637432,-0.561327 3.212005,-1.161432 4.684002,-1.796243 0.579898,-0.25004 1.143871,-0.505188 1.689377,-0.765443 -0.09705,0.356191 -0.199522,0.711357 -0.306989,1.065496 -0.392524,1.291047 -0.854034,2.568831 -1.382388,3.828236 -2.200298,0.949152 -4.629908,1.82074 -7.155774,2.600464"
       style="fill:#78c5e8;fill-opacity:1;fill-rule:nonzero;stroke:none;stroke-width:0.0102059"
       id="path120" />
    <path
       d="m 53.269648,24.793249 c -0.0895,-0.01123 -0.183805,-0.0255 -0.282603,-0.04386 -0.174929,-0.03264 -0.364043,-0.07554 -0.566219,-0.129615 -0.203715,-0.051 -0.424463,-0.106143 -0.655322,-0.174527 -0.464068,-0.131652 -0.969873,-0.314334 -1.535682,-0.497025 -0.280968,-0.09492 -0.572144,-0.199017 -0.872606,-0.31026 -0.149004,-0.05717 -0.306075,-0.106144 -0.462945,-0.162267 -0.157368,-0.05413 -0.316892,-0.111252 -0.478654,-0.169428 -0.06583,-0.02454 -0.13206,-0.04899 -0.198808,-0.07345 -0.171152,-1.606416 -0.421504,-3.148521 -0.733497,-4.625322 0.172274,0.08574 0.341894,0.171465 0.50886,0.258211 0.365678,0.196972 0.720234,0.392926 1.062233,0.586843 0.08532,0.04795 0.170133,0.09594 0.254129,0.143904 0.08348,0.04899 0.164721,0.101036 0.245959,0.15104 0.161457,0.102063 0.320468,0.20208 0.476721,0.30108 0.155635,0.099 0.307911,0.197998 0.456715,0.294952 0.148394,0.09899 0.295666,0.191872 0.433957,0.293927 0.278723,0.201061 0.543357,0.397007 0.7931,0.58786 0.459264,0.341895 0.853112,0.693997 1.196434,1.015484 0.148803,0.826682 0.269646,1.678872 0.358228,2.552505 M 42.675003,21.285522 c -0.335062,-0.11328 -0.67431,-0.225551 -1.017327,-0.338831 -1.655298,-0.53173 -3.242621,-1.00732 -4.698597,-1.441077 -0.227796,-1.44107 -0.508459,-2.828053 -0.830555,-4.159923 0.04458,0.0032 0.0893,0.0064 0.134001,0.01123 0.09614,0.01018 0.193099,0.02141 0.290663,0.03167 0.390375,0.0449 0.792081,0.09492 1.203995,0.151049 1.18868,0.17962 2.454516,0.438857 3.756284,0.791978 0.466201,1.551294 0.864435,3.204651 1.161536,4.953944 m -11.34713,-3.486333 c -0.190445,-0.06944 -0.369254,-0.141868 -0.53622,-0.209225 -0.195144,-0.07554 -0.373536,-0.151049 -0.534079,-0.227587 -0.641955,-0.307206 -0.998235,-0.620521 -0.983136,-0.922619 0.01524,-0.302097 0.402628,-0.5654 1.105918,-0.780751 0.126143,-0.03777 0.262389,-0.07554 0.408434,-0.111244 0.193813,0.731765 0.374354,1.481901 0.539083,2.251426"
       style="fill:#59b9f8;fill-opacity:1;fill-rule:nonzero;stroke:none;stroke-width:0.0102059"
       id="path122" />
    <path
       d="m 36.959079,19.505565 c -0.01836,-0.0064 -0.03689,-0.01123 -0.05509,-0.01636 -0.369142,-0.103072 -0.728902,-0.208198 -1.078455,-0.313315 -0.08736,-0.02654 -0.174118,-0.05308 -0.260255,-0.07963 -0.08624,-0.02454 -0.172475,-0.04691 -0.257698,-0.07145 -0.170639,-0.04795 -0.338527,-0.09594 -0.503656,-0.142886 -0.165138,-0.04795 -0.327509,-0.09593 -0.48693,-0.143904 -0.159516,-0.04691 -0.315464,-0.100017 -0.470081,-0.140841 -0.308425,-0.08675 -0.604604,-0.174519 -0.887713,-0.262292 -0.565096,-0.184728 -1.081718,-0.33475 -1.53476,-0.500088 -0.03256,-0.01227 -0.06471,-0.0235 -0.09655,-0.03568 -0.164728,-0.769517 -0.34527,-1.519653 -0.539083,-2.251418 0.05749,-0.01331 0.116352,-0.02758 0.176773,-0.04082 0.213811,-0.0449 0.445689,-0.07858 0.695328,-0.113289 0.498965,-0.06431 1.069987,-0.12757 1.697444,-0.134715 0.264433,-0.0064 0.539588,-0.0092 0.824838,-0.0092 0.05381,0 0.107876,0 0.162379,0 0.01235,0 0.02478,0 0.03713,0 0.16003,0 0.321487,0.01018 0.486616,0.01732 0.177783,0.0092 0.358943,0.01836 0.543157,0.02959 0.184318,0.01227 0.371804,0.02454 0.562241,0.03777 0.051,0.004 0.102367,0.0072 0.153807,0.01123 0.322096,1.33187 0.602759,2.718853 0.830555,4.15993"
       style="fill:#abe2fc;fill-opacity:1;fill-rule:nonzero;stroke:none;stroke-width:0.0102059"
       id="path124" />
    <path
       d="m 48.216809,23.232765 c -0.09655,-0.03472 -0.194117,-0.0704 -0.292507,-0.107162 -0.08317,-0.03063 -0.16594,-0.06327 -0.25065,-0.0939 -0.08501,-0.02855 -0.170846,-0.05814 -0.257192,-0.08878 -0.344757,-0.119415 -0.697164,-0.246993 -1.056315,-0.380689 -1.15092,-0.405171 -2.386549,-0.839946 -3.685142,-1.276758 -0.297101,-1.749293 -0.695335,-3.40265 -1.161536,-4.953945 0.495493,0.134723 0.996198,0.282701 1.499758,0.444975 1.616407,0.529693 3.122292,1.161433 4.470087,1.83094 0.311993,1.476801 0.562345,3.018906 0.733497,4.625321"
       style="fill:#abe2fc;fill-opacity:1;fill-rule:nonzero;stroke:none;stroke-width:0.0102059"
       id="path126" />
    <path
       d="m 53.650329,24.819783 c -0.11502,0 -0.242085,-0.0082 -0.380681,-0.02654 -0.08858,-0.873624 -0.209425,-1.725814 -0.358228,-2.552496 0.03296,0.03063 0.06551,0.06126 0.09757,0.09185 0.181969,0.17452 0.349247,0.337813 0.495902,0.500088 0.145235,0.16432 0.273318,0.320468 0.383848,0.467436 0.442217,0.586834 0.601124,1.027728 0.43569,1.280839 -0.105936,0.162275 -0.337613,0.238821 -0.674103,0.238821"
       style="fill:#abe2fc;fill-opacity:1;fill-rule:nonzero;stroke:none;stroke-width:0.0102059"
       id="path128" />
    <path
       d="M 10.911564,36.972972 C 9.8714793,38.431394 8.1135185,39.33666 6.32248,39.33666 H 6.31446 C 5.6816956,39.335858 5.0527068,39.221335 4.458006,39.009055 4.1765247,38.383434 3.9300531,37.741479 3.7216545,37.087279 c 0.7401283,0.563364 1.6608064,0.88894 2.5947473,0.890977 h 0.00642 c 1.3590217,0 2.6926238,-0.686852 3.4816425,-1.794198 0.2173867,-0.306179 0.6417457,-0.3766 0.9479247,-0.159212 0.305057,0.218406 0.376191,0.642973 0.158908,0.948126"
       style="fill:#262626;fill-opacity:1;fill-rule:nonzero;stroke:none;stroke-width:0.0102059"
       id="path130" />
    <path
       d="m 19.28908,30.296268 c -0.675626,3.025033 -3.735259,4.935582 -6.833767,4.266075 -3.0986195,-0.669508 -5.0628463,-3.663924 -4.3872125,-6.688957 0.6755293,-3.025024 3.7351535,-4.934555 6.8337655,-4.266066 3.098621,0.669508 5.062847,3.663916 4.387214,6.688948"
       style="fill:#ffffff;fill-opacity:1;fill-rule:nonzero;stroke:none;stroke-width:0.0102059"
       id="path132" />
    <path
       d="M 17.436201,29.933966 C 16.978163,31.985349 14.90432,33.279459 12.803943,32.826313 10.703566,32.372156 9.3721055,30.3422 9.8300473,28.291828 10.28798,26.241463 12.362031,24.947353 14.4624,25.4005 c 2.100281,0.453138 3.431742,2.483094 2.973801,4.533466"
       style="fill:#262626;fill-opacity:1;fill-rule:nonzero;stroke:none;stroke-width:0.0102059"
       id="path134" />
    <path
       d="m 18.012226,27.869305 c -0.213507,0.956297 -1.180725,1.560484 -2.160189,1.349223 -0.979351,-0.212288 -1.600281,-1.158369 -1.386774,-2.114667 0.213611,-0.956289 1.180725,-1.560484 2.16018,-1.348196 0.979464,0.211261 1.600386,1.157351 1.386783,2.11364"
       style="fill:#ffffff;fill-opacity:1;fill-rule:nonzero;stroke:none;stroke-width:0.0102059"
       id="path136" />
  </g>
</svg>
