<?xml version="1.0" encoding="UTF-8" standalone="no"?>
<svg
   xmlns:dc="http://purl.org/dc/elements/1.1/"
   xmlns:cc="http://creativecommons.org/ns#"
   xmlns:rdf="http://www.w3.org/1999/02/22-rdf-syntax-ns#"
   xmlns:svg="http://www.w3.org/2000/svg"
   xmlns="http://www.w3.org/2000/svg"
   xmlns:sodipodi="http://sodipodi.sourceforge.net/DTD/sodipodi-0.dtd"
   xmlns:inkscape="http://www.inkscape.org/namespaces/inkscape"
   width="1080"
   height="720"
   viewBox="0 0 285.74999 190.50001"
   version="1.1"
   id="svg1864"
   sodipodi:docname="underwater_foreground.svg"
   inkscape:version="1.0.2-2 (e86c870879, 2021-01-15)">
  <defs
     id="defs1858">
    <clipPath
       clipPathUnits="userSpaceOnUse"
       id="clipPath20">
      <path
         d="M 12800,0 H 5300 v 5000 h 7500 z"
         id="path18" />
    </clipPath>
  </defs>
  <sodipodi:namedview
     id="base"
     pagecolor="#ffffff"
     bordercolor="#666666"
     borderopacity="1.0"
     inkscape:pageopacity="0.0"
     inkscape:pageshadow="2"
     inkscape:zoom="0.35"
     inkscape:cx="400"
     inkscape:cy="560"
     inkscape:document-units="px"
     inkscape:current-layer="g16"
     inkscape:document-rotation="0"
     showgrid="false"
     units="px"
     inkscape:window-width="1267"
     inkscape:window-height="1032"
     inkscape:window-x="104"
     inkscape:window-y="0"
     inkscape:window-maximized="0" />
  <metadata
     id="metadata1861">
    <rdf:RDF>
      <cc:Work
         rdf:about="">
        <dc:format>image/svg+xml</dc:format>
        <dc:type
           rdf:resource="http://purl.org/dc/dcmitype/StillImage" />
        <dc:title></dc:title>
      </cc:Work>
    </rdf:RDF>
  </metadata>
  <g
     inkscape:label="Layer 1"
     inkscape:groupmode="layer"
     id="layer1">
    <g
       id="g16"
       clip-path="url(#clipPath20)"
       transform="matrix(0.0381,0,0,-0.0381,-201.93,190.5)">
      <path
         d="m 8019.16,270.992 c -52.21,15.137 -115.07,-28.91 -153.26,-58.672 -21.94,-17.101 -43.65,-35.211 -64.32,-53.8 -10.04,-9.028 -19.28,-18.989 -28.87,-28.469 -1.73,5.847 -3.26,11.75 -4.34,17.769 -14.81,64.852 10.81,128.078 -44.75,179.571 -32.1,29.757 -71.79,32.941 -110.61,16.3 -40.87,-17.511 -71.33,-61.281 -97.47,-95.171 -14.27,-18.5 -40.94,-65.278 -68.07,-82.641 -15.6,50.062 -20.75,116.043 -65.97,145.019 -60.62,38.844 -108.67,19.172 -155.41,-31.878 -22.41,-24.469 -40.84,-52.75 -60.16,-79.629 -9.55,-13.282 -18.6,-26.621 -27.55,-40.332 -4.92,-7.668 -10.35,-14.977 -16.28,-21.911 -0.22,1.582 -0.69,3.352 -1.8,5.481 -31.99,61.59 -42.81,137.23 -130.57,124.363 -32.09,-4.703 -62.97,-30.023 -89.85,-46.582 -10.63,-6.539 -20.96,-13.57 -31.55,-20.199 -1.01,-0.621 -2.08,-1.121 -3.1,-1.711 0.04,0.699 0.1,1.371 0.12,2.18 1.42,53.422 23.31,109.129 29.58,162.949 5.61,48.172 5.51,96.91 -1.33,144.871 -8.75,61.359 -50.42,100.992 -113.12,86.789 -33.72,-7.637 -62.72,-31.387 -86.11,-55.539 -18.88,-19.5 -44.36,-63.34 -72.7,-82.262 -6.12,47.731 2.65,97.492 6.23,144.981 3.61,47.742 5.93,118.582 -27.69,157.742 -69.41,80.828 -162.85,5.609 -220.21,-49.852 -55.17,-53.347 -88.14,-123.488 -136.69,-182.597 -10.71,-13.043 -22.49,-26.282 -36.26,-36.18 -10.49,-7.543 -8.6,-7.09 -10.1,10.977 -2.84,34.312 11.71,67.91 8.52,102.39 -7.09,76.75 -103.13,60.473 -147.04,27.141 -31.19,-23.668 -57.81,-52.891 -86.97,-78.93 -10.78,-9.629 -27.08,-25.508 -42.37,-27.441 -20.34,-2.539 1.28,72.422 3.86,81.332 21.59,74.609 36.21,188.789 -8.05,258.57 -25.3,39.879 -70.43,29.418 -102.18,4.598 -65.87,-51.489 -111.54,-133.047 -154.53,-203.168 -23.98,-39.129 -47.04,-78.832 -70.75,-118.121 -5.81,-9.629 -15.6,-27.16 -24.43,-40.75 -25.78,57.07 -4.76,141.312 5.99,196.082 13.11,66.777 32.12,132.91 38.9,200.777 10.94,109.531 -42.83,223.301 -167.29,177.361 -149.29,-55.11 -209.01,-226.681 -240.81,-367.369 -39.94,-176.722 -34.63,-359.66 -32.98,-540.32 -5.96,-9.531 -7.04,-22.07 0.22,-31.68 0.13,-21.062 0.19,-42.07 0.05,-63.031 -0.02,-3.3086 0.96,-5.9297 2.52,-7.9102 -0.7,-16.0507 2.3,-31.5195 9.37,-46.1796 24.49,-50.7305 66.12,-91.6211 107.9,-128.3902 99.68,-87.7 206.78,-111.239 336.79,-90.7 68.11,10.762 134.52,30.371 202.66,41.211 78.88,12.571 161.41,6.891 240.38,-1.679 147.43,-16.012 291.51,-54.282 438.92,-71.133 158.03,-18.047 312.41,10.461 468.72,31.34 77.72,10.371 155.67,22.953 233.87,29.05 81.01,6.321 162.85,-3.418 243.3,-12.089 194.91,-20.989 504.35,-56.129 591.79,174.81203 28.93,76.41017 79.62,239.65997 -34.15,272.65997"
         style="fill:#db3a21;fill-opacity:1;fill-rule:nonzero;stroke:none"
         id="path774" />
      <path
         d="m 7115.94,165.801 c -71.84,47.031 -165.64,25.371 -246.49,32.25 -107.82,9.16 -36.11,121.508 -71.73,186.191 -19.03,34.547 -54.83,46.43 -92.82,42.738 -52.38,-5.089 -89.31,-50.421 -129.88,-78.519 -12.56,-8.699 -19.11,-18.309 -19.25,-7.891 -0.13,9.95 1.34,20.149 2.12,30.051 1.91,24.09 0.7,47.231 -5.47,70.57 -10.38,39.2 -38.47,65.258 -78.67,68.36 -37.74,2.91 -86.01,-27.11 -112.84,-50.449 -17.32,-15.063 -31.77,-32.461 -46.41,-50.043 -6.91,-8.309 -14.01,-16.348 -21.43,-24.2 -10.88,-11.519 -6.1,8.813 -10.16,22.871 -9.44,32.762 -0.73,74.321 -25.98,101.489 -29.94,32.23 -80.32,31.191 -120.6,24.883 -49.73,-7.782 -94.69,-43.922 -132.95,-73.961 -21.67,-17.02 -42.19,-35.5 -63.07,-53.442 -5.93,-3.988 -11.84,-7.969 -17.76,-11.949 -0.87,-0.129 -1.56,-0.32 -2.34,-0.469 3.05,8.789 6.75,17.461 10.08,25.891 34.95,88.437 193.11,303.109 35.51,358.93 -94.78,33.578 -181.35,-76.961 -236.68,-136.012 -26.99,-28.789 -51.05,-59.418 -76.17,-89.871 -12.55,-15.188 -43.17,-58.02 -70.96,-74.778 7.49,20.368 17.31,40.27 25.57,59.489 20.4,47.449 40.9,94.84 59.55,143.031 28.83,74.41 75.79,184.789 36.01,263.199 -48.78,96.15 -148.86,-8.219 -184.58,-55.211 -28.63,-37.64 -64.64,-79.668 -82.22,-123.89 -23.98,-60.297 -26.19,-148.829 -74.05,-197.778 -31.8,47.93 -17.35,134.059 -14.94,185.551 4.66,99.469 -0.81,201.938 -13.18,300.648 -5.32,42.4 -12.12,120.24 -66.32,128.68 -63.41,9.86 -122.97,-89.87 -149.69,-134 -46.43,-76.68 -65.58,-166.758 -82.16,-253.73 -17.47,-91.66 -26.27,-184.981 -29.89,-278.141 -6.93,-179.309 10.09,-359.019 67.5,-529.1992 -4.48,-25.8007 -14.66,-51.6992 -14.22,-78.6914 0.44,-28.3784 8.93,-56.1684 23.36,-80.4494 29.04,-48.859 85.17,-74.359 137.55,-89.32 140.63,-40.129 299.29,-21.379 442.12,-4.68 219.95,25.731 438.59,46.973 659.97,58.832 157.53,8.449 314.74,18.719 471.1,40.27 68.89,9.488 136.97,23.39 205.42,35.39 45.83,8.028 94.51,23.161 130.97,53.1801 81.19,66.8398 75.75,185.4689 -13.92,244.1799"
         style="fill:#ec621b;fill-opacity:1;fill-rule:nonzero;stroke:none"
         id="path776" />
      <path
         d="m 9851.26,88.332 c 87.44,-230.941 396.84,-195.801 591.74,-174.8125 80.5,8.6719 162.3,18.4102 243.3,12.0899 78.3,-6.0977 156.2,-18.6797 233.9,-29.0504 156.3,-20.879 310.7,-49.387 468.7,-31.34 147.4,16.851 291.5,55.1208 439,71.1326 78.9,8.5703 161.5,14.25 240.3,1.6796 68.2,-10.8398 134.6,-30.4492 202.7,-41.2112 130,-20.539 237.1,3 336.8,90.6995 41.8,36.7696 83.4,77.6602 107.9,128.3905 7.1,14.66 10.1,30.129 9.4,46.18 1.5,1.98 2.5,4.601 2.5,7.91 -0.2,20.961 -0.1,41.969 0,63.031 7.3,9.61 6.2,22.149 0.3,31.68 1.6,180.66 6.9,363.598 -33,540.32 -31.8,140.688 -91.5,312.259 -240.8,367.369 -124.5,45.94 -178.3,-67.83 -167.3,-177.361 6.7,-67.867 25.8,-134 38.9,-200.777 10.7,-54.77 31.7,-139.012 6,-196.082 -8.9,13.59 -18.7,31.121 -24.5,40.75 -23.7,39.289 -46.7,78.992 -70.7,118.121 -43,70.121 -88.7,151.679 -154.6,203.168 -31.7,24.82 -76.8,35.281 -102.1,-4.598 -44.3,-69.781 -29.7,-183.961 -8.1,-258.57 2.6,-8.91 24.2,-83.871 3.9,-81.332 -15.3,1.933 -31.6,17.812 -42.4,27.441 -29.1,26.039 -55.8,55.262 -87,78.93 -43.9,33.332 -139.9,49.609 -147,-27.141 -3.2,-34.48 11.4,-68.078 8.5,-102.39 -1.5,-18.067 0.4,-18.52 -10.1,-10.977 -13.7,9.898 -25.5,23.137 -36.2,36.18 -48.6,59.109 -81.6,129.25 -136.7,182.597 -57.4,55.461 -150.8,130.68 -220.2,49.852 -33.7,-39.16 -31.3,-110 -27.7,-157.742 3.6,-47.489 12.3,-97.25 6.2,-144.981 -28.3,18.922 -53.8,62.762 -72.7,82.262 -23.4,24.152 -52.4,47.902 -86.1,55.539 -62.7,14.203 -104.4,-25.43 -113.1,-86.789 -6.9,-47.961 -7,-96.699 -1.4,-144.871 6.3,-53.82 28.2,-109.527 29.6,-162.949 0,-0.809 0.1,-1.481 0.1,-2.18 -1,0.59 -2.1,1.09 -3.1,1.711 -10.5,6.629 -20.9,13.66 -31.5,20.199 -26.9,16.559 -57.8,41.879 -89.9,46.582 -87.7,12.867 -98.5,-62.773 -130.5,-124.363 -1.1,-2.129 -1.6,-3.899 -1.8,-5.481 -6,6.934 -11.4,14.243 -16.3,21.911 -9,13.711 -18,27.05 -27.6,40.332 -19.3,26.879 -37.7,55.16 -60.1,79.629 -46.8,51.05 -94.8,70.722 -155.4,31.878 -45.2,-28.976 -50.4,-94.957 -66,-145.019 -27.1,17.363 -53.8,64.141 -68.1,82.641 -26.1,33.89 -56.6,77.66 -97.4,95.171 -38.9,16.641 -78.6,13.457 -110.7,-16.3 -55.5,-51.493 -29.9,-114.719 -44.7,-179.571 -1.1,-6.019 -2.6,-11.922 -4.3,-17.769 -9.6,9.48 -18.9,19.441 -28.9,28.469 -20.7,18.589 -42.4,36.699 -64.3,53.8 -38.2,29.762 -101.08,73.809 -153.29,58.672 -113.77,-33 -63.08,-196.25 -34.15,-272.66"
         style="fill:#db3a21;fill-opacity:1;fill-rule:nonzero;stroke:none"
         id="path778" />
      <path
         d="m 10774.7,11.6211 c 36.5,-30.0195 85.2,-45.1524 131,-53.1797 68.4,-12 136.5,-25.9023 205.4,-35.3906 156.4,-21.5508 313.6,-31.8208 471.1,-40.2698 221.4,-11.859 440,-33.101 660,-58.832 142.8,-16.699 301.5,-35.449 442.1,4.68 52.4,14.961 108.5,40.461 137.5,89.3202 14.5,24.2813 23,52.0703 23.4,80.44924 0.4,26.99216 -9.7,52.89066 -14.2,78.69136 57.4,170.1802 74.4,349.8902 67.5,529.1992 -3.6,93.16 -12.4,186.481 -29.9,278.141 -16.6,86.968 -35.7,177.05 -82.2,253.73 -26.7,44.13 -86.3,143.86 -149.7,134 -54.2,-8.44 -61,-86.28 -66.3,-128.68 -12.4,-98.71 -17.8,-201.179 -13.2,-300.648 2.4,-51.492 16.9,-137.621 -14.9,-185.551 -47.9,48.949 -50.1,137.481 -74,197.778 -17.6,44.222 -53.6,86.25 -82.3,123.89 -35.7,46.991 -135.8,151.361 -184.5,55.211 -39.8,-78.41 7.1,-188.789 36,-263.199 18.6,-48.191 39.1,-95.582 59.5,-143.031 8.3,-19.219 18.1,-39.121 25.6,-59.489 -27.8,16.758 -58.4,59.59 -71,74.778 -25.1,30.453 -49.2,61.082 -76.2,89.871 -55.3,59.051 -141.8,169.59 -236.6,136.012 -157.6,-55.821 0.5,-270.493 35.5,-358.93 3.3,-8.43 7,-17.102 10.1,-25.891 -0.8,0.149 -1.5,0.34 -2.4,0.469 -5.9,3.98 -11.8,7.961 -17.7,11.949 -20.9,17.942 -41.4,36.422 -63.1,53.442 -38.3,30.039 -83.2,66.179 -133,73.961 -40.2,6.308 -90.6,7.347 -120.6,-24.883 -25.2,-27.168 -16.5,-68.727 -25.9,-101.489 -4.1,-14.058 0.7,-34.39 -10.2,-22.871 -7.4,7.852 -14.5,15.891 -21.4,24.2 -14.7,17.582 -29.1,34.98 -46.4,50.043 -26.9,23.339 -75.1,53.359 -112.9,50.449 -40.2,-3.102 -68.3,-29.16 -78.7,-68.36 -6.1,-23.339 -7.3,-46.48 -5.4,-70.57 0.8,-9.902 2.2,-20.101 2.1,-30.051 -0.1,-10.418 -6.7,-0.808 -19.2,7.891 -40.6,28.098 -77.5,73.43 -129.9,78.519 -38,3.692 -73.8,-8.191 -92.9,-42.738 -35.6,-64.683 36.1,-177.031 -71.7,-186.191 -80.8,-6.879 -174.6,14.781 -246.5,-32.25 -89.6,-58.711 -95.1,-177.3401 -13.9,-244.1799"
         style="fill:#ec621b;fill-opacity:1;fill-rule:nonzero;stroke:none"
         id="path780" />
    </g>
  </g>
</svg>
